%TF.GenerationSoftware,KiCad,Pcbnew,6.0.0*%
%TF.CreationDate,2023-02-11T22:57:16+01:00*%
%TF.ProjectId,cowstick-ums,636f7773-7469-4636-9b2d-756d732e6b69,1*%
%TF.SameCoordinates,Original*%
%TF.FileFunction,Copper,L3,Inr*%
%TF.FilePolarity,Positive*%
%FSLAX46Y46*%
G04 Gerber Fmt 4.6, Leading zero omitted, Abs format (unit mm)*
G04 Created by KiCad (PCBNEW 6.0.0) date 2023-02-11 22:57:16*
%MOMM*%
%LPD*%
G01*
G04 APERTURE LIST*
%TA.AperFunction,ComponentPad*%
%ADD10C,1.524000*%
%TD*%
%TA.AperFunction,ViaPad*%
%ADD11C,0.711200*%
%TD*%
%TA.AperFunction,Conductor*%
%ADD12C,0.406400*%
%TD*%
%TA.AperFunction,Conductor*%
%ADD13C,0.304800*%
%TD*%
G04 APERTURE END LIST*
D10*
%TO.N,GND*%
%TO.C,TP9*%
X168500000Y-103000000D03*
%TD*%
%TO.N,UART_RX*%
%TO.C,TP8*%
X151540000Y-112500000D03*
%TD*%
%TO.N,GND*%
%TO.C,TP6*%
X146460000Y-112500000D03*
%TD*%
%TO.N,UART_TX*%
%TO.C,TP7*%
X149000000Y-112500000D03*
%TD*%
D11*
%TO.N,+VBus*%
X132300000Y-108500000D03*
X128750000Y-109000000D03*
X130600000Y-110000000D03*
X134750000Y-105000000D03*
X131480000Y-110000000D03*
X133250000Y-108500000D03*
X127750000Y-110000000D03*
%TO.N,GND*%
X170400000Y-102000000D03*
X144000000Y-101100000D03*
X132300000Y-105000000D03*
X132300000Y-103250000D03*
X160000000Y-104000000D03*
X162500000Y-113900000D03*
X126600000Y-113900000D03*
X164500000Y-113900000D03*
X140000000Y-109750000D03*
X168500000Y-96100000D03*
X148500000Y-113900000D03*
X132750000Y-112000000D03*
X170400000Y-112000000D03*
X138500000Y-96100000D03*
X150500000Y-113900000D03*
X170400000Y-96100000D03*
X128500000Y-113900000D03*
X132500000Y-96100000D03*
X170400000Y-110000000D03*
X154500000Y-113900000D03*
X170400000Y-98000000D03*
X138800000Y-113900000D03*
X170400000Y-113900000D03*
X160500000Y-113900000D03*
X170400000Y-100000000D03*
X168750000Y-99000000D03*
X144500000Y-96100000D03*
X132300000Y-107000000D03*
X126600000Y-98000000D03*
X136500000Y-113900000D03*
X141500000Y-106250000D03*
X142500000Y-96100000D03*
X129150000Y-101500000D03*
X128250000Y-105000000D03*
X170400000Y-106000000D03*
X129150000Y-100000000D03*
X141000000Y-113900000D03*
X130600000Y-100000000D03*
X140500000Y-96100000D03*
X126600000Y-112000000D03*
X162100000Y-104000000D03*
X146500000Y-113900000D03*
X130500000Y-96100000D03*
X136500000Y-96100000D03*
X152500000Y-113900000D03*
X162500000Y-96100000D03*
X156500000Y-96100000D03*
X156900000Y-101400000D03*
X158500000Y-113900000D03*
X130500000Y-113900000D03*
X134500000Y-113900000D03*
X154500000Y-96100000D03*
X156500000Y-113900000D03*
X164500000Y-96100000D03*
X142000000Y-109750000D03*
X146500000Y-96100000D03*
X134500000Y-96100000D03*
X144750000Y-113900000D03*
X126600000Y-110000000D03*
X152500000Y-96100000D03*
X126600000Y-104000000D03*
X138500000Y-101100000D03*
X158500000Y-96100000D03*
X126600000Y-96100000D03*
X148500000Y-96100000D03*
X166500000Y-113900000D03*
X166500000Y-96100000D03*
X168500000Y-113900000D03*
X126600000Y-100000000D03*
X170400000Y-104000000D03*
X170400000Y-108000000D03*
X150500000Y-96100000D03*
X132500000Y-113900000D03*
X128500000Y-96100000D03*
X126600000Y-106000000D03*
X143000000Y-113900000D03*
X126600000Y-108000000D03*
X145300000Y-105400000D03*
X137750000Y-111000000D03*
X126600000Y-102000000D03*
X160500000Y-96100000D03*
%TO.N,+3.3V*%
X144000000Y-112250000D03*
X138750000Y-108750000D03*
X139000000Y-111750000D03*
X140500000Y-97250000D03*
X163300000Y-106500000D03*
X142250000Y-103961100D03*
X144500000Y-112900000D03*
X143500000Y-112900000D03*
X144000000Y-111000000D03*
X168750000Y-97470000D03*
X156750000Y-104000000D03*
%TO.N,SPI2_CS*%
X144900000Y-99750000D03*
X156900000Y-97600000D03*
%TO.N,SWD_CLK*%
X149000000Y-105750000D03*
%TO.N,SWD_IO*%
X151540000Y-105750000D03*
%TO.N,SPI2_MISO*%
X148000000Y-99000000D03*
X156900000Y-98860000D03*
%TO.N,SPI2_MOSI*%
X146500000Y-99750000D03*
X167250000Y-101400000D03*
%TO.N,SPI2_SCK*%
X167250000Y-100140000D03*
X145700000Y-99000000D03*
%TO.N,USB_DM*%
X140000000Y-106000000D03*
X151500000Y-103850000D03*
%TO.N,USB_DP*%
X140000000Y-104000000D03*
X151500000Y-102950000D03*
%TO.N,RST*%
X146460000Y-105750000D03*
%TO.N,SPI1_CS1*%
X147300000Y-110300000D03*
X157600000Y-111100000D03*
%TO.N,SPI1_SCK*%
X148100000Y-108100000D03*
X160140000Y-108100000D03*
X167640000Y-108100000D03*
%TO.N,SPI1_MISO*%
X158860000Y-110300000D03*
X148900000Y-110300000D03*
X166370000Y-110300000D03*
%TO.N,SPI1_MOSI*%
X168900000Y-107400000D03*
X149700000Y-107400000D03*
X161410000Y-107400000D03*
%TO.N,SPI1_CS2*%
X165100000Y-111100000D03*
X156390000Y-112510000D03*
%TD*%
D12*
%TO.N,+3.3V*%
X138750000Y-110220000D02*
X139510000Y-110980000D01*
D13*
X156750000Y-103310000D02*
X162590000Y-97470000D01*
D12*
X145160000Y-110670000D02*
X146540000Y-109290000D01*
X146540000Y-109290000D02*
X151460000Y-109290000D01*
X140500000Y-102211100D02*
X142250000Y-103961100D01*
X145160000Y-112240000D02*
X145160000Y-110670000D01*
X139510000Y-110980000D02*
X140570000Y-110980000D01*
X140570000Y-110980000D02*
X142490000Y-112900000D01*
X142730000Y-104441100D02*
X142730000Y-110980000D01*
X142250000Y-103961100D02*
X142730000Y-104441100D01*
D13*
X160690000Y-106500000D02*
X158190000Y-104000000D01*
D12*
X151460000Y-109290000D02*
X156750000Y-104000000D01*
X138750000Y-108750000D02*
X138750000Y-110220000D01*
D13*
X163300000Y-106500000D02*
X160690000Y-106500000D01*
D12*
X140500000Y-97250000D02*
X140500000Y-102211100D01*
D13*
X162590000Y-97470000D02*
X168750000Y-97470000D01*
X156750000Y-104000000D02*
X156750000Y-103310000D01*
X158190000Y-104000000D02*
X156750000Y-104000000D01*
D12*
X142490000Y-112900000D02*
X143500000Y-112900000D01*
X144000000Y-112250000D02*
X142730000Y-110980000D01*
X144500000Y-112900000D02*
X145160000Y-112240000D01*
%TD*%
%TA.AperFunction,Conductor*%
%TO.N,+3.3V*%
G36*
X128018116Y-95672402D02*
G01*
X128064609Y-95726058D01*
X128074713Y-95796332D01*
X128064050Y-95831949D01*
X128008719Y-95949800D01*
X127986309Y-96093724D01*
X127987473Y-96102626D01*
X127987473Y-96102629D01*
X127999096Y-96191514D01*
X128005195Y-96238152D01*
X128008809Y-96246365D01*
X128008810Y-96246369D01*
X128009237Y-96247339D01*
X128063859Y-96371474D01*
X128069634Y-96378344D01*
X128069635Y-96378346D01*
X128077140Y-96387274D01*
X128157583Y-96482973D01*
X128165060Y-96487950D01*
X128271361Y-96558710D01*
X128271363Y-96558711D01*
X128278834Y-96563684D01*
X128417864Y-96607121D01*
X128563498Y-96609790D01*
X128672504Y-96580071D01*
X128695363Y-96573839D01*
X128695364Y-96573839D01*
X128704026Y-96571477D01*
X128712359Y-96566361D01*
X128820502Y-96499961D01*
X128828154Y-96495263D01*
X128834774Y-96487950D01*
X128919873Y-96393934D01*
X128919874Y-96393933D01*
X128925901Y-96387274D01*
X128946174Y-96345432D01*
X128985495Y-96264272D01*
X128985495Y-96264271D01*
X128989410Y-96256191D01*
X129013576Y-96112552D01*
X129013729Y-96100000D01*
X128993080Y-95955813D01*
X128936126Y-95830551D01*
X128926140Y-95760261D01*
X128955740Y-95695729D01*
X129015530Y-95657445D01*
X129050827Y-95652400D01*
X129949995Y-95652400D01*
X130018116Y-95672402D01*
X130064609Y-95726058D01*
X130074713Y-95796332D01*
X130064050Y-95831949D01*
X130008719Y-95949800D01*
X129986309Y-96093724D01*
X129987473Y-96102626D01*
X129987473Y-96102629D01*
X129999096Y-96191514D01*
X130005195Y-96238152D01*
X130008809Y-96246365D01*
X130008810Y-96246369D01*
X130009237Y-96247339D01*
X130063859Y-96371474D01*
X130069634Y-96378344D01*
X130069635Y-96378346D01*
X130077140Y-96387274D01*
X130157583Y-96482973D01*
X130165060Y-96487950D01*
X130271361Y-96558710D01*
X130271363Y-96558711D01*
X130278834Y-96563684D01*
X130417864Y-96607121D01*
X130563498Y-96609790D01*
X130672504Y-96580071D01*
X130695363Y-96573839D01*
X130695364Y-96573839D01*
X130704026Y-96571477D01*
X130712359Y-96566361D01*
X130820502Y-96499961D01*
X130828154Y-96495263D01*
X130834774Y-96487950D01*
X130919873Y-96393934D01*
X130919874Y-96393933D01*
X130925901Y-96387274D01*
X130946174Y-96345432D01*
X130985495Y-96264272D01*
X130985495Y-96264271D01*
X130989410Y-96256191D01*
X131013576Y-96112552D01*
X131013729Y-96100000D01*
X130993080Y-95955813D01*
X130936126Y-95830551D01*
X130926140Y-95760261D01*
X130955740Y-95695729D01*
X131015530Y-95657445D01*
X131050827Y-95652400D01*
X131949995Y-95652400D01*
X132018116Y-95672402D01*
X132064609Y-95726058D01*
X132074713Y-95796332D01*
X132064050Y-95831949D01*
X132008719Y-95949800D01*
X131986309Y-96093724D01*
X131987473Y-96102626D01*
X131987473Y-96102629D01*
X131999096Y-96191514D01*
X132005195Y-96238152D01*
X132008809Y-96246365D01*
X132008810Y-96246369D01*
X132009237Y-96247339D01*
X132063859Y-96371474D01*
X132069634Y-96378344D01*
X132069635Y-96378346D01*
X132077140Y-96387274D01*
X132157583Y-96482973D01*
X132165060Y-96487950D01*
X132271361Y-96558710D01*
X132271363Y-96558711D01*
X132278834Y-96563684D01*
X132417864Y-96607121D01*
X132563498Y-96609790D01*
X132672504Y-96580071D01*
X132695363Y-96573839D01*
X132695364Y-96573839D01*
X132704026Y-96571477D01*
X132712359Y-96566361D01*
X132820502Y-96499961D01*
X132828154Y-96495263D01*
X132834774Y-96487950D01*
X132919873Y-96393934D01*
X132919874Y-96393933D01*
X132925901Y-96387274D01*
X132946174Y-96345432D01*
X132985495Y-96264272D01*
X132985495Y-96264271D01*
X132989410Y-96256191D01*
X133013576Y-96112552D01*
X133013729Y-96100000D01*
X132993080Y-95955813D01*
X132936126Y-95830551D01*
X132926140Y-95760261D01*
X132955740Y-95695729D01*
X133015530Y-95657445D01*
X133050827Y-95652400D01*
X133949995Y-95652400D01*
X134018116Y-95672402D01*
X134064609Y-95726058D01*
X134074713Y-95796332D01*
X134064050Y-95831949D01*
X134008719Y-95949800D01*
X133986309Y-96093724D01*
X133987473Y-96102626D01*
X133987473Y-96102629D01*
X133999096Y-96191514D01*
X134005195Y-96238152D01*
X134008809Y-96246365D01*
X134008810Y-96246369D01*
X134009237Y-96247339D01*
X134063859Y-96371474D01*
X134069634Y-96378344D01*
X134069635Y-96378346D01*
X134077140Y-96387274D01*
X134157583Y-96482973D01*
X134165060Y-96487950D01*
X134271361Y-96558710D01*
X134271363Y-96558711D01*
X134278834Y-96563684D01*
X134417864Y-96607121D01*
X134563498Y-96609790D01*
X134672504Y-96580071D01*
X134695363Y-96573839D01*
X134695364Y-96573839D01*
X134704026Y-96571477D01*
X134712359Y-96566361D01*
X134820502Y-96499961D01*
X134828154Y-96495263D01*
X134834774Y-96487950D01*
X134919873Y-96393934D01*
X134919874Y-96393933D01*
X134925901Y-96387274D01*
X134946174Y-96345432D01*
X134985495Y-96264272D01*
X134985495Y-96264271D01*
X134989410Y-96256191D01*
X135013576Y-96112552D01*
X135013729Y-96100000D01*
X134993080Y-95955813D01*
X134936126Y-95830551D01*
X134926140Y-95760261D01*
X134955740Y-95695729D01*
X135015530Y-95657445D01*
X135050827Y-95652400D01*
X135949995Y-95652400D01*
X136018116Y-95672402D01*
X136064609Y-95726058D01*
X136074713Y-95796332D01*
X136064050Y-95831949D01*
X136008719Y-95949800D01*
X135986309Y-96093724D01*
X135987473Y-96102626D01*
X135987473Y-96102629D01*
X135999096Y-96191514D01*
X136005195Y-96238152D01*
X136008809Y-96246365D01*
X136008810Y-96246369D01*
X136009237Y-96247339D01*
X136063859Y-96371474D01*
X136069634Y-96378344D01*
X136069635Y-96378346D01*
X136077140Y-96387274D01*
X136157583Y-96482973D01*
X136165060Y-96487950D01*
X136271361Y-96558710D01*
X136271363Y-96558711D01*
X136278834Y-96563684D01*
X136417864Y-96607121D01*
X136563498Y-96609790D01*
X136672504Y-96580071D01*
X136695363Y-96573839D01*
X136695364Y-96573839D01*
X136704026Y-96571477D01*
X136712359Y-96566361D01*
X136820502Y-96499961D01*
X136828154Y-96495263D01*
X136834774Y-96487950D01*
X136919873Y-96393934D01*
X136919874Y-96393933D01*
X136925901Y-96387274D01*
X136946174Y-96345432D01*
X136985495Y-96264272D01*
X136985495Y-96264271D01*
X136989410Y-96256191D01*
X137013576Y-96112552D01*
X137013729Y-96100000D01*
X136993080Y-95955813D01*
X136936126Y-95830551D01*
X136926140Y-95760261D01*
X136955740Y-95695729D01*
X137015530Y-95657445D01*
X137050827Y-95652400D01*
X137949995Y-95652400D01*
X138018116Y-95672402D01*
X138064609Y-95726058D01*
X138074713Y-95796332D01*
X138064050Y-95831949D01*
X138008719Y-95949800D01*
X137986309Y-96093724D01*
X137987473Y-96102626D01*
X137987473Y-96102629D01*
X137999096Y-96191514D01*
X138005195Y-96238152D01*
X138008809Y-96246365D01*
X138008810Y-96246369D01*
X138009237Y-96247339D01*
X138063859Y-96371474D01*
X138069634Y-96378344D01*
X138069635Y-96378346D01*
X138077140Y-96387274D01*
X138157583Y-96482973D01*
X138165060Y-96487950D01*
X138271361Y-96558710D01*
X138271363Y-96558711D01*
X138278834Y-96563684D01*
X138417864Y-96607121D01*
X138563498Y-96609790D01*
X138672504Y-96580071D01*
X138695363Y-96573839D01*
X138695364Y-96573839D01*
X138704026Y-96571477D01*
X138712359Y-96566361D01*
X138820502Y-96499961D01*
X138828154Y-96495263D01*
X138834774Y-96487950D01*
X138919873Y-96393934D01*
X138919874Y-96393933D01*
X138925901Y-96387274D01*
X138946174Y-96345432D01*
X138985495Y-96264272D01*
X138985495Y-96264271D01*
X138989410Y-96256191D01*
X139013576Y-96112552D01*
X139013729Y-96100000D01*
X138993080Y-95955813D01*
X138936126Y-95830551D01*
X138926140Y-95760261D01*
X138955740Y-95695729D01*
X139015530Y-95657445D01*
X139050827Y-95652400D01*
X139949995Y-95652400D01*
X140018116Y-95672402D01*
X140064609Y-95726058D01*
X140074713Y-95796332D01*
X140064050Y-95831949D01*
X140008719Y-95949800D01*
X139986309Y-96093724D01*
X139987473Y-96102626D01*
X139987473Y-96102629D01*
X139999096Y-96191514D01*
X140005195Y-96238152D01*
X140008809Y-96246365D01*
X140008810Y-96246369D01*
X140009237Y-96247339D01*
X140063859Y-96371474D01*
X140069634Y-96378344D01*
X140069635Y-96378346D01*
X140077140Y-96387274D01*
X140157583Y-96482973D01*
X140165060Y-96487950D01*
X140271361Y-96558710D01*
X140271363Y-96558711D01*
X140278834Y-96563684D01*
X140417864Y-96607121D01*
X140563498Y-96609790D01*
X140672504Y-96580071D01*
X140695363Y-96573839D01*
X140695364Y-96573839D01*
X140704026Y-96571477D01*
X140712359Y-96566361D01*
X140820502Y-96499961D01*
X140828154Y-96495263D01*
X140834774Y-96487950D01*
X140919873Y-96393934D01*
X140919874Y-96393933D01*
X140925901Y-96387274D01*
X140946174Y-96345432D01*
X140985495Y-96264272D01*
X140985495Y-96264271D01*
X140989410Y-96256191D01*
X141013576Y-96112552D01*
X141013729Y-96100000D01*
X140993080Y-95955813D01*
X140936126Y-95830551D01*
X140926140Y-95760261D01*
X140955740Y-95695729D01*
X141015530Y-95657445D01*
X141050827Y-95652400D01*
X141949995Y-95652400D01*
X142018116Y-95672402D01*
X142064609Y-95726058D01*
X142074713Y-95796332D01*
X142064050Y-95831949D01*
X142008719Y-95949800D01*
X141986309Y-96093724D01*
X141987473Y-96102626D01*
X141987473Y-96102629D01*
X141999096Y-96191514D01*
X142005195Y-96238152D01*
X142008809Y-96246365D01*
X142008810Y-96246369D01*
X142009237Y-96247339D01*
X142063859Y-96371474D01*
X142069634Y-96378344D01*
X142069635Y-96378346D01*
X142077140Y-96387274D01*
X142157583Y-96482973D01*
X142165060Y-96487950D01*
X142271361Y-96558710D01*
X142271363Y-96558711D01*
X142278834Y-96563684D01*
X142417864Y-96607121D01*
X142563498Y-96609790D01*
X142672504Y-96580071D01*
X142695363Y-96573839D01*
X142695364Y-96573839D01*
X142704026Y-96571477D01*
X142712359Y-96566361D01*
X142820502Y-96499961D01*
X142828154Y-96495263D01*
X142834774Y-96487950D01*
X142919873Y-96393934D01*
X142919874Y-96393933D01*
X142925901Y-96387274D01*
X142946174Y-96345432D01*
X142985495Y-96264272D01*
X142985495Y-96264271D01*
X142989410Y-96256191D01*
X143013576Y-96112552D01*
X143013729Y-96100000D01*
X142993080Y-95955813D01*
X142936126Y-95830551D01*
X142926140Y-95760261D01*
X142955740Y-95695729D01*
X143015530Y-95657445D01*
X143050827Y-95652400D01*
X143949995Y-95652400D01*
X144018116Y-95672402D01*
X144064609Y-95726058D01*
X144074713Y-95796332D01*
X144064050Y-95831949D01*
X144008719Y-95949800D01*
X143986309Y-96093724D01*
X143987473Y-96102626D01*
X143987473Y-96102629D01*
X143999096Y-96191514D01*
X144005195Y-96238152D01*
X144008809Y-96246365D01*
X144008810Y-96246369D01*
X144009237Y-96247339D01*
X144063859Y-96371474D01*
X144069634Y-96378344D01*
X144069635Y-96378346D01*
X144077140Y-96387274D01*
X144157583Y-96482973D01*
X144165060Y-96487950D01*
X144271361Y-96558710D01*
X144271363Y-96558711D01*
X144278834Y-96563684D01*
X144417864Y-96607121D01*
X144563498Y-96609790D01*
X144672504Y-96580071D01*
X144695363Y-96573839D01*
X144695364Y-96573839D01*
X144704026Y-96571477D01*
X144712359Y-96566361D01*
X144820502Y-96499961D01*
X144828154Y-96495263D01*
X144834774Y-96487950D01*
X144919873Y-96393934D01*
X144919874Y-96393933D01*
X144925901Y-96387274D01*
X144946174Y-96345432D01*
X144985495Y-96264272D01*
X144985495Y-96264271D01*
X144989410Y-96256191D01*
X145013576Y-96112552D01*
X145013729Y-96100000D01*
X144993080Y-95955813D01*
X144936126Y-95830551D01*
X144926140Y-95760261D01*
X144955740Y-95695729D01*
X145015530Y-95657445D01*
X145050827Y-95652400D01*
X145949995Y-95652400D01*
X146018116Y-95672402D01*
X146064609Y-95726058D01*
X146074713Y-95796332D01*
X146064050Y-95831949D01*
X146008719Y-95949800D01*
X145986309Y-96093724D01*
X145987473Y-96102626D01*
X145987473Y-96102629D01*
X145999096Y-96191514D01*
X146005195Y-96238152D01*
X146008809Y-96246365D01*
X146008810Y-96246369D01*
X146009237Y-96247339D01*
X146063859Y-96371474D01*
X146069634Y-96378344D01*
X146069635Y-96378346D01*
X146077140Y-96387274D01*
X146157583Y-96482973D01*
X146165060Y-96487950D01*
X146271361Y-96558710D01*
X146271363Y-96558711D01*
X146278834Y-96563684D01*
X146417864Y-96607121D01*
X146563498Y-96609790D01*
X146672504Y-96580071D01*
X146695363Y-96573839D01*
X146695364Y-96573839D01*
X146704026Y-96571477D01*
X146712359Y-96566361D01*
X146820502Y-96499961D01*
X146828154Y-96495263D01*
X146834774Y-96487950D01*
X146919873Y-96393934D01*
X146919874Y-96393933D01*
X146925901Y-96387274D01*
X146946174Y-96345432D01*
X146985495Y-96264272D01*
X146985495Y-96264271D01*
X146989410Y-96256191D01*
X147013576Y-96112552D01*
X147013729Y-96100000D01*
X146993080Y-95955813D01*
X146936126Y-95830551D01*
X146926140Y-95760261D01*
X146955740Y-95695729D01*
X147015530Y-95657445D01*
X147050827Y-95652400D01*
X147949995Y-95652400D01*
X148018116Y-95672402D01*
X148064609Y-95726058D01*
X148074713Y-95796332D01*
X148064050Y-95831949D01*
X148008719Y-95949800D01*
X147986309Y-96093724D01*
X147987473Y-96102626D01*
X147987473Y-96102629D01*
X147999096Y-96191514D01*
X148005195Y-96238152D01*
X148008809Y-96246365D01*
X148008810Y-96246369D01*
X148009237Y-96247339D01*
X148063859Y-96371474D01*
X148069634Y-96378344D01*
X148069635Y-96378346D01*
X148077140Y-96387274D01*
X148157583Y-96482973D01*
X148165060Y-96487950D01*
X148271361Y-96558710D01*
X148271363Y-96558711D01*
X148278834Y-96563684D01*
X148417864Y-96607121D01*
X148563498Y-96609790D01*
X148672504Y-96580071D01*
X148695363Y-96573839D01*
X148695364Y-96573839D01*
X148704026Y-96571477D01*
X148712359Y-96566361D01*
X148820502Y-96499961D01*
X148828154Y-96495263D01*
X148834774Y-96487950D01*
X148919873Y-96393934D01*
X148919874Y-96393933D01*
X148925901Y-96387274D01*
X148946174Y-96345432D01*
X148985495Y-96264272D01*
X148985495Y-96264271D01*
X148989410Y-96256191D01*
X149013576Y-96112552D01*
X149013729Y-96100000D01*
X148993080Y-95955813D01*
X148936126Y-95830551D01*
X148926140Y-95760261D01*
X148955740Y-95695729D01*
X149015530Y-95657445D01*
X149050827Y-95652400D01*
X149949995Y-95652400D01*
X150018116Y-95672402D01*
X150064609Y-95726058D01*
X150074713Y-95796332D01*
X150064050Y-95831949D01*
X150008719Y-95949800D01*
X149986309Y-96093724D01*
X149987473Y-96102626D01*
X149987473Y-96102629D01*
X149999096Y-96191514D01*
X150005195Y-96238152D01*
X150008809Y-96246365D01*
X150008810Y-96246369D01*
X150009237Y-96247339D01*
X150063859Y-96371474D01*
X150069634Y-96378344D01*
X150069635Y-96378346D01*
X150077140Y-96387274D01*
X150157583Y-96482973D01*
X150165060Y-96487950D01*
X150271361Y-96558710D01*
X150271363Y-96558711D01*
X150278834Y-96563684D01*
X150417864Y-96607121D01*
X150563498Y-96609790D01*
X150672504Y-96580071D01*
X150695363Y-96573839D01*
X150695364Y-96573839D01*
X150704026Y-96571477D01*
X150712359Y-96566361D01*
X150820502Y-96499961D01*
X150828154Y-96495263D01*
X150834774Y-96487950D01*
X150919873Y-96393934D01*
X150919874Y-96393933D01*
X150925901Y-96387274D01*
X150946174Y-96345432D01*
X150985495Y-96264272D01*
X150985495Y-96264271D01*
X150989410Y-96256191D01*
X151013576Y-96112552D01*
X151013729Y-96100000D01*
X150993080Y-95955813D01*
X150936126Y-95830551D01*
X150926140Y-95760261D01*
X150955740Y-95695729D01*
X151015530Y-95657445D01*
X151050827Y-95652400D01*
X151949995Y-95652400D01*
X152018116Y-95672402D01*
X152064609Y-95726058D01*
X152074713Y-95796332D01*
X152064050Y-95831949D01*
X152008719Y-95949800D01*
X151986309Y-96093724D01*
X151987473Y-96102626D01*
X151987473Y-96102629D01*
X151999096Y-96191514D01*
X152005195Y-96238152D01*
X152008809Y-96246365D01*
X152008810Y-96246369D01*
X152009237Y-96247339D01*
X152063859Y-96371474D01*
X152069634Y-96378344D01*
X152069635Y-96378346D01*
X152077140Y-96387274D01*
X152157583Y-96482973D01*
X152165060Y-96487950D01*
X152271361Y-96558710D01*
X152271363Y-96558711D01*
X152278834Y-96563684D01*
X152417864Y-96607121D01*
X152563498Y-96609790D01*
X152672504Y-96580071D01*
X152695363Y-96573839D01*
X152695364Y-96573839D01*
X152704026Y-96571477D01*
X152712359Y-96566361D01*
X152820502Y-96499961D01*
X152828154Y-96495263D01*
X152834774Y-96487950D01*
X152919873Y-96393934D01*
X152919874Y-96393933D01*
X152925901Y-96387274D01*
X152946174Y-96345432D01*
X152985495Y-96264272D01*
X152985495Y-96264271D01*
X152989410Y-96256191D01*
X153013576Y-96112552D01*
X153013729Y-96100000D01*
X152993080Y-95955813D01*
X152936126Y-95830551D01*
X152926140Y-95760261D01*
X152955740Y-95695729D01*
X153015530Y-95657445D01*
X153050827Y-95652400D01*
X153949995Y-95652400D01*
X154018116Y-95672402D01*
X154064609Y-95726058D01*
X154074713Y-95796332D01*
X154064050Y-95831949D01*
X154008719Y-95949800D01*
X153986309Y-96093724D01*
X153987473Y-96102626D01*
X153987473Y-96102629D01*
X153999096Y-96191514D01*
X154005195Y-96238152D01*
X154008809Y-96246365D01*
X154008810Y-96246369D01*
X154009237Y-96247339D01*
X154063859Y-96371474D01*
X154069634Y-96378344D01*
X154069635Y-96378346D01*
X154077140Y-96387274D01*
X154157583Y-96482973D01*
X154165060Y-96487950D01*
X154271361Y-96558710D01*
X154271363Y-96558711D01*
X154278834Y-96563684D01*
X154417864Y-96607121D01*
X154563498Y-96609790D01*
X154672504Y-96580071D01*
X154695363Y-96573839D01*
X154695364Y-96573839D01*
X154704026Y-96571477D01*
X154712359Y-96566361D01*
X154820502Y-96499961D01*
X154828154Y-96495263D01*
X154834774Y-96487950D01*
X154919873Y-96393934D01*
X154919874Y-96393933D01*
X154925901Y-96387274D01*
X154946174Y-96345432D01*
X154985495Y-96264272D01*
X154985495Y-96264271D01*
X154989410Y-96256191D01*
X155013576Y-96112552D01*
X155013729Y-96100000D01*
X154993080Y-95955813D01*
X154936126Y-95830551D01*
X154926140Y-95760261D01*
X154955740Y-95695729D01*
X155015530Y-95657445D01*
X155050827Y-95652400D01*
X155949995Y-95652400D01*
X156018116Y-95672402D01*
X156064609Y-95726058D01*
X156074713Y-95796332D01*
X156064050Y-95831949D01*
X156008719Y-95949800D01*
X155986309Y-96093724D01*
X155987473Y-96102626D01*
X155987473Y-96102629D01*
X155999096Y-96191514D01*
X156005195Y-96238152D01*
X156008809Y-96246365D01*
X156008810Y-96246369D01*
X156009237Y-96247339D01*
X156063859Y-96371474D01*
X156069634Y-96378344D01*
X156069635Y-96378346D01*
X156077140Y-96387274D01*
X156157583Y-96482973D01*
X156165060Y-96487950D01*
X156271361Y-96558710D01*
X156271363Y-96558711D01*
X156278834Y-96563684D01*
X156417864Y-96607121D01*
X156563498Y-96609790D01*
X156672504Y-96580071D01*
X156695363Y-96573839D01*
X156695364Y-96573839D01*
X156704026Y-96571477D01*
X156712359Y-96566361D01*
X156820502Y-96499961D01*
X156828154Y-96495263D01*
X156834774Y-96487950D01*
X156919873Y-96393934D01*
X156919874Y-96393933D01*
X156925901Y-96387274D01*
X156946174Y-96345432D01*
X156985495Y-96264272D01*
X156985495Y-96264271D01*
X156989410Y-96256191D01*
X157013576Y-96112552D01*
X157013729Y-96100000D01*
X156993080Y-95955813D01*
X156936126Y-95830551D01*
X156926140Y-95760261D01*
X156955740Y-95695729D01*
X157015530Y-95657445D01*
X157050827Y-95652400D01*
X157949995Y-95652400D01*
X158018116Y-95672402D01*
X158064609Y-95726058D01*
X158074713Y-95796332D01*
X158064050Y-95831949D01*
X158008719Y-95949800D01*
X157986309Y-96093724D01*
X157987473Y-96102626D01*
X157987473Y-96102629D01*
X157999096Y-96191514D01*
X158005195Y-96238152D01*
X158008809Y-96246365D01*
X158008810Y-96246369D01*
X158009237Y-96247339D01*
X158063859Y-96371474D01*
X158069634Y-96378344D01*
X158069635Y-96378346D01*
X158077140Y-96387274D01*
X158157583Y-96482973D01*
X158165060Y-96487950D01*
X158271361Y-96558710D01*
X158271363Y-96558711D01*
X158278834Y-96563684D01*
X158417864Y-96607121D01*
X158563498Y-96609790D01*
X158672504Y-96580071D01*
X158695363Y-96573839D01*
X158695364Y-96573839D01*
X158704026Y-96571477D01*
X158712359Y-96566361D01*
X158820502Y-96499961D01*
X158828154Y-96495263D01*
X158834774Y-96487950D01*
X158919873Y-96393934D01*
X158919874Y-96393933D01*
X158925901Y-96387274D01*
X158946174Y-96345432D01*
X158985495Y-96264272D01*
X158985495Y-96264271D01*
X158989410Y-96256191D01*
X159013576Y-96112552D01*
X159013729Y-96100000D01*
X158993080Y-95955813D01*
X158936126Y-95830551D01*
X158926140Y-95760261D01*
X158955740Y-95695729D01*
X159015530Y-95657445D01*
X159050827Y-95652400D01*
X159949995Y-95652400D01*
X160018116Y-95672402D01*
X160064609Y-95726058D01*
X160074713Y-95796332D01*
X160064050Y-95831949D01*
X160008719Y-95949800D01*
X159986309Y-96093724D01*
X159987473Y-96102626D01*
X159987473Y-96102629D01*
X159999096Y-96191514D01*
X160005195Y-96238152D01*
X160008809Y-96246365D01*
X160008810Y-96246369D01*
X160009237Y-96247339D01*
X160063859Y-96371474D01*
X160069634Y-96378344D01*
X160069635Y-96378346D01*
X160077140Y-96387274D01*
X160157583Y-96482973D01*
X160165060Y-96487950D01*
X160271361Y-96558710D01*
X160271363Y-96558711D01*
X160278834Y-96563684D01*
X160417864Y-96607121D01*
X160563498Y-96609790D01*
X160672504Y-96580071D01*
X160695363Y-96573839D01*
X160695364Y-96573839D01*
X160704026Y-96571477D01*
X160712359Y-96566361D01*
X160820502Y-96499961D01*
X160828154Y-96495263D01*
X160834774Y-96487950D01*
X160919873Y-96393934D01*
X160919874Y-96393933D01*
X160925901Y-96387274D01*
X160946174Y-96345432D01*
X160985495Y-96264272D01*
X160985495Y-96264271D01*
X160989410Y-96256191D01*
X161013576Y-96112552D01*
X161013729Y-96100000D01*
X160993080Y-95955813D01*
X160936126Y-95830551D01*
X160926140Y-95760261D01*
X160955740Y-95695729D01*
X161015530Y-95657445D01*
X161050827Y-95652400D01*
X161949995Y-95652400D01*
X162018116Y-95672402D01*
X162064609Y-95726058D01*
X162074713Y-95796332D01*
X162064050Y-95831949D01*
X162008719Y-95949800D01*
X161986309Y-96093724D01*
X161987473Y-96102626D01*
X161987473Y-96102629D01*
X161999096Y-96191514D01*
X162005195Y-96238152D01*
X162008809Y-96246365D01*
X162008810Y-96246369D01*
X162009237Y-96247339D01*
X162063859Y-96371474D01*
X162069634Y-96378344D01*
X162069635Y-96378346D01*
X162077140Y-96387274D01*
X162157583Y-96482973D01*
X162165060Y-96487950D01*
X162271361Y-96558710D01*
X162271363Y-96558711D01*
X162278834Y-96563684D01*
X162417864Y-96607121D01*
X162563498Y-96609790D01*
X162672504Y-96580071D01*
X162695363Y-96573839D01*
X162695364Y-96573839D01*
X162704026Y-96571477D01*
X162712359Y-96566361D01*
X162820502Y-96499961D01*
X162828154Y-96495263D01*
X162834774Y-96487950D01*
X162919873Y-96393934D01*
X162919874Y-96393933D01*
X162925901Y-96387274D01*
X162946174Y-96345432D01*
X162985495Y-96264272D01*
X162985495Y-96264271D01*
X162989410Y-96256191D01*
X163013576Y-96112552D01*
X163013729Y-96100000D01*
X162993080Y-95955813D01*
X162936126Y-95830551D01*
X162926140Y-95760261D01*
X162955740Y-95695729D01*
X163015530Y-95657445D01*
X163050827Y-95652400D01*
X163949995Y-95652400D01*
X164018116Y-95672402D01*
X164064609Y-95726058D01*
X164074713Y-95796332D01*
X164064050Y-95831949D01*
X164008719Y-95949800D01*
X163986309Y-96093724D01*
X163987473Y-96102626D01*
X163987473Y-96102629D01*
X163999096Y-96191514D01*
X164005195Y-96238152D01*
X164008809Y-96246365D01*
X164008810Y-96246369D01*
X164009237Y-96247339D01*
X164063859Y-96371474D01*
X164069634Y-96378344D01*
X164069635Y-96378346D01*
X164077140Y-96387274D01*
X164157583Y-96482973D01*
X164165060Y-96487950D01*
X164271361Y-96558710D01*
X164271363Y-96558711D01*
X164278834Y-96563684D01*
X164417864Y-96607121D01*
X164563498Y-96609790D01*
X164672504Y-96580071D01*
X164695363Y-96573839D01*
X164695364Y-96573839D01*
X164704026Y-96571477D01*
X164712359Y-96566361D01*
X164820502Y-96499961D01*
X164828154Y-96495263D01*
X164834774Y-96487950D01*
X164919873Y-96393934D01*
X164919874Y-96393933D01*
X164925901Y-96387274D01*
X164946174Y-96345432D01*
X164985495Y-96264272D01*
X164985495Y-96264271D01*
X164989410Y-96256191D01*
X165013576Y-96112552D01*
X165013729Y-96100000D01*
X164993080Y-95955813D01*
X164936126Y-95830551D01*
X164926140Y-95760261D01*
X164955740Y-95695729D01*
X165015530Y-95657445D01*
X165050827Y-95652400D01*
X165949995Y-95652400D01*
X166018116Y-95672402D01*
X166064609Y-95726058D01*
X166074713Y-95796332D01*
X166064050Y-95831949D01*
X166008719Y-95949800D01*
X165986309Y-96093724D01*
X165987473Y-96102626D01*
X165987473Y-96102629D01*
X165999096Y-96191514D01*
X166005195Y-96238152D01*
X166008809Y-96246365D01*
X166008810Y-96246369D01*
X166009237Y-96247339D01*
X166063859Y-96371474D01*
X166069634Y-96378344D01*
X166069635Y-96378346D01*
X166077140Y-96387274D01*
X166157583Y-96482973D01*
X166165060Y-96487950D01*
X166271361Y-96558710D01*
X166271363Y-96558711D01*
X166278834Y-96563684D01*
X166417864Y-96607121D01*
X166563498Y-96609790D01*
X166672504Y-96580071D01*
X166695363Y-96573839D01*
X166695364Y-96573839D01*
X166704026Y-96571477D01*
X166712359Y-96566361D01*
X166820502Y-96499961D01*
X166828154Y-96495263D01*
X166834774Y-96487950D01*
X166919873Y-96393934D01*
X166919874Y-96393933D01*
X166925901Y-96387274D01*
X166946174Y-96345432D01*
X166985495Y-96264272D01*
X166985495Y-96264271D01*
X166989410Y-96256191D01*
X167013576Y-96112552D01*
X167013729Y-96100000D01*
X166993080Y-95955813D01*
X166936126Y-95830551D01*
X166926140Y-95760261D01*
X166955740Y-95695729D01*
X167015530Y-95657445D01*
X167050827Y-95652400D01*
X167949995Y-95652400D01*
X168018116Y-95672402D01*
X168064609Y-95726058D01*
X168074713Y-95796332D01*
X168064050Y-95831949D01*
X168008719Y-95949800D01*
X167986309Y-96093724D01*
X167987473Y-96102626D01*
X167987473Y-96102629D01*
X167999096Y-96191514D01*
X168005195Y-96238152D01*
X168008809Y-96246365D01*
X168008810Y-96246369D01*
X168009237Y-96247339D01*
X168063859Y-96371474D01*
X168069634Y-96378344D01*
X168069635Y-96378346D01*
X168077140Y-96387274D01*
X168157583Y-96482973D01*
X168165060Y-96487950D01*
X168271361Y-96558710D01*
X168271363Y-96558711D01*
X168278834Y-96563684D01*
X168417864Y-96607121D01*
X168563498Y-96609790D01*
X168672504Y-96580071D01*
X168695363Y-96573839D01*
X168695364Y-96573839D01*
X168704026Y-96571477D01*
X168712359Y-96566361D01*
X168820502Y-96499961D01*
X168828154Y-96495263D01*
X168834774Y-96487950D01*
X168919873Y-96393934D01*
X168919874Y-96393933D01*
X168925901Y-96387274D01*
X168946174Y-96345432D01*
X168985495Y-96264272D01*
X168985495Y-96264271D01*
X168989410Y-96256191D01*
X169013576Y-96112552D01*
X169013729Y-96100000D01*
X168993080Y-95955813D01*
X168936126Y-95830551D01*
X168926140Y-95760261D01*
X168955740Y-95695729D01*
X169015530Y-95657445D01*
X169050827Y-95652400D01*
X169849995Y-95652400D01*
X169918116Y-95672402D01*
X169964609Y-95726058D01*
X169974713Y-95796332D01*
X169964050Y-95831949D01*
X169908719Y-95949800D01*
X169886309Y-96093724D01*
X169887473Y-96102626D01*
X169887473Y-96102629D01*
X169899096Y-96191514D01*
X169905195Y-96238152D01*
X169908809Y-96246365D01*
X169908810Y-96246369D01*
X169909237Y-96247339D01*
X169963859Y-96371474D01*
X169969634Y-96378344D01*
X169969635Y-96378346D01*
X169977140Y-96387274D01*
X170057583Y-96482973D01*
X170065060Y-96487950D01*
X170171361Y-96558710D01*
X170171363Y-96558711D01*
X170178834Y-96563684D01*
X170317864Y-96607121D01*
X170463498Y-96609790D01*
X170572504Y-96580071D01*
X170595363Y-96573839D01*
X170595364Y-96573839D01*
X170604026Y-96571477D01*
X170655673Y-96539766D01*
X170724190Y-96521169D01*
X170791885Y-96542567D01*
X170837265Y-96597167D01*
X170847600Y-96647142D01*
X170847600Y-97452276D01*
X170827598Y-97520397D01*
X170773942Y-97566890D01*
X170703668Y-97576994D01*
X170653068Y-97558008D01*
X170615485Y-97533648D01*
X170475934Y-97491914D01*
X170466958Y-97491859D01*
X170466957Y-97491859D01*
X170405644Y-97491485D01*
X170330279Y-97491024D01*
X170190229Y-97531051D01*
X170182642Y-97535838D01*
X170182640Y-97535839D01*
X170147433Y-97558053D01*
X170067042Y-97608776D01*
X169970622Y-97717951D01*
X169966808Y-97726074D01*
X169966807Y-97726076D01*
X169956824Y-97747339D01*
X169908719Y-97849800D01*
X169907339Y-97858665D01*
X169907338Y-97858667D01*
X169889054Y-97976097D01*
X169886309Y-97993724D01*
X169887473Y-98002626D01*
X169887473Y-98002629D01*
X169894807Y-98058710D01*
X169905195Y-98138152D01*
X169908809Y-98146365D01*
X169908810Y-98146369D01*
X169948567Y-98236722D01*
X169963859Y-98271474D01*
X169969634Y-98278344D01*
X169969635Y-98278346D01*
X170030727Y-98351024D01*
X170057583Y-98382973D01*
X170069758Y-98391077D01*
X170171361Y-98458710D01*
X170171363Y-98458711D01*
X170178834Y-98463684D01*
X170317864Y-98507121D01*
X170463498Y-98509790D01*
X170573957Y-98479675D01*
X170595363Y-98473839D01*
X170595364Y-98473839D01*
X170604026Y-98471477D01*
X170655673Y-98439766D01*
X170724190Y-98421169D01*
X170791885Y-98442567D01*
X170837265Y-98497167D01*
X170847600Y-98547142D01*
X170847600Y-99452276D01*
X170827598Y-99520397D01*
X170773942Y-99566890D01*
X170703668Y-99576994D01*
X170653068Y-99558008D01*
X170615485Y-99533648D01*
X170475934Y-99491914D01*
X170466958Y-99491859D01*
X170466957Y-99491859D01*
X170405644Y-99491485D01*
X170330279Y-99491024D01*
X170190229Y-99531051D01*
X170182642Y-99535838D01*
X170182640Y-99535839D01*
X170133427Y-99566890D01*
X170067042Y-99608776D01*
X169970622Y-99717951D01*
X169966808Y-99726074D01*
X169966807Y-99726076D01*
X169949682Y-99762552D01*
X169908719Y-99849800D01*
X169907339Y-99858665D01*
X169907338Y-99858667D01*
X169899939Y-99906191D01*
X169886309Y-99993724D01*
X169887473Y-100002626D01*
X169887473Y-100002629D01*
X169899096Y-100091514D01*
X169905195Y-100138152D01*
X169908809Y-100146365D01*
X169908810Y-100146369D01*
X169936242Y-100208710D01*
X169963859Y-100271474D01*
X169969634Y-100278344D01*
X169969635Y-100278346D01*
X169991428Y-100304272D01*
X170057583Y-100382973D01*
X170065060Y-100387950D01*
X170171361Y-100458710D01*
X170171363Y-100458711D01*
X170178834Y-100463684D01*
X170317864Y-100507121D01*
X170463498Y-100509790D01*
X170533762Y-100490633D01*
X170595363Y-100473839D01*
X170595364Y-100473839D01*
X170604026Y-100471477D01*
X170655673Y-100439766D01*
X170724190Y-100421169D01*
X170791885Y-100442567D01*
X170837265Y-100497167D01*
X170847600Y-100547142D01*
X170847600Y-101452276D01*
X170827598Y-101520397D01*
X170773942Y-101566890D01*
X170703668Y-101576994D01*
X170653068Y-101558008D01*
X170615485Y-101533648D01*
X170475934Y-101491914D01*
X170466958Y-101491859D01*
X170466957Y-101491859D01*
X170405644Y-101491485D01*
X170330279Y-101491024D01*
X170190229Y-101531051D01*
X170182642Y-101535838D01*
X170182640Y-101535839D01*
X170146392Y-101558710D01*
X170067042Y-101608776D01*
X169970622Y-101717951D01*
X169966808Y-101726074D01*
X169966807Y-101726076D01*
X169934324Y-101795263D01*
X169908719Y-101849800D01*
X169907339Y-101858665D01*
X169907338Y-101858667D01*
X169889269Y-101974716D01*
X169886309Y-101993724D01*
X169887473Y-102002626D01*
X169887473Y-102002629D01*
X169888771Y-102012552D01*
X169905195Y-102138152D01*
X169908809Y-102146365D01*
X169908810Y-102146369D01*
X169913132Y-102156191D01*
X169963859Y-102271474D01*
X169969634Y-102278344D01*
X169969635Y-102278346D01*
X170005710Y-102321262D01*
X170057583Y-102382973D01*
X170065060Y-102387950D01*
X170171361Y-102458710D01*
X170171363Y-102458711D01*
X170178834Y-102463684D01*
X170317864Y-102507121D01*
X170463498Y-102509790D01*
X170559384Y-102483648D01*
X170595363Y-102473839D01*
X170595364Y-102473839D01*
X170604026Y-102471477D01*
X170655673Y-102439766D01*
X170724190Y-102421169D01*
X170791885Y-102442567D01*
X170837265Y-102497167D01*
X170847600Y-102547142D01*
X170847600Y-103452276D01*
X170827598Y-103520397D01*
X170773942Y-103566890D01*
X170703668Y-103576994D01*
X170653068Y-103558008D01*
X170615485Y-103533648D01*
X170475934Y-103491914D01*
X170466958Y-103491859D01*
X170466957Y-103491859D01*
X170405644Y-103491485D01*
X170330279Y-103491024D01*
X170190229Y-103531051D01*
X170182642Y-103535838D01*
X170182640Y-103535839D01*
X170117414Y-103576994D01*
X170067042Y-103608776D01*
X169970622Y-103717951D01*
X169966808Y-103726074D01*
X169966807Y-103726076D01*
X169915737Y-103834852D01*
X169908719Y-103849800D01*
X169907339Y-103858665D01*
X169907338Y-103858667D01*
X169888563Y-103979249D01*
X169886309Y-103993724D01*
X169887473Y-104002626D01*
X169887473Y-104002629D01*
X169899096Y-104091514D01*
X169905195Y-104138152D01*
X169908809Y-104146365D01*
X169908810Y-104146369D01*
X169909237Y-104147339D01*
X169963859Y-104271474D01*
X169969634Y-104278344D01*
X169969635Y-104278346D01*
X170007876Y-104323839D01*
X170057583Y-104382973D01*
X170065060Y-104387950D01*
X170171361Y-104458710D01*
X170171363Y-104458711D01*
X170178834Y-104463684D01*
X170317864Y-104507121D01*
X170463498Y-104509790D01*
X170533762Y-104490634D01*
X170595363Y-104473839D01*
X170595364Y-104473839D01*
X170604026Y-104471477D01*
X170655673Y-104439766D01*
X170724190Y-104421169D01*
X170791885Y-104442567D01*
X170837265Y-104497167D01*
X170847600Y-104547142D01*
X170847600Y-105452276D01*
X170827598Y-105520397D01*
X170773942Y-105566890D01*
X170703668Y-105576994D01*
X170653068Y-105558008D01*
X170615485Y-105533648D01*
X170475934Y-105491914D01*
X170466958Y-105491859D01*
X170466957Y-105491859D01*
X170405644Y-105491485D01*
X170330279Y-105491024D01*
X170190229Y-105531051D01*
X170182642Y-105535838D01*
X170182640Y-105535839D01*
X170133427Y-105566890D01*
X170067042Y-105608776D01*
X169970622Y-105717951D01*
X169966808Y-105726074D01*
X169966807Y-105726076D01*
X169934324Y-105795263D01*
X169908719Y-105849800D01*
X169907339Y-105858665D01*
X169907338Y-105858667D01*
X169889057Y-105976076D01*
X169886309Y-105993724D01*
X169887473Y-106002626D01*
X169887473Y-106002629D01*
X169899096Y-106091514D01*
X169905195Y-106138152D01*
X169908809Y-106146365D01*
X169908810Y-106146369D01*
X169909237Y-106147339D01*
X169963859Y-106271474D01*
X169969634Y-106278344D01*
X169969635Y-106278346D01*
X169977140Y-106287274D01*
X170057583Y-106382973D01*
X170065060Y-106387950D01*
X170171361Y-106458710D01*
X170171363Y-106458711D01*
X170178834Y-106463684D01*
X170317864Y-106507121D01*
X170463498Y-106509790D01*
X170533762Y-106490633D01*
X170595363Y-106473839D01*
X170595364Y-106473839D01*
X170604026Y-106471477D01*
X170655673Y-106439766D01*
X170724190Y-106421169D01*
X170791885Y-106442567D01*
X170837265Y-106497167D01*
X170847600Y-106547142D01*
X170847600Y-107452276D01*
X170827598Y-107520397D01*
X170773942Y-107566890D01*
X170703668Y-107576994D01*
X170653068Y-107558008D01*
X170615485Y-107533648D01*
X170475934Y-107491914D01*
X170466958Y-107491859D01*
X170466957Y-107491859D01*
X170405644Y-107491485D01*
X170330279Y-107491024D01*
X170190229Y-107531051D01*
X170182642Y-107535838D01*
X170182640Y-107535839D01*
X170137577Y-107564272D01*
X170067042Y-107608776D01*
X169970622Y-107717951D01*
X169966808Y-107726074D01*
X169966807Y-107726076D01*
X169934324Y-107795263D01*
X169908719Y-107849800D01*
X169907339Y-107858665D01*
X169907338Y-107858667D01*
X169891768Y-107958667D01*
X169886309Y-107993724D01*
X169887473Y-108002626D01*
X169887473Y-108002629D01*
X169898225Y-108084852D01*
X169905195Y-108138152D01*
X169908809Y-108146365D01*
X169908810Y-108146369D01*
X169944802Y-108228165D01*
X169963859Y-108271474D01*
X169969634Y-108278344D01*
X169969635Y-108278346D01*
X169977140Y-108287274D01*
X170057583Y-108382973D01*
X170065060Y-108387950D01*
X170171361Y-108458710D01*
X170171363Y-108458711D01*
X170178834Y-108463684D01*
X170317864Y-108507121D01*
X170463498Y-108509790D01*
X170561860Y-108482973D01*
X170595363Y-108473839D01*
X170595364Y-108473839D01*
X170604026Y-108471477D01*
X170655673Y-108439766D01*
X170724190Y-108421169D01*
X170791885Y-108442567D01*
X170837265Y-108497167D01*
X170847600Y-108547142D01*
X170847600Y-109452276D01*
X170827598Y-109520397D01*
X170773942Y-109566890D01*
X170703668Y-109576994D01*
X170653068Y-109558008D01*
X170615485Y-109533648D01*
X170475934Y-109491914D01*
X170466958Y-109491859D01*
X170466957Y-109491859D01*
X170405644Y-109491485D01*
X170330279Y-109491024D01*
X170190229Y-109531051D01*
X170182642Y-109535838D01*
X170182640Y-109535839D01*
X170133427Y-109566890D01*
X170067042Y-109608776D01*
X169970622Y-109717951D01*
X169966808Y-109726074D01*
X169966807Y-109726076D01*
X169914011Y-109838529D01*
X169908719Y-109849800D01*
X169907339Y-109858665D01*
X169907338Y-109858667D01*
X169899659Y-109907989D01*
X169886309Y-109993724D01*
X169887473Y-110002626D01*
X169887473Y-110002629D01*
X169899096Y-110091514D01*
X169905195Y-110138152D01*
X169908809Y-110146365D01*
X169908810Y-110146369D01*
X169916879Y-110164706D01*
X169963859Y-110271474D01*
X169969634Y-110278344D01*
X169969635Y-110278346D01*
X169994304Y-110307693D01*
X170057583Y-110382973D01*
X170065060Y-110387950D01*
X170171361Y-110458710D01*
X170171363Y-110458711D01*
X170178834Y-110463684D01*
X170317864Y-110507121D01*
X170463498Y-110509790D01*
X170557840Y-110484069D01*
X170595363Y-110473839D01*
X170595364Y-110473839D01*
X170604026Y-110471477D01*
X170655673Y-110439766D01*
X170724190Y-110421169D01*
X170791885Y-110442567D01*
X170837265Y-110497167D01*
X170847600Y-110547142D01*
X170847600Y-111452276D01*
X170827598Y-111520397D01*
X170773942Y-111566890D01*
X170703668Y-111576994D01*
X170653068Y-111558008D01*
X170615485Y-111533648D01*
X170475934Y-111491914D01*
X170466958Y-111491859D01*
X170466957Y-111491859D01*
X170405644Y-111491485D01*
X170330279Y-111491024D01*
X170190229Y-111531051D01*
X170182642Y-111535838D01*
X170182640Y-111535839D01*
X170146392Y-111558710D01*
X170067042Y-111608776D01*
X169970622Y-111717951D01*
X169966808Y-111726074D01*
X169966807Y-111726076D01*
X169912533Y-111841676D01*
X169908719Y-111849800D01*
X169886309Y-111993724D01*
X169887473Y-112002626D01*
X169887473Y-112002629D01*
X169899096Y-112091514D01*
X169905195Y-112138152D01*
X169908809Y-112146365D01*
X169908810Y-112146369D01*
X169909237Y-112147339D01*
X169963859Y-112271474D01*
X169969634Y-112278344D01*
X169969635Y-112278346D01*
X170050634Y-112374706D01*
X170057583Y-112382973D01*
X170065060Y-112387950D01*
X170171361Y-112458710D01*
X170171363Y-112458711D01*
X170178834Y-112463684D01*
X170317864Y-112507121D01*
X170463498Y-112509790D01*
X170533762Y-112490634D01*
X170595363Y-112473839D01*
X170595364Y-112473839D01*
X170604026Y-112471477D01*
X170655673Y-112439766D01*
X170724190Y-112421169D01*
X170791885Y-112442567D01*
X170837265Y-112497167D01*
X170847600Y-112547142D01*
X170847600Y-113352276D01*
X170827598Y-113420397D01*
X170773942Y-113466890D01*
X170703668Y-113476994D01*
X170653068Y-113458008D01*
X170615485Y-113433648D01*
X170475934Y-113391914D01*
X170466958Y-113391859D01*
X170466957Y-113391859D01*
X170405644Y-113391485D01*
X170330279Y-113391024D01*
X170190229Y-113431051D01*
X170182642Y-113435838D01*
X170182640Y-113435839D01*
X170137299Y-113464447D01*
X170067042Y-113508776D01*
X169970622Y-113617951D01*
X169908719Y-113749800D01*
X169907339Y-113758665D01*
X169907338Y-113758667D01*
X169898875Y-113813023D01*
X169886309Y-113893724D01*
X169887473Y-113902626D01*
X169887473Y-113902629D01*
X169897966Y-113982868D01*
X169905195Y-114038152D01*
X169908810Y-114046367D01*
X169908810Y-114046368D01*
X169963586Y-114170853D01*
X169972714Y-114241260D01*
X169942327Y-114305426D01*
X169882074Y-114342977D01*
X169848257Y-114347600D01*
X169049279Y-114347600D01*
X168981158Y-114327598D01*
X168934665Y-114273942D01*
X168924561Y-114203668D01*
X168935887Y-114166662D01*
X168985495Y-114064271D01*
X168989410Y-114056191D01*
X169013576Y-113912552D01*
X169013729Y-113900000D01*
X168993080Y-113755813D01*
X168989362Y-113747635D01*
X168936508Y-113631390D01*
X168936507Y-113631388D01*
X168932792Y-113623218D01*
X168837713Y-113512873D01*
X168715485Y-113433648D01*
X168575934Y-113391914D01*
X168566958Y-113391859D01*
X168566957Y-113391859D01*
X168505644Y-113391485D01*
X168430279Y-113391024D01*
X168290229Y-113431051D01*
X168282642Y-113435838D01*
X168282640Y-113435839D01*
X168237299Y-113464447D01*
X168167042Y-113508776D01*
X168070622Y-113617951D01*
X168008719Y-113749800D01*
X168007339Y-113758665D01*
X168007338Y-113758667D01*
X167998875Y-113813023D01*
X167986309Y-113893724D01*
X167987473Y-113902626D01*
X167987473Y-113902629D01*
X167997966Y-113982868D01*
X168005195Y-114038152D01*
X168008810Y-114046367D01*
X168008810Y-114046368D01*
X168063586Y-114170853D01*
X168072714Y-114241260D01*
X168042327Y-114305426D01*
X167982074Y-114342977D01*
X167948257Y-114347600D01*
X167049279Y-114347600D01*
X166981158Y-114327598D01*
X166934665Y-114273942D01*
X166924561Y-114203668D01*
X166935887Y-114166662D01*
X166985495Y-114064271D01*
X166989410Y-114056191D01*
X167013576Y-113912552D01*
X167013729Y-113900000D01*
X166993080Y-113755813D01*
X166989362Y-113747635D01*
X166936508Y-113631390D01*
X166936507Y-113631388D01*
X166932792Y-113623218D01*
X166837713Y-113512873D01*
X166715485Y-113433648D01*
X166575934Y-113391914D01*
X166566958Y-113391859D01*
X166566957Y-113391859D01*
X166505644Y-113391485D01*
X166430279Y-113391024D01*
X166290229Y-113431051D01*
X166282642Y-113435838D01*
X166282640Y-113435839D01*
X166237299Y-113464447D01*
X166167042Y-113508776D01*
X166070622Y-113617951D01*
X166008719Y-113749800D01*
X166007339Y-113758665D01*
X166007338Y-113758667D01*
X165998875Y-113813023D01*
X165986309Y-113893724D01*
X165987473Y-113902626D01*
X165987473Y-113902629D01*
X165997966Y-113982868D01*
X166005195Y-114038152D01*
X166008810Y-114046367D01*
X166008810Y-114046368D01*
X166063586Y-114170853D01*
X166072714Y-114241260D01*
X166042327Y-114305426D01*
X165982074Y-114342977D01*
X165948257Y-114347600D01*
X165049279Y-114347600D01*
X164981158Y-114327598D01*
X164934665Y-114273942D01*
X164924561Y-114203668D01*
X164935887Y-114166662D01*
X164985495Y-114064271D01*
X164989410Y-114056191D01*
X165013576Y-113912552D01*
X165013729Y-113900000D01*
X164993080Y-113755813D01*
X164989362Y-113747635D01*
X164936508Y-113631390D01*
X164936507Y-113631388D01*
X164932792Y-113623218D01*
X164837713Y-113512873D01*
X164715485Y-113433648D01*
X164575934Y-113391914D01*
X164566958Y-113391859D01*
X164566957Y-113391859D01*
X164505644Y-113391485D01*
X164430279Y-113391024D01*
X164290229Y-113431051D01*
X164282642Y-113435838D01*
X164282640Y-113435839D01*
X164237299Y-113464447D01*
X164167042Y-113508776D01*
X164070622Y-113617951D01*
X164008719Y-113749800D01*
X164007339Y-113758665D01*
X164007338Y-113758667D01*
X163998875Y-113813023D01*
X163986309Y-113893724D01*
X163987473Y-113902626D01*
X163987473Y-113902629D01*
X163997966Y-113982868D01*
X164005195Y-114038152D01*
X164008810Y-114046367D01*
X164008810Y-114046368D01*
X164063586Y-114170853D01*
X164072714Y-114241260D01*
X164042327Y-114305426D01*
X163982074Y-114342977D01*
X163948257Y-114347600D01*
X163049279Y-114347600D01*
X162981158Y-114327598D01*
X162934665Y-114273942D01*
X162924561Y-114203668D01*
X162935887Y-114166662D01*
X162985495Y-114064271D01*
X162989410Y-114056191D01*
X163013576Y-113912552D01*
X163013729Y-113900000D01*
X162993080Y-113755813D01*
X162989362Y-113747635D01*
X162936508Y-113631390D01*
X162936507Y-113631388D01*
X162932792Y-113623218D01*
X162837713Y-113512873D01*
X162715485Y-113433648D01*
X162575934Y-113391914D01*
X162566958Y-113391859D01*
X162566957Y-113391859D01*
X162505644Y-113391485D01*
X162430279Y-113391024D01*
X162290229Y-113431051D01*
X162282642Y-113435838D01*
X162282640Y-113435839D01*
X162237299Y-113464447D01*
X162167042Y-113508776D01*
X162070622Y-113617951D01*
X162008719Y-113749800D01*
X162007339Y-113758665D01*
X162007338Y-113758667D01*
X161998875Y-113813023D01*
X161986309Y-113893724D01*
X161987473Y-113902626D01*
X161987473Y-113902629D01*
X161997966Y-113982868D01*
X162005195Y-114038152D01*
X162008810Y-114046367D01*
X162008810Y-114046368D01*
X162063586Y-114170853D01*
X162072714Y-114241260D01*
X162042327Y-114305426D01*
X161982074Y-114342977D01*
X161948257Y-114347600D01*
X161049279Y-114347600D01*
X160981158Y-114327598D01*
X160934665Y-114273942D01*
X160924561Y-114203668D01*
X160935887Y-114166662D01*
X160985495Y-114064271D01*
X160989410Y-114056191D01*
X161013576Y-113912552D01*
X161013729Y-113900000D01*
X160993080Y-113755813D01*
X160989362Y-113747635D01*
X160936508Y-113631390D01*
X160936507Y-113631388D01*
X160932792Y-113623218D01*
X160837713Y-113512873D01*
X160715485Y-113433648D01*
X160575934Y-113391914D01*
X160566958Y-113391859D01*
X160566957Y-113391859D01*
X160505644Y-113391485D01*
X160430279Y-113391024D01*
X160290229Y-113431051D01*
X160282642Y-113435838D01*
X160282640Y-113435839D01*
X160237299Y-113464447D01*
X160167042Y-113508776D01*
X160070622Y-113617951D01*
X160008719Y-113749800D01*
X160007339Y-113758665D01*
X160007338Y-113758667D01*
X159998875Y-113813023D01*
X159986309Y-113893724D01*
X159987473Y-113902626D01*
X159987473Y-113902629D01*
X159997966Y-113982868D01*
X160005195Y-114038152D01*
X160008810Y-114046367D01*
X160008810Y-114046368D01*
X160063586Y-114170853D01*
X160072714Y-114241260D01*
X160042327Y-114305426D01*
X159982074Y-114342977D01*
X159948257Y-114347600D01*
X159049279Y-114347600D01*
X158981158Y-114327598D01*
X158934665Y-114273942D01*
X158924561Y-114203668D01*
X158935887Y-114166662D01*
X158985495Y-114064271D01*
X158989410Y-114056191D01*
X159013576Y-113912552D01*
X159013729Y-113900000D01*
X158993080Y-113755813D01*
X158989362Y-113747635D01*
X158936508Y-113631390D01*
X158936507Y-113631388D01*
X158932792Y-113623218D01*
X158837713Y-113512873D01*
X158715485Y-113433648D01*
X158575934Y-113391914D01*
X158566958Y-113391859D01*
X158566957Y-113391859D01*
X158505644Y-113391485D01*
X158430279Y-113391024D01*
X158290229Y-113431051D01*
X158282642Y-113435838D01*
X158282640Y-113435839D01*
X158237299Y-113464447D01*
X158167042Y-113508776D01*
X158070622Y-113617951D01*
X158008719Y-113749800D01*
X158007339Y-113758665D01*
X158007338Y-113758667D01*
X157998875Y-113813023D01*
X157986309Y-113893724D01*
X157987473Y-113902626D01*
X157987473Y-113902629D01*
X157997966Y-113982868D01*
X158005195Y-114038152D01*
X158008810Y-114046367D01*
X158008810Y-114046368D01*
X158063586Y-114170853D01*
X158072714Y-114241260D01*
X158042327Y-114305426D01*
X157982074Y-114342977D01*
X157948257Y-114347600D01*
X157049279Y-114347600D01*
X156981158Y-114327598D01*
X156934665Y-114273942D01*
X156924561Y-114203668D01*
X156935887Y-114166662D01*
X156985495Y-114064271D01*
X156989410Y-114056191D01*
X157013576Y-113912552D01*
X157013729Y-113900000D01*
X156993080Y-113755813D01*
X156989362Y-113747635D01*
X156936508Y-113631390D01*
X156936507Y-113631388D01*
X156932792Y-113623218D01*
X156837713Y-113512873D01*
X156715485Y-113433648D01*
X156575934Y-113391914D01*
X156566958Y-113391859D01*
X156566957Y-113391859D01*
X156505644Y-113391485D01*
X156430279Y-113391024D01*
X156290229Y-113431051D01*
X156282642Y-113435838D01*
X156282640Y-113435839D01*
X156237299Y-113464447D01*
X156167042Y-113508776D01*
X156070622Y-113617951D01*
X156008719Y-113749800D01*
X156007339Y-113758665D01*
X156007338Y-113758667D01*
X155998875Y-113813023D01*
X155986309Y-113893724D01*
X155987473Y-113902626D01*
X155987473Y-113902629D01*
X155997966Y-113982868D01*
X156005195Y-114038152D01*
X156008810Y-114046367D01*
X156008810Y-114046368D01*
X156063586Y-114170853D01*
X156072714Y-114241260D01*
X156042327Y-114305426D01*
X155982074Y-114342977D01*
X155948257Y-114347600D01*
X155049279Y-114347600D01*
X154981158Y-114327598D01*
X154934665Y-114273942D01*
X154924561Y-114203668D01*
X154935887Y-114166662D01*
X154985495Y-114064271D01*
X154989410Y-114056191D01*
X155013576Y-113912552D01*
X155013729Y-113900000D01*
X154993080Y-113755813D01*
X154989362Y-113747635D01*
X154936508Y-113631390D01*
X154936507Y-113631388D01*
X154932792Y-113623218D01*
X154837713Y-113512873D01*
X154715485Y-113433648D01*
X154575934Y-113391914D01*
X154566958Y-113391859D01*
X154566957Y-113391859D01*
X154505644Y-113391485D01*
X154430279Y-113391024D01*
X154290229Y-113431051D01*
X154282642Y-113435838D01*
X154282640Y-113435839D01*
X154237299Y-113464447D01*
X154167042Y-113508776D01*
X154070622Y-113617951D01*
X154008719Y-113749800D01*
X154007339Y-113758665D01*
X154007338Y-113758667D01*
X153998875Y-113813023D01*
X153986309Y-113893724D01*
X153987473Y-113902626D01*
X153987473Y-113902629D01*
X153997966Y-113982868D01*
X154005195Y-114038152D01*
X154008810Y-114046367D01*
X154008810Y-114046368D01*
X154063586Y-114170853D01*
X154072714Y-114241260D01*
X154042327Y-114305426D01*
X153982074Y-114342977D01*
X153948257Y-114347600D01*
X153049279Y-114347600D01*
X152981158Y-114327598D01*
X152934665Y-114273942D01*
X152924561Y-114203668D01*
X152935887Y-114166662D01*
X152985495Y-114064271D01*
X152989410Y-114056191D01*
X153013576Y-113912552D01*
X153013729Y-113900000D01*
X152993080Y-113755813D01*
X152989362Y-113747635D01*
X152936508Y-113631390D01*
X152936507Y-113631388D01*
X152932792Y-113623218D01*
X152837713Y-113512873D01*
X152715485Y-113433648D01*
X152575934Y-113391914D01*
X152566958Y-113391859D01*
X152566957Y-113391859D01*
X152505644Y-113391485D01*
X152430279Y-113391024D01*
X152290229Y-113431051D01*
X152282642Y-113435838D01*
X152282640Y-113435839D01*
X152237299Y-113464447D01*
X152167042Y-113508776D01*
X152070622Y-113617951D01*
X152008719Y-113749800D01*
X152007339Y-113758665D01*
X152007338Y-113758667D01*
X151998875Y-113813023D01*
X151986309Y-113893724D01*
X151987473Y-113902626D01*
X151987473Y-113902629D01*
X151997966Y-113982868D01*
X152005195Y-114038152D01*
X152008810Y-114046367D01*
X152008810Y-114046368D01*
X152063586Y-114170853D01*
X152072714Y-114241260D01*
X152042327Y-114305426D01*
X151982074Y-114342977D01*
X151948257Y-114347600D01*
X151049279Y-114347600D01*
X150981158Y-114327598D01*
X150934665Y-114273942D01*
X150924561Y-114203668D01*
X150935887Y-114166662D01*
X150985495Y-114064271D01*
X150989410Y-114056191D01*
X151013576Y-113912552D01*
X151013729Y-113900000D01*
X150993080Y-113755813D01*
X150989362Y-113747635D01*
X150936508Y-113631390D01*
X150936507Y-113631388D01*
X150932792Y-113623218D01*
X150837713Y-113512873D01*
X150715485Y-113433648D01*
X150575934Y-113391914D01*
X150566958Y-113391859D01*
X150566957Y-113391859D01*
X150505644Y-113391485D01*
X150430279Y-113391024D01*
X150290229Y-113431051D01*
X150282642Y-113435838D01*
X150282640Y-113435839D01*
X150237299Y-113464447D01*
X150167042Y-113508776D01*
X150070622Y-113617951D01*
X150008719Y-113749800D01*
X150007339Y-113758665D01*
X150007338Y-113758667D01*
X149998875Y-113813023D01*
X149986309Y-113893724D01*
X149987473Y-113902626D01*
X149987473Y-113902629D01*
X149997966Y-113982868D01*
X150005195Y-114038152D01*
X150008810Y-114046367D01*
X150008810Y-114046368D01*
X150063586Y-114170853D01*
X150072714Y-114241260D01*
X150042327Y-114305426D01*
X149982074Y-114342977D01*
X149948257Y-114347600D01*
X149049279Y-114347600D01*
X148981158Y-114327598D01*
X148934665Y-114273942D01*
X148924561Y-114203668D01*
X148935887Y-114166662D01*
X148985495Y-114064271D01*
X148989410Y-114056191D01*
X149013576Y-113912552D01*
X149013729Y-113900000D01*
X148993080Y-113755813D01*
X148989362Y-113747635D01*
X148936508Y-113631390D01*
X148936507Y-113631388D01*
X148932792Y-113623218D01*
X148926933Y-113616418D01*
X148922096Y-113608855D01*
X148925279Y-113606819D01*
X148903373Y-113558161D01*
X148913854Y-113487943D01*
X148960635Y-113434538D01*
X149028185Y-113414900D01*
X149096160Y-113414900D01*
X149102613Y-113413528D01*
X149102617Y-113413528D01*
X149204302Y-113391914D01*
X149284277Y-113374915D01*
X149362495Y-113340090D01*
X149453940Y-113299376D01*
X149453942Y-113299375D01*
X149459970Y-113296691D01*
X149529610Y-113246095D01*
X149610216Y-113187532D01*
X149610218Y-113187530D01*
X149615560Y-113183649D01*
X149744247Y-113040727D01*
X149840407Y-112874173D01*
X149899837Y-112691266D01*
X149904369Y-112648152D01*
X149919250Y-112506565D01*
X149919940Y-112500000D01*
X150620060Y-112500000D01*
X150620750Y-112506565D01*
X150635632Y-112648152D01*
X150640163Y-112691266D01*
X150699593Y-112874173D01*
X150795753Y-113040727D01*
X150924440Y-113183649D01*
X150929782Y-113187530D01*
X150929784Y-113187532D01*
X151010390Y-113246095D01*
X151080030Y-113296691D01*
X151086058Y-113299375D01*
X151086060Y-113299376D01*
X151177505Y-113340090D01*
X151255723Y-113374915D01*
X151335698Y-113391914D01*
X151437383Y-113413528D01*
X151437387Y-113413528D01*
X151443840Y-113414900D01*
X151636160Y-113414900D01*
X151642613Y-113413528D01*
X151642617Y-113413528D01*
X151744302Y-113391914D01*
X151824277Y-113374915D01*
X151902495Y-113340090D01*
X151993940Y-113299376D01*
X151993942Y-113299375D01*
X151999970Y-113296691D01*
X152069610Y-113246095D01*
X152150216Y-113187532D01*
X152150218Y-113187530D01*
X152155560Y-113183649D01*
X152284247Y-113040727D01*
X152380407Y-112874173D01*
X152439837Y-112691266D01*
X152444369Y-112648152D01*
X152459250Y-112506565D01*
X152459549Y-112503724D01*
X155876309Y-112503724D01*
X155877473Y-112512626D01*
X155877473Y-112512629D01*
X155889096Y-112601514D01*
X155895195Y-112648152D01*
X155898809Y-112656365D01*
X155898810Y-112656369D01*
X155938567Y-112746722D01*
X155953859Y-112781474D01*
X155959634Y-112788344D01*
X155959635Y-112788346D01*
X155967140Y-112797274D01*
X156047583Y-112892973D01*
X156055060Y-112897950D01*
X156161361Y-112968710D01*
X156161363Y-112968711D01*
X156168834Y-112973684D01*
X156307864Y-113017121D01*
X156453498Y-113019790D01*
X156523762Y-113000634D01*
X156585363Y-112983839D01*
X156585364Y-112983839D01*
X156594026Y-112981477D01*
X156602359Y-112976361D01*
X156710502Y-112909961D01*
X156718154Y-112905263D01*
X156724774Y-112897950D01*
X156809873Y-112803934D01*
X156809874Y-112803933D01*
X156815901Y-112797274D01*
X156867262Y-112691266D01*
X156875495Y-112674272D01*
X156875495Y-112674271D01*
X156879410Y-112666191D01*
X156903576Y-112522552D01*
X156903729Y-112510000D01*
X156891008Y-112421169D01*
X156884354Y-112374706D01*
X156884353Y-112374703D01*
X156883080Y-112365813D01*
X156879362Y-112357635D01*
X156826508Y-112241390D01*
X156826507Y-112241388D01*
X156822792Y-112233218D01*
X156727713Y-112122873D01*
X156605485Y-112043648D01*
X156465934Y-112001914D01*
X156456958Y-112001859D01*
X156456957Y-112001859D01*
X156395644Y-112001485D01*
X156320279Y-112001024D01*
X156180229Y-112041051D01*
X156057042Y-112118776D01*
X155960622Y-112227951D01*
X155956808Y-112236074D01*
X155956807Y-112236076D01*
X155902533Y-112351676D01*
X155898719Y-112359800D01*
X155897339Y-112368665D01*
X155897338Y-112368667D01*
X155882062Y-112466779D01*
X155876309Y-112503724D01*
X152459549Y-112503724D01*
X152459940Y-112500000D01*
X152453609Y-112439766D01*
X152440527Y-112315298D01*
X152440527Y-112315297D01*
X152439837Y-112308734D01*
X152380407Y-112125827D01*
X152284247Y-111959273D01*
X152185678Y-111849800D01*
X152159982Y-111821262D01*
X152159981Y-111821261D01*
X152155560Y-111816351D01*
X152150218Y-111812470D01*
X152150216Y-111812468D01*
X152005312Y-111707190D01*
X152005311Y-111707189D01*
X151999970Y-111703309D01*
X151993942Y-111700625D01*
X151993940Y-111700624D01*
X151830308Y-111627770D01*
X151830306Y-111627769D01*
X151824277Y-111625085D01*
X151725013Y-111603986D01*
X151642617Y-111586472D01*
X151642613Y-111586472D01*
X151636160Y-111585100D01*
X151443840Y-111585100D01*
X151437387Y-111586472D01*
X151437383Y-111586472D01*
X151354987Y-111603986D01*
X151255723Y-111625085D01*
X151249694Y-111627769D01*
X151249692Y-111627770D01*
X151086060Y-111700624D01*
X151086058Y-111700625D01*
X151080030Y-111703309D01*
X151074689Y-111707189D01*
X151074688Y-111707190D01*
X150929784Y-111812468D01*
X150929782Y-111812470D01*
X150924440Y-111816351D01*
X150920019Y-111821261D01*
X150920018Y-111821262D01*
X150894323Y-111849800D01*
X150795753Y-111959273D01*
X150699593Y-112125827D01*
X150640163Y-112308734D01*
X150639473Y-112315297D01*
X150639473Y-112315298D01*
X150626391Y-112439766D01*
X150620060Y-112500000D01*
X149919940Y-112500000D01*
X149913609Y-112439766D01*
X149900527Y-112315298D01*
X149900527Y-112315297D01*
X149899837Y-112308734D01*
X149840407Y-112125827D01*
X149744247Y-111959273D01*
X149645678Y-111849800D01*
X149619982Y-111821262D01*
X149619981Y-111821261D01*
X149615560Y-111816351D01*
X149610218Y-111812470D01*
X149610216Y-111812468D01*
X149465312Y-111707190D01*
X149465311Y-111707189D01*
X149459970Y-111703309D01*
X149453942Y-111700625D01*
X149453940Y-111700624D01*
X149290308Y-111627770D01*
X149290306Y-111627769D01*
X149284277Y-111625085D01*
X149185013Y-111603986D01*
X149102617Y-111586472D01*
X149102613Y-111586472D01*
X149096160Y-111585100D01*
X148903840Y-111585100D01*
X148897387Y-111586472D01*
X148897383Y-111586472D01*
X148814987Y-111603986D01*
X148715723Y-111625085D01*
X148709694Y-111627769D01*
X148709692Y-111627770D01*
X148546060Y-111700624D01*
X148546058Y-111700625D01*
X148540030Y-111703309D01*
X148534689Y-111707189D01*
X148534688Y-111707190D01*
X148389784Y-111812468D01*
X148389782Y-111812470D01*
X148384440Y-111816351D01*
X148380019Y-111821261D01*
X148380018Y-111821262D01*
X148354323Y-111849800D01*
X148255753Y-111959273D01*
X148159593Y-112125827D01*
X148100163Y-112308734D01*
X148099473Y-112315297D01*
X148099473Y-112315298D01*
X148086391Y-112439766D01*
X148080060Y-112500000D01*
X148080750Y-112506565D01*
X148095632Y-112648152D01*
X148100163Y-112691266D01*
X148159593Y-112874173D01*
X148255753Y-113040727D01*
X148384440Y-113183649D01*
X148389785Y-113187532D01*
X148389789Y-113187536D01*
X148393001Y-113189870D01*
X148394409Y-113191696D01*
X148394691Y-113191950D01*
X148394645Y-113192002D01*
X148436352Y-113246095D01*
X148442424Y-113316831D01*
X148409289Y-113379621D01*
X148353559Y-113412951D01*
X148298859Y-113428584D01*
X148298856Y-113428585D01*
X148290229Y-113431051D01*
X148282642Y-113435838D01*
X148282640Y-113435839D01*
X148237299Y-113464447D01*
X148167042Y-113508776D01*
X148070622Y-113617951D01*
X148008719Y-113749800D01*
X148007339Y-113758665D01*
X148007338Y-113758667D01*
X147998875Y-113813023D01*
X147986309Y-113893724D01*
X147987473Y-113902626D01*
X147987473Y-113902629D01*
X147997966Y-113982868D01*
X148005195Y-114038152D01*
X148008810Y-114046367D01*
X148008810Y-114046368D01*
X148063586Y-114170853D01*
X148072714Y-114241260D01*
X148042327Y-114305426D01*
X147982074Y-114342977D01*
X147948257Y-114347600D01*
X147049279Y-114347600D01*
X146981158Y-114327598D01*
X146934665Y-114273942D01*
X146924561Y-114203668D01*
X146935887Y-114166662D01*
X146985495Y-114064271D01*
X146989410Y-114056191D01*
X147013576Y-113912552D01*
X147013729Y-113900000D01*
X146993080Y-113755813D01*
X146989362Y-113747635D01*
X146936508Y-113631390D01*
X146936507Y-113631388D01*
X146932792Y-113623218D01*
X146837713Y-113512873D01*
X146840218Y-113510714D01*
X146810715Y-113464447D01*
X146810966Y-113393451D01*
X146849561Y-113333861D01*
X146880487Y-113314270D01*
X146913940Y-113299376D01*
X146913942Y-113299375D01*
X146919970Y-113296691D01*
X146989610Y-113246095D01*
X147070216Y-113187532D01*
X147070218Y-113187530D01*
X147075560Y-113183649D01*
X147204247Y-113040727D01*
X147300407Y-112874173D01*
X147359837Y-112691266D01*
X147364369Y-112648152D01*
X147379250Y-112506565D01*
X147379940Y-112500000D01*
X147373609Y-112439766D01*
X147360527Y-112315298D01*
X147360527Y-112315297D01*
X147359837Y-112308734D01*
X147300407Y-112125827D01*
X147204247Y-111959273D01*
X147105678Y-111849800D01*
X147079982Y-111821262D01*
X147079981Y-111821261D01*
X147075560Y-111816351D01*
X147070218Y-111812470D01*
X147070216Y-111812468D01*
X146925312Y-111707190D01*
X146925311Y-111707189D01*
X146919970Y-111703309D01*
X146913942Y-111700625D01*
X146913940Y-111700624D01*
X146750308Y-111627770D01*
X146750306Y-111627769D01*
X146744277Y-111625085D01*
X146645013Y-111603986D01*
X146562617Y-111586472D01*
X146562613Y-111586472D01*
X146556160Y-111585100D01*
X146363840Y-111585100D01*
X146357387Y-111586472D01*
X146357383Y-111586472D01*
X146274987Y-111603986D01*
X146175723Y-111625085D01*
X146169694Y-111627769D01*
X146169692Y-111627770D01*
X146006060Y-111700624D01*
X146006058Y-111700625D01*
X146000030Y-111703309D01*
X145994689Y-111707189D01*
X145994688Y-111707190D01*
X145849784Y-111812468D01*
X145849782Y-111812470D01*
X145844440Y-111816351D01*
X145840019Y-111821261D01*
X145840018Y-111821262D01*
X145814323Y-111849800D01*
X145715753Y-111959273D01*
X145619593Y-112125827D01*
X145560163Y-112308734D01*
X145559473Y-112315297D01*
X145559473Y-112315298D01*
X145546391Y-112439766D01*
X145540060Y-112500000D01*
X145540750Y-112506565D01*
X145555632Y-112648152D01*
X145560163Y-112691266D01*
X145619593Y-112874173D01*
X145715753Y-113040727D01*
X145844440Y-113183649D01*
X145849782Y-113187530D01*
X145849784Y-113187532D01*
X145930390Y-113246095D01*
X146000030Y-113296691D01*
X146006058Y-113299375D01*
X146006060Y-113299376D01*
X146039513Y-113314270D01*
X146097507Y-113340091D01*
X146151602Y-113386070D01*
X146172251Y-113453997D01*
X146152899Y-113522305D01*
X146140698Y-113538605D01*
X146070622Y-113617951D01*
X146008719Y-113749800D01*
X146007339Y-113758665D01*
X146007338Y-113758667D01*
X145998875Y-113813023D01*
X145986309Y-113893724D01*
X145987473Y-113902626D01*
X145987473Y-113902629D01*
X145997966Y-113982868D01*
X146005195Y-114038152D01*
X146008810Y-114046367D01*
X146008810Y-114046368D01*
X146063586Y-114170853D01*
X146072714Y-114241260D01*
X146042327Y-114305426D01*
X145982074Y-114342977D01*
X145948257Y-114347600D01*
X145299279Y-114347600D01*
X145231158Y-114327598D01*
X145184665Y-114273942D01*
X145174561Y-114203668D01*
X145185887Y-114166662D01*
X145235495Y-114064271D01*
X145239410Y-114056191D01*
X145263576Y-113912552D01*
X145263729Y-113900000D01*
X145243080Y-113755813D01*
X145239362Y-113747635D01*
X145186508Y-113631390D01*
X145186507Y-113631388D01*
X145182792Y-113623218D01*
X145087713Y-113512873D01*
X144965485Y-113433648D01*
X144825934Y-113391914D01*
X144816958Y-113391859D01*
X144816957Y-113391859D01*
X144755644Y-113391485D01*
X144680279Y-113391024D01*
X144540229Y-113431051D01*
X144532642Y-113435838D01*
X144532640Y-113435839D01*
X144487299Y-113464447D01*
X144417042Y-113508776D01*
X144320622Y-113617951D01*
X144258719Y-113749800D01*
X144257339Y-113758665D01*
X144257338Y-113758667D01*
X144248875Y-113813023D01*
X144236309Y-113893724D01*
X144237473Y-113902626D01*
X144237473Y-113902629D01*
X144247966Y-113982868D01*
X144255195Y-114038152D01*
X144258810Y-114046367D01*
X144258810Y-114046368D01*
X144313586Y-114170853D01*
X144322714Y-114241260D01*
X144292327Y-114305426D01*
X144232074Y-114342977D01*
X144198257Y-114347600D01*
X143549279Y-114347600D01*
X143481158Y-114327598D01*
X143434665Y-114273942D01*
X143424561Y-114203668D01*
X143435887Y-114166662D01*
X143485495Y-114064271D01*
X143489410Y-114056191D01*
X143513576Y-113912552D01*
X143513729Y-113900000D01*
X143493080Y-113755813D01*
X143489362Y-113747635D01*
X143436508Y-113631390D01*
X143436507Y-113631388D01*
X143432792Y-113623218D01*
X143337713Y-113512873D01*
X143215485Y-113433648D01*
X143075934Y-113391914D01*
X143066958Y-113391859D01*
X143066957Y-113391859D01*
X143005644Y-113391485D01*
X142930279Y-113391024D01*
X142790229Y-113431051D01*
X142782642Y-113435838D01*
X142782640Y-113435839D01*
X142737299Y-113464447D01*
X142667042Y-113508776D01*
X142570622Y-113617951D01*
X142508719Y-113749800D01*
X142507339Y-113758665D01*
X142507338Y-113758667D01*
X142498875Y-113813023D01*
X142486309Y-113893724D01*
X142487473Y-113902626D01*
X142487473Y-113902629D01*
X142497966Y-113982868D01*
X142505195Y-114038152D01*
X142508810Y-114046367D01*
X142508810Y-114046368D01*
X142563586Y-114170853D01*
X142572714Y-114241260D01*
X142542327Y-114305426D01*
X142482074Y-114342977D01*
X142448257Y-114347600D01*
X141549279Y-114347600D01*
X141481158Y-114327598D01*
X141434665Y-114273942D01*
X141424561Y-114203668D01*
X141435887Y-114166662D01*
X141485495Y-114064271D01*
X141489410Y-114056191D01*
X141513576Y-113912552D01*
X141513729Y-113900000D01*
X141493080Y-113755813D01*
X141489362Y-113747635D01*
X141436508Y-113631390D01*
X141436507Y-113631388D01*
X141432792Y-113623218D01*
X141337713Y-113512873D01*
X141215485Y-113433648D01*
X141075934Y-113391914D01*
X141066958Y-113391859D01*
X141066957Y-113391859D01*
X141005644Y-113391485D01*
X140930279Y-113391024D01*
X140790229Y-113431051D01*
X140782642Y-113435838D01*
X140782640Y-113435839D01*
X140737299Y-113464447D01*
X140667042Y-113508776D01*
X140570622Y-113617951D01*
X140508719Y-113749800D01*
X140507339Y-113758665D01*
X140507338Y-113758667D01*
X140498875Y-113813023D01*
X140486309Y-113893724D01*
X140487473Y-113902626D01*
X140487473Y-113902629D01*
X140497966Y-113982868D01*
X140505195Y-114038152D01*
X140508810Y-114046367D01*
X140508810Y-114046368D01*
X140563586Y-114170853D01*
X140572714Y-114241260D01*
X140542327Y-114305426D01*
X140482074Y-114342977D01*
X140448257Y-114347600D01*
X139349279Y-114347600D01*
X139281158Y-114327598D01*
X139234665Y-114273942D01*
X139224561Y-114203668D01*
X139235887Y-114166662D01*
X139285495Y-114064271D01*
X139289410Y-114056191D01*
X139313576Y-113912552D01*
X139313729Y-113900000D01*
X139293080Y-113755813D01*
X139289362Y-113747635D01*
X139236508Y-113631390D01*
X139236507Y-113631388D01*
X139232792Y-113623218D01*
X139137713Y-113512873D01*
X139015485Y-113433648D01*
X138875934Y-113391914D01*
X138866958Y-113391859D01*
X138866957Y-113391859D01*
X138805644Y-113391485D01*
X138730279Y-113391024D01*
X138590229Y-113431051D01*
X138582642Y-113435838D01*
X138582640Y-113435839D01*
X138537299Y-113464447D01*
X138467042Y-113508776D01*
X138370622Y-113617951D01*
X138308719Y-113749800D01*
X138307339Y-113758665D01*
X138307338Y-113758667D01*
X138298875Y-113813023D01*
X138286309Y-113893724D01*
X138287473Y-113902626D01*
X138287473Y-113902629D01*
X138297966Y-113982868D01*
X138305195Y-114038152D01*
X138308810Y-114046367D01*
X138308810Y-114046368D01*
X138363586Y-114170853D01*
X138372714Y-114241260D01*
X138342327Y-114305426D01*
X138282074Y-114342977D01*
X138248257Y-114347600D01*
X137049279Y-114347600D01*
X136981158Y-114327598D01*
X136934665Y-114273942D01*
X136924561Y-114203668D01*
X136935887Y-114166662D01*
X136985495Y-114064271D01*
X136989410Y-114056191D01*
X137013576Y-113912552D01*
X137013729Y-113900000D01*
X136993080Y-113755813D01*
X136989362Y-113747635D01*
X136936508Y-113631390D01*
X136936507Y-113631388D01*
X136932792Y-113623218D01*
X136837713Y-113512873D01*
X136715485Y-113433648D01*
X136575934Y-113391914D01*
X136566958Y-113391859D01*
X136566957Y-113391859D01*
X136505644Y-113391485D01*
X136430279Y-113391024D01*
X136290229Y-113431051D01*
X136282642Y-113435838D01*
X136282640Y-113435839D01*
X136237299Y-113464447D01*
X136167042Y-113508776D01*
X136070622Y-113617951D01*
X136008719Y-113749800D01*
X136007339Y-113758665D01*
X136007338Y-113758667D01*
X135998875Y-113813023D01*
X135986309Y-113893724D01*
X135987473Y-113902626D01*
X135987473Y-113902629D01*
X135997966Y-113982868D01*
X136005195Y-114038152D01*
X136008810Y-114046367D01*
X136008810Y-114046368D01*
X136063586Y-114170853D01*
X136072714Y-114241260D01*
X136042327Y-114305426D01*
X135982074Y-114342977D01*
X135948257Y-114347600D01*
X135049279Y-114347600D01*
X134981158Y-114327598D01*
X134934665Y-114273942D01*
X134924561Y-114203668D01*
X134935887Y-114166662D01*
X134985495Y-114064271D01*
X134989410Y-114056191D01*
X135013576Y-113912552D01*
X135013729Y-113900000D01*
X134993080Y-113755813D01*
X134989362Y-113747635D01*
X134936508Y-113631390D01*
X134936507Y-113631388D01*
X134932792Y-113623218D01*
X134837713Y-113512873D01*
X134715485Y-113433648D01*
X134575934Y-113391914D01*
X134566958Y-113391859D01*
X134566957Y-113391859D01*
X134505644Y-113391485D01*
X134430279Y-113391024D01*
X134290229Y-113431051D01*
X134282642Y-113435838D01*
X134282640Y-113435839D01*
X134237299Y-113464447D01*
X134167042Y-113508776D01*
X134070622Y-113617951D01*
X134008719Y-113749800D01*
X134007339Y-113758665D01*
X134007338Y-113758667D01*
X133998875Y-113813023D01*
X133986309Y-113893724D01*
X133987473Y-113902626D01*
X133987473Y-113902629D01*
X133997966Y-113982868D01*
X134005195Y-114038152D01*
X134008810Y-114046367D01*
X134008810Y-114046368D01*
X134063586Y-114170853D01*
X134072714Y-114241260D01*
X134042327Y-114305426D01*
X133982074Y-114342977D01*
X133948257Y-114347600D01*
X133126000Y-114347600D01*
X133057879Y-114327598D01*
X133011386Y-114273942D01*
X133000000Y-114221600D01*
X133000000Y-114003773D01*
X133001746Y-113982868D01*
X133012770Y-113917345D01*
X133012770Y-113917340D01*
X133013576Y-113912552D01*
X133013729Y-113900000D01*
X133001273Y-113813022D01*
X133000000Y-113795161D01*
X133000000Y-112513741D01*
X133020002Y-112445620D01*
X133060073Y-112406365D01*
X133070501Y-112399963D01*
X133070506Y-112399959D01*
X133078154Y-112395263D01*
X133084774Y-112387950D01*
X133169873Y-112293934D01*
X133169874Y-112293933D01*
X133175901Y-112287274D01*
X133196174Y-112245432D01*
X133235495Y-112164272D01*
X133235495Y-112164271D01*
X133239410Y-112156191D01*
X133263576Y-112012552D01*
X133263729Y-112000000D01*
X133243080Y-111855813D01*
X133239362Y-111847635D01*
X133186508Y-111731390D01*
X133186507Y-111731388D01*
X133182792Y-111723218D01*
X133087713Y-111612873D01*
X133057465Y-111593267D01*
X133011183Y-111539431D01*
X133000000Y-111487536D01*
X133000000Y-110993724D01*
X137236309Y-110993724D01*
X137237473Y-111002626D01*
X137237473Y-111002629D01*
X137248225Y-111084852D01*
X137255195Y-111138152D01*
X137258809Y-111146365D01*
X137258810Y-111146369D01*
X137259237Y-111147339D01*
X137313859Y-111271474D01*
X137319634Y-111278344D01*
X137319635Y-111278346D01*
X137327140Y-111287274D01*
X137407583Y-111382973D01*
X137415060Y-111387950D01*
X137521361Y-111458710D01*
X137521363Y-111458711D01*
X137528834Y-111463684D01*
X137667864Y-111507121D01*
X137813498Y-111509790D01*
X137911860Y-111482973D01*
X137945363Y-111473839D01*
X137945364Y-111473839D01*
X137954026Y-111471477D01*
X137962359Y-111466361D01*
X138070502Y-111399961D01*
X138078154Y-111395263D01*
X138084774Y-111387950D01*
X138169873Y-111293934D01*
X138169874Y-111293933D01*
X138175901Y-111287274D01*
X138187046Y-111264272D01*
X138235495Y-111164272D01*
X138235495Y-111164271D01*
X138239410Y-111156191D01*
X138249920Y-111093724D01*
X157086309Y-111093724D01*
X157087473Y-111102626D01*
X157087473Y-111102629D01*
X157093193Y-111146369D01*
X157105195Y-111238152D01*
X157108809Y-111246365D01*
X157108810Y-111246369D01*
X157129740Y-111293934D01*
X157163859Y-111371474D01*
X157169634Y-111378344D01*
X157169635Y-111378346D01*
X157249905Y-111473839D01*
X157257583Y-111482973D01*
X157265060Y-111487950D01*
X157371361Y-111558710D01*
X157371363Y-111558711D01*
X157378834Y-111563684D01*
X157387401Y-111566361D01*
X157387402Y-111566361D01*
X157403777Y-111571477D01*
X157517864Y-111607121D01*
X157663498Y-111609790D01*
X157754058Y-111585100D01*
X157795363Y-111573839D01*
X157795364Y-111573839D01*
X157804026Y-111571477D01*
X157812359Y-111566361D01*
X157920502Y-111499961D01*
X157928154Y-111495263D01*
X157934774Y-111487950D01*
X158019873Y-111393934D01*
X158019874Y-111393933D01*
X158025901Y-111387274D01*
X158031317Y-111376097D01*
X158085495Y-111264272D01*
X158085495Y-111264271D01*
X158089410Y-111256191D01*
X158113576Y-111112552D01*
X158113729Y-111100000D01*
X158112830Y-111093724D01*
X164586309Y-111093724D01*
X164587473Y-111102626D01*
X164587473Y-111102629D01*
X164593193Y-111146369D01*
X164605195Y-111238152D01*
X164608809Y-111246365D01*
X164608810Y-111246369D01*
X164629740Y-111293934D01*
X164663859Y-111371474D01*
X164669634Y-111378344D01*
X164669635Y-111378346D01*
X164749905Y-111473839D01*
X164757583Y-111482973D01*
X164765060Y-111487950D01*
X164871361Y-111558710D01*
X164871363Y-111558711D01*
X164878834Y-111563684D01*
X164887401Y-111566361D01*
X164887402Y-111566361D01*
X164903777Y-111571477D01*
X165017864Y-111607121D01*
X165163498Y-111609790D01*
X165254058Y-111585100D01*
X165295363Y-111573839D01*
X165295364Y-111573839D01*
X165304026Y-111571477D01*
X165312359Y-111566361D01*
X165420502Y-111499961D01*
X165428154Y-111495263D01*
X165434774Y-111487950D01*
X165519873Y-111393934D01*
X165519874Y-111393933D01*
X165525901Y-111387274D01*
X165531317Y-111376097D01*
X165585495Y-111264272D01*
X165585495Y-111264271D01*
X165589410Y-111256191D01*
X165613576Y-111112552D01*
X165613729Y-111100000D01*
X165598718Y-110995183D01*
X165594354Y-110964706D01*
X165594353Y-110964703D01*
X165593080Y-110955813D01*
X165589362Y-110947635D01*
X165536508Y-110831390D01*
X165536507Y-110831388D01*
X165532792Y-110823218D01*
X165437713Y-110712873D01*
X165315485Y-110633648D01*
X165175934Y-110591914D01*
X165166958Y-110591859D01*
X165166957Y-110591859D01*
X165105644Y-110591485D01*
X165030279Y-110591024D01*
X164890229Y-110631051D01*
X164767042Y-110708776D01*
X164670622Y-110817951D01*
X164666808Y-110826074D01*
X164666807Y-110826076D01*
X164612533Y-110941676D01*
X164608719Y-110949800D01*
X164607339Y-110958665D01*
X164607338Y-110958667D01*
X164599705Y-111007693D01*
X164586309Y-111093724D01*
X158112830Y-111093724D01*
X158098718Y-110995183D01*
X158094354Y-110964706D01*
X158094353Y-110964703D01*
X158093080Y-110955813D01*
X158089362Y-110947635D01*
X158036508Y-110831390D01*
X158036507Y-110831388D01*
X158032792Y-110823218D01*
X157937713Y-110712873D01*
X157815485Y-110633648D01*
X157675934Y-110591914D01*
X157666958Y-110591859D01*
X157666957Y-110591859D01*
X157605644Y-110591485D01*
X157530279Y-110591024D01*
X157390229Y-110631051D01*
X157267042Y-110708776D01*
X157170622Y-110817951D01*
X157166808Y-110826074D01*
X157166807Y-110826076D01*
X157112533Y-110941676D01*
X157108719Y-110949800D01*
X157107339Y-110958665D01*
X157107338Y-110958667D01*
X157099705Y-111007693D01*
X157086309Y-111093724D01*
X138249920Y-111093724D01*
X138263576Y-111012552D01*
X138263729Y-111000000D01*
X138256230Y-110947635D01*
X138244354Y-110864706D01*
X138244353Y-110864703D01*
X138243080Y-110855813D01*
X138239362Y-110847635D01*
X138186508Y-110731390D01*
X138186507Y-110731388D01*
X138182792Y-110723218D01*
X138087713Y-110612873D01*
X137965485Y-110533648D01*
X137825934Y-110491914D01*
X137816958Y-110491859D01*
X137816957Y-110491859D01*
X137755644Y-110491485D01*
X137680279Y-110491024D01*
X137540229Y-110531051D01*
X137532642Y-110535838D01*
X137532640Y-110535839D01*
X137489184Y-110563258D01*
X137417042Y-110608776D01*
X137320622Y-110717951D01*
X137316808Y-110726074D01*
X137316807Y-110726076D01*
X137276831Y-110811223D01*
X137258719Y-110849800D01*
X137257339Y-110858665D01*
X137257338Y-110858667D01*
X137241768Y-110958667D01*
X137236309Y-110993724D01*
X133000000Y-110993724D01*
X133000000Y-110552190D01*
X133020002Y-110484069D01*
X133036905Y-110463095D01*
X133206276Y-110293724D01*
X146786309Y-110293724D01*
X146787473Y-110302626D01*
X146787473Y-110302629D01*
X146797080Y-110376097D01*
X146805195Y-110438152D01*
X146808809Y-110446365D01*
X146808810Y-110446369D01*
X146836644Y-110509625D01*
X146863859Y-110571474D01*
X146869634Y-110578344D01*
X146869635Y-110578346D01*
X146904376Y-110619675D01*
X146957583Y-110682973D01*
X146965060Y-110687950D01*
X147071361Y-110758710D01*
X147071363Y-110758711D01*
X147078834Y-110763684D01*
X147217864Y-110807121D01*
X147363498Y-110809790D01*
X147433762Y-110790634D01*
X147495363Y-110773839D01*
X147495364Y-110773839D01*
X147504026Y-110771477D01*
X147512359Y-110766361D01*
X147569315Y-110731390D01*
X147628154Y-110695263D01*
X147634774Y-110687950D01*
X147719873Y-110593934D01*
X147719874Y-110593933D01*
X147725901Y-110587274D01*
X147769558Y-110497167D01*
X147785495Y-110464272D01*
X147785495Y-110464271D01*
X147789410Y-110456191D01*
X147813576Y-110312552D01*
X147813729Y-110300000D01*
X147812830Y-110293724D01*
X148386309Y-110293724D01*
X148387473Y-110302626D01*
X148387473Y-110302629D01*
X148397080Y-110376097D01*
X148405195Y-110438152D01*
X148408809Y-110446365D01*
X148408810Y-110446369D01*
X148436644Y-110509625D01*
X148463859Y-110571474D01*
X148469634Y-110578344D01*
X148469635Y-110578346D01*
X148504376Y-110619675D01*
X148557583Y-110682973D01*
X148565060Y-110687950D01*
X148671361Y-110758710D01*
X148671363Y-110758711D01*
X148678834Y-110763684D01*
X148817864Y-110807121D01*
X148963498Y-110809790D01*
X149033762Y-110790634D01*
X149095363Y-110773839D01*
X149095364Y-110773839D01*
X149104026Y-110771477D01*
X149112359Y-110766361D01*
X149169315Y-110731390D01*
X149228154Y-110695263D01*
X149234774Y-110687950D01*
X149319873Y-110593934D01*
X149319874Y-110593933D01*
X149325901Y-110587274D01*
X149369558Y-110497167D01*
X149385495Y-110464272D01*
X149385495Y-110464271D01*
X149389410Y-110456191D01*
X149413576Y-110312552D01*
X149413729Y-110300000D01*
X149412830Y-110293724D01*
X158346309Y-110293724D01*
X158347473Y-110302626D01*
X158347473Y-110302629D01*
X158357080Y-110376097D01*
X158365195Y-110438152D01*
X158368809Y-110446365D01*
X158368810Y-110446369D01*
X158396644Y-110509625D01*
X158423859Y-110571474D01*
X158429634Y-110578344D01*
X158429635Y-110578346D01*
X158464376Y-110619675D01*
X158517583Y-110682973D01*
X158525060Y-110687950D01*
X158631361Y-110758710D01*
X158631363Y-110758711D01*
X158638834Y-110763684D01*
X158777864Y-110807121D01*
X158923498Y-110809790D01*
X158993762Y-110790634D01*
X159055363Y-110773839D01*
X159055364Y-110773839D01*
X159064026Y-110771477D01*
X159072359Y-110766361D01*
X159129315Y-110731390D01*
X159188154Y-110695263D01*
X159194774Y-110687950D01*
X159279873Y-110593934D01*
X159279874Y-110593933D01*
X159285901Y-110587274D01*
X159329558Y-110497167D01*
X159345495Y-110464272D01*
X159345495Y-110464271D01*
X159349410Y-110456191D01*
X159373576Y-110312552D01*
X159373729Y-110300000D01*
X159372830Y-110293724D01*
X165856309Y-110293724D01*
X165857473Y-110302626D01*
X165857473Y-110302629D01*
X165867080Y-110376097D01*
X165875195Y-110438152D01*
X165878809Y-110446365D01*
X165878810Y-110446369D01*
X165906644Y-110509625D01*
X165933859Y-110571474D01*
X165939634Y-110578344D01*
X165939635Y-110578346D01*
X165974376Y-110619675D01*
X166027583Y-110682973D01*
X166035060Y-110687950D01*
X166141361Y-110758710D01*
X166141363Y-110758711D01*
X166148834Y-110763684D01*
X166287864Y-110807121D01*
X166433498Y-110809790D01*
X166503762Y-110790634D01*
X166565363Y-110773839D01*
X166565364Y-110773839D01*
X166574026Y-110771477D01*
X166582359Y-110766361D01*
X166639315Y-110731390D01*
X166698154Y-110695263D01*
X166704774Y-110687950D01*
X166789873Y-110593934D01*
X166789874Y-110593933D01*
X166795901Y-110587274D01*
X166839558Y-110497167D01*
X166855495Y-110464272D01*
X166855495Y-110464271D01*
X166859410Y-110456191D01*
X166883576Y-110312552D01*
X166883729Y-110300000D01*
X166871368Y-110213684D01*
X166864354Y-110164706D01*
X166864353Y-110164703D01*
X166863080Y-110155813D01*
X166858786Y-110146369D01*
X166806508Y-110031390D01*
X166806507Y-110031388D01*
X166802792Y-110023218D01*
X166707713Y-109912873D01*
X166585485Y-109833648D01*
X166445934Y-109791914D01*
X166436958Y-109791859D01*
X166436957Y-109791859D01*
X166375644Y-109791485D01*
X166300279Y-109791024D01*
X166160229Y-109831051D01*
X166152642Y-109835838D01*
X166152640Y-109835839D01*
X166120983Y-109855813D01*
X166037042Y-109908776D01*
X165940622Y-110017951D01*
X165936808Y-110026074D01*
X165936807Y-110026076D01*
X165882533Y-110141676D01*
X165878719Y-110149800D01*
X165877339Y-110158665D01*
X165877338Y-110158667D01*
X165861053Y-110263258D01*
X165856309Y-110293724D01*
X159372830Y-110293724D01*
X159361368Y-110213684D01*
X159354354Y-110164706D01*
X159354353Y-110164703D01*
X159353080Y-110155813D01*
X159348786Y-110146369D01*
X159296508Y-110031390D01*
X159296507Y-110031388D01*
X159292792Y-110023218D01*
X159197713Y-109912873D01*
X159075485Y-109833648D01*
X158935934Y-109791914D01*
X158926958Y-109791859D01*
X158926957Y-109791859D01*
X158865644Y-109791485D01*
X158790279Y-109791024D01*
X158650229Y-109831051D01*
X158642642Y-109835838D01*
X158642640Y-109835839D01*
X158610983Y-109855813D01*
X158527042Y-109908776D01*
X158430622Y-110017951D01*
X158426808Y-110026074D01*
X158426807Y-110026076D01*
X158372533Y-110141676D01*
X158368719Y-110149800D01*
X158367339Y-110158665D01*
X158367338Y-110158667D01*
X158351053Y-110263258D01*
X158346309Y-110293724D01*
X149412830Y-110293724D01*
X149401368Y-110213684D01*
X149394354Y-110164706D01*
X149394353Y-110164703D01*
X149393080Y-110155813D01*
X149388786Y-110146369D01*
X149336508Y-110031390D01*
X149336507Y-110031388D01*
X149332792Y-110023218D01*
X149237713Y-109912873D01*
X149115485Y-109833648D01*
X148975934Y-109791914D01*
X148966958Y-109791859D01*
X148966957Y-109791859D01*
X148905644Y-109791485D01*
X148830279Y-109791024D01*
X148690229Y-109831051D01*
X148682642Y-109835838D01*
X148682640Y-109835839D01*
X148650983Y-109855813D01*
X148567042Y-109908776D01*
X148470622Y-110017951D01*
X148466808Y-110026074D01*
X148466807Y-110026076D01*
X148412533Y-110141676D01*
X148408719Y-110149800D01*
X148407339Y-110158665D01*
X148407338Y-110158667D01*
X148391053Y-110263258D01*
X148386309Y-110293724D01*
X147812830Y-110293724D01*
X147801368Y-110213684D01*
X147794354Y-110164706D01*
X147794353Y-110164703D01*
X147793080Y-110155813D01*
X147788786Y-110146369D01*
X147736508Y-110031390D01*
X147736507Y-110031388D01*
X147732792Y-110023218D01*
X147637713Y-109912873D01*
X147515485Y-109833648D01*
X147375934Y-109791914D01*
X147366958Y-109791859D01*
X147366957Y-109791859D01*
X147305644Y-109791485D01*
X147230279Y-109791024D01*
X147090229Y-109831051D01*
X147082642Y-109835838D01*
X147082640Y-109835839D01*
X147050983Y-109855813D01*
X146967042Y-109908776D01*
X146870622Y-110017951D01*
X146866808Y-110026074D01*
X146866807Y-110026076D01*
X146812533Y-110141676D01*
X146808719Y-110149800D01*
X146807339Y-110158665D01*
X146807338Y-110158667D01*
X146791053Y-110263258D01*
X146786309Y-110293724D01*
X133206276Y-110293724D01*
X133756276Y-109743724D01*
X139486309Y-109743724D01*
X139487473Y-109752626D01*
X139487473Y-109752629D01*
X139492947Y-109794487D01*
X139505195Y-109888152D01*
X139508809Y-109896365D01*
X139508810Y-109896369D01*
X139547745Y-109984852D01*
X139563859Y-110021474D01*
X139569634Y-110028344D01*
X139569635Y-110028346D01*
X139572194Y-110031390D01*
X139657583Y-110132973D01*
X139665060Y-110137950D01*
X139771361Y-110208710D01*
X139771363Y-110208711D01*
X139778834Y-110213684D01*
X139917864Y-110257121D01*
X140063498Y-110259790D01*
X140133762Y-110240633D01*
X140195363Y-110223839D01*
X140195364Y-110223839D01*
X140204026Y-110221477D01*
X140212359Y-110216361D01*
X140266090Y-110183370D01*
X140328154Y-110145263D01*
X140334774Y-110137950D01*
X140419873Y-110043934D01*
X140419874Y-110043933D01*
X140425901Y-110037274D01*
X140431327Y-110026076D01*
X140485495Y-109914272D01*
X140485495Y-109914271D01*
X140489410Y-109906191D01*
X140513576Y-109762552D01*
X140513652Y-109756313D01*
X140513670Y-109754860D01*
X140513670Y-109754857D01*
X140513729Y-109750000D01*
X140512830Y-109743724D01*
X141486309Y-109743724D01*
X141487473Y-109752626D01*
X141487473Y-109752629D01*
X141492947Y-109794487D01*
X141505195Y-109888152D01*
X141508809Y-109896365D01*
X141508810Y-109896369D01*
X141547745Y-109984852D01*
X141563859Y-110021474D01*
X141569634Y-110028344D01*
X141569635Y-110028346D01*
X141572194Y-110031390D01*
X141657583Y-110132973D01*
X141665060Y-110137950D01*
X141771361Y-110208710D01*
X141771363Y-110208711D01*
X141778834Y-110213684D01*
X141917864Y-110257121D01*
X142063498Y-110259790D01*
X142133762Y-110240633D01*
X142195363Y-110223839D01*
X142195364Y-110223839D01*
X142204026Y-110221477D01*
X142212359Y-110216361D01*
X142266090Y-110183370D01*
X142328154Y-110145263D01*
X142334774Y-110137950D01*
X142419873Y-110043934D01*
X142419874Y-110043933D01*
X142425901Y-110037274D01*
X142431327Y-110026076D01*
X142485495Y-109914272D01*
X142485495Y-109914271D01*
X142489410Y-109906191D01*
X142513576Y-109762552D01*
X142513652Y-109756313D01*
X142513670Y-109754860D01*
X142513670Y-109754857D01*
X142513729Y-109750000D01*
X142493080Y-109605813D01*
X142489362Y-109597635D01*
X142436508Y-109481390D01*
X142436507Y-109481388D01*
X142432792Y-109473218D01*
X142337713Y-109362873D01*
X142215485Y-109283648D01*
X142075934Y-109241914D01*
X142066958Y-109241859D01*
X142066957Y-109241859D01*
X142005644Y-109241485D01*
X141930279Y-109241024D01*
X141790229Y-109281051D01*
X141667042Y-109358776D01*
X141570622Y-109467951D01*
X141566808Y-109476074D01*
X141566807Y-109476076D01*
X141528340Y-109558008D01*
X141508719Y-109599800D01*
X141507339Y-109608665D01*
X141507338Y-109608667D01*
X141489057Y-109726076D01*
X141486309Y-109743724D01*
X140512830Y-109743724D01*
X140493080Y-109605813D01*
X140489362Y-109597635D01*
X140436508Y-109481390D01*
X140436507Y-109481388D01*
X140432792Y-109473218D01*
X140337713Y-109362873D01*
X140215485Y-109283648D01*
X140075934Y-109241914D01*
X140066958Y-109241859D01*
X140066957Y-109241859D01*
X140005644Y-109241485D01*
X139930279Y-109241024D01*
X139790229Y-109281051D01*
X139667042Y-109358776D01*
X139570622Y-109467951D01*
X139566808Y-109476074D01*
X139566807Y-109476076D01*
X139528340Y-109558008D01*
X139508719Y-109599800D01*
X139507339Y-109608665D01*
X139507338Y-109608667D01*
X139489057Y-109726076D01*
X139486309Y-109743724D01*
X133756276Y-109743724D01*
X135406276Y-108093724D01*
X147586309Y-108093724D01*
X147587473Y-108102626D01*
X147587473Y-108102629D01*
X147593193Y-108146369D01*
X147605195Y-108238152D01*
X147608809Y-108246365D01*
X147608810Y-108246369D01*
X147627061Y-108287846D01*
X147663859Y-108371474D01*
X147669634Y-108378344D01*
X147669635Y-108378346D01*
X147749905Y-108473839D01*
X147757583Y-108482973D01*
X147765060Y-108487950D01*
X147871361Y-108558710D01*
X147871363Y-108558711D01*
X147878834Y-108563684D01*
X148017864Y-108607121D01*
X148163498Y-108609790D01*
X148233762Y-108590634D01*
X148295363Y-108573839D01*
X148295364Y-108573839D01*
X148304026Y-108571477D01*
X148312359Y-108566361D01*
X148413201Y-108504444D01*
X148428154Y-108495263D01*
X148434774Y-108487950D01*
X148519873Y-108393934D01*
X148519874Y-108393933D01*
X148525901Y-108387274D01*
X148531317Y-108376097D01*
X148585495Y-108264272D01*
X148585495Y-108264271D01*
X148589410Y-108256191D01*
X148613576Y-108112552D01*
X148613729Y-108100000D01*
X148612830Y-108093724D01*
X159626309Y-108093724D01*
X159627473Y-108102626D01*
X159627473Y-108102629D01*
X159633193Y-108146369D01*
X159645195Y-108238152D01*
X159648809Y-108246365D01*
X159648810Y-108246369D01*
X159667061Y-108287846D01*
X159703859Y-108371474D01*
X159709634Y-108378344D01*
X159709635Y-108378346D01*
X159789905Y-108473839D01*
X159797583Y-108482973D01*
X159805060Y-108487950D01*
X159911361Y-108558710D01*
X159911363Y-108558711D01*
X159918834Y-108563684D01*
X160057864Y-108607121D01*
X160203498Y-108609790D01*
X160273762Y-108590634D01*
X160335363Y-108573839D01*
X160335364Y-108573839D01*
X160344026Y-108571477D01*
X160352359Y-108566361D01*
X160453201Y-108504444D01*
X160468154Y-108495263D01*
X160474774Y-108487950D01*
X160559873Y-108393934D01*
X160559874Y-108393933D01*
X160565901Y-108387274D01*
X160571317Y-108376097D01*
X160625495Y-108264272D01*
X160625495Y-108264271D01*
X160629410Y-108256191D01*
X160653576Y-108112552D01*
X160653729Y-108100000D01*
X160652830Y-108093724D01*
X167126309Y-108093724D01*
X167127473Y-108102626D01*
X167127473Y-108102629D01*
X167133193Y-108146369D01*
X167145195Y-108238152D01*
X167148809Y-108246365D01*
X167148810Y-108246369D01*
X167167061Y-108287846D01*
X167203859Y-108371474D01*
X167209634Y-108378344D01*
X167209635Y-108378346D01*
X167289905Y-108473839D01*
X167297583Y-108482973D01*
X167305060Y-108487950D01*
X167411361Y-108558710D01*
X167411363Y-108558711D01*
X167418834Y-108563684D01*
X167557864Y-108607121D01*
X167703498Y-108609790D01*
X167773762Y-108590634D01*
X167835363Y-108573839D01*
X167835364Y-108573839D01*
X167844026Y-108571477D01*
X167852359Y-108566361D01*
X167953201Y-108504444D01*
X167968154Y-108495263D01*
X167974774Y-108487950D01*
X168059873Y-108393934D01*
X168059874Y-108393933D01*
X168065901Y-108387274D01*
X168071317Y-108376097D01*
X168125495Y-108264272D01*
X168125495Y-108264271D01*
X168129410Y-108256191D01*
X168153576Y-108112552D01*
X168153729Y-108100000D01*
X168139785Y-108002629D01*
X168134354Y-107964706D01*
X168134353Y-107964703D01*
X168133080Y-107955813D01*
X168129362Y-107947635D01*
X168076508Y-107831390D01*
X168076507Y-107831388D01*
X168072792Y-107823218D01*
X167977713Y-107712873D01*
X167855485Y-107633648D01*
X167715934Y-107591914D01*
X167706958Y-107591859D01*
X167706957Y-107591859D01*
X167645644Y-107591485D01*
X167570279Y-107591024D01*
X167430229Y-107631051D01*
X167307042Y-107708776D01*
X167210622Y-107817951D01*
X167206808Y-107826074D01*
X167206807Y-107826076D01*
X167152533Y-107941676D01*
X167148719Y-107949800D01*
X167147339Y-107958665D01*
X167147338Y-107958667D01*
X167136068Y-108031051D01*
X167126309Y-108093724D01*
X160652830Y-108093724D01*
X160639785Y-108002629D01*
X160634354Y-107964706D01*
X160634353Y-107964703D01*
X160633080Y-107955813D01*
X160629362Y-107947635D01*
X160576508Y-107831390D01*
X160576507Y-107831388D01*
X160572792Y-107823218D01*
X160477713Y-107712873D01*
X160355485Y-107633648D01*
X160215934Y-107591914D01*
X160206958Y-107591859D01*
X160206957Y-107591859D01*
X160145644Y-107591485D01*
X160070279Y-107591024D01*
X159930229Y-107631051D01*
X159807042Y-107708776D01*
X159710622Y-107817951D01*
X159706808Y-107826074D01*
X159706807Y-107826076D01*
X159652533Y-107941676D01*
X159648719Y-107949800D01*
X159647339Y-107958665D01*
X159647338Y-107958667D01*
X159636068Y-108031051D01*
X159626309Y-108093724D01*
X148612830Y-108093724D01*
X148599785Y-108002629D01*
X148594354Y-107964706D01*
X148594353Y-107964703D01*
X148593080Y-107955813D01*
X148589362Y-107947635D01*
X148536508Y-107831390D01*
X148536507Y-107831388D01*
X148532792Y-107823218D01*
X148437713Y-107712873D01*
X148315485Y-107633648D01*
X148175934Y-107591914D01*
X148166958Y-107591859D01*
X148166957Y-107591859D01*
X148105644Y-107591485D01*
X148030279Y-107591024D01*
X147890229Y-107631051D01*
X147767042Y-107708776D01*
X147670622Y-107817951D01*
X147666808Y-107826074D01*
X147666807Y-107826076D01*
X147612533Y-107941676D01*
X147608719Y-107949800D01*
X147607339Y-107958665D01*
X147607338Y-107958667D01*
X147596068Y-108031051D01*
X147586309Y-108093724D01*
X135406276Y-108093724D01*
X136106276Y-107393724D01*
X149186309Y-107393724D01*
X149187473Y-107402626D01*
X149187473Y-107402629D01*
X149195334Y-107462739D01*
X149205195Y-107538152D01*
X149208809Y-107546365D01*
X149208810Y-107546369D01*
X149239231Y-107615504D01*
X149263859Y-107671474D01*
X149269634Y-107678344D01*
X149269635Y-107678346D01*
X149304376Y-107719675D01*
X149357583Y-107782973D01*
X149365060Y-107787950D01*
X149471361Y-107858710D01*
X149471363Y-107858711D01*
X149478834Y-107863684D01*
X149617864Y-107907121D01*
X149763498Y-107909790D01*
X149833762Y-107890633D01*
X149895363Y-107873839D01*
X149895364Y-107873839D01*
X149904026Y-107871477D01*
X149912359Y-107866361D01*
X149972688Y-107829319D01*
X150028154Y-107795263D01*
X150034774Y-107787950D01*
X150119873Y-107693934D01*
X150119874Y-107693933D01*
X150125901Y-107687274D01*
X150171339Y-107593491D01*
X150185495Y-107564272D01*
X150185495Y-107564271D01*
X150189410Y-107556191D01*
X150203662Y-107471477D01*
X150212770Y-107417344D01*
X150212770Y-107417341D01*
X150213576Y-107412552D01*
X150213729Y-107400000D01*
X150212830Y-107393724D01*
X160896309Y-107393724D01*
X160897473Y-107402626D01*
X160897473Y-107402629D01*
X160905334Y-107462739D01*
X160915195Y-107538152D01*
X160918809Y-107546365D01*
X160918810Y-107546369D01*
X160949231Y-107615504D01*
X160973859Y-107671474D01*
X160979634Y-107678344D01*
X160979635Y-107678346D01*
X161014376Y-107719675D01*
X161067583Y-107782973D01*
X161075060Y-107787950D01*
X161181361Y-107858710D01*
X161181363Y-107858711D01*
X161188834Y-107863684D01*
X161327864Y-107907121D01*
X161473498Y-107909790D01*
X161543762Y-107890633D01*
X161605363Y-107873839D01*
X161605364Y-107873839D01*
X161614026Y-107871477D01*
X161622359Y-107866361D01*
X161682688Y-107829319D01*
X161738154Y-107795263D01*
X161744774Y-107787950D01*
X161829873Y-107693934D01*
X161829874Y-107693933D01*
X161835901Y-107687274D01*
X161881339Y-107593491D01*
X161895495Y-107564272D01*
X161895495Y-107564271D01*
X161899410Y-107556191D01*
X161913662Y-107471477D01*
X161922770Y-107417344D01*
X161922770Y-107417341D01*
X161923576Y-107412552D01*
X161923729Y-107400000D01*
X161922830Y-107393724D01*
X168386309Y-107393724D01*
X168387473Y-107402626D01*
X168387473Y-107402629D01*
X168395334Y-107462739D01*
X168405195Y-107538152D01*
X168408809Y-107546365D01*
X168408810Y-107546369D01*
X168439231Y-107615504D01*
X168463859Y-107671474D01*
X168469634Y-107678344D01*
X168469635Y-107678346D01*
X168504376Y-107719675D01*
X168557583Y-107782973D01*
X168565060Y-107787950D01*
X168671361Y-107858710D01*
X168671363Y-107858711D01*
X168678834Y-107863684D01*
X168817864Y-107907121D01*
X168963498Y-107909790D01*
X169033762Y-107890633D01*
X169095363Y-107873839D01*
X169095364Y-107873839D01*
X169104026Y-107871477D01*
X169112359Y-107866361D01*
X169172688Y-107829319D01*
X169228154Y-107795263D01*
X169234774Y-107787950D01*
X169319873Y-107693934D01*
X169319874Y-107693933D01*
X169325901Y-107687274D01*
X169371339Y-107593491D01*
X169385495Y-107564272D01*
X169385495Y-107564271D01*
X169389410Y-107556191D01*
X169403662Y-107471477D01*
X169412770Y-107417344D01*
X169412770Y-107417341D01*
X169413576Y-107412552D01*
X169413729Y-107400000D01*
X169393080Y-107255813D01*
X169387079Y-107242614D01*
X169336508Y-107131390D01*
X169336507Y-107131388D01*
X169332792Y-107123218D01*
X169237713Y-107012873D01*
X169115485Y-106933648D01*
X168975934Y-106891914D01*
X168966958Y-106891859D01*
X168966957Y-106891859D01*
X168905644Y-106891485D01*
X168830279Y-106891024D01*
X168690229Y-106931051D01*
X168567042Y-107008776D01*
X168470622Y-107117951D01*
X168466808Y-107126074D01*
X168466807Y-107126076D01*
X168452668Y-107156191D01*
X168408719Y-107249800D01*
X168386309Y-107393724D01*
X161922830Y-107393724D01*
X161903080Y-107255813D01*
X161897079Y-107242614D01*
X161846508Y-107131390D01*
X161846507Y-107131388D01*
X161842792Y-107123218D01*
X161747713Y-107012873D01*
X161625485Y-106933648D01*
X161485934Y-106891914D01*
X161476958Y-106891859D01*
X161476957Y-106891859D01*
X161415644Y-106891485D01*
X161340279Y-106891024D01*
X161200229Y-106931051D01*
X161077042Y-107008776D01*
X160980622Y-107117951D01*
X160976808Y-107126074D01*
X160976807Y-107126076D01*
X160962668Y-107156191D01*
X160918719Y-107249800D01*
X160896309Y-107393724D01*
X150212830Y-107393724D01*
X150193080Y-107255813D01*
X150187079Y-107242614D01*
X150136508Y-107131390D01*
X150136507Y-107131388D01*
X150132792Y-107123218D01*
X150037713Y-107012873D01*
X149915485Y-106933648D01*
X149775934Y-106891914D01*
X149766958Y-106891859D01*
X149766957Y-106891859D01*
X149705644Y-106891485D01*
X149630279Y-106891024D01*
X149490229Y-106931051D01*
X149367042Y-107008776D01*
X149270622Y-107117951D01*
X149266808Y-107126074D01*
X149266807Y-107126076D01*
X149252668Y-107156191D01*
X149208719Y-107249800D01*
X149186309Y-107393724D01*
X136106276Y-107393724D01*
X136750000Y-106750000D01*
X136750000Y-105993724D01*
X139486309Y-105993724D01*
X139487473Y-106002626D01*
X139487473Y-106002629D01*
X139499096Y-106091514D01*
X139505195Y-106138152D01*
X139508809Y-106146365D01*
X139508810Y-106146369D01*
X139509237Y-106147339D01*
X139563859Y-106271474D01*
X139569634Y-106278344D01*
X139569635Y-106278346D01*
X139577140Y-106287274D01*
X139657583Y-106382973D01*
X139665060Y-106387950D01*
X139771361Y-106458710D01*
X139771363Y-106458711D01*
X139778834Y-106463684D01*
X139917864Y-106507121D01*
X140063498Y-106509790D01*
X140133762Y-106490634D01*
X140195363Y-106473839D01*
X140195364Y-106473839D01*
X140204026Y-106471477D01*
X140212359Y-106466361D01*
X140297194Y-106414272D01*
X140328154Y-106395263D01*
X140334774Y-106387950D01*
X140419873Y-106293934D01*
X140419874Y-106293933D01*
X140425901Y-106287274D01*
X140440362Y-106257428D01*
X140447001Y-106243724D01*
X140986309Y-106243724D01*
X140987473Y-106252626D01*
X140987473Y-106252629D01*
X140999096Y-106341514D01*
X141005195Y-106388152D01*
X141008809Y-106396365D01*
X141008810Y-106396369D01*
X141036242Y-106458710D01*
X141063859Y-106521474D01*
X141069634Y-106528344D01*
X141069635Y-106528346D01*
X141071909Y-106531051D01*
X141157583Y-106632973D01*
X141165060Y-106637950D01*
X141271361Y-106708710D01*
X141271363Y-106708711D01*
X141278834Y-106713684D01*
X141287401Y-106716361D01*
X141287402Y-106716361D01*
X141303777Y-106721477D01*
X141417864Y-106757121D01*
X141563498Y-106759790D01*
X141633762Y-106740633D01*
X141695363Y-106723839D01*
X141695364Y-106723839D01*
X141704026Y-106721477D01*
X141712359Y-106716361D01*
X141786756Y-106670681D01*
X141828154Y-106645263D01*
X141834774Y-106637950D01*
X141919873Y-106543934D01*
X141919874Y-106543933D01*
X141925901Y-106537274D01*
X141939232Y-106509760D01*
X141985495Y-106414272D01*
X141985495Y-106414271D01*
X141989410Y-106406191D01*
X142013576Y-106262552D01*
X142013729Y-106250000D01*
X142000295Y-106156191D01*
X141994354Y-106114706D01*
X141994353Y-106114703D01*
X141993080Y-106105813D01*
X141989362Y-106097635D01*
X141936508Y-105981390D01*
X141936507Y-105981388D01*
X141932792Y-105973218D01*
X141837713Y-105862873D01*
X141715485Y-105783648D01*
X141575934Y-105741914D01*
X141566958Y-105741859D01*
X141566957Y-105741859D01*
X141505644Y-105741485D01*
X141430279Y-105741024D01*
X141290229Y-105781051D01*
X141282642Y-105785838D01*
X141282640Y-105785839D01*
X141278377Y-105788529D01*
X141167042Y-105858776D01*
X141070622Y-105967951D01*
X141066808Y-105976074D01*
X141066807Y-105976076D01*
X141041870Y-106029190D01*
X141008719Y-106099800D01*
X141007339Y-106108665D01*
X141007338Y-106108667D01*
X140990505Y-106216779D01*
X140986309Y-106243724D01*
X140447001Y-106243724D01*
X140485495Y-106164272D01*
X140485495Y-106164271D01*
X140489410Y-106156191D01*
X140513576Y-106012552D01*
X140513729Y-106000000D01*
X140500810Y-105909790D01*
X140494354Y-105864706D01*
X140494353Y-105864703D01*
X140493080Y-105855813D01*
X140489362Y-105847635D01*
X140436508Y-105731390D01*
X140436507Y-105731388D01*
X140432792Y-105723218D01*
X140337713Y-105612873D01*
X140215485Y-105533648D01*
X140075934Y-105491914D01*
X140066958Y-105491859D01*
X140066957Y-105491859D01*
X140005644Y-105491485D01*
X139930279Y-105491024D01*
X139790229Y-105531051D01*
X139782642Y-105535838D01*
X139782640Y-105535839D01*
X139733427Y-105566890D01*
X139667042Y-105608776D01*
X139570622Y-105717951D01*
X139566808Y-105726074D01*
X139566807Y-105726076D01*
X139534324Y-105795263D01*
X139508719Y-105849800D01*
X139507339Y-105858665D01*
X139507338Y-105858667D01*
X139489057Y-105976076D01*
X139486309Y-105993724D01*
X136750000Y-105993724D01*
X136750000Y-105393724D01*
X144786309Y-105393724D01*
X144787473Y-105402626D01*
X144787473Y-105402629D01*
X144795815Y-105466418D01*
X144805195Y-105538152D01*
X144808809Y-105546365D01*
X144808810Y-105546369D01*
X144848567Y-105636722D01*
X144863859Y-105671474D01*
X144869634Y-105678344D01*
X144869635Y-105678346D01*
X144951803Y-105776097D01*
X144957583Y-105782973D01*
X144965060Y-105787950D01*
X145071361Y-105858710D01*
X145071363Y-105858711D01*
X145078834Y-105863684D01*
X145087401Y-105866361D01*
X145087402Y-105866361D01*
X145103777Y-105871477D01*
X145217864Y-105907121D01*
X145363498Y-105909790D01*
X145442864Y-105888152D01*
X145495363Y-105873839D01*
X145495364Y-105873839D01*
X145504026Y-105871477D01*
X145512359Y-105866361D01*
X145620502Y-105799961D01*
X145628154Y-105795263D01*
X145634250Y-105788529D01*
X145725901Y-105687274D01*
X145727619Y-105688829D01*
X145772550Y-105651614D01*
X145843032Y-105643077D01*
X145906940Y-105674000D01*
X145943984Y-105734566D01*
X145947264Y-105751027D01*
X145965195Y-105888152D01*
X145968809Y-105896365D01*
X145968810Y-105896369D01*
X146003883Y-105976076D01*
X146023859Y-106021474D01*
X146029634Y-106028344D01*
X146029635Y-106028346D01*
X146089698Y-106099800D01*
X146117583Y-106132973D01*
X146125060Y-106137950D01*
X146231361Y-106208710D01*
X146231363Y-106208711D01*
X146238834Y-106213684D01*
X146377864Y-106257121D01*
X146523498Y-106259790D01*
X146614968Y-106234852D01*
X146655363Y-106223839D01*
X146655364Y-106223839D01*
X146664026Y-106221477D01*
X146672359Y-106216361D01*
X146757194Y-106164272D01*
X146788154Y-106145263D01*
X146794774Y-106137950D01*
X146879873Y-106043934D01*
X146879874Y-106043933D01*
X146885901Y-106037274D01*
X146901606Y-106004860D01*
X146945495Y-105914272D01*
X146945495Y-105914271D01*
X146949410Y-105906191D01*
X146973576Y-105762552D01*
X146973652Y-105756313D01*
X146973670Y-105754860D01*
X146973670Y-105754857D01*
X146973729Y-105750000D01*
X146972830Y-105743724D01*
X148486309Y-105743724D01*
X148487473Y-105752626D01*
X148487473Y-105752629D01*
X148491816Y-105785839D01*
X148505195Y-105888152D01*
X148508809Y-105896365D01*
X148508810Y-105896369D01*
X148543883Y-105976076D01*
X148563859Y-106021474D01*
X148569634Y-106028344D01*
X148569635Y-106028346D01*
X148629698Y-106099800D01*
X148657583Y-106132973D01*
X148665060Y-106137950D01*
X148771361Y-106208710D01*
X148771363Y-106208711D01*
X148778834Y-106213684D01*
X148917864Y-106257121D01*
X149063498Y-106259790D01*
X149154968Y-106234852D01*
X149195363Y-106223839D01*
X149195364Y-106223839D01*
X149204026Y-106221477D01*
X149212359Y-106216361D01*
X149297194Y-106164272D01*
X149328154Y-106145263D01*
X149334774Y-106137950D01*
X149419873Y-106043934D01*
X149419874Y-106043933D01*
X149425901Y-106037274D01*
X149441606Y-106004860D01*
X149485495Y-105914272D01*
X149485495Y-105914271D01*
X149489410Y-105906191D01*
X149513576Y-105762552D01*
X149513652Y-105756313D01*
X149513670Y-105754860D01*
X149513670Y-105754857D01*
X149513729Y-105750000D01*
X149512830Y-105743724D01*
X151026309Y-105743724D01*
X151027473Y-105752626D01*
X151027473Y-105752629D01*
X151031816Y-105785839D01*
X151045195Y-105888152D01*
X151048809Y-105896365D01*
X151048810Y-105896369D01*
X151083883Y-105976076D01*
X151103859Y-106021474D01*
X151109634Y-106028344D01*
X151109635Y-106028346D01*
X151169698Y-106099800D01*
X151197583Y-106132973D01*
X151205060Y-106137950D01*
X151311361Y-106208710D01*
X151311363Y-106208711D01*
X151318834Y-106213684D01*
X151457864Y-106257121D01*
X151603498Y-106259790D01*
X151694968Y-106234852D01*
X151735363Y-106223839D01*
X151735364Y-106223839D01*
X151744026Y-106221477D01*
X151752359Y-106216361D01*
X151837194Y-106164272D01*
X151868154Y-106145263D01*
X151874774Y-106137950D01*
X151959873Y-106043934D01*
X151959874Y-106043933D01*
X151965901Y-106037274D01*
X151981606Y-106004860D01*
X152025495Y-105914272D01*
X152025495Y-105914271D01*
X152029410Y-105906191D01*
X152053576Y-105762552D01*
X152053652Y-105756313D01*
X152053670Y-105754860D01*
X152053670Y-105754857D01*
X152053729Y-105750000D01*
X152044746Y-105687274D01*
X152034354Y-105614706D01*
X152034353Y-105614703D01*
X152033080Y-105605813D01*
X152029362Y-105597635D01*
X151976508Y-105481390D01*
X151976507Y-105481388D01*
X151972792Y-105473218D01*
X151877713Y-105362873D01*
X151755485Y-105283648D01*
X151615934Y-105241914D01*
X151606958Y-105241859D01*
X151606957Y-105241859D01*
X151545644Y-105241485D01*
X151470279Y-105241024D01*
X151330229Y-105281051D01*
X151207042Y-105358776D01*
X151110622Y-105467951D01*
X151106808Y-105476074D01*
X151106807Y-105476076D01*
X151073805Y-105546369D01*
X151048719Y-105599800D01*
X151047339Y-105608665D01*
X151047338Y-105608667D01*
X151029057Y-105726076D01*
X151026309Y-105743724D01*
X149512830Y-105743724D01*
X149504746Y-105687274D01*
X149494354Y-105614706D01*
X149494353Y-105614703D01*
X149493080Y-105605813D01*
X149489362Y-105597635D01*
X149436508Y-105481390D01*
X149436507Y-105481388D01*
X149432792Y-105473218D01*
X149337713Y-105362873D01*
X149215485Y-105283648D01*
X149075934Y-105241914D01*
X149066958Y-105241859D01*
X149066957Y-105241859D01*
X149005644Y-105241485D01*
X148930279Y-105241024D01*
X148790229Y-105281051D01*
X148667042Y-105358776D01*
X148570622Y-105467951D01*
X148566808Y-105476074D01*
X148566807Y-105476076D01*
X148533805Y-105546369D01*
X148508719Y-105599800D01*
X148507339Y-105608665D01*
X148507338Y-105608667D01*
X148489057Y-105726076D01*
X148486309Y-105743724D01*
X146972830Y-105743724D01*
X146964746Y-105687274D01*
X146954354Y-105614706D01*
X146954353Y-105614703D01*
X146953080Y-105605813D01*
X146949362Y-105597635D01*
X146896508Y-105481390D01*
X146896507Y-105481388D01*
X146892792Y-105473218D01*
X146797713Y-105362873D01*
X146675485Y-105283648D01*
X146535934Y-105241914D01*
X146526958Y-105241859D01*
X146526957Y-105241859D01*
X146465644Y-105241485D01*
X146390279Y-105241024D01*
X146250229Y-105281051D01*
X146127042Y-105358776D01*
X146034391Y-105463684D01*
X146032876Y-105465399D01*
X145972791Y-105503217D01*
X145901797Y-105502547D01*
X145842436Y-105463601D01*
X145813708Y-105399853D01*
X145794354Y-105264706D01*
X145794353Y-105264703D01*
X145793080Y-105255813D01*
X145789362Y-105247635D01*
X145736508Y-105131390D01*
X145736507Y-105131388D01*
X145732792Y-105123218D01*
X145637713Y-105012873D01*
X145515485Y-104933648D01*
X145375934Y-104891914D01*
X145366958Y-104891859D01*
X145366957Y-104891859D01*
X145305644Y-104891485D01*
X145230279Y-104891024D01*
X145090229Y-104931051D01*
X144967042Y-105008776D01*
X144870622Y-105117951D01*
X144866808Y-105126074D01*
X144866807Y-105126076D01*
X144812533Y-105241676D01*
X144808719Y-105249800D01*
X144807339Y-105258665D01*
X144807338Y-105258667D01*
X144790054Y-105369675D01*
X144786309Y-105393724D01*
X136750000Y-105393724D01*
X136750000Y-103993724D01*
X139486309Y-103993724D01*
X139487473Y-104002626D01*
X139487473Y-104002629D01*
X139499096Y-104091514D01*
X139505195Y-104138152D01*
X139508809Y-104146365D01*
X139508810Y-104146369D01*
X139509237Y-104147339D01*
X139563859Y-104271474D01*
X139569634Y-104278344D01*
X139569635Y-104278346D01*
X139607876Y-104323839D01*
X139657583Y-104382973D01*
X139665060Y-104387950D01*
X139771361Y-104458710D01*
X139771363Y-104458711D01*
X139778834Y-104463684D01*
X139917864Y-104507121D01*
X140063498Y-104509790D01*
X140133762Y-104490634D01*
X140195363Y-104473839D01*
X140195364Y-104473839D01*
X140204026Y-104471477D01*
X140212359Y-104466361D01*
X140320502Y-104399961D01*
X140328154Y-104395263D01*
X140334774Y-104387950D01*
X140419873Y-104293934D01*
X140419874Y-104293933D01*
X140425901Y-104287274D01*
X140446174Y-104245432D01*
X140485495Y-104164272D01*
X140485495Y-104164271D01*
X140489410Y-104156191D01*
X140513576Y-104012552D01*
X140513729Y-104000000D01*
X140501542Y-103914900D01*
X140494354Y-103864706D01*
X140494353Y-103864703D01*
X140493080Y-103855813D01*
X140488247Y-103845183D01*
X140487584Y-103843724D01*
X150986309Y-103843724D01*
X150987473Y-103852626D01*
X150987473Y-103852629D01*
X150990567Y-103876287D01*
X151005195Y-103988152D01*
X151008809Y-103996365D01*
X151008810Y-103996369D01*
X151013132Y-104006191D01*
X151063859Y-104121474D01*
X151069634Y-104128344D01*
X151069635Y-104128346D01*
X151093041Y-104156191D01*
X151157583Y-104232973D01*
X151165060Y-104237950D01*
X151271361Y-104308710D01*
X151271363Y-104308711D01*
X151278834Y-104313684D01*
X151417864Y-104357121D01*
X151563498Y-104359790D01*
X151633762Y-104340634D01*
X151695363Y-104323839D01*
X151695364Y-104323839D01*
X151704026Y-104321477D01*
X151712359Y-104316361D01*
X151820502Y-104249961D01*
X151828154Y-104245263D01*
X151834774Y-104237950D01*
X151919873Y-104143934D01*
X151919874Y-104143933D01*
X151925901Y-104137274D01*
X151984007Y-104017344D01*
X151985495Y-104014272D01*
X151985495Y-104014271D01*
X151989410Y-104006191D01*
X151991507Y-103993724D01*
X159486309Y-103993724D01*
X159487473Y-104002626D01*
X159487473Y-104002629D01*
X159499096Y-104091514D01*
X159505195Y-104138152D01*
X159508809Y-104146365D01*
X159508810Y-104146369D01*
X159509237Y-104147339D01*
X159563859Y-104271474D01*
X159569634Y-104278344D01*
X159569635Y-104278346D01*
X159607876Y-104323839D01*
X159657583Y-104382973D01*
X159665060Y-104387950D01*
X159771361Y-104458710D01*
X159771363Y-104458711D01*
X159778834Y-104463684D01*
X159917864Y-104507121D01*
X160063498Y-104509790D01*
X160133762Y-104490634D01*
X160195363Y-104473839D01*
X160195364Y-104473839D01*
X160204026Y-104471477D01*
X160212359Y-104466361D01*
X160320502Y-104399961D01*
X160328154Y-104395263D01*
X160334774Y-104387950D01*
X160419873Y-104293934D01*
X160419874Y-104293933D01*
X160425901Y-104287274D01*
X160446174Y-104245432D01*
X160485495Y-104164272D01*
X160485495Y-104164271D01*
X160489410Y-104156191D01*
X160513576Y-104012552D01*
X160513729Y-104000000D01*
X160512830Y-103993724D01*
X161586309Y-103993724D01*
X161587473Y-104002626D01*
X161587473Y-104002629D01*
X161599096Y-104091514D01*
X161605195Y-104138152D01*
X161608809Y-104146365D01*
X161608810Y-104146369D01*
X161609237Y-104147339D01*
X161663859Y-104271474D01*
X161669634Y-104278344D01*
X161669635Y-104278346D01*
X161707876Y-104323839D01*
X161757583Y-104382973D01*
X161765060Y-104387950D01*
X161871361Y-104458710D01*
X161871363Y-104458711D01*
X161878834Y-104463684D01*
X162017864Y-104507121D01*
X162163498Y-104509790D01*
X162233762Y-104490634D01*
X162295363Y-104473839D01*
X162295364Y-104473839D01*
X162304026Y-104471477D01*
X162312359Y-104466361D01*
X162420502Y-104399961D01*
X162428154Y-104395263D01*
X162434774Y-104387950D01*
X162519873Y-104293934D01*
X162519874Y-104293933D01*
X162525901Y-104287274D01*
X162546174Y-104245432D01*
X162585495Y-104164272D01*
X162585495Y-104164271D01*
X162589410Y-104156191D01*
X162613576Y-104012552D01*
X162613729Y-104000000D01*
X162601542Y-103914900D01*
X162594354Y-103864706D01*
X162594353Y-103864703D01*
X162593080Y-103855813D01*
X162588247Y-103845183D01*
X162536508Y-103731390D01*
X162536507Y-103731388D01*
X162532792Y-103723218D01*
X162437713Y-103612873D01*
X162315485Y-103533648D01*
X162175934Y-103491914D01*
X162166958Y-103491859D01*
X162166957Y-103491859D01*
X162105644Y-103491485D01*
X162030279Y-103491024D01*
X161890229Y-103531051D01*
X161882642Y-103535838D01*
X161882640Y-103535839D01*
X161817414Y-103576994D01*
X161767042Y-103608776D01*
X161670622Y-103717951D01*
X161666808Y-103726074D01*
X161666807Y-103726076D01*
X161615737Y-103834852D01*
X161608719Y-103849800D01*
X161607339Y-103858665D01*
X161607338Y-103858667D01*
X161588563Y-103979249D01*
X161586309Y-103993724D01*
X160512830Y-103993724D01*
X160501542Y-103914900D01*
X160494354Y-103864706D01*
X160494353Y-103864703D01*
X160493080Y-103855813D01*
X160488247Y-103845183D01*
X160436508Y-103731390D01*
X160436507Y-103731388D01*
X160432792Y-103723218D01*
X160337713Y-103612873D01*
X160215485Y-103533648D01*
X160075934Y-103491914D01*
X160066958Y-103491859D01*
X160066957Y-103491859D01*
X160005644Y-103491485D01*
X159930279Y-103491024D01*
X159790229Y-103531051D01*
X159782642Y-103535838D01*
X159782640Y-103535839D01*
X159717414Y-103576994D01*
X159667042Y-103608776D01*
X159570622Y-103717951D01*
X159566808Y-103726074D01*
X159566807Y-103726076D01*
X159515737Y-103834852D01*
X159508719Y-103849800D01*
X159507339Y-103858665D01*
X159507338Y-103858667D01*
X159488563Y-103979249D01*
X159486309Y-103993724D01*
X151991507Y-103993724D01*
X152013576Y-103862552D01*
X152013729Y-103850000D01*
X152004828Y-103787846D01*
X151994354Y-103714706D01*
X151994353Y-103714703D01*
X151993080Y-103705813D01*
X151989362Y-103697635D01*
X151936508Y-103581390D01*
X151936507Y-103581388D01*
X151932792Y-103573218D01*
X151926933Y-103566418D01*
X151853772Y-103481510D01*
X151824459Y-103416848D01*
X151834758Y-103346602D01*
X151855811Y-103314708D01*
X151919873Y-103243934D01*
X151919874Y-103243933D01*
X151925901Y-103237274D01*
X151945150Y-103197545D01*
X151985495Y-103114272D01*
X151985495Y-103114271D01*
X151989410Y-103106191D01*
X152007276Y-103000000D01*
X167580060Y-103000000D01*
X167580750Y-103006565D01*
X167592071Y-103114272D01*
X167600163Y-103191266D01*
X167602203Y-103197544D01*
X167602203Y-103197545D01*
X167609978Y-103221474D01*
X167659593Y-103374173D01*
X167662896Y-103379895D01*
X167662897Y-103379896D01*
X167674863Y-103400622D01*
X167755753Y-103540727D01*
X167760171Y-103545634D01*
X167760172Y-103545635D01*
X167778885Y-103566418D01*
X167884440Y-103683649D01*
X167889782Y-103687530D01*
X167889784Y-103687532D01*
X168027856Y-103787846D01*
X168040030Y-103796691D01*
X168046058Y-103799375D01*
X168046060Y-103799376D01*
X168187955Y-103862552D01*
X168215723Y-103874915D01*
X168309782Y-103894908D01*
X168397383Y-103913528D01*
X168397387Y-103913528D01*
X168403840Y-103914900D01*
X168596160Y-103914900D01*
X168602613Y-103913528D01*
X168602617Y-103913528D01*
X168690219Y-103894907D01*
X168784277Y-103874915D01*
X168812045Y-103862552D01*
X168953940Y-103799376D01*
X168953942Y-103799375D01*
X168959970Y-103796691D01*
X168972144Y-103787846D01*
X169110216Y-103687532D01*
X169110218Y-103687530D01*
X169115560Y-103683649D01*
X169221115Y-103566418D01*
X169239828Y-103545635D01*
X169239829Y-103545634D01*
X169244247Y-103540727D01*
X169325137Y-103400622D01*
X169337103Y-103379896D01*
X169337104Y-103379895D01*
X169340407Y-103374173D01*
X169390022Y-103221474D01*
X169397797Y-103197545D01*
X169397797Y-103197544D01*
X169399837Y-103191266D01*
X169407930Y-103114272D01*
X169419250Y-103006565D01*
X169419940Y-103000000D01*
X169417125Y-102973218D01*
X169400527Y-102815298D01*
X169400527Y-102815297D01*
X169399837Y-102808734D01*
X169340407Y-102625827D01*
X169305580Y-102565504D01*
X169258320Y-102483648D01*
X169244247Y-102459273D01*
X169228568Y-102441859D01*
X169119982Y-102321262D01*
X169119981Y-102321261D01*
X169115560Y-102316351D01*
X169110218Y-102312470D01*
X169110216Y-102312468D01*
X168965312Y-102207190D01*
X168965311Y-102207189D01*
X168959970Y-102203309D01*
X168953942Y-102200625D01*
X168953940Y-102200624D01*
X168790308Y-102127770D01*
X168790306Y-102127769D01*
X168784277Y-102125085D01*
X168690219Y-102105093D01*
X168602617Y-102086472D01*
X168602613Y-102086472D01*
X168596160Y-102085100D01*
X168403840Y-102085100D01*
X168397387Y-102086472D01*
X168397383Y-102086472D01*
X168309781Y-102105093D01*
X168215723Y-102125085D01*
X168209694Y-102127769D01*
X168209692Y-102127770D01*
X168046060Y-102200624D01*
X168046058Y-102200625D01*
X168040030Y-102203309D01*
X168034689Y-102207189D01*
X168034688Y-102207190D01*
X167889784Y-102312468D01*
X167889782Y-102312470D01*
X167884440Y-102316351D01*
X167880019Y-102321261D01*
X167880018Y-102321262D01*
X167771433Y-102441859D01*
X167755753Y-102459273D01*
X167741680Y-102483648D01*
X167694421Y-102565504D01*
X167659593Y-102625827D01*
X167600163Y-102808734D01*
X167599473Y-102815297D01*
X167599473Y-102815298D01*
X167582875Y-102973218D01*
X167580060Y-103000000D01*
X152007276Y-103000000D01*
X152013576Y-102962552D01*
X152013729Y-102950000D01*
X152000665Y-102858776D01*
X151994354Y-102814706D01*
X151994353Y-102814703D01*
X151993080Y-102805813D01*
X151989362Y-102797635D01*
X151936508Y-102681390D01*
X151936507Y-102681388D01*
X151932792Y-102673218D01*
X151837713Y-102562873D01*
X151715485Y-102483648D01*
X151575934Y-102441914D01*
X151566958Y-102441859D01*
X151566957Y-102441859D01*
X151505644Y-102441485D01*
X151430279Y-102441024D01*
X151290229Y-102481051D01*
X151282642Y-102485838D01*
X151282640Y-102485839D01*
X151248424Y-102507428D01*
X151167042Y-102558776D01*
X151070622Y-102667951D01*
X151066808Y-102676074D01*
X151066807Y-102676076D01*
X151016302Y-102783648D01*
X151008719Y-102799800D01*
X150986309Y-102943724D01*
X150987473Y-102952626D01*
X150987473Y-102952629D01*
X150992809Y-102993435D01*
X151005195Y-103088152D01*
X151008809Y-103096365D01*
X151008810Y-103096369D01*
X151009237Y-103097339D01*
X151063859Y-103221474D01*
X151105961Y-103271560D01*
X151146517Y-103319809D01*
X151175038Y-103384825D01*
X151163882Y-103454940D01*
X151144507Y-103484292D01*
X151136383Y-103493491D01*
X151070622Y-103567951D01*
X151066808Y-103576074D01*
X151066807Y-103576076D01*
X151016302Y-103683649D01*
X151008719Y-103699800D01*
X151007339Y-103708665D01*
X151007338Y-103708667D01*
X150992666Y-103802900D01*
X150986309Y-103843724D01*
X140487584Y-103843724D01*
X140436508Y-103731390D01*
X140436507Y-103731388D01*
X140432792Y-103723218D01*
X140337713Y-103612873D01*
X140215485Y-103533648D01*
X140075934Y-103491914D01*
X140066958Y-103491859D01*
X140066957Y-103491859D01*
X140005644Y-103491485D01*
X139930279Y-103491024D01*
X139790229Y-103531051D01*
X139782642Y-103535838D01*
X139782640Y-103535839D01*
X139717414Y-103576994D01*
X139667042Y-103608776D01*
X139570622Y-103717951D01*
X139566808Y-103726074D01*
X139566807Y-103726076D01*
X139515737Y-103834852D01*
X139508719Y-103849800D01*
X139507339Y-103858665D01*
X139507338Y-103858667D01*
X139488563Y-103979249D01*
X139486309Y-103993724D01*
X136750000Y-103993724D01*
X136750000Y-101093724D01*
X137986309Y-101093724D01*
X137987473Y-101102626D01*
X137987473Y-101102629D01*
X137990539Y-101126076D01*
X138005195Y-101238152D01*
X138008809Y-101246365D01*
X138008810Y-101246369D01*
X138016688Y-101264272D01*
X138063859Y-101371474D01*
X138069634Y-101378344D01*
X138069635Y-101378346D01*
X138151803Y-101476097D01*
X138157583Y-101482973D01*
X138165060Y-101487950D01*
X138271361Y-101558710D01*
X138271363Y-101558711D01*
X138278834Y-101563684D01*
X138287401Y-101566361D01*
X138287402Y-101566361D01*
X138303777Y-101571477D01*
X138417864Y-101607121D01*
X138563498Y-101609790D01*
X138633762Y-101590633D01*
X138695363Y-101573839D01*
X138695364Y-101573839D01*
X138704026Y-101571477D01*
X138712359Y-101566361D01*
X138799996Y-101512552D01*
X138828154Y-101495263D01*
X138834774Y-101487950D01*
X138919873Y-101393934D01*
X138919874Y-101393933D01*
X138925901Y-101387274D01*
X138989410Y-101256191D01*
X139013576Y-101112552D01*
X139013729Y-101100000D01*
X139012830Y-101093724D01*
X143486309Y-101093724D01*
X143487473Y-101102626D01*
X143487473Y-101102629D01*
X143490539Y-101126076D01*
X143505195Y-101238152D01*
X143508809Y-101246365D01*
X143508810Y-101246369D01*
X143516688Y-101264272D01*
X143563859Y-101371474D01*
X143569634Y-101378344D01*
X143569635Y-101378346D01*
X143651803Y-101476097D01*
X143657583Y-101482973D01*
X143665060Y-101487950D01*
X143771361Y-101558710D01*
X143771363Y-101558711D01*
X143778834Y-101563684D01*
X143787401Y-101566361D01*
X143787402Y-101566361D01*
X143803777Y-101571477D01*
X143917864Y-101607121D01*
X144063498Y-101609790D01*
X144133762Y-101590633D01*
X144195363Y-101573839D01*
X144195364Y-101573839D01*
X144204026Y-101571477D01*
X144212359Y-101566361D01*
X144299996Y-101512552D01*
X144328154Y-101495263D01*
X144334774Y-101487950D01*
X144419873Y-101393934D01*
X144419874Y-101393933D01*
X144420063Y-101393724D01*
X156386309Y-101393724D01*
X156387473Y-101402626D01*
X156387473Y-101402629D01*
X156397080Y-101476097D01*
X156405195Y-101538152D01*
X156408809Y-101546365D01*
X156408810Y-101546369D01*
X156439231Y-101615504D01*
X156463859Y-101671474D01*
X156469634Y-101678344D01*
X156469635Y-101678346D01*
X156551803Y-101776097D01*
X156557583Y-101782973D01*
X156565060Y-101787950D01*
X156671361Y-101858710D01*
X156671363Y-101858711D01*
X156678834Y-101863684D01*
X156687401Y-101866361D01*
X156687402Y-101866361D01*
X156703777Y-101871477D01*
X156817864Y-101907121D01*
X156963498Y-101909790D01*
X157033762Y-101890634D01*
X157095363Y-101873839D01*
X157095364Y-101873839D01*
X157104026Y-101871477D01*
X157112359Y-101866361D01*
X157220502Y-101799961D01*
X157228154Y-101795263D01*
X157234774Y-101787950D01*
X157319873Y-101693934D01*
X157319874Y-101693933D01*
X157325901Y-101687274D01*
X157349701Y-101638152D01*
X157385495Y-101564272D01*
X157385495Y-101564271D01*
X157389410Y-101556191D01*
X157413576Y-101412552D01*
X157413729Y-101400000D01*
X157412830Y-101393724D01*
X166736309Y-101393724D01*
X166737473Y-101402626D01*
X166737473Y-101402629D01*
X166747080Y-101476097D01*
X166755195Y-101538152D01*
X166758809Y-101546365D01*
X166758810Y-101546369D01*
X166789231Y-101615504D01*
X166813859Y-101671474D01*
X166819634Y-101678344D01*
X166819635Y-101678346D01*
X166901803Y-101776097D01*
X166907583Y-101782973D01*
X166915060Y-101787950D01*
X167021361Y-101858710D01*
X167021363Y-101858711D01*
X167028834Y-101863684D01*
X167037401Y-101866361D01*
X167037402Y-101866361D01*
X167053777Y-101871477D01*
X167167864Y-101907121D01*
X167313498Y-101909790D01*
X167383762Y-101890634D01*
X167445363Y-101873839D01*
X167445364Y-101873839D01*
X167454026Y-101871477D01*
X167462359Y-101866361D01*
X167570502Y-101799961D01*
X167578154Y-101795263D01*
X167584774Y-101787950D01*
X167669873Y-101693934D01*
X167669874Y-101693933D01*
X167675901Y-101687274D01*
X167699701Y-101638152D01*
X167735495Y-101564272D01*
X167735495Y-101564271D01*
X167739410Y-101556191D01*
X167763576Y-101412552D01*
X167763729Y-101400000D01*
X167743080Y-101255813D01*
X167738786Y-101246369D01*
X167686508Y-101131390D01*
X167686507Y-101131388D01*
X167682792Y-101123218D01*
X167587713Y-101012873D01*
X167465485Y-100933648D01*
X167390075Y-100911096D01*
X167334536Y-100894486D01*
X167334533Y-100894485D01*
X167333203Y-100894088D01*
X167333201Y-100894087D01*
X167325934Y-100891914D01*
X167326248Y-100890865D01*
X167269421Y-100864531D01*
X167249145Y-100832591D01*
X167226457Y-100866552D01*
X167180275Y-100891025D01*
X167168162Y-100894487D01*
X167040229Y-100931051D01*
X167032642Y-100935838D01*
X167032640Y-100935839D01*
X167000983Y-100955813D01*
X166917042Y-101008776D01*
X166820622Y-101117951D01*
X166816808Y-101126074D01*
X166816807Y-101126076D01*
X166764188Y-101238152D01*
X166758719Y-101249800D01*
X166757339Y-101258665D01*
X166757338Y-101258667D01*
X166741053Y-101363258D01*
X166736309Y-101393724D01*
X157412830Y-101393724D01*
X157393080Y-101255813D01*
X157388786Y-101246369D01*
X157336508Y-101131390D01*
X157336507Y-101131388D01*
X157332792Y-101123218D01*
X157237713Y-101012873D01*
X157115485Y-100933648D01*
X156975934Y-100891914D01*
X156966958Y-100891859D01*
X156966957Y-100891859D01*
X156905644Y-100891485D01*
X156830279Y-100891024D01*
X156690229Y-100931051D01*
X156682642Y-100935838D01*
X156682640Y-100935839D01*
X156650983Y-100955813D01*
X156567042Y-101008776D01*
X156470622Y-101117951D01*
X156466808Y-101126074D01*
X156466807Y-101126076D01*
X156414188Y-101238152D01*
X156408719Y-101249800D01*
X156407339Y-101258665D01*
X156407338Y-101258667D01*
X156391053Y-101363258D01*
X156386309Y-101393724D01*
X144420063Y-101393724D01*
X144425901Y-101387274D01*
X144489410Y-101256191D01*
X144513576Y-101112552D01*
X144513729Y-101100000D01*
X144502226Y-101019675D01*
X144494354Y-100964706D01*
X144494353Y-100964703D01*
X144493080Y-100955813D01*
X144489362Y-100947635D01*
X144436508Y-100831390D01*
X144436507Y-100831388D01*
X144432792Y-100823218D01*
X144337713Y-100712873D01*
X144215485Y-100633648D01*
X144075934Y-100591914D01*
X144066958Y-100591859D01*
X144066957Y-100591859D01*
X144005644Y-100591485D01*
X143930279Y-100591024D01*
X143790229Y-100631051D01*
X143782642Y-100635838D01*
X143782640Y-100635839D01*
X143760529Y-100649790D01*
X143667042Y-100708776D01*
X143570622Y-100817951D01*
X143566808Y-100826074D01*
X143566807Y-100826076D01*
X143514011Y-100938529D01*
X143508719Y-100949800D01*
X143507339Y-100958665D01*
X143507338Y-100958667D01*
X143496068Y-101031051D01*
X143486309Y-101093724D01*
X139012830Y-101093724D01*
X139002226Y-101019675D01*
X138994354Y-100964706D01*
X138994353Y-100964703D01*
X138993080Y-100955813D01*
X138989362Y-100947635D01*
X138936508Y-100831390D01*
X138936507Y-100831388D01*
X138932792Y-100823218D01*
X138837713Y-100712873D01*
X138715485Y-100633648D01*
X138575934Y-100591914D01*
X138566958Y-100591859D01*
X138566957Y-100591859D01*
X138505644Y-100591485D01*
X138430279Y-100591024D01*
X138290229Y-100631051D01*
X138282642Y-100635838D01*
X138282640Y-100635839D01*
X138260529Y-100649790D01*
X138167042Y-100708776D01*
X138070622Y-100817951D01*
X138066808Y-100826074D01*
X138066807Y-100826076D01*
X138014011Y-100938529D01*
X138008719Y-100949800D01*
X138007339Y-100958665D01*
X138007338Y-100958667D01*
X137996068Y-101031051D01*
X137986309Y-101093724D01*
X136750000Y-101093724D01*
X136750000Y-99743724D01*
X144386309Y-99743724D01*
X144387473Y-99752626D01*
X144387473Y-99752629D01*
X144399096Y-99841514D01*
X144405195Y-99888152D01*
X144408809Y-99896365D01*
X144408810Y-99896369D01*
X144409237Y-99897339D01*
X144463859Y-100021474D01*
X144469634Y-100028344D01*
X144469635Y-100028346D01*
X144551803Y-100126097D01*
X144557583Y-100132973D01*
X144565060Y-100137950D01*
X144671361Y-100208710D01*
X144671363Y-100208711D01*
X144678834Y-100213684D01*
X144817864Y-100257121D01*
X144963498Y-100259790D01*
X145033762Y-100240633D01*
X145095363Y-100223839D01*
X145095364Y-100223839D01*
X145104026Y-100221477D01*
X145112359Y-100216361D01*
X145208478Y-100157344D01*
X145228154Y-100145263D01*
X145234774Y-100137950D01*
X145319873Y-100043934D01*
X145319874Y-100043933D01*
X145325901Y-100037274D01*
X145342687Y-100002629D01*
X145385495Y-99914272D01*
X145385495Y-99914271D01*
X145389410Y-99906191D01*
X145413576Y-99762552D01*
X145413652Y-99756313D01*
X145413670Y-99754860D01*
X145413670Y-99754857D01*
X145413729Y-99750000D01*
X145396065Y-99626659D01*
X145406209Y-99556394D01*
X145452731Y-99502764D01*
X145520863Y-99482800D01*
X145558367Y-99488533D01*
X145609294Y-99504444D01*
X145609297Y-99504445D01*
X145617864Y-99507121D01*
X145763498Y-99509790D01*
X145819628Y-99494487D01*
X145846676Y-99487113D01*
X145917659Y-99488493D01*
X145976628Y-99528030D01*
X146004860Y-99593172D01*
X146004318Y-99628061D01*
X145987690Y-99734851D01*
X145987690Y-99734852D01*
X145986309Y-99743724D01*
X145987473Y-99752626D01*
X145987473Y-99752629D01*
X145999096Y-99841514D01*
X146005195Y-99888152D01*
X146008809Y-99896365D01*
X146008810Y-99896369D01*
X146009237Y-99897339D01*
X146063859Y-100021474D01*
X146069634Y-100028344D01*
X146069635Y-100028346D01*
X146151803Y-100126097D01*
X146157583Y-100132973D01*
X146165060Y-100137950D01*
X146271361Y-100208710D01*
X146271363Y-100208711D01*
X146278834Y-100213684D01*
X146417864Y-100257121D01*
X146563498Y-100259790D01*
X146633762Y-100240633D01*
X146695363Y-100223839D01*
X146695364Y-100223839D01*
X146704026Y-100221477D01*
X146712359Y-100216361D01*
X146808478Y-100157344D01*
X146828154Y-100145263D01*
X146834774Y-100137950D01*
X146838599Y-100133724D01*
X166736309Y-100133724D01*
X166737473Y-100142626D01*
X166737473Y-100142629D01*
X166746114Y-100208710D01*
X166755195Y-100278152D01*
X166758809Y-100286365D01*
X166758810Y-100286369D01*
X166759237Y-100287339D01*
X166813859Y-100411474D01*
X166819634Y-100418344D01*
X166819635Y-100418346D01*
X166901803Y-100516097D01*
X166907583Y-100522973D01*
X166915060Y-100527950D01*
X167021361Y-100598710D01*
X167021363Y-100598711D01*
X167028834Y-100603684D01*
X167167864Y-100647121D01*
X167169244Y-100647146D01*
X167229842Y-100676133D01*
X167248987Y-100707121D01*
X167270479Y-100674085D01*
X167319319Y-100648203D01*
X167445363Y-100613839D01*
X167445364Y-100613839D01*
X167454026Y-100611477D01*
X167462359Y-100606361D01*
X167570502Y-100539961D01*
X167578154Y-100535263D01*
X167584774Y-100527950D01*
X167669873Y-100433934D01*
X167669874Y-100433933D01*
X167675901Y-100427274D01*
X167694954Y-100387950D01*
X167735495Y-100304272D01*
X167735495Y-100304271D01*
X167739410Y-100296191D01*
X167763576Y-100152552D01*
X167763729Y-100140000D01*
X167758056Y-100100385D01*
X167744354Y-100004706D01*
X167744353Y-100004703D01*
X167743080Y-99995813D01*
X167739362Y-99987635D01*
X167686508Y-99871390D01*
X167686507Y-99871388D01*
X167682792Y-99863218D01*
X167587713Y-99752873D01*
X167465485Y-99673648D01*
X167325934Y-99631914D01*
X167316958Y-99631859D01*
X167316957Y-99631859D01*
X167255644Y-99631485D01*
X167180279Y-99631024D01*
X167040229Y-99671051D01*
X166917042Y-99748776D01*
X166820622Y-99857951D01*
X166816808Y-99866074D01*
X166816807Y-99866076D01*
X166802129Y-99897339D01*
X166758719Y-99989800D01*
X166757339Y-99998665D01*
X166757338Y-99998667D01*
X166752586Y-100029190D01*
X166736309Y-100133724D01*
X146838599Y-100133724D01*
X146919873Y-100043934D01*
X146919874Y-100043933D01*
X146925901Y-100037274D01*
X146942687Y-100002629D01*
X146985495Y-99914272D01*
X146985495Y-99914271D01*
X146989410Y-99906191D01*
X147013576Y-99762552D01*
X147013652Y-99756313D01*
X147013670Y-99754860D01*
X147013670Y-99754857D01*
X147013729Y-99750000D01*
X147003494Y-99678529D01*
X146994354Y-99614706D01*
X146994353Y-99614703D01*
X146993080Y-99605813D01*
X146989362Y-99597635D01*
X146936508Y-99481390D01*
X146936507Y-99481388D01*
X146932792Y-99473218D01*
X146837713Y-99362873D01*
X146715485Y-99283648D01*
X146575934Y-99241914D01*
X146566958Y-99241859D01*
X146566957Y-99241859D01*
X146505644Y-99241485D01*
X146430279Y-99241024D01*
X146421647Y-99243491D01*
X146354261Y-99262750D01*
X146283266Y-99262238D01*
X146223818Y-99223424D01*
X146194792Y-99158632D01*
X146195382Y-99120697D01*
X146212770Y-99017347D01*
X146212771Y-99017338D01*
X146213576Y-99012552D01*
X146213729Y-99000000D01*
X146212830Y-98993724D01*
X147486309Y-98993724D01*
X147487473Y-99002626D01*
X147487473Y-99002629D01*
X147499096Y-99091514D01*
X147505195Y-99138152D01*
X147508809Y-99146365D01*
X147508810Y-99146369D01*
X147516688Y-99164272D01*
X147563859Y-99271474D01*
X147569634Y-99278344D01*
X147569635Y-99278346D01*
X147651803Y-99376097D01*
X147657583Y-99382973D01*
X147665060Y-99387950D01*
X147771361Y-99458710D01*
X147771363Y-99458711D01*
X147778834Y-99463684D01*
X147787401Y-99466361D01*
X147787402Y-99466361D01*
X147803777Y-99471477D01*
X147917864Y-99507121D01*
X148063498Y-99509790D01*
X148146675Y-99487113D01*
X148195363Y-99473839D01*
X148195364Y-99473839D01*
X148204026Y-99471477D01*
X148212266Y-99466418D01*
X148320502Y-99399961D01*
X148328154Y-99395263D01*
X148334774Y-99387950D01*
X148419873Y-99293934D01*
X148419874Y-99293933D01*
X148425901Y-99287274D01*
X148444636Y-99248606D01*
X148485495Y-99164272D01*
X148485495Y-99164271D01*
X148489410Y-99156191D01*
X148513576Y-99012552D01*
X148513729Y-99000000D01*
X148508056Y-98960385D01*
X148494354Y-98864706D01*
X148494353Y-98864703D01*
X148493080Y-98855813D01*
X148492130Y-98853724D01*
X156386309Y-98853724D01*
X156387473Y-98862626D01*
X156387473Y-98862629D01*
X156399096Y-98951514D01*
X156405195Y-98998152D01*
X156408809Y-99006365D01*
X156408810Y-99006369D01*
X156413641Y-99017347D01*
X156463859Y-99131474D01*
X156469634Y-99138344D01*
X156469635Y-99138346D01*
X156491428Y-99164272D01*
X156557583Y-99242973D01*
X156565060Y-99247950D01*
X156671361Y-99318710D01*
X156671363Y-99318711D01*
X156678834Y-99323684D01*
X156817864Y-99367121D01*
X156963498Y-99369790D01*
X157033762Y-99350634D01*
X157095363Y-99333839D01*
X157095364Y-99333839D01*
X157104026Y-99331477D01*
X157112359Y-99326361D01*
X157176018Y-99287274D01*
X157228154Y-99255263D01*
X157234774Y-99247950D01*
X157319873Y-99153934D01*
X157319874Y-99153933D01*
X157325901Y-99147274D01*
X157338778Y-99120697D01*
X157385495Y-99024272D01*
X157385495Y-99024271D01*
X157389410Y-99016191D01*
X157393190Y-98993724D01*
X168236309Y-98993724D01*
X168237473Y-99002626D01*
X168237473Y-99002629D01*
X168249096Y-99091514D01*
X168255195Y-99138152D01*
X168258809Y-99146365D01*
X168258810Y-99146369D01*
X168266688Y-99164272D01*
X168313859Y-99271474D01*
X168319634Y-99278344D01*
X168319635Y-99278346D01*
X168401803Y-99376097D01*
X168407583Y-99382973D01*
X168415060Y-99387950D01*
X168521361Y-99458710D01*
X168521363Y-99458711D01*
X168528834Y-99463684D01*
X168537401Y-99466361D01*
X168537402Y-99466361D01*
X168553777Y-99471477D01*
X168667864Y-99507121D01*
X168813498Y-99509790D01*
X168896675Y-99487113D01*
X168945363Y-99473839D01*
X168945364Y-99473839D01*
X168954026Y-99471477D01*
X168962266Y-99466418D01*
X169070502Y-99399961D01*
X169078154Y-99395263D01*
X169084774Y-99387950D01*
X169169873Y-99293934D01*
X169169874Y-99293933D01*
X169175901Y-99287274D01*
X169194636Y-99248606D01*
X169235495Y-99164272D01*
X169235495Y-99164271D01*
X169239410Y-99156191D01*
X169263576Y-99012552D01*
X169263729Y-99000000D01*
X169258056Y-98960385D01*
X169244354Y-98864706D01*
X169244353Y-98864703D01*
X169243080Y-98855813D01*
X169239362Y-98847635D01*
X169186508Y-98731390D01*
X169186507Y-98731388D01*
X169182792Y-98723218D01*
X169087713Y-98612873D01*
X168965485Y-98533648D01*
X168825934Y-98491914D01*
X168816958Y-98491859D01*
X168816957Y-98491859D01*
X168755644Y-98491485D01*
X168680279Y-98491024D01*
X168540229Y-98531051D01*
X168417042Y-98608776D01*
X168320622Y-98717951D01*
X168316808Y-98726074D01*
X168316807Y-98726076D01*
X168314312Y-98731390D01*
X168258719Y-98849800D01*
X168257339Y-98858665D01*
X168257338Y-98858667D01*
X168257131Y-98860000D01*
X168236309Y-98993724D01*
X157393190Y-98993724D01*
X157413576Y-98872552D01*
X157413729Y-98860000D01*
X157395311Y-98731390D01*
X157394354Y-98724706D01*
X157394353Y-98724703D01*
X157393080Y-98715813D01*
X157389362Y-98707635D01*
X157336508Y-98591390D01*
X157336507Y-98591388D01*
X157332792Y-98583218D01*
X157237713Y-98472873D01*
X157115485Y-98393648D01*
X157040075Y-98371096D01*
X156984536Y-98354486D01*
X156984533Y-98354485D01*
X156983203Y-98354088D01*
X156983201Y-98354087D01*
X156975934Y-98351914D01*
X156976248Y-98350865D01*
X156919421Y-98324531D01*
X156899145Y-98292591D01*
X156876457Y-98326552D01*
X156830275Y-98351025D01*
X156777281Y-98366171D01*
X156690229Y-98391051D01*
X156682642Y-98395838D01*
X156682640Y-98395839D01*
X156622828Y-98433578D01*
X156567042Y-98468776D01*
X156470622Y-98577951D01*
X156466808Y-98586074D01*
X156466807Y-98586076D01*
X156423504Y-98678308D01*
X156408719Y-98709800D01*
X156407339Y-98718665D01*
X156407338Y-98718667D01*
X156402460Y-98750000D01*
X156386309Y-98853724D01*
X148492130Y-98853724D01*
X148489362Y-98847635D01*
X148436508Y-98731390D01*
X148436507Y-98731388D01*
X148432792Y-98723218D01*
X148337713Y-98612873D01*
X148215485Y-98533648D01*
X148075934Y-98491914D01*
X148066958Y-98491859D01*
X148066957Y-98491859D01*
X148005644Y-98491485D01*
X147930279Y-98491024D01*
X147790229Y-98531051D01*
X147667042Y-98608776D01*
X147570622Y-98717951D01*
X147566808Y-98726074D01*
X147566807Y-98726076D01*
X147564312Y-98731390D01*
X147508719Y-98849800D01*
X147507339Y-98858665D01*
X147507338Y-98858667D01*
X147507131Y-98860000D01*
X147486309Y-98993724D01*
X146212830Y-98993724D01*
X146208056Y-98960385D01*
X146194354Y-98864706D01*
X146194353Y-98864703D01*
X146193080Y-98855813D01*
X146189362Y-98847635D01*
X146136508Y-98731390D01*
X146136507Y-98731388D01*
X146132792Y-98723218D01*
X146037713Y-98612873D01*
X145915485Y-98533648D01*
X145775934Y-98491914D01*
X145766958Y-98491859D01*
X145766957Y-98491859D01*
X145705644Y-98491485D01*
X145630279Y-98491024D01*
X145490229Y-98531051D01*
X145367042Y-98608776D01*
X145270622Y-98717951D01*
X145266808Y-98726074D01*
X145266807Y-98726076D01*
X145264312Y-98731390D01*
X145208719Y-98849800D01*
X145207339Y-98858665D01*
X145207338Y-98858667D01*
X145207131Y-98860000D01*
X145186309Y-98993724D01*
X145187473Y-99002626D01*
X145187473Y-99002629D01*
X145203441Y-99124738D01*
X145192441Y-99194877D01*
X145145266Y-99247934D01*
X145076896Y-99267065D01*
X145042404Y-99261792D01*
X144984539Y-99244487D01*
X144984536Y-99244487D01*
X144975934Y-99241914D01*
X144966958Y-99241859D01*
X144966957Y-99241859D01*
X144905644Y-99241485D01*
X144830279Y-99241024D01*
X144690229Y-99281051D01*
X144682642Y-99285838D01*
X144682640Y-99285839D01*
X144630543Y-99318710D01*
X144567042Y-99358776D01*
X144470622Y-99467951D01*
X144466808Y-99476074D01*
X144466807Y-99476076D01*
X144429098Y-99556394D01*
X144408719Y-99599800D01*
X144407339Y-99608665D01*
X144407338Y-99608667D01*
X144387691Y-99734851D01*
X144386309Y-99743724D01*
X136750000Y-99743724D01*
X136750000Y-98750000D01*
X126723610Y-98750000D01*
X126655489Y-98729998D01*
X126608996Y-98676342D01*
X126598892Y-98606068D01*
X126628386Y-98541488D01*
X126690468Y-98502437D01*
X126795363Y-98473839D01*
X126795364Y-98473839D01*
X126804026Y-98471477D01*
X126812359Y-98466361D01*
X126920502Y-98399961D01*
X126928154Y-98395263D01*
X126934774Y-98387950D01*
X127019873Y-98293934D01*
X127019874Y-98293933D01*
X127025901Y-98287274D01*
X127046174Y-98245432D01*
X127085495Y-98164272D01*
X127085495Y-98164271D01*
X127089410Y-98156191D01*
X127104523Y-98066361D01*
X127112770Y-98017344D01*
X127112770Y-98017341D01*
X127113576Y-98012552D01*
X127113729Y-98000000D01*
X127108056Y-97960385D01*
X127094354Y-97864706D01*
X127094353Y-97864703D01*
X127093080Y-97855813D01*
X127089362Y-97847635D01*
X127036508Y-97731390D01*
X127036507Y-97731388D01*
X127032792Y-97723218D01*
X126937713Y-97612873D01*
X126908170Y-97593724D01*
X156386309Y-97593724D01*
X156387473Y-97602626D01*
X156387473Y-97602629D01*
X156389702Y-97619675D01*
X156405195Y-97738152D01*
X156408809Y-97746365D01*
X156408810Y-97746369D01*
X156409237Y-97747339D01*
X156463859Y-97871474D01*
X156469634Y-97878344D01*
X156469635Y-97878346D01*
X156477140Y-97887274D01*
X156557583Y-97982973D01*
X156565060Y-97987950D01*
X156671361Y-98058710D01*
X156671363Y-98058711D01*
X156678834Y-98063684D01*
X156817864Y-98107121D01*
X156819244Y-98107146D01*
X156879842Y-98136133D01*
X156898987Y-98167121D01*
X156920479Y-98134085D01*
X156969319Y-98108203D01*
X157095363Y-98073839D01*
X157095364Y-98073839D01*
X157104026Y-98071477D01*
X157112359Y-98066361D01*
X157199996Y-98012552D01*
X157228154Y-97995263D01*
X157234774Y-97987950D01*
X157319873Y-97893934D01*
X157319874Y-97893933D01*
X157325901Y-97887274D01*
X157389410Y-97756191D01*
X157413576Y-97612552D01*
X157413729Y-97600000D01*
X157399983Y-97504012D01*
X157394354Y-97464706D01*
X157394353Y-97464703D01*
X157393080Y-97455813D01*
X157389362Y-97447635D01*
X157336508Y-97331390D01*
X157336507Y-97331388D01*
X157332792Y-97323218D01*
X157237713Y-97212873D01*
X157115485Y-97133648D01*
X156975934Y-97091914D01*
X156966958Y-97091859D01*
X156966957Y-97091859D01*
X156905644Y-97091485D01*
X156830279Y-97091024D01*
X156690229Y-97131051D01*
X156567042Y-97208776D01*
X156470622Y-97317951D01*
X156408719Y-97449800D01*
X156407339Y-97458665D01*
X156407338Y-97458667D01*
X156391687Y-97559187D01*
X156386309Y-97593724D01*
X126908170Y-97593724D01*
X126815485Y-97533648D01*
X126675934Y-97491914D01*
X126666958Y-97491859D01*
X126666957Y-97491859D01*
X126605644Y-97491485D01*
X126530279Y-97491024D01*
X126390229Y-97531051D01*
X126382641Y-97535839D01*
X126382638Y-97535840D01*
X126345636Y-97559187D01*
X126277351Y-97578622D01*
X126209399Y-97558053D01*
X126163355Y-97504012D01*
X126152400Y-97452626D01*
X126152400Y-96648192D01*
X126172402Y-96580071D01*
X126226058Y-96533578D01*
X126296332Y-96523474D01*
X126348219Y-96543305D01*
X126371361Y-96558710D01*
X126371363Y-96558711D01*
X126378834Y-96563684D01*
X126517864Y-96607121D01*
X126663498Y-96609790D01*
X126772504Y-96580071D01*
X126795363Y-96573839D01*
X126795364Y-96573839D01*
X126804026Y-96571477D01*
X126812359Y-96566361D01*
X126920502Y-96499961D01*
X126928154Y-96495263D01*
X126934774Y-96487950D01*
X127019873Y-96393934D01*
X127019874Y-96393933D01*
X127025901Y-96387274D01*
X127046174Y-96345432D01*
X127085495Y-96264272D01*
X127085495Y-96264271D01*
X127089410Y-96256191D01*
X127113576Y-96112552D01*
X127113729Y-96100000D01*
X127093080Y-95955813D01*
X127036126Y-95830551D01*
X127026140Y-95760261D01*
X127055740Y-95695729D01*
X127115530Y-95657445D01*
X127150827Y-95652400D01*
X127949995Y-95652400D01*
X128018116Y-95672402D01*
G37*
%TD.AperFunction*%
%TD*%
%TA.AperFunction,Conductor*%
%TO.N,+VBus*%
G36*
X136442121Y-99020002D02*
G01*
X136488614Y-99073658D01*
X136500000Y-99126000D01*
X136500000Y-106447810D01*
X136479998Y-106515931D01*
X136463095Y-106536905D01*
X133786905Y-109213095D01*
X133724593Y-109247121D01*
X133697810Y-109250000D01*
X130000000Y-109250000D01*
X130000000Y-110500000D01*
X132374000Y-110500000D01*
X132442121Y-110520002D01*
X132488614Y-110573658D01*
X132500000Y-110626000D01*
X132500000Y-111486950D01*
X132479998Y-111555071D01*
X132441234Y-111593512D01*
X132417042Y-111608776D01*
X132320622Y-111717951D01*
X132258719Y-111849800D01*
X132236309Y-111993724D01*
X132237473Y-112002626D01*
X132237473Y-112002629D01*
X132249096Y-112091514D01*
X132255195Y-112138152D01*
X132258809Y-112146365D01*
X132258810Y-112146369D01*
X132259237Y-112147339D01*
X132313859Y-112271474D01*
X132319634Y-112278344D01*
X132319635Y-112278346D01*
X132327140Y-112287274D01*
X132407583Y-112382973D01*
X132415060Y-112387950D01*
X132443819Y-112407094D01*
X132489442Y-112461492D01*
X132500000Y-112511981D01*
X132500000Y-113276064D01*
X132479998Y-113344185D01*
X132426342Y-113390678D01*
X132408627Y-113397212D01*
X132290229Y-113431051D01*
X132282642Y-113435838D01*
X132282640Y-113435839D01*
X132278377Y-113438529D01*
X132167042Y-113508776D01*
X132070622Y-113617951D01*
X132008719Y-113749800D01*
X131986309Y-113893724D01*
X131987473Y-113902626D01*
X131987473Y-113902629D01*
X131999096Y-113991514D01*
X132005195Y-114038152D01*
X132008810Y-114046367D01*
X132008810Y-114046368D01*
X132063586Y-114170853D01*
X132072714Y-114241260D01*
X132042327Y-114305426D01*
X131982074Y-114342977D01*
X131948257Y-114347600D01*
X131049279Y-114347600D01*
X130981158Y-114327598D01*
X130934665Y-114273942D01*
X130924561Y-114203668D01*
X130935887Y-114166662D01*
X130985495Y-114064271D01*
X130989410Y-114056191D01*
X131013576Y-113912552D01*
X131013729Y-113900000D01*
X130993080Y-113755813D01*
X130989362Y-113747635D01*
X130936508Y-113631390D01*
X130936507Y-113631388D01*
X130932792Y-113623218D01*
X130837713Y-113512873D01*
X130715485Y-113433648D01*
X130575934Y-113391914D01*
X130566958Y-113391859D01*
X130566957Y-113391859D01*
X130505644Y-113391485D01*
X130430279Y-113391024D01*
X130290229Y-113431051D01*
X130282642Y-113435838D01*
X130282640Y-113435839D01*
X130278377Y-113438529D01*
X130167042Y-113508776D01*
X130070622Y-113617951D01*
X130008719Y-113749800D01*
X129986309Y-113893724D01*
X129987473Y-113902626D01*
X129987473Y-113902629D01*
X129999096Y-113991514D01*
X130005195Y-114038152D01*
X130008810Y-114046367D01*
X130008810Y-114046368D01*
X130063586Y-114170853D01*
X130072714Y-114241260D01*
X130042327Y-114305426D01*
X129982074Y-114342977D01*
X129948257Y-114347600D01*
X129049279Y-114347600D01*
X128981158Y-114327598D01*
X128934665Y-114273942D01*
X128924561Y-114203668D01*
X128935887Y-114166662D01*
X128985495Y-114064271D01*
X128989410Y-114056191D01*
X129013576Y-113912552D01*
X129013729Y-113900000D01*
X128993080Y-113755813D01*
X128989362Y-113747635D01*
X128936508Y-113631390D01*
X128936507Y-113631388D01*
X128932792Y-113623218D01*
X128837713Y-113512873D01*
X128715485Y-113433648D01*
X128575934Y-113391914D01*
X128566958Y-113391859D01*
X128566957Y-113391859D01*
X128505644Y-113391485D01*
X128430279Y-113391024D01*
X128290229Y-113431051D01*
X128282642Y-113435838D01*
X128282640Y-113435839D01*
X128278377Y-113438529D01*
X128167042Y-113508776D01*
X128070622Y-113617951D01*
X128008719Y-113749800D01*
X127986309Y-113893724D01*
X127987473Y-113902626D01*
X127987473Y-113902629D01*
X127999096Y-113991514D01*
X128005195Y-114038152D01*
X128008810Y-114046367D01*
X128008810Y-114046368D01*
X128063586Y-114170853D01*
X128072714Y-114241260D01*
X128042327Y-114305426D01*
X127982074Y-114342977D01*
X127948257Y-114347600D01*
X127149279Y-114347600D01*
X127081158Y-114327598D01*
X127034665Y-114273942D01*
X127024561Y-114203668D01*
X127035887Y-114166662D01*
X127085495Y-114064271D01*
X127089410Y-114056191D01*
X127113576Y-113912552D01*
X127113729Y-113900000D01*
X127093080Y-113755813D01*
X127089362Y-113747635D01*
X127036508Y-113631390D01*
X127036507Y-113631388D01*
X127032792Y-113623218D01*
X126937713Y-113512873D01*
X126815485Y-113433648D01*
X126675934Y-113391914D01*
X126666958Y-113391859D01*
X126666957Y-113391859D01*
X126605644Y-113391485D01*
X126530279Y-113391024D01*
X126390229Y-113431051D01*
X126382641Y-113435839D01*
X126382638Y-113435840D01*
X126345636Y-113459187D01*
X126277351Y-113478622D01*
X126209399Y-113458053D01*
X126163355Y-113404012D01*
X126152400Y-113352626D01*
X126152400Y-112548192D01*
X126172402Y-112480071D01*
X126226058Y-112433578D01*
X126296332Y-112423474D01*
X126348219Y-112443305D01*
X126371361Y-112458710D01*
X126371363Y-112458711D01*
X126378834Y-112463684D01*
X126517864Y-112507121D01*
X126663498Y-112509790D01*
X126772504Y-112480071D01*
X126795363Y-112473839D01*
X126795364Y-112473839D01*
X126804026Y-112471477D01*
X126812359Y-112466361D01*
X126920502Y-112399961D01*
X126928154Y-112395263D01*
X126934774Y-112387950D01*
X127019873Y-112293934D01*
X127019874Y-112293933D01*
X127025901Y-112287274D01*
X127046174Y-112245432D01*
X127085495Y-112164272D01*
X127085495Y-112164271D01*
X127089410Y-112156191D01*
X127113576Y-112012552D01*
X127113729Y-112000000D01*
X127093080Y-111855813D01*
X127089362Y-111847635D01*
X127036508Y-111731390D01*
X127036507Y-111731388D01*
X127032792Y-111723218D01*
X126937713Y-111612873D01*
X126815485Y-111533648D01*
X126675934Y-111491914D01*
X126666958Y-111491859D01*
X126666957Y-111491859D01*
X126605644Y-111491485D01*
X126530279Y-111491024D01*
X126390229Y-111531051D01*
X126382641Y-111535839D01*
X126382638Y-111535840D01*
X126345636Y-111559187D01*
X126277351Y-111578622D01*
X126209399Y-111558053D01*
X126163355Y-111504012D01*
X126152400Y-111452626D01*
X126152400Y-110548192D01*
X126172402Y-110480071D01*
X126226058Y-110433578D01*
X126296332Y-110423474D01*
X126348219Y-110443305D01*
X126371361Y-110458710D01*
X126371363Y-110458711D01*
X126378834Y-110463684D01*
X126517864Y-110507121D01*
X126663498Y-110509790D01*
X126772504Y-110480071D01*
X126795363Y-110473839D01*
X126795364Y-110473839D01*
X126804026Y-110471477D01*
X126812359Y-110466361D01*
X126920502Y-110399961D01*
X126928154Y-110395263D01*
X126939279Y-110382973D01*
X127019873Y-110293934D01*
X127019874Y-110293933D01*
X127025901Y-110287274D01*
X127046174Y-110245432D01*
X127085495Y-110164272D01*
X127085495Y-110164271D01*
X127089410Y-110156191D01*
X127113576Y-110012552D01*
X127113729Y-110000000D01*
X127093080Y-109855813D01*
X127089362Y-109847635D01*
X127036508Y-109731390D01*
X127036507Y-109731388D01*
X127032792Y-109723218D01*
X126937713Y-109612873D01*
X126815485Y-109533648D01*
X126675934Y-109491914D01*
X126666958Y-109491859D01*
X126666957Y-109491859D01*
X126605644Y-109491485D01*
X126530279Y-109491024D01*
X126390229Y-109531051D01*
X126382641Y-109535839D01*
X126382638Y-109535840D01*
X126345636Y-109559187D01*
X126277351Y-109578622D01*
X126209399Y-109558053D01*
X126163355Y-109504012D01*
X126152400Y-109452626D01*
X126152400Y-108548192D01*
X126172402Y-108480071D01*
X126226058Y-108433578D01*
X126296332Y-108423474D01*
X126348219Y-108443305D01*
X126371361Y-108458710D01*
X126371363Y-108458711D01*
X126378834Y-108463684D01*
X126517864Y-108507121D01*
X126663498Y-108509790D01*
X126772504Y-108480071D01*
X126795363Y-108473839D01*
X126795364Y-108473839D01*
X126804026Y-108471477D01*
X126812359Y-108466361D01*
X126920502Y-108399961D01*
X126928154Y-108395263D01*
X126939279Y-108382973D01*
X127019873Y-108293934D01*
X127019874Y-108293933D01*
X127025901Y-108287274D01*
X127046174Y-108245432D01*
X127085495Y-108164272D01*
X127085495Y-108164271D01*
X127089410Y-108156191D01*
X127113576Y-108012552D01*
X127113729Y-108000000D01*
X127093080Y-107855813D01*
X127084170Y-107836217D01*
X127074182Y-107765927D01*
X127074744Y-107764701D01*
X127036688Y-107731672D01*
X127036508Y-107731390D01*
X127032792Y-107723218D01*
X126978312Y-107659990D01*
X126943574Y-107619675D01*
X126937713Y-107612873D01*
X126815485Y-107533648D01*
X126675934Y-107491914D01*
X126666958Y-107491859D01*
X126666957Y-107491859D01*
X126605644Y-107491485D01*
X126530279Y-107491024D01*
X126390229Y-107531051D01*
X126382641Y-107535839D01*
X126382638Y-107535840D01*
X126345636Y-107559187D01*
X126277351Y-107578622D01*
X126209399Y-107558053D01*
X126163355Y-107504012D01*
X126152400Y-107452626D01*
X126152400Y-107242614D01*
X127192031Y-107242614D01*
X127199886Y-107328925D01*
X127206351Y-107399961D01*
X127210745Y-107448248D01*
X127212483Y-107454154D01*
X127212484Y-107454158D01*
X127263711Y-107628212D01*
X127263745Y-107682047D01*
X127294231Y-107701710D01*
X127310531Y-107725689D01*
X127364708Y-107829319D01*
X127494091Y-107990240D01*
X127652268Y-108122966D01*
X127657663Y-108125932D01*
X127657669Y-108125936D01*
X127779025Y-108192652D01*
X127833211Y-108222441D01*
X128030030Y-108284875D01*
X128036147Y-108285561D01*
X128036151Y-108285562D01*
X128111982Y-108294068D01*
X128190724Y-108302900D01*
X128301964Y-108302900D01*
X128455499Y-108287846D01*
X128653171Y-108228165D01*
X128744328Y-108179696D01*
X128830043Y-108134121D01*
X128830046Y-108134119D01*
X128835485Y-108131227D01*
X128840255Y-108127337D01*
X128840259Y-108127334D01*
X128990724Y-108004617D01*
X128990727Y-108004614D01*
X128995499Y-108000722D01*
X129000082Y-107995183D01*
X129127118Y-107841623D01*
X129225327Y-107659990D01*
X129286386Y-107462739D01*
X129294178Y-107388606D01*
X129307325Y-107263515D01*
X129307325Y-107263513D01*
X129307969Y-107257386D01*
X129289255Y-107051752D01*
X129279129Y-107017344D01*
X129272177Y-106993724D01*
X131786309Y-106993724D01*
X131787473Y-107002626D01*
X131787473Y-107002629D01*
X131792002Y-107037261D01*
X131805195Y-107138152D01*
X131808809Y-107146365D01*
X131808810Y-107146369D01*
X131809237Y-107147339D01*
X131863859Y-107271474D01*
X131869634Y-107278344D01*
X131869635Y-107278346D01*
X131877140Y-107287274D01*
X131957583Y-107382973D01*
X131965060Y-107387950D01*
X132071361Y-107458710D01*
X132071363Y-107458711D01*
X132078834Y-107463684D01*
X132087401Y-107466361D01*
X132087402Y-107466361D01*
X132103777Y-107471477D01*
X132217864Y-107507121D01*
X132363498Y-107509790D01*
X132433762Y-107490634D01*
X132495363Y-107473839D01*
X132495364Y-107473839D01*
X132504026Y-107471477D01*
X132512359Y-107466361D01*
X132620502Y-107399961D01*
X132628154Y-107395263D01*
X132634774Y-107387950D01*
X132719873Y-107293934D01*
X132719874Y-107293933D01*
X132725901Y-107287274D01*
X132743357Y-107251246D01*
X132785495Y-107164272D01*
X132785495Y-107164271D01*
X132789410Y-107156191D01*
X132813576Y-107012552D01*
X132813729Y-107000000D01*
X132793080Y-106855813D01*
X132789362Y-106847635D01*
X132736508Y-106731390D01*
X132736507Y-106731388D01*
X132732792Y-106723218D01*
X132637713Y-106612873D01*
X132515485Y-106533648D01*
X132375934Y-106491914D01*
X132366958Y-106491859D01*
X132366957Y-106491859D01*
X132305644Y-106491485D01*
X132230279Y-106491024D01*
X132090229Y-106531051D01*
X132082642Y-106535838D01*
X132082640Y-106535839D01*
X132078377Y-106538529D01*
X131967042Y-106608776D01*
X131870622Y-106717951D01*
X131808719Y-106849800D01*
X131786309Y-106993724D01*
X129272177Y-106993724D01*
X129232696Y-106859580D01*
X129230956Y-106853668D01*
X129135292Y-106670681D01*
X129005909Y-106509760D01*
X128847732Y-106377034D01*
X128842337Y-106374068D01*
X128842331Y-106374064D01*
X128684460Y-106287274D01*
X128666789Y-106277559D01*
X128469970Y-106215125D01*
X128463853Y-106214439D01*
X128463849Y-106214438D01*
X128388018Y-106205932D01*
X128309276Y-106197100D01*
X128198036Y-106197100D01*
X128044501Y-106212154D01*
X127846829Y-106271835D01*
X127805267Y-106293934D01*
X127669957Y-106365879D01*
X127669954Y-106365881D01*
X127664515Y-106368773D01*
X127659745Y-106372663D01*
X127659741Y-106372666D01*
X127509276Y-106495383D01*
X127509273Y-106495386D01*
X127504501Y-106499278D01*
X127500573Y-106504026D01*
X127500572Y-106504027D01*
X127438692Y-106578827D01*
X127372882Y-106658377D01*
X127274673Y-106840010D01*
X127213614Y-107037261D01*
X127212970Y-107043386D01*
X127212970Y-107043387D01*
X127202045Y-107147339D01*
X127192031Y-107242614D01*
X126152400Y-107242614D01*
X126152400Y-106548192D01*
X126172402Y-106480071D01*
X126226058Y-106433578D01*
X126296332Y-106423474D01*
X126348219Y-106443305D01*
X126371361Y-106458710D01*
X126371363Y-106458711D01*
X126378834Y-106463684D01*
X126517864Y-106507121D01*
X126663498Y-106509790D01*
X126772504Y-106480071D01*
X126795363Y-106473839D01*
X126795364Y-106473839D01*
X126804026Y-106471477D01*
X126812359Y-106466361D01*
X126920502Y-106399961D01*
X126928154Y-106395263D01*
X126939279Y-106382973D01*
X127019873Y-106293934D01*
X127019874Y-106293933D01*
X127025901Y-106287274D01*
X127031511Y-106275696D01*
X127085495Y-106164272D01*
X127085495Y-106164271D01*
X127089410Y-106156191D01*
X127113576Y-106012552D01*
X127113729Y-106000000D01*
X127093080Y-105855813D01*
X127089362Y-105847635D01*
X127036508Y-105731390D01*
X127036507Y-105731388D01*
X127032792Y-105723218D01*
X126937713Y-105612873D01*
X126815485Y-105533648D01*
X126675934Y-105491914D01*
X126666958Y-105491859D01*
X126666957Y-105491859D01*
X126605644Y-105491485D01*
X126530279Y-105491024D01*
X126390229Y-105531051D01*
X126382641Y-105535839D01*
X126382638Y-105535840D01*
X126345636Y-105559187D01*
X126277351Y-105578622D01*
X126209399Y-105558053D01*
X126163355Y-105504012D01*
X126152400Y-105452626D01*
X126152400Y-104993724D01*
X127736309Y-104993724D01*
X127737473Y-105002626D01*
X127737473Y-105002629D01*
X127749096Y-105091514D01*
X127755195Y-105138152D01*
X127758809Y-105146365D01*
X127758810Y-105146369D01*
X127759237Y-105147339D01*
X127813859Y-105271474D01*
X127819634Y-105278344D01*
X127819635Y-105278346D01*
X127827140Y-105287274D01*
X127907583Y-105382973D01*
X127915060Y-105387950D01*
X128021361Y-105458710D01*
X128021363Y-105458711D01*
X128028834Y-105463684D01*
X128167864Y-105507121D01*
X128313498Y-105509790D01*
X128383762Y-105490634D01*
X128445363Y-105473839D01*
X128445364Y-105473839D01*
X128454026Y-105471477D01*
X128462359Y-105466361D01*
X128570502Y-105399961D01*
X128578154Y-105395263D01*
X128584774Y-105387950D01*
X128669873Y-105293934D01*
X128669874Y-105293933D01*
X128675901Y-105287274D01*
X128739410Y-105156191D01*
X128763576Y-105012552D01*
X128763729Y-105000000D01*
X128762830Y-104993724D01*
X131786309Y-104993724D01*
X131787473Y-105002626D01*
X131787473Y-105002629D01*
X131799096Y-105091514D01*
X131805195Y-105138152D01*
X131808809Y-105146365D01*
X131808810Y-105146369D01*
X131809237Y-105147339D01*
X131863859Y-105271474D01*
X131869634Y-105278344D01*
X131869635Y-105278346D01*
X131877140Y-105287274D01*
X131957583Y-105382973D01*
X131965060Y-105387950D01*
X132071361Y-105458710D01*
X132071363Y-105458711D01*
X132078834Y-105463684D01*
X132217864Y-105507121D01*
X132363498Y-105509790D01*
X132433762Y-105490634D01*
X132495363Y-105473839D01*
X132495364Y-105473839D01*
X132504026Y-105471477D01*
X132512359Y-105466361D01*
X132620502Y-105399961D01*
X132628154Y-105395263D01*
X132634774Y-105387950D01*
X132719873Y-105293934D01*
X132719874Y-105293933D01*
X132725901Y-105287274D01*
X132789410Y-105156191D01*
X132813576Y-105012552D01*
X132813729Y-105000000D01*
X132793080Y-104855813D01*
X132789362Y-104847635D01*
X132736508Y-104731390D01*
X132736507Y-104731388D01*
X132732792Y-104723218D01*
X132637713Y-104612873D01*
X132515485Y-104533648D01*
X132375934Y-104491914D01*
X132366958Y-104491859D01*
X132366957Y-104491859D01*
X132305644Y-104491485D01*
X132230279Y-104491024D01*
X132090229Y-104531051D01*
X131967042Y-104608776D01*
X131870622Y-104717951D01*
X131808719Y-104849800D01*
X131786309Y-104993724D01*
X128762830Y-104993724D01*
X128743080Y-104855813D01*
X128739362Y-104847635D01*
X128686508Y-104731390D01*
X128686507Y-104731388D01*
X128682792Y-104723218D01*
X128587713Y-104612873D01*
X128465485Y-104533648D01*
X128325934Y-104491914D01*
X128316958Y-104491859D01*
X128316957Y-104491859D01*
X128255644Y-104491485D01*
X128180279Y-104491024D01*
X128040229Y-104531051D01*
X127917042Y-104608776D01*
X127820622Y-104717951D01*
X127758719Y-104849800D01*
X127736309Y-104993724D01*
X126152400Y-104993724D01*
X126152400Y-104548192D01*
X126172402Y-104480071D01*
X126226058Y-104433578D01*
X126296332Y-104423474D01*
X126348219Y-104443305D01*
X126371361Y-104458710D01*
X126371363Y-104458711D01*
X126378834Y-104463684D01*
X126517864Y-104507121D01*
X126663498Y-104509790D01*
X126772504Y-104480071D01*
X126795363Y-104473839D01*
X126795364Y-104473839D01*
X126804026Y-104471477D01*
X126812359Y-104466361D01*
X126920502Y-104399961D01*
X126928154Y-104395263D01*
X126939279Y-104382973D01*
X127019873Y-104293934D01*
X127019874Y-104293933D01*
X127025901Y-104287274D01*
X127046174Y-104245432D01*
X127085495Y-104164272D01*
X127085495Y-104164271D01*
X127089410Y-104156191D01*
X127113576Y-104012552D01*
X127113729Y-104000000D01*
X127093080Y-103855813D01*
X127068843Y-103802507D01*
X127036508Y-103731390D01*
X127036507Y-103731388D01*
X127032792Y-103723218D01*
X126937713Y-103612873D01*
X126815485Y-103533648D01*
X126675934Y-103491914D01*
X126666958Y-103491859D01*
X126666957Y-103491859D01*
X126605644Y-103491485D01*
X126530279Y-103491024D01*
X126390229Y-103531051D01*
X126382641Y-103535839D01*
X126382638Y-103535840D01*
X126345636Y-103559187D01*
X126277351Y-103578622D01*
X126209399Y-103558053D01*
X126163355Y-103504012D01*
X126152400Y-103452626D01*
X126152400Y-102742614D01*
X127192031Y-102742614D01*
X127195765Y-102783648D01*
X127202167Y-102853986D01*
X127210745Y-102948248D01*
X127212483Y-102954154D01*
X127212484Y-102954158D01*
X127216544Y-102967951D01*
X127269044Y-103146332D01*
X127364708Y-103329319D01*
X127494091Y-103490240D01*
X127652268Y-103622966D01*
X127657663Y-103625932D01*
X127657669Y-103625936D01*
X127779025Y-103692652D01*
X127833211Y-103722441D01*
X128030030Y-103784875D01*
X128036147Y-103785561D01*
X128036151Y-103785562D01*
X128111982Y-103794068D01*
X128190724Y-103802900D01*
X128301964Y-103802900D01*
X128455499Y-103787846D01*
X128653171Y-103728165D01*
X128744328Y-103679696D01*
X128830043Y-103634121D01*
X128830046Y-103634119D01*
X128835485Y-103631227D01*
X128840255Y-103627337D01*
X128840259Y-103627334D01*
X128990724Y-103504617D01*
X128990727Y-103504614D01*
X128995499Y-103500722D01*
X129000896Y-103494199D01*
X129081828Y-103396369D01*
X129127118Y-103341623D01*
X129180052Y-103243724D01*
X131786309Y-103243724D01*
X131787473Y-103252626D01*
X131787473Y-103252629D01*
X131796787Y-103323854D01*
X131805195Y-103388152D01*
X131808809Y-103396365D01*
X131808810Y-103396369D01*
X131848003Y-103485440D01*
X131863859Y-103521474D01*
X131869634Y-103528344D01*
X131869635Y-103528346D01*
X131946405Y-103619675D01*
X131957583Y-103632973D01*
X131965060Y-103637950D01*
X132071361Y-103708710D01*
X132071363Y-103708711D01*
X132078834Y-103713684D01*
X132087401Y-103716361D01*
X132087402Y-103716361D01*
X132097360Y-103719472D01*
X132217864Y-103757121D01*
X132363498Y-103759790D01*
X132472963Y-103729946D01*
X132495363Y-103723839D01*
X132495364Y-103723839D01*
X132504026Y-103721477D01*
X132512266Y-103716418D01*
X132620502Y-103649961D01*
X132628154Y-103645263D01*
X132634774Y-103637950D01*
X132719873Y-103543934D01*
X132719874Y-103543933D01*
X132725901Y-103537274D01*
X132742017Y-103504012D01*
X132785495Y-103414272D01*
X132785495Y-103414271D01*
X132789410Y-103406191D01*
X132813576Y-103262552D01*
X132813729Y-103250000D01*
X132799996Y-103154103D01*
X132794354Y-103114706D01*
X132794353Y-103114703D01*
X132793080Y-103105813D01*
X132789362Y-103097635D01*
X132736508Y-102981390D01*
X132736507Y-102981388D01*
X132732792Y-102973218D01*
X132637713Y-102862873D01*
X132515485Y-102783648D01*
X132375934Y-102741914D01*
X132366958Y-102741859D01*
X132366957Y-102741859D01*
X132305644Y-102741485D01*
X132230279Y-102741024D01*
X132090229Y-102781051D01*
X131967042Y-102858776D01*
X131870622Y-102967951D01*
X131808719Y-103099800D01*
X131807339Y-103108665D01*
X131807338Y-103108667D01*
X131800264Y-103154103D01*
X131786309Y-103243724D01*
X129180052Y-103243724D01*
X129225327Y-103159990D01*
X129286386Y-102962739D01*
X129297313Y-102858776D01*
X129307325Y-102763515D01*
X129307325Y-102763513D01*
X129307969Y-102757386D01*
X129289255Y-102551752D01*
X129276857Y-102509625D01*
X129232696Y-102359580D01*
X129230956Y-102353668D01*
X129143968Y-102187276D01*
X129130134Y-102117642D01*
X129156144Y-102051581D01*
X129213740Y-102010069D01*
X129222488Y-102007339D01*
X129345363Y-101973839D01*
X129345364Y-101973839D01*
X129354026Y-101971477D01*
X129478154Y-101895263D01*
X129513863Y-101855813D01*
X129569873Y-101793934D01*
X129569874Y-101793933D01*
X129575901Y-101787274D01*
X129590684Y-101756763D01*
X129635495Y-101664272D01*
X129635495Y-101664271D01*
X129639410Y-101656191D01*
X129663576Y-101512552D01*
X129663729Y-101500000D01*
X129643080Y-101355813D01*
X129639362Y-101347635D01*
X129586508Y-101231390D01*
X129586507Y-101231388D01*
X129582792Y-101223218D01*
X129487713Y-101112873D01*
X129365485Y-101033648D01*
X129225934Y-100991914D01*
X129216958Y-100991859D01*
X129216957Y-100991859D01*
X129155644Y-100991485D01*
X129080279Y-100991024D01*
X128940229Y-101031051D01*
X128817042Y-101108776D01*
X128720622Y-101217951D01*
X128658719Y-101349800D01*
X128636309Y-101493724D01*
X128637473Y-101502626D01*
X128637473Y-101502629D01*
X128648043Y-101583457D01*
X128637043Y-101653596D01*
X128589868Y-101706653D01*
X128521498Y-101725784D01*
X128485008Y-101719895D01*
X128469970Y-101715125D01*
X128463853Y-101714439D01*
X128463849Y-101714438D01*
X128388018Y-101705932D01*
X128309276Y-101697100D01*
X128198036Y-101697100D01*
X128044501Y-101712154D01*
X127846829Y-101771835D01*
X127805267Y-101793934D01*
X127669957Y-101865879D01*
X127669954Y-101865881D01*
X127664515Y-101868773D01*
X127659745Y-101872663D01*
X127659741Y-101872666D01*
X127509276Y-101995383D01*
X127509273Y-101995386D01*
X127504501Y-101999278D01*
X127500573Y-102004026D01*
X127500572Y-102004027D01*
X127489555Y-102017344D01*
X127372882Y-102158377D01*
X127357255Y-102187278D01*
X127316062Y-102263463D01*
X127267194Y-102312735D01*
X127271324Y-102346975D01*
X127267412Y-102363465D01*
X127213614Y-102537261D01*
X127192031Y-102742614D01*
X126152400Y-102742614D01*
X126152400Y-102548192D01*
X126172402Y-102480071D01*
X126226058Y-102433578D01*
X126296332Y-102423474D01*
X126348219Y-102443305D01*
X126371361Y-102458710D01*
X126371363Y-102458711D01*
X126378834Y-102463684D01*
X126517864Y-102507121D01*
X126663498Y-102509790D01*
X126772504Y-102480071D01*
X126795363Y-102473839D01*
X126795364Y-102473839D01*
X126804026Y-102471477D01*
X126812359Y-102466361D01*
X126920502Y-102399961D01*
X126928154Y-102395263D01*
X126939279Y-102382973D01*
X127019873Y-102293934D01*
X127019874Y-102293933D01*
X127025901Y-102287274D01*
X127033656Y-102271268D01*
X127081358Y-102218686D01*
X127085056Y-102217691D01*
X127081996Y-102177259D01*
X127085191Y-102165224D01*
X127085495Y-102164272D01*
X127089410Y-102156191D01*
X127113576Y-102012552D01*
X127113729Y-102000000D01*
X127108056Y-101960385D01*
X127094354Y-101864706D01*
X127094353Y-101864703D01*
X127093080Y-101855813D01*
X127061917Y-101787274D01*
X127036508Y-101731390D01*
X127036507Y-101731388D01*
X127032792Y-101723218D01*
X126937713Y-101612873D01*
X126815485Y-101533648D01*
X126675934Y-101491914D01*
X126666958Y-101491859D01*
X126666957Y-101491859D01*
X126605644Y-101491485D01*
X126530279Y-101491024D01*
X126390229Y-101531051D01*
X126382641Y-101535839D01*
X126382638Y-101535840D01*
X126345636Y-101559187D01*
X126277351Y-101578622D01*
X126209399Y-101558053D01*
X126163355Y-101504012D01*
X126152400Y-101452626D01*
X126152400Y-100548192D01*
X126172402Y-100480071D01*
X126226058Y-100433578D01*
X126296332Y-100423474D01*
X126348219Y-100443305D01*
X126371361Y-100458710D01*
X126371363Y-100458711D01*
X126378834Y-100463684D01*
X126517864Y-100507121D01*
X126663498Y-100509790D01*
X126772504Y-100480071D01*
X126795363Y-100473839D01*
X126795364Y-100473839D01*
X126804026Y-100471477D01*
X126812359Y-100466361D01*
X126920502Y-100399961D01*
X126928154Y-100395263D01*
X126934774Y-100387950D01*
X127019873Y-100293934D01*
X127019874Y-100293933D01*
X127025901Y-100287274D01*
X127046174Y-100245432D01*
X127085495Y-100164272D01*
X127085495Y-100164271D01*
X127089410Y-100156191D01*
X127113576Y-100012552D01*
X127113729Y-100000000D01*
X127112830Y-99993724D01*
X128636309Y-99993724D01*
X128637473Y-100002626D01*
X128637473Y-100002629D01*
X128649096Y-100091514D01*
X128655195Y-100138152D01*
X128658809Y-100146365D01*
X128658810Y-100146369D01*
X128659237Y-100147339D01*
X128713859Y-100271474D01*
X128719634Y-100278344D01*
X128719635Y-100278346D01*
X128727140Y-100287274D01*
X128807583Y-100382973D01*
X128815060Y-100387950D01*
X128921361Y-100458710D01*
X128921363Y-100458711D01*
X128928834Y-100463684D01*
X129067864Y-100507121D01*
X129213498Y-100509790D01*
X129322504Y-100480071D01*
X129345363Y-100473839D01*
X129345364Y-100473839D01*
X129354026Y-100471477D01*
X129362359Y-100466361D01*
X129470502Y-100399961D01*
X129478154Y-100395263D01*
X129484774Y-100387950D01*
X129569873Y-100293934D01*
X129569874Y-100293933D01*
X129575901Y-100287274D01*
X129596174Y-100245432D01*
X129635495Y-100164272D01*
X129635495Y-100164271D01*
X129639410Y-100156191D01*
X129663576Y-100012552D01*
X129663729Y-100000000D01*
X129662830Y-99993724D01*
X130086309Y-99993724D01*
X130087473Y-100002626D01*
X130087473Y-100002629D01*
X130099096Y-100091514D01*
X130105195Y-100138152D01*
X130108809Y-100146365D01*
X130108810Y-100146369D01*
X130109237Y-100147339D01*
X130163859Y-100271474D01*
X130169634Y-100278344D01*
X130169635Y-100278346D01*
X130177140Y-100287274D01*
X130257583Y-100382973D01*
X130265060Y-100387950D01*
X130371361Y-100458710D01*
X130371363Y-100458711D01*
X130378834Y-100463684D01*
X130517864Y-100507121D01*
X130663498Y-100509790D01*
X130772504Y-100480071D01*
X130795363Y-100473839D01*
X130795364Y-100473839D01*
X130804026Y-100471477D01*
X130812359Y-100466361D01*
X130920502Y-100399961D01*
X130928154Y-100395263D01*
X130934774Y-100387950D01*
X131019873Y-100293934D01*
X131019874Y-100293933D01*
X131025901Y-100287274D01*
X131046174Y-100245432D01*
X131085495Y-100164272D01*
X131085495Y-100164271D01*
X131089410Y-100156191D01*
X131113576Y-100012552D01*
X131113729Y-100000000D01*
X131093080Y-99855813D01*
X131089362Y-99847635D01*
X131036508Y-99731390D01*
X131036507Y-99731388D01*
X131032792Y-99723218D01*
X130937713Y-99612873D01*
X130815485Y-99533648D01*
X130675934Y-99491914D01*
X130666958Y-99491859D01*
X130666957Y-99491859D01*
X130605644Y-99491485D01*
X130530279Y-99491024D01*
X130390229Y-99531051D01*
X130382642Y-99535838D01*
X130382640Y-99535839D01*
X130378377Y-99538529D01*
X130267042Y-99608776D01*
X130170622Y-99717951D01*
X130108719Y-99849800D01*
X130086309Y-99993724D01*
X129662830Y-99993724D01*
X129643080Y-99855813D01*
X129639362Y-99847635D01*
X129586508Y-99731390D01*
X129586507Y-99731388D01*
X129582792Y-99723218D01*
X129487713Y-99612873D01*
X129365485Y-99533648D01*
X129225934Y-99491914D01*
X129216958Y-99491859D01*
X129216957Y-99491859D01*
X129155644Y-99491485D01*
X129080279Y-99491024D01*
X128940229Y-99531051D01*
X128932642Y-99535838D01*
X128932640Y-99535839D01*
X128928377Y-99538529D01*
X128817042Y-99608776D01*
X128720622Y-99717951D01*
X128658719Y-99849800D01*
X128636309Y-99993724D01*
X127112830Y-99993724D01*
X127093080Y-99855813D01*
X127089362Y-99847635D01*
X127036508Y-99731390D01*
X127036507Y-99731388D01*
X127032792Y-99723218D01*
X126937713Y-99612873D01*
X126815485Y-99533648D01*
X126675934Y-99491914D01*
X126666958Y-99491859D01*
X126666957Y-99491859D01*
X126605644Y-99491485D01*
X126530279Y-99491024D01*
X126390229Y-99531051D01*
X126382641Y-99535839D01*
X126382638Y-99535840D01*
X126345636Y-99559187D01*
X126277351Y-99578622D01*
X126209399Y-99558053D01*
X126163355Y-99504012D01*
X126152400Y-99452626D01*
X126152400Y-99126000D01*
X126172402Y-99057879D01*
X126226058Y-99011386D01*
X126278400Y-99000000D01*
X136374000Y-99000000D01*
X136442121Y-99020002D01*
G37*
%TD.AperFunction*%
%TD*%
M02*
