M48
; DRILL file {KiCad 6.0.0} date mar. 02 mai 2023 17:34:28
; FORMAT={-:-/ absolute / inch / decimal}
; #@! TF.CreationDate,2023-05-02T17:34:28+02:00
; #@! TF.GenerationSoftware,Kicad,Pcbnew,6.0.0
; #@! TF.FileFunction,Plated,1,4,PTH
FMAT,2
INCH
; #@! TA.AperFunction,Plated,PTH,ViaDrill
T1C0.0120
; #@! TA.AperFunction,Plated,PTH,ComponentDrill
T2C0.0120
; #@! TA.AperFunction,Plated,PTH,ComponentDrill
T3C0.0354
; #@! TA.AperFunction,Plated,PTH,ComponentDrill
T4C0.0354
%
G90
G05
T1
X4.9843Y-3.7835
X4.9843Y-3.8583
X4.9843Y-3.937
X4.9843Y-4.1339
X4.9843Y-4.3307
X4.9843Y-4.4094
X4.9843Y-4.4843
X5.0295Y-4.3307
X5.0591Y-3.7835
X5.0591Y-4.4843
X5.0689Y-3.937
X5.0689Y-3.9961
X5.0689Y-4.2913
X5.128Y-4.3307
X5.1339Y-3.937
X5.1378Y-3.7835
X5.1378Y-4.4843
X5.2087Y-4.065
X5.2087Y-4.1339
X5.2087Y-4.2126
X5.2087Y-4.2717
X5.2165Y-3.7835
X5.2165Y-4.3898
X5.2165Y-4.4843
X5.2461Y-4.2717
X5.2638Y-3.9665
X5.2953Y-3.7835
X5.2953Y-4.4843
X5.3051Y-4.1339
X5.3051Y-4.4272
X5.322Y-4.3898
X5.3445Y-4.0354
X5.3543Y-4.2224
X5.374Y-3.7835
X5.3937Y-4.0354
X5.4528Y-3.7835
X5.4528Y-3.9803
X5.4528Y-4.2224
X5.4646Y-4.4843
X5.5118Y-4.0945
X5.5118Y-4.1732
X5.5315Y-3.7835
X5.5472Y-3.8681
X5.5512Y-4.4843
X5.5709Y-3.8228
X5.5709Y-4.1831
X5.6004Y-4.093
X5.6102Y-3.7835
X5.6299Y-4.4843
X5.6378Y-4.252
X5.6398Y-4.3799
X5.6594Y-4.3012
X5.6594Y-4.3504
X5.6594Y-4.4094
X5.6693Y-3.9803
X5.689Y-3.7835
X5.6988Y-4.4843
X5.7047Y-3.9272
X5.7205Y-4.1496
X5.7205Y-4.2126
X5.7362Y-3.8976
X5.7661Y-4.1634
X5.7677Y-3.7835
X5.7677Y-3.9272
X5.7677Y-4.2559
X5.7677Y-4.4843
X5.7992Y-4.3425
X5.8268Y-3.8976
X5.8307Y-4.2559
X5.8465Y-3.7835
X5.8465Y-4.4843
X5.8622Y-4.3425
X5.8661Y-4.1634
X5.8937Y-4.2283
X5.9252Y-3.7835
X5.9252Y-4.4843
X5.9646Y-4.0531
X5.9646Y-4.0886
X5.9661Y-4.1634
X6.0039Y-3.7835
X6.0039Y-4.4843
X6.0827Y-3.7835
X6.0827Y-4.4843
X6.1571Y-4.4295
X6.1614Y-3.7835
X6.1614Y-4.4843
X6.1713Y-4.0945
X6.1772Y-3.8425
X6.1772Y-3.8921
X6.1772Y-3.9921
X6.2047Y-4.374
X6.2402Y-3.7835
X6.2402Y-4.4843
X6.2543Y-4.3425
X6.2992Y-4.0945
X6.3047Y-4.2559
X6.3189Y-3.7835
X6.3189Y-4.4843
X6.3547Y-4.2283
X6.3819Y-4.0945
X6.3976Y-3.7835
X6.3976Y-4.4843
X6.4291Y-4.1929
X6.4764Y-3.7835
X6.4764Y-4.4843
X6.5Y-4.374
X6.55Y-4.3425
X6.5551Y-3.7835
X6.5551Y-4.4843
X6.5846Y-3.9425
X6.5846Y-3.9921
X6.6Y-4.2559
X6.6339Y-3.7835
X6.6339Y-4.4843
X6.6437Y-3.8374
X6.6437Y-3.8976
X6.6496Y-4.2283
X6.7087Y-3.7835
X6.7087Y-3.8583
X6.7087Y-3.937
X6.7087Y-4.0157
X6.7087Y-4.0945
X6.7087Y-4.1732
X6.7087Y-4.252
X6.7087Y-4.3307
X6.7087Y-4.4094
X6.7087Y-4.4843
T2
X5.689Y-4.3799
T3
X5.7661Y-4.4291
X6.6339Y-4.0551
T4
G00X4.998Y-4.0413
M15
G01X5.0492Y-4.0413
M16
G05
G00X4.998Y-4.2264
M15
G01X5.0492Y-4.2264
M16
G05
T0
M30
