%TF.GenerationSoftware,KiCad,Pcbnew,6.0.0*%
%TF.CreationDate,2023-02-11T22:57:16+01:00*%
%TF.ProjectId,cowstick-ums,636f7773-7469-4636-9b2d-756d732e6b69,1*%
%TF.SameCoordinates,Original*%
%TF.FileFunction,Copper,L4,Bot*%
%TF.FilePolarity,Positive*%
%FSLAX46Y46*%
G04 Gerber Fmt 4.6, Leading zero omitted, Abs format (unit mm)*
G04 Created by KiCad (PCBNEW 6.0.0) date 2023-02-11 22:57:16*
%MOMM*%
%LPD*%
G01*
G04 APERTURE LIST*
%ADD10C,0.101600*%
%TA.AperFunction,NonConductor*%
%ADD11C,0.101600*%
%TD*%
%TA.AperFunction,ComponentPad*%
%ADD12C,1.524000*%
%TD*%
%TA.AperFunction,SMDPad,CuDef*%
%ADD13C,1.198880*%
%TD*%
%TA.AperFunction,SMDPad,CuDef*%
%ADD14R,0.635000X1.143000*%
%TD*%
%TA.AperFunction,SMDPad,CuDef*%
%ADD15R,1.000760X0.701040*%
%TD*%
%TA.AperFunction,ViaPad*%
%ADD16C,0.711200*%
%TD*%
%TA.AperFunction,Conductor*%
%ADD17C,0.406400*%
%TD*%
%TA.AperFunction,Conductor*%
%ADD18C,0.711200*%
%TD*%
%TA.AperFunction,Conductor*%
%ADD19C,0.304800*%
%TD*%
G04 APERTURE END LIST*
D10*
D11*
X137619428Y-98405000D02*
X137655714Y-98368714D01*
X137728285Y-98259857D01*
X137764571Y-98187285D01*
X137800857Y-98078428D01*
X137837142Y-97897000D01*
X137837142Y-97751857D01*
X137800857Y-97570428D01*
X137764571Y-97461571D01*
X137728285Y-97389000D01*
X137655714Y-97280142D01*
X137619428Y-97243857D01*
X137002571Y-98078428D02*
X137075142Y-98114714D01*
X137220285Y-98114714D01*
X137292857Y-98078428D01*
X137329142Y-98042142D01*
X137365428Y-97969571D01*
X137365428Y-97751857D01*
X137329142Y-97679285D01*
X137292857Y-97643000D01*
X137220285Y-97606714D01*
X137075142Y-97606714D01*
X137002571Y-97643000D01*
X136748571Y-98405000D02*
X136712285Y-98368714D01*
X136639714Y-98259857D01*
X136603428Y-98187285D01*
X136567142Y-98078428D01*
X136530857Y-97897000D01*
X136530857Y-97751857D01*
X136567142Y-97570428D01*
X136603428Y-97461571D01*
X136639714Y-97389000D01*
X136712285Y-97280142D01*
X136748571Y-97243857D01*
X135623714Y-97897000D02*
X135260857Y-97897000D01*
X135696285Y-98114714D02*
X135442285Y-97352714D01*
X135188285Y-98114714D01*
X134607714Y-97606714D02*
X134607714Y-98223571D01*
X134644000Y-98296142D01*
X134680285Y-98332428D01*
X134752857Y-98368714D01*
X134861714Y-98368714D01*
X134934285Y-98332428D01*
X134607714Y-98078428D02*
X134680285Y-98114714D01*
X134825428Y-98114714D01*
X134898000Y-98078428D01*
X134934285Y-98042142D01*
X134970571Y-97969571D01*
X134970571Y-97751857D01*
X134934285Y-97679285D01*
X134898000Y-97643000D01*
X134825428Y-97606714D01*
X134680285Y-97606714D01*
X134607714Y-97643000D01*
X134244857Y-98114714D02*
X134244857Y-97606714D01*
X134244857Y-97352714D02*
X134281142Y-97389000D01*
X134244857Y-97425285D01*
X134208571Y-97389000D01*
X134244857Y-97352714D01*
X134244857Y-97425285D01*
X133773142Y-98114714D02*
X133845714Y-98078428D01*
X133882000Y-98005857D01*
X133882000Y-97352714D01*
X133156285Y-98114714D02*
X133156285Y-97715571D01*
X133192571Y-97643000D01*
X133265142Y-97606714D01*
X133410285Y-97606714D01*
X133482857Y-97643000D01*
X133156285Y-98078428D02*
X133228857Y-98114714D01*
X133410285Y-98114714D01*
X133482857Y-98078428D01*
X133519142Y-98005857D01*
X133519142Y-97933285D01*
X133482857Y-97860714D01*
X133410285Y-97824428D01*
X133228857Y-97824428D01*
X133156285Y-97788142D01*
X132466857Y-98078428D02*
X132539428Y-98114714D01*
X132684571Y-98114714D01*
X132757142Y-98078428D01*
X132793428Y-98042142D01*
X132829714Y-97969571D01*
X132829714Y-97751857D01*
X132793428Y-97679285D01*
X132757142Y-97643000D01*
X132684571Y-97606714D01*
X132539428Y-97606714D01*
X132466857Y-97643000D01*
X132140285Y-98114714D02*
X132140285Y-97352714D01*
X132067714Y-97824428D02*
X131850000Y-98114714D01*
X131850000Y-97606714D02*
X132140285Y-97897000D01*
X130979142Y-97425285D02*
X130942857Y-97389000D01*
X130870285Y-97352714D01*
X130688857Y-97352714D01*
X130616285Y-97389000D01*
X130580000Y-97425285D01*
X130543714Y-97497857D01*
X130543714Y-97570428D01*
X130580000Y-97679285D01*
X131015428Y-98114714D01*
X130543714Y-98114714D01*
X130072000Y-97352714D02*
X129999428Y-97352714D01*
X129926857Y-97389000D01*
X129890571Y-97425285D01*
X129854285Y-97497857D01*
X129818000Y-97643000D01*
X129818000Y-97824428D01*
X129854285Y-97969571D01*
X129890571Y-98042142D01*
X129926857Y-98078428D01*
X129999428Y-98114714D01*
X130072000Y-98114714D01*
X130144571Y-98078428D01*
X130180857Y-98042142D01*
X130217142Y-97969571D01*
X130253428Y-97824428D01*
X130253428Y-97643000D01*
X130217142Y-97497857D01*
X130180857Y-97425285D01*
X130144571Y-97389000D01*
X130072000Y-97352714D01*
X129527714Y-97425285D02*
X129491428Y-97389000D01*
X129418857Y-97352714D01*
X129237428Y-97352714D01*
X129164857Y-97389000D01*
X129128571Y-97425285D01*
X129092285Y-97497857D01*
X129092285Y-97570428D01*
X129128571Y-97679285D01*
X129564000Y-98114714D01*
X129092285Y-98114714D01*
X128838285Y-97352714D02*
X128366571Y-97352714D01*
X128620571Y-97643000D01*
X128511714Y-97643000D01*
X128439142Y-97679285D01*
X128402857Y-97715571D01*
X128366571Y-97788142D01*
X128366571Y-97969571D01*
X128402857Y-98042142D01*
X128439142Y-98078428D01*
X128511714Y-98114714D01*
X128729428Y-98114714D01*
X128802000Y-98078428D01*
X128838285Y-98042142D01*
D12*
%TO.P,TP9,1,1*%
%TO.N,GND*%
X168500000Y-103000000D03*
%TD*%
%TO.P,TP8,1,1*%
%TO.N,UART_RX*%
X151540000Y-112500000D03*
%TD*%
%TO.P,TP6,1,1*%
%TO.N,GND*%
X146460000Y-112500000D03*
%TD*%
%TO.P,TP7,1,1*%
%TO.N,UART_TX*%
X149000000Y-112500000D03*
%TD*%
D13*
%TO.P,TP5,1,1*%
%TO.N,SWD_IO*%
X151540000Y-105750000D03*
%TD*%
D14*
%TO.P,C90,1*%
%TO.N,Net-(C90-Pad1)*%
X135238000Y-111000000D03*
%TO.P,C90,2*%
%TO.N,GND*%
X136762000Y-111000000D03*
%TD*%
D13*
%TO.P,TP2,1,1*%
%TO.N,GND*%
X154080000Y-105750000D03*
%TD*%
%TO.P,TP4,1,1*%
%TO.N,SWD_CLK*%
X149000000Y-105750000D03*
%TD*%
D15*
%TO.P,U90,1,Vin*%
%TO.N,+VBus*%
X131480000Y-112952500D03*
%TO.P,U90,2*%
%TO.N,GND*%
X131480000Y-112000000D03*
%TO.P,U90,3,EN*%
%TO.N,+VBus*%
X131480000Y-111047500D03*
%TO.P,U90,4,BYP*%
%TO.N,Net-(C90-Pad1)*%
X134020000Y-111047500D03*
%TO.P,U90,5,VOut*%
%TO.N,+3.3V*%
X134020000Y-112952500D03*
%TD*%
D13*
%TO.P,TP3,1,1*%
%TO.N,RST*%
X146460000Y-105750000D03*
%TD*%
D16*
%TO.N,+VBus*%
X132300000Y-108500000D03*
X128750000Y-109000000D03*
X130600000Y-110000000D03*
X134750000Y-105000000D03*
X131480000Y-110000000D03*
X133250000Y-108500000D03*
X127750000Y-110000000D03*
%TO.N,GND*%
X170400000Y-102000000D03*
X144000000Y-101100000D03*
X132300000Y-105000000D03*
X132300000Y-103250000D03*
X160000000Y-104000000D03*
X162500000Y-113900000D03*
X126600000Y-113900000D03*
X164500000Y-113900000D03*
X140000000Y-109750000D03*
X168500000Y-96100000D03*
X148500000Y-113900000D03*
X132750000Y-112000000D03*
X170400000Y-112000000D03*
X138500000Y-96100000D03*
X150500000Y-113900000D03*
X170400000Y-96100000D03*
X128500000Y-113900000D03*
X132500000Y-96100000D03*
X170400000Y-110000000D03*
X154500000Y-113900000D03*
X170400000Y-98000000D03*
X138800000Y-113900000D03*
X170400000Y-113900000D03*
X160500000Y-113900000D03*
X170400000Y-100000000D03*
X168750000Y-99000000D03*
X144500000Y-96100000D03*
X132300000Y-107000000D03*
X126600000Y-98000000D03*
X136500000Y-113900000D03*
X141500000Y-106250000D03*
X142500000Y-96100000D03*
X129150000Y-101500000D03*
X128250000Y-105000000D03*
X170400000Y-106000000D03*
X129150000Y-100000000D03*
X141000000Y-113900000D03*
X130600000Y-100000000D03*
X140500000Y-96100000D03*
X126600000Y-112000000D03*
X162100000Y-104000000D03*
X146500000Y-113900000D03*
X130500000Y-96100000D03*
X136500000Y-96100000D03*
X152500000Y-113900000D03*
X162500000Y-96100000D03*
X156500000Y-96100000D03*
X156900000Y-101400000D03*
X158500000Y-113900000D03*
X130500000Y-113900000D03*
X134500000Y-113900000D03*
X154500000Y-96100000D03*
X156500000Y-113900000D03*
X164500000Y-96100000D03*
X142000000Y-109750000D03*
X146500000Y-96100000D03*
X134500000Y-96100000D03*
X144750000Y-113900000D03*
X126600000Y-110000000D03*
X152500000Y-96100000D03*
X126600000Y-104000000D03*
X138500000Y-101100000D03*
X158500000Y-96100000D03*
X126600000Y-96100000D03*
X148500000Y-96100000D03*
X166500000Y-113900000D03*
X166500000Y-96100000D03*
X168500000Y-113900000D03*
X126600000Y-100000000D03*
X170400000Y-104000000D03*
X170400000Y-108000000D03*
X150500000Y-96100000D03*
X132500000Y-113900000D03*
X128500000Y-96100000D03*
X126600000Y-106000000D03*
X143000000Y-113900000D03*
X126600000Y-108000000D03*
X145300000Y-105400000D03*
X137750000Y-111000000D03*
X126600000Y-102000000D03*
X160500000Y-96100000D03*
%TO.N,+3.3V*%
X144000000Y-112250000D03*
X138750000Y-108750000D03*
X139000000Y-111750000D03*
X140500000Y-97250000D03*
X163300000Y-106500000D03*
X142250000Y-103961100D03*
X144500000Y-112900000D03*
X143500000Y-112900000D03*
X144000000Y-111000000D03*
X168750000Y-97470000D03*
X156750000Y-104000000D03*
%TO.N,SPI2_CS*%
X144900000Y-99750000D03*
X156900000Y-97600000D03*
%TO.N,SWD_CLK*%
X149000000Y-105750000D03*
%TO.N,SWD_IO*%
X151540000Y-105750000D03*
%TO.N,SPI2_MISO*%
X148000000Y-99000000D03*
X156900000Y-98860000D03*
%TO.N,SPI2_MOSI*%
X146500000Y-99750000D03*
X167250000Y-101400000D03*
%TO.N,SPI2_SCK*%
X167250000Y-100140000D03*
X145700000Y-99000000D03*
%TO.N,USB_DM*%
X140000000Y-106000000D03*
X151500000Y-103850000D03*
%TO.N,USB_DP*%
X140000000Y-104000000D03*
X151500000Y-102950000D03*
%TO.N,RST*%
X146460000Y-105750000D03*
%TO.N,SPI1_CS1*%
X147300000Y-110300000D03*
X157600000Y-111100000D03*
%TO.N,SPI1_SCK*%
X148100000Y-108100000D03*
X160140000Y-108100000D03*
X167640000Y-108100000D03*
%TO.N,SPI1_MISO*%
X158860000Y-110300000D03*
X148900000Y-110300000D03*
X166370000Y-110300000D03*
%TO.N,SPI1_MOSI*%
X168900000Y-107400000D03*
X149700000Y-107400000D03*
X161410000Y-107400000D03*
%TO.N,SPI1_CS2*%
X165100000Y-111100000D03*
X156390000Y-112510000D03*
%TD*%
D17*
%TO.N,+VBus*%
X131480000Y-111047500D02*
X131480000Y-110000000D01*
X130600000Y-110000000D02*
X131480000Y-110000000D01*
%TO.N,GND*%
X140000000Y-109750000D02*
X140000000Y-112700000D01*
X132750000Y-112000000D02*
X137290000Y-112000000D01*
D18*
X128500000Y-113900000D02*
X130500000Y-113900000D01*
X132500000Y-113900000D02*
X134500000Y-113900000D01*
D19*
X155290000Y-104540000D02*
X154080000Y-105750000D01*
D17*
X136762000Y-111000000D02*
X137750000Y-111000000D01*
X140000000Y-112700000D02*
X138800000Y-113900000D01*
X137290000Y-112000000D02*
X137750000Y-111540000D01*
D19*
X146090000Y-104610000D02*
X152940000Y-104610000D01*
X152940000Y-104610000D02*
X154080000Y-105750000D01*
D17*
X131480000Y-112000000D02*
X132750000Y-112000000D01*
D19*
X156900000Y-101400000D02*
X155290000Y-103010000D01*
X144000000Y-101100000D02*
X138500000Y-101100000D01*
D17*
X137750000Y-111540000D02*
X137750000Y-111000000D01*
D19*
X145300000Y-105400000D02*
X146090000Y-104610000D01*
D18*
X130500000Y-113900000D02*
X132500000Y-113900000D01*
D19*
X155290000Y-103010000D02*
X155290000Y-104540000D01*
D17*
%TO.N,+3.3V*%
X139000000Y-111750000D02*
X137797500Y-112952500D01*
X137797500Y-112952500D02*
X134020000Y-112952500D01*
%TO.N,Net-(C90-Pad1)*%
X134020000Y-111047500D02*
X135190500Y-111047500D01*
X135190500Y-111047500D02*
X135238000Y-111000000D01*
D19*
%TO.N,SPI2_CS*%
X150449877Y-97240000D02*
X151090000Y-97240000D01*
X148210000Y-96890000D02*
X148210000Y-97240000D01*
X147010000Y-97540000D02*
X147010000Y-97940000D01*
X145748531Y-97921472D02*
X145748530Y-97921471D01*
X148810000Y-97240000D02*
X148810000Y-96890000D01*
X146430000Y-97240000D02*
X146710000Y-97240000D01*
X145748530Y-97921471D02*
X145854595Y-97815405D01*
X152261774Y-97240000D02*
X152290000Y-97240000D01*
X147610000Y-97940000D02*
X147610000Y-97540000D01*
X148810000Y-97940000D02*
X148810000Y-97240000D01*
X149710000Y-97240000D02*
X150449877Y-97240000D01*
X147610000Y-97540000D02*
X147610000Y-96890000D01*
X144900000Y-99750000D02*
X144900000Y-98770000D01*
X145041424Y-97638630D02*
X145041424Y-97638629D01*
X145854595Y-97815405D02*
X146430000Y-97240000D01*
X151661774Y-96668226D02*
X151690000Y-96668226D01*
X145041424Y-97638629D02*
X145324267Y-97921472D01*
X155630000Y-97240000D02*
X155990000Y-97600000D01*
X152290000Y-97240000D02*
X155630000Y-97240000D01*
X148210000Y-97240000D02*
X148210000Y-97940000D01*
X149410000Y-96890000D02*
X149410000Y-96940000D01*
X144900000Y-98345736D02*
X144617158Y-98062894D01*
X155990000Y-97600000D02*
X156900000Y-97600000D01*
X147910000Y-96590000D02*
G75*
G03*
X147610000Y-96890000I0J-300000D01*
G01*
X144617159Y-97638631D02*
G75*
G03*
X144617159Y-98062893I212131J-212131D01*
G01*
X151975887Y-96954113D02*
G75*
G03*
X151690000Y-96668226I-285886J1D01*
G01*
X152261774Y-97240000D02*
G75*
G02*
X151975887Y-96954113I-1J285886D01*
G01*
X145748530Y-97921471D02*
G75*
G02*
X145324268Y-97921471I-212131J212131D01*
G01*
X149710000Y-97240000D02*
G75*
G02*
X149410000Y-96940000I0J300000D01*
G01*
X148210000Y-96890000D02*
G75*
G03*
X147910000Y-96590000I-300000J0D01*
G01*
X145041423Y-97638631D02*
G75*
G03*
X144617159Y-97638631I-212132J-212130D01*
G01*
X151375887Y-96954113D02*
G75*
G02*
X151090000Y-97240000I-285886J-1D01*
G01*
X147610000Y-97940000D02*
G75*
G02*
X147310000Y-98240000I-300000J0D01*
G01*
X149110000Y-96590000D02*
G75*
G03*
X148810000Y-96890000I0J-300000D01*
G01*
X148510000Y-98240000D02*
G75*
G02*
X148210000Y-97940000I0J300000D01*
G01*
X147310000Y-98240000D02*
G75*
G02*
X147010000Y-97940000I0J300000D01*
G01*
X144899999Y-98345737D02*
G75*
G02*
X144899999Y-98769999I-212131J-212131D01*
G01*
X151661774Y-96668226D02*
G75*
G03*
X151375887Y-96954113I-1J-285886D01*
G01*
X148810000Y-97940000D02*
G75*
G02*
X148510000Y-98240000I-300000J0D01*
G01*
X147010000Y-97540000D02*
G75*
G03*
X146710000Y-97240000I-300000J0D01*
G01*
X149410000Y-96890000D02*
G75*
G03*
X149110000Y-96590000I-300000J0D01*
G01*
%TO.N,SPI2_MISO*%
X149245000Y-98535000D02*
X149245000Y-98386060D01*
X156070000Y-98860000D02*
X156757522Y-98860000D01*
X151195000Y-98386060D02*
X151195000Y-98860000D01*
X151845000Y-99333940D02*
X151845000Y-98860000D01*
X153145000Y-99333940D02*
X153145000Y-98860000D01*
X155745000Y-99333940D02*
X155745000Y-99185000D01*
X152495000Y-98386060D02*
X152495000Y-98860000D01*
X155095000Y-98386060D02*
X155095000Y-98860000D01*
X149895000Y-98535000D02*
X149895000Y-99333940D01*
X149895000Y-98386060D02*
X149895000Y-98535000D01*
X153795000Y-98860000D02*
X153795000Y-99333940D01*
X154445000Y-99333940D02*
X154445000Y-98860000D01*
X151845000Y-98860000D02*
X151845000Y-98386060D01*
X148650000Y-98860000D02*
X148920000Y-98860000D01*
X153795000Y-98386060D02*
X153795000Y-98860000D01*
X153145000Y-98860000D02*
X153145000Y-98386060D01*
X148000000Y-99000000D02*
X148510000Y-99000000D01*
X156757522Y-98860000D02*
X156900000Y-98860000D01*
X154445000Y-98860000D02*
X154445000Y-98386060D01*
X152495000Y-98860000D02*
X152495000Y-99333940D01*
X151195000Y-98860000D02*
X151195000Y-99333940D01*
X150545000Y-98860000D02*
X150545000Y-98386060D01*
X148510000Y-99000000D02*
X148650000Y-98860000D01*
X155095000Y-98860000D02*
X155095000Y-99333940D01*
X150545000Y-99333940D02*
X150545000Y-98860000D01*
X149570000Y-98061060D02*
G75*
G03*
X149245000Y-98386060I-1J-324999D01*
G01*
X154445000Y-99333940D02*
G75*
G02*
X154120000Y-99658940I-324999J-1D01*
G01*
X152495000Y-98386060D02*
G75*
G03*
X152170000Y-98061060I-324999J1D01*
G01*
X154770000Y-98061060D02*
G75*
G03*
X154445000Y-98386060I-1J-324999D01*
G01*
X151845000Y-99333940D02*
G75*
G02*
X151520000Y-99658940I-324999J-1D01*
G01*
X153795000Y-98386060D02*
G75*
G03*
X153470000Y-98061060I-324999J1D01*
G01*
X150870000Y-98061060D02*
G75*
G03*
X150545000Y-98386060I-1J-324999D01*
G01*
X152170000Y-98061060D02*
G75*
G03*
X151845000Y-98386060I-1J-324999D01*
G01*
X156070000Y-98860000D02*
G75*
G03*
X155745000Y-99185000I-1J-324999D01*
G01*
X149895000Y-98386060D02*
G75*
G03*
X149570000Y-98061060I-324999J1D01*
G01*
X151195000Y-98386060D02*
G75*
G03*
X150870000Y-98061060I-324999J1D01*
G01*
X155745000Y-99333940D02*
G75*
G02*
X155420000Y-99658940I-324999J-1D01*
G01*
X153145000Y-99333940D02*
G75*
G02*
X152820000Y-99658940I-324999J-1D01*
G01*
X155095000Y-98386060D02*
G75*
G03*
X154770000Y-98061060I-324999J1D01*
G01*
X154120000Y-99658940D02*
G75*
G02*
X153795000Y-99333940I-1J324999D01*
G01*
X150220000Y-99658940D02*
G75*
G02*
X149895000Y-99333940I-1J324999D01*
G01*
X150545000Y-99333940D02*
G75*
G02*
X150220000Y-99658940I-324999J-1D01*
G01*
X153470000Y-98061060D02*
G75*
G03*
X153145000Y-98386060I-1J-324999D01*
G01*
X152820000Y-99658940D02*
G75*
G02*
X152495000Y-99333940I-1J324999D01*
G01*
X149245000Y-98535000D02*
G75*
G02*
X148920000Y-98860000I-324999J-1D01*
G01*
X155420000Y-99658940D02*
G75*
G02*
X155095000Y-99333940I-1J324999D01*
G01*
X151520000Y-99658940D02*
G75*
G02*
X151195000Y-99333940I-1J324999D01*
G01*
%TO.N,SPI2_MOSI*%
X160440000Y-101100000D02*
X160440000Y-101053581D01*
X146500000Y-99750000D02*
X148150000Y-101400000D01*
X161390000Y-101400000D02*
X167250000Y-101400000D01*
X156489911Y-100740089D02*
X157300089Y-100740089D01*
X155830000Y-101400000D02*
X156489911Y-100740089D01*
X161040000Y-101053581D02*
X161040000Y-101100000D01*
X157300089Y-100740089D02*
X157960000Y-101400000D01*
X148150000Y-101400000D02*
X155830000Y-101400000D01*
X157960000Y-101400000D02*
X160140000Y-101400000D01*
X161340000Y-101400000D02*
X161390000Y-101400000D01*
X161040000Y-101053581D02*
G75*
G03*
X160740000Y-100753581I-300000J0D01*
G01*
X161340000Y-101400000D02*
G75*
G02*
X161040000Y-101100000I0J300000D01*
G01*
X160740000Y-100753581D02*
G75*
G03*
X160440000Y-101053581I0J-300000D01*
G01*
X160440000Y-101100000D02*
G75*
G02*
X160140000Y-101400000I-300000J0D01*
G01*
%TO.N,SPI2_SCK*%
X147960000Y-100140000D02*
X167250000Y-100140000D01*
X145700000Y-99000000D02*
X146820000Y-99000000D01*
X146820000Y-99000000D02*
X147960000Y-100140000D01*
D17*
%TO.N,USB_DM*%
X144101800Y-105328200D02*
X145580000Y-103850000D01*
X140000000Y-106000000D02*
X140671800Y-105328200D01*
X145580000Y-103850000D02*
X151500000Y-103850000D01*
X140671800Y-105328200D02*
X144101800Y-105328200D01*
%TO.N,USB_DP*%
X143668200Y-104671800D02*
X145390000Y-102950000D01*
X140671800Y-104671800D02*
X143668200Y-104671800D01*
X145390000Y-102950000D02*
X151500000Y-102950000D01*
X140000000Y-104000000D02*
X140671800Y-104671800D01*
D19*
%TO.N,SPI1_CS1*%
X157600000Y-111100000D02*
X157190000Y-111100000D01*
X156140000Y-111459443D02*
X156140000Y-111450000D01*
X155440000Y-111100000D02*
X155440000Y-111459443D01*
X154740000Y-111459443D02*
X154740000Y-111450000D01*
X153547790Y-111100000D02*
X148100000Y-111100000D01*
X155440000Y-110970278D02*
X155440000Y-111100000D01*
X156010279Y-110840557D02*
X155569721Y-110840557D01*
X156140000Y-111450000D02*
X156140000Y-110970278D01*
X156840000Y-111450000D02*
X156840000Y-111459443D01*
X148100000Y-111100000D02*
X147300000Y-110300000D01*
X154390000Y-111100000D02*
X153547790Y-111100000D01*
X154390000Y-111100000D02*
G75*
G02*
X154740000Y-111450000I-1J-350001D01*
G01*
X155440000Y-110970278D02*
G75*
G02*
X155569721Y-110840557I129720J1D01*
G01*
X154740000Y-111459443D02*
G75*
G03*
X155090000Y-111809443I350001J1D01*
G01*
X156010279Y-110840557D02*
G75*
G02*
X156140000Y-110970278I1J-129720D01*
G01*
X156140000Y-111459443D02*
G75*
G03*
X156490000Y-111809443I350001J1D01*
G01*
X156490000Y-111809443D02*
G75*
G03*
X156840000Y-111459443I-1J350001D01*
G01*
X156840000Y-111450000D02*
G75*
G02*
X157190000Y-111100000I350001J-1D01*
G01*
X155090000Y-111809443D02*
G75*
G03*
X155440000Y-111459443I-1J350001D01*
G01*
%TO.N,SPI1_SCK*%
X148703346Y-107976653D02*
X149237200Y-107976653D01*
X149894400Y-108100000D02*
X160140000Y-108100000D01*
X148641673Y-108038327D02*
X148641673Y-108038326D01*
X160140000Y-108100000D02*
X167640000Y-108100000D01*
X149298873Y-108038326D02*
X149298873Y-108038327D01*
X149360546Y-108100000D02*
X149894400Y-108100000D01*
X148100000Y-108100000D02*
X148580000Y-108100000D01*
X149298873Y-108038326D02*
G75*
G03*
X149237200Y-107976653I-61674J-1D01*
G01*
X149360546Y-108100000D02*
G75*
G02*
X149298873Y-108038327I1J61674D01*
G01*
X148641673Y-108038327D02*
G75*
G02*
X148580000Y-108100000I-61674J1D01*
G01*
X148703346Y-107976653D02*
G75*
G03*
X148641673Y-108038326I1J-61674D01*
G01*
%TO.N,SPI1_MISO*%
X148900000Y-110300000D02*
X150340000Y-110300000D01*
X151665000Y-110300000D02*
X151665000Y-110446970D01*
X151811970Y-110593940D02*
X152518030Y-110593940D01*
X151661970Y-110300000D02*
X151665000Y-110300000D01*
X151661970Y-109978030D02*
X151661970Y-110300000D01*
X158860000Y-110300000D02*
X166370000Y-110300000D01*
X152665000Y-110446970D02*
X152665000Y-110300000D01*
X150983940Y-109656060D02*
X151340000Y-109656060D01*
X155421652Y-110300000D02*
X158860000Y-110300000D01*
X153986970Y-110300000D02*
X155421652Y-110300000D01*
X152986970Y-109656060D02*
X153343030Y-109656060D01*
X152665000Y-110300000D02*
X152665000Y-109978030D01*
X152665000Y-110446970D02*
G75*
G02*
X152518030Y-110593940I-146972J2D01*
G01*
X150983940Y-109656060D02*
G75*
G03*
X150661970Y-109978030I1J-321971D01*
G01*
X153986970Y-110300000D02*
G75*
G02*
X153665000Y-109978030I1J321971D01*
G01*
X151811970Y-110593940D02*
G75*
G02*
X151665000Y-110446970I2J146972D01*
G01*
X151661970Y-109978030D02*
G75*
G03*
X151340000Y-109656060I-321971J-1D01*
G01*
X153665000Y-109978030D02*
G75*
G03*
X153343030Y-109656060I-321971J-1D01*
G01*
X150661970Y-109978030D02*
G75*
G02*
X150340000Y-110300000I-321971J1D01*
G01*
X152986970Y-109656060D02*
G75*
G03*
X152665000Y-109978030I1J-321971D01*
G01*
%TO.N,SPI1_MOSI*%
X161410000Y-107400000D02*
X168900000Y-107400000D01*
X150825648Y-107004351D02*
X151880000Y-107004351D01*
X152077824Y-107202175D02*
X152077824Y-107202176D01*
X150627824Y-107202176D02*
X150627824Y-107202175D01*
X149700000Y-107400000D02*
X150430000Y-107400000D01*
X152275648Y-107400000D02*
X153330000Y-107400000D01*
X153330000Y-107400000D02*
X161410000Y-107400000D01*
X150825648Y-107004351D02*
G75*
G03*
X150627824Y-107202175I-1J-197823D01*
G01*
X150627824Y-107202176D02*
G75*
G02*
X150430000Y-107400000I-197823J-1D01*
G01*
X152275648Y-107400000D02*
G75*
G02*
X152077824Y-107202176I-1J197823D01*
G01*
X152077824Y-107202175D02*
G75*
G03*
X151880000Y-107004351I-197823J1D01*
G01*
%TO.N,SPI1_CS2*%
X162330000Y-111281538D02*
X162330000Y-111510000D01*
X161130000Y-111810000D02*
X161130000Y-112338462D01*
X162630000Y-111810000D02*
X163565316Y-111810000D01*
X163565316Y-111810000D02*
X164390000Y-111810000D01*
X156390000Y-112510000D02*
X158230000Y-112510000D01*
X160530000Y-112110000D02*
X160530000Y-111281538D01*
X158930000Y-111810000D02*
X159630000Y-111810000D01*
X158230000Y-112510000D02*
X158930000Y-111810000D01*
X161730000Y-111810000D02*
X161730000Y-111281538D01*
X164390000Y-111810000D02*
X165100000Y-111100000D01*
X159930000Y-112110000D02*
X159930000Y-112338462D01*
X161130000Y-111281538D02*
X161130000Y-111810000D01*
X161730000Y-112338462D02*
X161730000Y-111810000D01*
X160530000Y-112338462D02*
X160530000Y-112110000D01*
X162330000Y-111281538D02*
G75*
G03*
X162030000Y-110981538I-300000J0D01*
G01*
X160830000Y-110981538D02*
G75*
G03*
X160530000Y-111281538I0J-300000D01*
G01*
X162630000Y-111810000D02*
G75*
G02*
X162330000Y-111510000I0J300000D01*
G01*
X160530000Y-112338462D02*
G75*
G02*
X160230000Y-112638462I-300000J0D01*
G01*
X161130000Y-111281538D02*
G75*
G03*
X160830000Y-110981538I-300000J0D01*
G01*
X162030000Y-110981538D02*
G75*
G03*
X161730000Y-111281538I0J-300000D01*
G01*
X161430000Y-112638462D02*
G75*
G02*
X161130000Y-112338462I0J300000D01*
G01*
X159930000Y-112110000D02*
G75*
G03*
X159630000Y-111810000I-300000J0D01*
G01*
X160230000Y-112638462D02*
G75*
G02*
X159930000Y-112338462I0J300000D01*
G01*
X161730000Y-112338462D02*
G75*
G02*
X161430000Y-112638462I-300000J0D01*
G01*
%TD*%
%TA.AperFunction,Conductor*%
%TO.N,GND*%
G36*
X170789721Y-95672402D02*
G01*
X170836214Y-95726058D01*
X170847600Y-95778400D01*
X170847600Y-114221600D01*
X170827598Y-114289721D01*
X170773942Y-114336214D01*
X170721600Y-114347600D01*
X133376000Y-114347600D01*
X133307879Y-114327598D01*
X133261386Y-114273942D01*
X133250000Y-114221600D01*
X133250000Y-113542485D01*
X133270002Y-113474364D01*
X133323658Y-113427871D01*
X133393932Y-113417767D01*
X133446004Y-113437721D01*
X133459962Y-113447048D01*
X133472129Y-113449468D01*
X133472131Y-113449469D01*
X133490363Y-113453095D01*
X133504563Y-113455920D01*
X134019916Y-113455920D01*
X134535436Y-113455919D01*
X134552090Y-113452607D01*
X134567863Y-113449470D01*
X134567865Y-113449469D01*
X134580038Y-113447048D01*
X134630614Y-113413254D01*
X134663125Y-113364598D01*
X134717602Y-113319070D01*
X134767890Y-113308600D01*
X137746072Y-113308600D01*
X137766121Y-113310734D01*
X137770311Y-113310932D01*
X137780493Y-113313124D01*
X137811340Y-113309473D01*
X137816715Y-113309156D01*
X137816704Y-113309028D01*
X137821882Y-113308600D01*
X137827084Y-113308600D01*
X137838419Y-113306713D01*
X137844743Y-113305661D01*
X137850615Y-113304826D01*
X137887874Y-113300416D01*
X137887881Y-113300414D01*
X137898222Y-113299190D01*
X137905968Y-113295470D01*
X137914442Y-113294060D01*
X137956609Y-113271308D01*
X137961896Y-113268615D01*
X137997942Y-113251305D01*
X137997945Y-113251303D01*
X138005090Y-113247872D01*
X138009100Y-113244501D01*
X138011038Y-113242563D01*
X138012689Y-113241048D01*
X138013099Y-113240827D01*
X138013137Y-113240869D01*
X138013320Y-113240708D01*
X138018774Y-113237765D01*
X138053019Y-113200719D01*
X138056449Y-113197152D01*
X138359877Y-112893724D01*
X142986309Y-112893724D01*
X142987473Y-112902626D01*
X142987473Y-112902629D01*
X142993468Y-112948472D01*
X143005195Y-113038152D01*
X143008809Y-113046365D01*
X143008810Y-113046369D01*
X143009237Y-113047339D01*
X143063859Y-113171474D01*
X143069634Y-113178344D01*
X143069635Y-113178346D01*
X143151803Y-113276097D01*
X143157583Y-113282973D01*
X143165060Y-113287950D01*
X143271361Y-113358710D01*
X143271363Y-113358711D01*
X143278834Y-113363684D01*
X143287401Y-113366361D01*
X143287402Y-113366361D01*
X143303777Y-113371477D01*
X143417864Y-113407121D01*
X143563498Y-113409790D01*
X143667010Y-113381569D01*
X143695363Y-113373839D01*
X143695364Y-113373839D01*
X143704026Y-113371477D01*
X143712359Y-113366361D01*
X143799064Y-113313124D01*
X143828154Y-113295263D01*
X143907391Y-113207723D01*
X143967934Y-113170643D01*
X144038913Y-113172181D01*
X144097256Y-113211205D01*
X144147778Y-113271308D01*
X144157583Y-113282973D01*
X144165060Y-113287950D01*
X144271361Y-113358710D01*
X144271363Y-113358711D01*
X144278834Y-113363684D01*
X144287401Y-113366361D01*
X144287402Y-113366361D01*
X144303777Y-113371477D01*
X144417864Y-113407121D01*
X144563498Y-113409790D01*
X144667010Y-113381569D01*
X144691064Y-113375011D01*
X145949819Y-113375011D01*
X145954729Y-113381569D01*
X146045899Y-113432524D01*
X146057138Y-113437433D01*
X146234914Y-113495196D01*
X146246888Y-113497829D01*
X146432508Y-113519963D01*
X146444757Y-113520220D01*
X146631138Y-113505879D01*
X146643218Y-113503748D01*
X146823244Y-113453484D01*
X146834695Y-113449042D01*
X146961461Y-113385009D01*
X146971747Y-113375362D01*
X146969509Y-113368719D01*
X146472812Y-112872022D01*
X146458868Y-112864408D01*
X146457035Y-112864539D01*
X146450420Y-112868790D01*
X145956579Y-113362631D01*
X145949819Y-113375011D01*
X144691064Y-113375011D01*
X144695363Y-113373839D01*
X144695364Y-113373839D01*
X144704026Y-113371477D01*
X144712359Y-113366361D01*
X144799064Y-113313124D01*
X144828154Y-113295263D01*
X144834774Y-113287950D01*
X144919873Y-113193934D01*
X144919874Y-113193933D01*
X144925901Y-113187274D01*
X144933214Y-113172181D01*
X144985495Y-113064272D01*
X144985495Y-113064271D01*
X144989410Y-113056191D01*
X145010250Y-112932320D01*
X145012770Y-112917344D01*
X145012770Y-112917341D01*
X145013576Y-112912552D01*
X145013729Y-112900000D01*
X145000124Y-112805000D01*
X144994354Y-112764706D01*
X144994353Y-112764703D01*
X144993080Y-112755813D01*
X144989362Y-112747635D01*
X144936508Y-112631390D01*
X144936507Y-112631388D01*
X144932792Y-112623218D01*
X144837713Y-112512873D01*
X144805341Y-112491890D01*
X145439700Y-112491890D01*
X145455340Y-112678154D01*
X145457555Y-112690219D01*
X145509077Y-112869900D01*
X145513592Y-112881304D01*
X145575206Y-113001192D01*
X145584923Y-113011410D01*
X145591724Y-113009066D01*
X146087978Y-112512812D01*
X146094356Y-112501132D01*
X146824408Y-112501132D01*
X146824539Y-112502965D01*
X146828790Y-112509580D01*
X147322529Y-113003319D01*
X147334909Y-113010079D01*
X147341643Y-113005038D01*
X147389606Y-112920607D01*
X147394600Y-112909391D01*
X147453599Y-112732034D01*
X147456319Y-112720063D01*
X147480075Y-112532010D01*
X147480567Y-112524981D01*
X147480867Y-112503505D01*
X147480574Y-112496512D01*
X147462074Y-112307836D01*
X147459691Y-112295801D01*
X147405665Y-112116858D01*
X147400990Y-112105517D01*
X147344479Y-111999234D01*
X147334617Y-111989151D01*
X147327491Y-111991719D01*
X146832022Y-112487188D01*
X146824408Y-112501132D01*
X146094356Y-112501132D01*
X146095592Y-112498868D01*
X146095461Y-112497035D01*
X146091210Y-112490420D01*
X145597229Y-111996439D01*
X145584849Y-111989679D01*
X145578461Y-111994461D01*
X145524606Y-112092423D01*
X145519778Y-112103687D01*
X145463255Y-112281870D01*
X145460707Y-112293858D01*
X145439871Y-112479621D01*
X145439700Y-112491890D01*
X144805341Y-112491890D01*
X144715485Y-112433648D01*
X144698556Y-112428585D01*
X144602126Y-112399747D01*
X144542592Y-112361066D01*
X144513422Y-112296339D01*
X144512731Y-112267775D01*
X144512769Y-112267346D01*
X144513576Y-112262552D01*
X144513729Y-112250000D01*
X144499724Y-112152205D01*
X144494354Y-112114706D01*
X144494353Y-112114703D01*
X144493080Y-112105813D01*
X144486992Y-112092423D01*
X144436508Y-111981390D01*
X144436507Y-111981388D01*
X144432792Y-111973218D01*
X144337713Y-111862873D01*
X144215485Y-111783648D01*
X144086357Y-111745031D01*
X144026824Y-111706350D01*
X143997653Y-111641623D01*
X144000102Y-111625172D01*
X145948890Y-111625172D01*
X145951345Y-111632135D01*
X146447188Y-112127978D01*
X146461132Y-112135592D01*
X146462965Y-112135461D01*
X146469580Y-112131210D01*
X146963737Y-111637053D01*
X146970497Y-111624673D01*
X146965838Y-111618450D01*
X146861039Y-111561785D01*
X146849734Y-111557033D01*
X146671169Y-111501758D01*
X146659158Y-111499292D01*
X146473255Y-111479753D01*
X146460987Y-111479668D01*
X146274838Y-111496608D01*
X146262791Y-111498906D01*
X146083470Y-111551683D01*
X146072093Y-111556280D01*
X145959039Y-111615383D01*
X145948890Y-111625172D01*
X144000102Y-111625172D01*
X144008108Y-111571400D01*
X144054869Y-111517977D01*
X144089316Y-111502751D01*
X144092727Y-111501821D01*
X144204026Y-111471477D01*
X144212266Y-111466418D01*
X144298940Y-111413200D01*
X144328154Y-111395263D01*
X144334774Y-111387950D01*
X144419873Y-111293934D01*
X144419874Y-111293933D01*
X144425901Y-111287274D01*
X144430298Y-111278200D01*
X144485495Y-111164272D01*
X144485495Y-111164271D01*
X144489410Y-111156191D01*
X144505752Y-111059058D01*
X144512770Y-111017344D01*
X144512770Y-111017341D01*
X144513576Y-111012552D01*
X144513729Y-111000000D01*
X144505389Y-110941763D01*
X144494354Y-110864706D01*
X144494353Y-110864703D01*
X144493080Y-110855813D01*
X144488625Y-110846014D01*
X144436508Y-110731390D01*
X144436507Y-110731388D01*
X144432792Y-110723218D01*
X144337713Y-110612873D01*
X144215485Y-110533648D01*
X144075934Y-110491914D01*
X144066958Y-110491859D01*
X144066957Y-110491859D01*
X144005644Y-110491485D01*
X143930279Y-110491024D01*
X143790229Y-110531051D01*
X143782642Y-110535838D01*
X143782640Y-110535839D01*
X143740735Y-110562279D01*
X143667042Y-110608776D01*
X143570622Y-110717951D01*
X143566808Y-110726074D01*
X143566807Y-110726076D01*
X143521199Y-110823218D01*
X143508719Y-110849800D01*
X143507339Y-110858665D01*
X143507338Y-110858667D01*
X143491650Y-110959424D01*
X143486309Y-110993724D01*
X143487473Y-111002626D01*
X143487473Y-111002629D01*
X143492209Y-111038842D01*
X143505195Y-111138152D01*
X143508809Y-111146365D01*
X143508810Y-111146369D01*
X143534703Y-111205214D01*
X143563859Y-111271474D01*
X143569634Y-111278344D01*
X143569635Y-111278346D01*
X143606584Y-111322302D01*
X143657583Y-111382973D01*
X143665060Y-111387950D01*
X143771361Y-111458710D01*
X143771363Y-111458711D01*
X143778834Y-111463684D01*
X143787401Y-111466361D01*
X143787402Y-111466361D01*
X143912646Y-111505491D01*
X143971702Y-111544898D01*
X144000079Y-111609977D01*
X143988766Y-111680066D01*
X143941356Y-111732913D01*
X143909698Y-111746906D01*
X143790229Y-111781051D01*
X143782642Y-111785838D01*
X143782640Y-111785839D01*
X143734282Y-111816351D01*
X143667042Y-111858776D01*
X143661100Y-111865504D01*
X143652176Y-111875609D01*
X143570622Y-111967951D01*
X143566808Y-111976074D01*
X143566807Y-111976076D01*
X143520139Y-112075476D01*
X143508719Y-112099800D01*
X143507339Y-112108665D01*
X143507338Y-112108667D01*
X143489813Y-112221223D01*
X143486309Y-112243724D01*
X143487473Y-112252626D01*
X143487473Y-112252629D01*
X143488781Y-112262629D01*
X143477780Y-112332769D01*
X143430606Y-112385826D01*
X143398470Y-112400115D01*
X143353638Y-112412929D01*
X143290229Y-112431051D01*
X143282642Y-112435838D01*
X143282640Y-112435839D01*
X143236664Y-112464848D01*
X143167042Y-112508776D01*
X143070622Y-112617951D01*
X143066808Y-112626074D01*
X143066807Y-112626076D01*
X143022680Y-112720063D01*
X143008719Y-112749800D01*
X143007339Y-112758665D01*
X143007338Y-112758667D01*
X142988243Y-112881304D01*
X142986309Y-112893724D01*
X138359877Y-112893724D01*
X138957202Y-112296400D01*
X139019514Y-112262375D01*
X139048605Y-112259517D01*
X139063498Y-112259790D01*
X139133762Y-112240633D01*
X139195363Y-112223839D01*
X139195364Y-112223839D01*
X139204026Y-112221477D01*
X139231351Y-112204700D01*
X139291455Y-112167796D01*
X139328154Y-112145263D01*
X139335893Y-112136714D01*
X139419873Y-112043934D01*
X139419874Y-112043933D01*
X139425901Y-112037274D01*
X139435310Y-112017855D01*
X139485495Y-111914272D01*
X139485495Y-111914271D01*
X139489410Y-111906191D01*
X139513576Y-111762552D01*
X139513729Y-111750000D01*
X139500616Y-111658434D01*
X139494354Y-111614706D01*
X139494353Y-111614703D01*
X139493080Y-111605813D01*
X139489362Y-111597635D01*
X139436508Y-111481390D01*
X139436507Y-111481388D01*
X139432792Y-111473218D01*
X139337713Y-111362873D01*
X139215485Y-111283648D01*
X139075934Y-111241914D01*
X139066958Y-111241859D01*
X139066957Y-111241859D01*
X139005644Y-111241485D01*
X138930279Y-111241024D01*
X138790229Y-111281051D01*
X138782642Y-111285838D01*
X138782640Y-111285839D01*
X138764327Y-111297394D01*
X138667042Y-111358776D01*
X138570622Y-111467951D01*
X138566808Y-111476074D01*
X138566807Y-111476076D01*
X138513707Y-111589175D01*
X138508719Y-111599800D01*
X138507339Y-111608665D01*
X138507338Y-111608667D01*
X138489617Y-111722477D01*
X138459372Y-111786709D01*
X138454212Y-111792187D01*
X137686902Y-112559496D01*
X137624590Y-112593521D01*
X137597807Y-112596400D01*
X134767890Y-112596400D01*
X134699769Y-112576398D01*
X134663125Y-112540402D01*
X134637507Y-112502062D01*
X134630614Y-112491746D01*
X134612468Y-112479621D01*
X134590355Y-112464845D01*
X134590352Y-112464844D01*
X134580038Y-112457952D01*
X134567871Y-112455532D01*
X134567869Y-112455531D01*
X134549637Y-112451905D01*
X134535437Y-112449080D01*
X134020084Y-112449080D01*
X133504564Y-112449081D01*
X133487910Y-112452393D01*
X133472137Y-112455530D01*
X133472135Y-112455531D01*
X133459962Y-112457952D01*
X133449644Y-112464846D01*
X133449640Y-112464848D01*
X133446003Y-112467279D01*
X133378250Y-112488495D01*
X133309783Y-112469713D01*
X133262339Y-112416896D01*
X133250000Y-112362515D01*
X133250000Y-111637485D01*
X133270002Y-111569364D01*
X133323658Y-111522871D01*
X133393932Y-111512767D01*
X133446004Y-111532721D01*
X133459962Y-111542048D01*
X133472129Y-111544468D01*
X133472131Y-111544469D01*
X133490363Y-111548095D01*
X133504563Y-111550920D01*
X134019916Y-111550920D01*
X134535436Y-111550919D01*
X134552090Y-111547607D01*
X134567863Y-111544470D01*
X134567865Y-111544469D01*
X134580038Y-111542048D01*
X134590358Y-111535152D01*
X134601824Y-111530403D01*
X134603468Y-111534372D01*
X134648753Y-111520197D01*
X134717218Y-111538985D01*
X134764657Y-111591806D01*
X134772269Y-111614682D01*
X134774051Y-111618983D01*
X134776472Y-111631158D01*
X134783366Y-111641475D01*
X134783368Y-111641479D01*
X134785792Y-111645107D01*
X134810266Y-111681734D01*
X134820582Y-111688627D01*
X134850525Y-111708635D01*
X134850528Y-111708636D01*
X134860842Y-111715528D01*
X134873009Y-111717948D01*
X134873011Y-111717949D01*
X134891243Y-111721575D01*
X134905443Y-111724400D01*
X135237946Y-111724400D01*
X135570556Y-111724399D01*
X135587210Y-111721087D01*
X135602983Y-111717950D01*
X135602985Y-111717949D01*
X135615158Y-111715528D01*
X135637464Y-111700624D01*
X135655418Y-111688627D01*
X135665734Y-111681734D01*
X135674081Y-111669242D01*
X135692635Y-111641475D01*
X135692636Y-111641472D01*
X135699528Y-111631158D01*
X135702748Y-111614974D01*
X135707193Y-111592624D01*
X135707650Y-111590328D01*
X136190501Y-111590328D01*
X136191709Y-111602588D01*
X136202815Y-111658431D01*
X136212133Y-111680927D01*
X136254483Y-111744308D01*
X136271692Y-111761517D01*
X136335075Y-111803868D01*
X136357566Y-111813184D01*
X136413415Y-111824293D01*
X136425670Y-111825500D01*
X136489885Y-111825500D01*
X136505124Y-111821025D01*
X136506329Y-111819635D01*
X136508000Y-111811952D01*
X136508000Y-111807384D01*
X137016000Y-111807384D01*
X137020475Y-111822623D01*
X137021865Y-111823828D01*
X137029548Y-111825499D01*
X137098328Y-111825499D01*
X137110588Y-111824291D01*
X137166431Y-111813185D01*
X137188927Y-111803867D01*
X137252308Y-111761517D01*
X137269517Y-111744308D01*
X137311868Y-111680925D01*
X137321184Y-111658434D01*
X137332293Y-111602585D01*
X137333500Y-111590330D01*
X137333500Y-111272115D01*
X137329025Y-111256876D01*
X137327635Y-111255671D01*
X137319952Y-111254000D01*
X137034115Y-111254000D01*
X137018876Y-111258475D01*
X137017671Y-111259865D01*
X137016000Y-111267548D01*
X137016000Y-111807384D01*
X136508000Y-111807384D01*
X136508000Y-111272115D01*
X136503525Y-111256876D01*
X136502135Y-111255671D01*
X136494452Y-111254000D01*
X136208616Y-111254000D01*
X136193377Y-111258475D01*
X136192172Y-111259865D01*
X136190501Y-111267548D01*
X136190501Y-111590328D01*
X135707650Y-111590328D01*
X135708400Y-111586557D01*
X135708399Y-110727885D01*
X136190500Y-110727885D01*
X136194975Y-110743124D01*
X136196365Y-110744329D01*
X136204048Y-110746000D01*
X136489885Y-110746000D01*
X136505124Y-110741525D01*
X136506329Y-110740135D01*
X136508000Y-110732452D01*
X136508000Y-110727885D01*
X137016000Y-110727885D01*
X137020475Y-110743124D01*
X137021865Y-110744329D01*
X137029548Y-110746000D01*
X137315384Y-110746000D01*
X137330623Y-110741525D01*
X137331828Y-110740135D01*
X137333499Y-110732452D01*
X137333499Y-110409672D01*
X137332291Y-110397412D01*
X137321185Y-110341569D01*
X137311867Y-110319073D01*
X137294929Y-110293724D01*
X146786309Y-110293724D01*
X146787473Y-110302626D01*
X146787473Y-110302629D01*
X146796524Y-110371841D01*
X146805195Y-110438152D01*
X146808809Y-110446365D01*
X146808810Y-110446369D01*
X146838047Y-110512812D01*
X146863859Y-110571474D01*
X146869634Y-110578344D01*
X146869635Y-110578346D01*
X146949353Y-110673182D01*
X146957583Y-110682973D01*
X146965060Y-110687950D01*
X147071361Y-110758710D01*
X147071363Y-110758711D01*
X147078834Y-110763684D01*
X147217864Y-110807121D01*
X147286926Y-110808387D01*
X147327468Y-110809130D01*
X147395211Y-110830377D01*
X147414254Y-110846014D01*
X147846440Y-111278200D01*
X147848291Y-111280345D01*
X147850655Y-111285180D01*
X147859184Y-111293092D01*
X147859185Y-111293093D01*
X147887137Y-111319022D01*
X147890542Y-111322302D01*
X147904197Y-111335957D01*
X147908216Y-111338714D01*
X147911008Y-111341166D01*
X147925505Y-111354615D01*
X147925510Y-111354618D01*
X147934037Y-111362528D01*
X147944841Y-111366838D01*
X147948387Y-111369080D01*
X147960755Y-111375684D01*
X147964578Y-111377378D01*
X147974168Y-111383957D01*
X147985482Y-111386642D01*
X147985485Y-111386643D01*
X147998682Y-111389774D01*
X148016277Y-111395339D01*
X148039673Y-111404673D01*
X148046068Y-111405300D01*
X148049364Y-111405300D01*
X148049517Y-111405318D01*
X148052220Y-111405450D01*
X148052211Y-111405633D01*
X148064768Y-111407103D01*
X148073507Y-111407530D01*
X148084828Y-111410217D01*
X148096357Y-111408648D01*
X148096358Y-111408648D01*
X148112500Y-111406451D01*
X148129491Y-111405300D01*
X148616584Y-111405300D01*
X148684705Y-111425302D01*
X148731198Y-111478958D01*
X148741302Y-111549232D01*
X148711808Y-111613812D01*
X148667833Y-111646407D01*
X148546060Y-111700624D01*
X148546058Y-111700625D01*
X148540030Y-111703309D01*
X148534689Y-111707189D01*
X148534688Y-111707190D01*
X148389784Y-111812468D01*
X148389782Y-111812470D01*
X148384440Y-111816351D01*
X148380019Y-111821261D01*
X148380018Y-111821262D01*
X148340183Y-111865504D01*
X148255753Y-111959273D01*
X148206874Y-112043934D01*
X148163837Y-112118477D01*
X148159593Y-112125827D01*
X148140465Y-112184698D01*
X148104171Y-112296400D01*
X148100163Y-112308734D01*
X148099473Y-112315297D01*
X148099473Y-112315298D01*
X148089016Y-112414786D01*
X148080060Y-112500000D01*
X148080750Y-112506565D01*
X148095632Y-112648152D01*
X148100163Y-112691266D01*
X148102203Y-112697544D01*
X148102203Y-112697545D01*
X148124025Y-112764706D01*
X148159593Y-112874173D01*
X148162896Y-112879895D01*
X148162897Y-112879896D01*
X148174504Y-112900000D01*
X148255753Y-113040727D01*
X148260171Y-113045634D01*
X148260172Y-113045635D01*
X148374114Y-113172181D01*
X148384440Y-113183649D01*
X148389782Y-113187530D01*
X148389784Y-113187532D01*
X148534688Y-113292810D01*
X148540030Y-113296691D01*
X148546058Y-113299375D01*
X148546060Y-113299376D01*
X148708001Y-113371477D01*
X148715723Y-113374915D01*
X148809781Y-113394907D01*
X148897383Y-113413528D01*
X148897387Y-113413528D01*
X148903840Y-113414900D01*
X149096160Y-113414900D01*
X149102613Y-113413528D01*
X149102617Y-113413528D01*
X149190218Y-113394908D01*
X149284277Y-113374915D01*
X149291999Y-113371477D01*
X149453940Y-113299376D01*
X149453942Y-113299375D01*
X149459970Y-113296691D01*
X149465312Y-113292810D01*
X149610216Y-113187532D01*
X149610218Y-113187530D01*
X149615560Y-113183649D01*
X149625886Y-113172181D01*
X149739828Y-113045635D01*
X149739829Y-113045634D01*
X149744247Y-113040727D01*
X149825496Y-112900000D01*
X149837103Y-112879896D01*
X149837104Y-112879895D01*
X149840407Y-112874173D01*
X149875975Y-112764706D01*
X149897797Y-112697545D01*
X149897797Y-112697544D01*
X149899837Y-112691266D01*
X149904369Y-112648152D01*
X149919250Y-112506565D01*
X149919940Y-112500000D01*
X149910984Y-112414786D01*
X149900527Y-112315298D01*
X149900527Y-112315297D01*
X149899837Y-112308734D01*
X149895830Y-112296400D01*
X149859535Y-112184698D01*
X149840407Y-112125827D01*
X149836164Y-112118477D01*
X149793126Y-112043934D01*
X149744247Y-111959273D01*
X149659818Y-111865504D01*
X149619982Y-111821262D01*
X149619981Y-111821261D01*
X149615560Y-111816351D01*
X149610218Y-111812470D01*
X149610216Y-111812468D01*
X149465312Y-111707190D01*
X149465311Y-111707189D01*
X149459970Y-111703309D01*
X149453942Y-111700625D01*
X149453940Y-111700624D01*
X149332167Y-111646407D01*
X149278071Y-111600426D01*
X149257422Y-111532499D01*
X149276775Y-111464191D01*
X149329985Y-111417190D01*
X149383416Y-111405300D01*
X151156584Y-111405300D01*
X151224705Y-111425302D01*
X151271198Y-111478958D01*
X151281302Y-111549232D01*
X151251808Y-111613812D01*
X151207833Y-111646407D01*
X151086060Y-111700624D01*
X151086058Y-111700625D01*
X151080030Y-111703309D01*
X151074689Y-111707189D01*
X151074688Y-111707190D01*
X150929784Y-111812468D01*
X150929782Y-111812470D01*
X150924440Y-111816351D01*
X150920019Y-111821261D01*
X150920018Y-111821262D01*
X150880183Y-111865504D01*
X150795753Y-111959273D01*
X150746874Y-112043934D01*
X150703837Y-112118477D01*
X150699593Y-112125827D01*
X150680465Y-112184698D01*
X150644171Y-112296400D01*
X150640163Y-112308734D01*
X150639473Y-112315297D01*
X150639473Y-112315298D01*
X150629016Y-112414786D01*
X150620060Y-112500000D01*
X150620750Y-112506565D01*
X150635632Y-112648152D01*
X150640163Y-112691266D01*
X150642203Y-112697544D01*
X150642203Y-112697545D01*
X150664025Y-112764706D01*
X150699593Y-112874173D01*
X150702896Y-112879895D01*
X150702897Y-112879896D01*
X150714504Y-112900000D01*
X150795753Y-113040727D01*
X150800171Y-113045634D01*
X150800172Y-113045635D01*
X150914114Y-113172181D01*
X150924440Y-113183649D01*
X150929782Y-113187530D01*
X150929784Y-113187532D01*
X151074688Y-113292810D01*
X151080030Y-113296691D01*
X151086058Y-113299375D01*
X151086060Y-113299376D01*
X151248001Y-113371477D01*
X151255723Y-113374915D01*
X151349781Y-113394907D01*
X151437383Y-113413528D01*
X151437387Y-113413528D01*
X151443840Y-113414900D01*
X151636160Y-113414900D01*
X151642613Y-113413528D01*
X151642617Y-113413528D01*
X151730218Y-113394908D01*
X151824277Y-113374915D01*
X151831999Y-113371477D01*
X151993940Y-113299376D01*
X151993942Y-113299375D01*
X151999970Y-113296691D01*
X152005312Y-113292810D01*
X152150216Y-113187532D01*
X152150218Y-113187530D01*
X152155560Y-113183649D01*
X152165886Y-113172181D01*
X152279828Y-113045635D01*
X152279829Y-113045634D01*
X152284247Y-113040727D01*
X152365496Y-112900000D01*
X152377103Y-112879896D01*
X152377104Y-112879895D01*
X152380407Y-112874173D01*
X152415975Y-112764706D01*
X152437797Y-112697545D01*
X152437797Y-112697544D01*
X152439837Y-112691266D01*
X152444369Y-112648152D01*
X152459250Y-112506565D01*
X152459940Y-112500000D01*
X152450984Y-112414786D01*
X152440527Y-112315298D01*
X152440527Y-112315297D01*
X152439837Y-112308734D01*
X152435830Y-112296400D01*
X152399535Y-112184698D01*
X152380407Y-112125827D01*
X152376164Y-112118477D01*
X152333126Y-112043934D01*
X152284247Y-111959273D01*
X152199818Y-111865504D01*
X152159982Y-111821262D01*
X152159981Y-111821261D01*
X152155560Y-111816351D01*
X152150218Y-111812470D01*
X152150216Y-111812468D01*
X152005312Y-111707190D01*
X152005311Y-111707189D01*
X151999970Y-111703309D01*
X151993942Y-111700625D01*
X151993940Y-111700624D01*
X151872167Y-111646407D01*
X151818071Y-111600426D01*
X151797422Y-111532499D01*
X151816775Y-111464191D01*
X151869985Y-111417190D01*
X151923416Y-111405300D01*
X154311853Y-111405300D01*
X154379974Y-111425302D01*
X154426467Y-111478958D01*
X154437060Y-111517189D01*
X154447088Y-111606184D01*
X154495860Y-111745566D01*
X154499625Y-111751558D01*
X154522856Y-111788529D01*
X154574425Y-111870601D01*
X154678842Y-111975018D01*
X154684837Y-111978785D01*
X154788521Y-112043934D01*
X154803877Y-112053583D01*
X154943259Y-112102355D01*
X154950286Y-112103147D01*
X154950287Y-112103147D01*
X155077240Y-112117452D01*
X155084339Y-112118477D01*
X155084584Y-112118498D01*
X155089999Y-112119453D01*
X155090001Y-112119453D01*
X155095416Y-112118498D01*
X155095661Y-112118477D01*
X155102760Y-112117452D01*
X155229713Y-112103147D01*
X155229714Y-112103147D01*
X155236741Y-112102355D01*
X155376123Y-112053583D01*
X155391479Y-112043934D01*
X155495163Y-111978785D01*
X155501158Y-111975018D01*
X155605575Y-111870601D01*
X155683313Y-111746882D01*
X155736492Y-111699844D01*
X155806659Y-111689024D01*
X155871537Y-111717857D01*
X155896687Y-111746882D01*
X155974425Y-111870601D01*
X156050946Y-111947122D01*
X156084972Y-112009434D01*
X156079907Y-112080249D01*
X156056292Y-112119625D01*
X156013749Y-112167796D01*
X155960622Y-112227951D01*
X155956808Y-112236074D01*
X155956807Y-112236076D01*
X155911410Y-112332769D01*
X155898719Y-112359800D01*
X155897339Y-112368665D01*
X155897338Y-112368667D01*
X155878152Y-112491890D01*
X155876309Y-112503724D01*
X155877473Y-112512626D01*
X155877473Y-112512629D01*
X155888051Y-112593521D01*
X155895195Y-112648152D01*
X155898809Y-112656365D01*
X155898810Y-112656369D01*
X155935647Y-112740085D01*
X155953859Y-112781474D01*
X155959634Y-112788344D01*
X155959635Y-112788346D01*
X156041803Y-112886097D01*
X156047583Y-112892973D01*
X156055060Y-112897950D01*
X156161361Y-112968710D01*
X156161363Y-112968711D01*
X156168834Y-112973684D01*
X156307864Y-113017121D01*
X156453498Y-113019790D01*
X156523762Y-113000634D01*
X156585363Y-112983839D01*
X156585364Y-112983839D01*
X156594026Y-112981477D01*
X156602359Y-112976361D01*
X156710506Y-112909959D01*
X156710507Y-112909958D01*
X156718154Y-112905263D01*
X156724174Y-112898612D01*
X156724179Y-112898608D01*
X156762073Y-112856744D01*
X156822616Y-112819663D01*
X156855487Y-112815300D01*
X158176710Y-112815300D01*
X158179535Y-112815507D01*
X158184628Y-112817256D01*
X158234357Y-112815389D01*
X158239083Y-112815300D01*
X158258393Y-112815300D01*
X158263180Y-112814408D01*
X158266898Y-112814167D01*
X158298282Y-112812989D01*
X158308974Y-112808395D01*
X158313059Y-112807475D01*
X158326475Y-112803399D01*
X158330374Y-112801894D01*
X158341811Y-112799764D01*
X158363253Y-112786547D01*
X158379632Y-112778039D01*
X158394604Y-112771607D01*
X158394608Y-112771604D01*
X158402779Y-112768094D01*
X158407744Y-112764015D01*
X158410070Y-112761689D01*
X158410185Y-112761598D01*
X158412193Y-112759777D01*
X158412316Y-112759913D01*
X158422250Y-112752060D01*
X158428723Y-112746190D01*
X158438628Y-112740085D01*
X158455542Y-112717842D01*
X158466736Y-112705023D01*
X159019554Y-112152205D01*
X159081866Y-112118179D01*
X159108649Y-112115300D01*
X159498700Y-112115300D01*
X159566821Y-112135302D01*
X159613314Y-112188958D01*
X159624700Y-112241300D01*
X159624700Y-112300726D01*
X159622786Y-112322604D01*
X159619990Y-112338462D01*
X159621905Y-112349320D01*
X159621905Y-112349520D01*
X159622866Y-112356176D01*
X159636142Y-112474006D01*
X159681193Y-112602754D01*
X159753763Y-112718248D01*
X159850214Y-112814699D01*
X159965708Y-112887269D01*
X160094456Y-112932320D01*
X160101482Y-112933112D01*
X160101484Y-112933112D01*
X160212273Y-112945594D01*
X160218940Y-112946557D01*
X160219140Y-112946557D01*
X160230000Y-112948472D01*
X160240860Y-112946557D01*
X160241060Y-112946557D01*
X160247727Y-112945594D01*
X160358516Y-112933112D01*
X160358518Y-112933112D01*
X160365544Y-112932320D01*
X160494292Y-112887269D01*
X160609786Y-112814699D01*
X160706237Y-112718248D01*
X160723314Y-112691070D01*
X160776492Y-112644034D01*
X160846659Y-112633214D01*
X160911537Y-112662047D01*
X160936685Y-112691069D01*
X160953763Y-112718248D01*
X161050214Y-112814699D01*
X161165708Y-112887269D01*
X161294456Y-112932320D01*
X161301482Y-112933112D01*
X161301484Y-112933112D01*
X161412273Y-112945594D01*
X161418940Y-112946557D01*
X161419140Y-112946557D01*
X161430000Y-112948472D01*
X161440860Y-112946557D01*
X161441060Y-112946557D01*
X161447727Y-112945594D01*
X161558516Y-112933112D01*
X161558518Y-112933112D01*
X161565544Y-112932320D01*
X161694292Y-112887269D01*
X161809786Y-112814699D01*
X161906237Y-112718248D01*
X161978807Y-112602754D01*
X162016564Y-112494852D01*
X162021521Y-112480685D01*
X162021521Y-112480684D01*
X162023858Y-112474006D01*
X162025940Y-112455530D01*
X162030531Y-112414786D01*
X162032322Y-112404682D01*
X162034673Y-112398789D01*
X162035300Y-112392394D01*
X162035300Y-112379529D01*
X162036092Y-112365426D01*
X162037132Y-112356193D01*
X162038095Y-112349517D01*
X162038095Y-112349320D01*
X162040010Y-112338462D01*
X162037214Y-112322604D01*
X162035300Y-112300726D01*
X162035300Y-112075476D01*
X162055302Y-112007355D01*
X162108958Y-111960862D01*
X162179232Y-111950758D01*
X162239862Y-111976967D01*
X162245206Y-111981229D01*
X162250214Y-111986237D01*
X162256209Y-111990004D01*
X162335912Y-112040085D01*
X162365708Y-112058807D01*
X162494456Y-112103858D01*
X162501483Y-112104650D01*
X162501484Y-112104650D01*
X162553676Y-112110531D01*
X162563780Y-112112322D01*
X162569673Y-112114673D01*
X162576068Y-112115300D01*
X162588933Y-112115300D01*
X162603036Y-112116092D01*
X162612269Y-112117132D01*
X162618945Y-112118095D01*
X162619142Y-112118095D01*
X162630000Y-112120010D01*
X162645858Y-112117214D01*
X162667736Y-112115300D01*
X164336710Y-112115300D01*
X164339535Y-112115507D01*
X164344628Y-112117256D01*
X164394357Y-112115389D01*
X164399083Y-112115300D01*
X164418393Y-112115300D01*
X164423180Y-112114408D01*
X164426898Y-112114167D01*
X164458282Y-112112989D01*
X164468974Y-112108395D01*
X164473059Y-112107475D01*
X164486475Y-112103399D01*
X164490374Y-112101894D01*
X164501811Y-112099764D01*
X164523253Y-112086547D01*
X164539632Y-112078039D01*
X164554604Y-112071607D01*
X164554608Y-112071604D01*
X164562779Y-112068094D01*
X164567744Y-112064015D01*
X164570070Y-112061689D01*
X164570185Y-112061598D01*
X164572193Y-112059777D01*
X164572316Y-112059913D01*
X164582250Y-112052060D01*
X164588723Y-112046190D01*
X164598628Y-112040085D01*
X164615532Y-112017855D01*
X164626733Y-112005026D01*
X164986653Y-111645107D01*
X165048965Y-111611082D01*
X165078055Y-111608224D01*
X165163498Y-111609790D01*
X165254058Y-111585100D01*
X165295363Y-111573839D01*
X165295364Y-111573839D01*
X165304026Y-111571477D01*
X165312359Y-111566361D01*
X165387481Y-111520236D01*
X165428154Y-111495263D01*
X165439279Y-111482973D01*
X165519873Y-111393934D01*
X165519874Y-111393933D01*
X165525901Y-111387274D01*
X165531317Y-111376097D01*
X165585495Y-111264272D01*
X165585495Y-111264271D01*
X165589410Y-111256191D01*
X165613576Y-111112552D01*
X165613729Y-111100000D01*
X165603984Y-111031955D01*
X165594354Y-110964706D01*
X165594353Y-110964703D01*
X165593080Y-110955813D01*
X165586692Y-110941763D01*
X165536508Y-110831390D01*
X165536507Y-110831388D01*
X165532792Y-110823218D01*
X165524459Y-110813547D01*
X165522907Y-110810123D01*
X165522096Y-110808855D01*
X165522279Y-110808738D01*
X165495146Y-110748884D01*
X165505446Y-110678638D01*
X165552088Y-110625112D01*
X165619913Y-110605300D01*
X165903605Y-110605300D01*
X165971726Y-110625302D01*
X166000056Y-110650225D01*
X166027583Y-110682973D01*
X166035060Y-110687950D01*
X166141361Y-110758710D01*
X166141363Y-110758711D01*
X166148834Y-110763684D01*
X166287864Y-110807121D01*
X166433498Y-110809790D01*
X166506122Y-110789990D01*
X166565363Y-110773839D01*
X166565364Y-110773839D01*
X166574026Y-110771477D01*
X166582359Y-110766361D01*
X166646759Y-110726819D01*
X166698154Y-110695263D01*
X166704774Y-110687950D01*
X166789873Y-110593934D01*
X166789874Y-110593933D01*
X166795901Y-110587274D01*
X166804557Y-110569409D01*
X166855495Y-110464272D01*
X166855495Y-110464271D01*
X166859410Y-110456191D01*
X166874855Y-110364389D01*
X166882770Y-110317344D01*
X166882770Y-110317341D01*
X166883576Y-110312552D01*
X166883729Y-110300000D01*
X166871554Y-110214982D01*
X166864354Y-110164706D01*
X166864353Y-110164703D01*
X166863080Y-110155813D01*
X166858786Y-110146369D01*
X166806508Y-110031390D01*
X166806507Y-110031388D01*
X166802792Y-110023218D01*
X166707713Y-109912873D01*
X166585485Y-109833648D01*
X166445934Y-109791914D01*
X166436958Y-109791859D01*
X166436957Y-109791859D01*
X166375644Y-109791485D01*
X166300279Y-109791024D01*
X166160229Y-109831051D01*
X166152642Y-109835838D01*
X166152640Y-109835839D01*
X166120983Y-109855813D01*
X166037042Y-109908776D01*
X166000783Y-109949832D01*
X165998774Y-109952107D01*
X165938688Y-109989926D01*
X165904332Y-109994700D01*
X159325973Y-109994700D01*
X159257852Y-109974698D01*
X159230519Y-109950947D01*
X159229559Y-109949832D01*
X159217405Y-109935727D01*
X159203571Y-109919671D01*
X159203569Y-109919669D01*
X159197713Y-109912873D01*
X159184003Y-109903986D01*
X159092372Y-109844594D01*
X159075485Y-109833648D01*
X158935934Y-109791914D01*
X158926958Y-109791859D01*
X158926957Y-109791859D01*
X158865644Y-109791485D01*
X158790279Y-109791024D01*
X158650229Y-109831051D01*
X158642642Y-109835838D01*
X158642640Y-109835839D01*
X158610983Y-109855813D01*
X158527042Y-109908776D01*
X158490783Y-109949832D01*
X158488774Y-109952107D01*
X158428688Y-109989926D01*
X158394332Y-109994700D01*
X154088748Y-109994700D01*
X154020627Y-109974698D01*
X153974134Y-109921042D01*
X153963540Y-109882809D01*
X153959234Y-109844594D01*
X153959234Y-109844593D01*
X153958442Y-109837566D01*
X153911756Y-109704145D01*
X153836552Y-109584459D01*
X153736601Y-109484508D01*
X153616915Y-109409304D01*
X153483494Y-109362618D01*
X153418290Y-109355271D01*
X153408935Y-109353612D01*
X153403357Y-109351387D01*
X153396962Y-109350760D01*
X153385333Y-109350760D01*
X153371228Y-109349968D01*
X153358570Y-109348542D01*
X153354571Y-109347965D01*
X153353890Y-109347965D01*
X153343031Y-109346050D01*
X153327173Y-109348846D01*
X153305295Y-109350760D01*
X153024705Y-109350760D01*
X153002827Y-109348846D01*
X152986969Y-109346050D01*
X152976110Y-109347965D01*
X152975430Y-109347965D01*
X152971441Y-109348541D01*
X152846506Y-109362618D01*
X152713085Y-109409304D01*
X152593399Y-109484508D01*
X152493448Y-109584459D01*
X152418244Y-109704145D01*
X152371558Y-109837566D01*
X152369181Y-109858667D01*
X152364212Y-109902765D01*
X152362552Y-109912125D01*
X152360327Y-109917703D01*
X152359700Y-109924098D01*
X152359700Y-109935727D01*
X152358908Y-109949832D01*
X152357482Y-109962490D01*
X152356905Y-109966489D01*
X152356905Y-109967170D01*
X152354990Y-109978029D01*
X152357758Y-109993724D01*
X152357786Y-109993885D01*
X152359700Y-110015765D01*
X152359700Y-110162640D01*
X152339698Y-110230761D01*
X152286042Y-110277254D01*
X152233700Y-110288640D01*
X152093270Y-110288640D01*
X152025149Y-110268638D01*
X151978656Y-110214982D01*
X151967270Y-110162640D01*
X151967270Y-110015765D01*
X151969184Y-109993885D01*
X151969213Y-109993724D01*
X151971980Y-109978029D01*
X151970065Y-109967170D01*
X151970065Y-109966490D01*
X151969488Y-109962493D01*
X151969361Y-109961360D01*
X151955412Y-109837566D01*
X151908726Y-109704145D01*
X151833522Y-109584459D01*
X151733571Y-109484508D01*
X151613885Y-109409304D01*
X151480464Y-109362618D01*
X151415260Y-109355271D01*
X151405905Y-109353612D01*
X151400327Y-109351387D01*
X151393932Y-109350760D01*
X151382303Y-109350760D01*
X151368198Y-109349968D01*
X151355540Y-109348542D01*
X151351541Y-109347965D01*
X151350860Y-109347965D01*
X151340001Y-109346050D01*
X151324143Y-109348846D01*
X151302265Y-109350760D01*
X151021675Y-109350760D01*
X150999797Y-109348846D01*
X150983939Y-109346050D01*
X150973080Y-109347965D01*
X150972400Y-109347965D01*
X150968411Y-109348541D01*
X150843476Y-109362618D01*
X150710055Y-109409304D01*
X150590369Y-109484508D01*
X150490418Y-109584459D01*
X150415214Y-109704145D01*
X150368528Y-109837566D01*
X150367736Y-109844593D01*
X150367736Y-109844594D01*
X150363430Y-109882809D01*
X150335926Y-109948261D01*
X150277401Y-109988454D01*
X150238222Y-109994700D01*
X149365973Y-109994700D01*
X149297852Y-109974698D01*
X149270519Y-109950947D01*
X149269559Y-109949832D01*
X149257405Y-109935727D01*
X149243571Y-109919671D01*
X149243569Y-109919669D01*
X149237713Y-109912873D01*
X149224003Y-109903986D01*
X149132372Y-109844594D01*
X149115485Y-109833648D01*
X148975934Y-109791914D01*
X148966958Y-109791859D01*
X148966957Y-109791859D01*
X148905644Y-109791485D01*
X148830279Y-109791024D01*
X148690229Y-109831051D01*
X148682642Y-109835838D01*
X148682640Y-109835839D01*
X148650983Y-109855813D01*
X148567042Y-109908776D01*
X148470622Y-110017951D01*
X148466808Y-110026074D01*
X148466807Y-110026076D01*
X148414188Y-110138152D01*
X148408719Y-110149800D01*
X148407339Y-110158665D01*
X148407338Y-110158667D01*
X148387750Y-110284472D01*
X148386309Y-110293724D01*
X148387473Y-110302626D01*
X148387473Y-110302629D01*
X148396524Y-110371841D01*
X148405195Y-110438152D01*
X148408809Y-110446365D01*
X148408810Y-110446369D01*
X148438047Y-110512812D01*
X148463859Y-110571474D01*
X148469634Y-110578344D01*
X148469635Y-110578346D01*
X148477436Y-110587626D01*
X148505957Y-110652642D01*
X148494799Y-110722756D01*
X148447507Y-110775708D01*
X148380984Y-110794700D01*
X148278650Y-110794700D01*
X148210529Y-110774698D01*
X148189554Y-110757795D01*
X147849193Y-110417433D01*
X147815168Y-110355121D01*
X147812799Y-110317173D01*
X147813576Y-110312552D01*
X147813729Y-110300000D01*
X147801554Y-110214982D01*
X147794354Y-110164706D01*
X147794353Y-110164703D01*
X147793080Y-110155813D01*
X147788786Y-110146369D01*
X147736508Y-110031390D01*
X147736507Y-110031388D01*
X147732792Y-110023218D01*
X147637713Y-109912873D01*
X147515485Y-109833648D01*
X147375934Y-109791914D01*
X147366958Y-109791859D01*
X147366957Y-109791859D01*
X147305644Y-109791485D01*
X147230279Y-109791024D01*
X147090229Y-109831051D01*
X147082642Y-109835838D01*
X147082640Y-109835839D01*
X147050983Y-109855813D01*
X146967042Y-109908776D01*
X146870622Y-110017951D01*
X146866808Y-110026074D01*
X146866807Y-110026076D01*
X146814188Y-110138152D01*
X146808719Y-110149800D01*
X146807339Y-110158665D01*
X146807338Y-110158667D01*
X146787750Y-110284472D01*
X146786309Y-110293724D01*
X137294929Y-110293724D01*
X137269517Y-110255692D01*
X137252308Y-110238483D01*
X137188925Y-110196132D01*
X137166434Y-110186816D01*
X137110585Y-110175707D01*
X137098330Y-110174500D01*
X137034115Y-110174500D01*
X137018876Y-110178975D01*
X137017671Y-110180365D01*
X137016000Y-110188048D01*
X137016000Y-110727885D01*
X136508000Y-110727885D01*
X136508000Y-110192616D01*
X136503525Y-110177377D01*
X136502135Y-110176172D01*
X136494452Y-110174501D01*
X136425672Y-110174501D01*
X136413412Y-110175709D01*
X136357569Y-110186815D01*
X136335073Y-110196133D01*
X136271692Y-110238483D01*
X136254483Y-110255692D01*
X136212132Y-110319075D01*
X136202816Y-110341566D01*
X136191707Y-110397415D01*
X136190500Y-110409670D01*
X136190500Y-110727885D01*
X135708399Y-110727885D01*
X135708399Y-110413444D01*
X135703459Y-110388606D01*
X135701950Y-110381017D01*
X135701948Y-110381011D01*
X135699528Y-110368842D01*
X135681074Y-110341223D01*
X135672627Y-110328582D01*
X135665734Y-110318266D01*
X135650683Y-110308209D01*
X135625475Y-110291365D01*
X135625472Y-110291364D01*
X135615158Y-110284472D01*
X135602991Y-110282052D01*
X135602989Y-110282051D01*
X135584362Y-110278346D01*
X135570557Y-110275600D01*
X135238054Y-110275600D01*
X134905444Y-110275601D01*
X134891643Y-110278346D01*
X134873017Y-110282050D01*
X134873015Y-110282051D01*
X134860842Y-110284472D01*
X134850522Y-110291367D01*
X134850521Y-110291368D01*
X134825317Y-110308209D01*
X134810266Y-110318266D01*
X134803373Y-110328582D01*
X134783365Y-110358525D01*
X134783364Y-110358528D01*
X134776472Y-110368842D01*
X134774052Y-110381009D01*
X134774051Y-110381011D01*
X134771216Y-110395263D01*
X134767600Y-110413443D01*
X134767600Y-110444691D01*
X134747598Y-110512812D01*
X134693942Y-110559305D01*
X134623668Y-110569409D01*
X134593381Y-110561099D01*
X134590355Y-110559845D01*
X134580038Y-110552952D01*
X134567871Y-110550532D01*
X134567869Y-110550531D01*
X134548890Y-110546756D01*
X134535437Y-110544080D01*
X134020084Y-110544080D01*
X133504564Y-110544081D01*
X133491115Y-110546756D01*
X133472137Y-110550530D01*
X133472135Y-110550531D01*
X133459962Y-110552952D01*
X133449644Y-110559846D01*
X133449640Y-110559848D01*
X133446003Y-110562279D01*
X133378250Y-110583495D01*
X133309783Y-110564713D01*
X133262339Y-110511896D01*
X133250000Y-110457515D01*
X133250000Y-109250000D01*
X133242206Y-109250000D01*
X133220090Y-109230837D01*
X133205868Y-109208707D01*
X133185730Y-109231155D01*
X133119445Y-109250000D01*
X132423610Y-109250000D01*
X132355489Y-109229998D01*
X132308996Y-109176342D01*
X132298892Y-109106068D01*
X132328386Y-109041488D01*
X132390468Y-109002437D01*
X132495363Y-108973839D01*
X132495364Y-108973839D01*
X132504026Y-108971477D01*
X132512359Y-108966361D01*
X132597194Y-108914272D01*
X132628154Y-108895263D01*
X132634774Y-108887950D01*
X132681465Y-108836366D01*
X132742008Y-108799284D01*
X132812988Y-108800822D01*
X132871331Y-108839846D01*
X132879698Y-108849800D01*
X132907583Y-108882973D01*
X132915060Y-108887950D01*
X133021361Y-108958710D01*
X133021363Y-108958711D01*
X133028834Y-108963684D01*
X133037401Y-108966361D01*
X133037402Y-108966361D01*
X133157020Y-109003733D01*
X133216076Y-109043140D01*
X133216983Y-109045221D01*
X133220089Y-109040388D01*
X133284669Y-109010895D01*
X133304015Y-109009688D01*
X133304517Y-109009625D01*
X133313498Y-109009790D01*
X133404968Y-108984852D01*
X133445363Y-108973839D01*
X133445364Y-108973839D01*
X133454026Y-108971477D01*
X133462359Y-108966361D01*
X133547194Y-108914272D01*
X133578154Y-108895263D01*
X133584774Y-108887950D01*
X133669873Y-108793934D01*
X133669874Y-108793933D01*
X133675901Y-108787274D01*
X133691606Y-108754860D01*
X133697001Y-108743724D01*
X138236309Y-108743724D01*
X138237473Y-108752626D01*
X138237473Y-108752629D01*
X138243574Y-108799284D01*
X138255195Y-108888152D01*
X138258809Y-108896365D01*
X138258810Y-108896369D01*
X138259237Y-108897339D01*
X138313859Y-109021474D01*
X138319634Y-109028344D01*
X138319635Y-109028346D01*
X138330682Y-109041488D01*
X138407583Y-109132973D01*
X138415060Y-109137950D01*
X138521361Y-109208710D01*
X138521363Y-109208711D01*
X138528834Y-109213684D01*
X138667864Y-109257121D01*
X138813498Y-109259790D01*
X138922772Y-109229998D01*
X138945363Y-109223839D01*
X138945364Y-109223839D01*
X138954026Y-109221477D01*
X138962359Y-109216361D01*
X139047194Y-109164272D01*
X139078154Y-109145263D01*
X139084774Y-109137950D01*
X139169873Y-109043934D01*
X139169874Y-109043933D01*
X139175901Y-109037274D01*
X139188682Y-109010895D01*
X139235495Y-108914272D01*
X139235495Y-108914271D01*
X139239410Y-108906191D01*
X139263576Y-108762552D01*
X139263729Y-108750000D01*
X139248888Y-108646369D01*
X139244354Y-108614706D01*
X139244353Y-108614703D01*
X139243080Y-108605813D01*
X139239362Y-108597635D01*
X139186508Y-108481390D01*
X139186507Y-108481388D01*
X139182792Y-108473218D01*
X139087713Y-108362873D01*
X138965485Y-108283648D01*
X138825934Y-108241914D01*
X138816958Y-108241859D01*
X138816957Y-108241859D01*
X138755644Y-108241485D01*
X138680279Y-108241024D01*
X138540229Y-108281051D01*
X138532642Y-108285838D01*
X138532640Y-108285839D01*
X138485507Y-108315578D01*
X138417042Y-108358776D01*
X138411100Y-108365504D01*
X138399758Y-108378346D01*
X138320622Y-108467951D01*
X138316808Y-108476074D01*
X138316807Y-108476076D01*
X138262533Y-108591676D01*
X138258719Y-108599800D01*
X138257339Y-108608665D01*
X138257338Y-108608667D01*
X138239057Y-108726076D01*
X138236309Y-108743724D01*
X133697001Y-108743724D01*
X133735495Y-108664272D01*
X133735495Y-108664271D01*
X133739410Y-108656191D01*
X133754523Y-108566361D01*
X133762770Y-108517344D01*
X133762770Y-108517341D01*
X133763576Y-108512552D01*
X133763729Y-108500000D01*
X133750792Y-108409663D01*
X133744354Y-108364706D01*
X133744353Y-108364703D01*
X133743080Y-108355813D01*
X133739362Y-108347635D01*
X133686508Y-108231390D01*
X133686507Y-108231388D01*
X133682792Y-108223218D01*
X133587713Y-108112873D01*
X133558170Y-108093724D01*
X147586309Y-108093724D01*
X147587473Y-108102626D01*
X147587473Y-108102629D01*
X147595319Y-108162629D01*
X147605195Y-108238152D01*
X147608809Y-108246365D01*
X147608810Y-108246369D01*
X147632433Y-108300055D01*
X147663859Y-108371474D01*
X147669634Y-108378344D01*
X147669635Y-108378346D01*
X147751803Y-108476097D01*
X147757583Y-108482973D01*
X147765060Y-108487950D01*
X147871361Y-108558710D01*
X147871363Y-108558711D01*
X147878834Y-108563684D01*
X148017864Y-108607121D01*
X148163498Y-108609790D01*
X148233762Y-108590634D01*
X148295363Y-108573839D01*
X148295364Y-108573839D01*
X148304026Y-108571477D01*
X148312359Y-108566361D01*
X148420506Y-108499959D01*
X148420507Y-108499958D01*
X148428154Y-108495263D01*
X148469540Y-108449540D01*
X148530085Y-108412459D01*
X148562953Y-108408096D01*
X148569148Y-108408096D01*
X148580005Y-108410010D01*
X148606130Y-108405403D01*
X148606897Y-108405300D01*
X148608393Y-108405300D01*
X148612234Y-108404585D01*
X148612239Y-108404584D01*
X148615556Y-108403966D01*
X148622173Y-108402915D01*
X148667616Y-108396932D01*
X148667618Y-108396932D01*
X148675802Y-108395854D01*
X148683431Y-108392694D01*
X148685013Y-108392039D01*
X148685015Y-108392038D01*
X148689437Y-108390206D01*
X148691811Y-108389764D01*
X148694488Y-108388114D01*
X148739003Y-108369675D01*
X148757438Y-108362039D01*
X148757440Y-108362038D01*
X148765071Y-108358877D01*
X148776901Y-108349800D01*
X148831386Y-108307991D01*
X148897607Y-108282390D01*
X148908091Y-108281953D01*
X149032455Y-108281953D01*
X149100576Y-108301955D01*
X149109160Y-108307991D01*
X149160824Y-108347635D01*
X149175475Y-108358877D01*
X149191474Y-108365504D01*
X149257119Y-108392696D01*
X149257122Y-108392697D01*
X149264744Y-108395854D01*
X149272928Y-108396931D01*
X149280907Y-108399069D01*
X149280796Y-108399482D01*
X149283116Y-108400087D01*
X149283314Y-108399274D01*
X149291960Y-108401378D01*
X149300219Y-108404673D01*
X149306614Y-108405300D01*
X149322809Y-108405300D01*
X149344692Y-108407215D01*
X149360541Y-108410010D01*
X149371397Y-108408096D01*
X149371399Y-108408096D01*
X149376400Y-108407214D01*
X149398277Y-108405300D01*
X159673605Y-108405300D01*
X159741726Y-108425302D01*
X159770056Y-108450225D01*
X159797583Y-108482973D01*
X159805060Y-108487950D01*
X159911361Y-108558710D01*
X159911363Y-108558711D01*
X159918834Y-108563684D01*
X160057864Y-108607121D01*
X160203498Y-108609790D01*
X160273762Y-108590634D01*
X160335363Y-108573839D01*
X160335364Y-108573839D01*
X160344026Y-108571477D01*
X160352359Y-108566361D01*
X160460506Y-108499959D01*
X160460507Y-108499958D01*
X160468154Y-108495263D01*
X160474175Y-108488611D01*
X160474179Y-108488608D01*
X160512073Y-108446744D01*
X160572616Y-108409663D01*
X160605487Y-108405300D01*
X167173605Y-108405300D01*
X167241726Y-108425302D01*
X167270056Y-108450225D01*
X167297583Y-108482973D01*
X167305060Y-108487950D01*
X167411361Y-108558710D01*
X167411363Y-108558711D01*
X167418834Y-108563684D01*
X167557864Y-108607121D01*
X167703498Y-108609790D01*
X167773762Y-108590634D01*
X167835363Y-108573839D01*
X167835364Y-108573839D01*
X167844026Y-108571477D01*
X167852359Y-108566361D01*
X167939996Y-108512552D01*
X167968154Y-108495263D01*
X167974774Y-108487950D01*
X168059873Y-108393934D01*
X168059874Y-108393933D01*
X168065901Y-108387274D01*
X168076449Y-108365504D01*
X168125495Y-108264272D01*
X168125495Y-108264271D01*
X168129410Y-108256191D01*
X168153576Y-108112552D01*
X168153729Y-108100000D01*
X168140069Y-108004617D01*
X168134354Y-107964706D01*
X168134353Y-107964703D01*
X168133080Y-107955813D01*
X168126653Y-107941676D01*
X168100179Y-107883452D01*
X168090191Y-107813161D01*
X168119792Y-107748629D01*
X168179582Y-107710345D01*
X168214879Y-107705300D01*
X168433605Y-107705300D01*
X168501726Y-107725302D01*
X168530056Y-107750225D01*
X168557583Y-107782973D01*
X168565060Y-107787950D01*
X168671361Y-107858710D01*
X168671363Y-107858711D01*
X168678834Y-107863684D01*
X168817864Y-107907121D01*
X168963498Y-107909790D01*
X169060103Y-107883452D01*
X169095363Y-107873839D01*
X169095364Y-107873839D01*
X169104026Y-107871477D01*
X169112359Y-107866361D01*
X169172688Y-107829319D01*
X169228154Y-107795263D01*
X169234774Y-107787950D01*
X169319873Y-107693934D01*
X169319874Y-107693933D01*
X169325901Y-107687274D01*
X169332969Y-107672687D01*
X169385495Y-107564272D01*
X169385495Y-107564271D01*
X169389410Y-107556191D01*
X169404142Y-107468624D01*
X169412770Y-107417344D01*
X169412770Y-107417341D01*
X169413576Y-107412552D01*
X169413729Y-107400000D01*
X169393080Y-107255813D01*
X169387079Y-107242614D01*
X169336508Y-107131390D01*
X169336507Y-107131388D01*
X169332792Y-107123218D01*
X169237713Y-107012873D01*
X169115485Y-106933648D01*
X168975934Y-106891914D01*
X168966958Y-106891859D01*
X168966957Y-106891859D01*
X168905644Y-106891485D01*
X168830279Y-106891024D01*
X168690229Y-106931051D01*
X168567042Y-107008776D01*
X168528774Y-107052107D01*
X168468688Y-107089926D01*
X168434332Y-107094700D01*
X163731633Y-107094700D01*
X163663512Y-107074698D01*
X163617019Y-107021042D01*
X163606915Y-106950768D01*
X163638218Y-106884145D01*
X163719873Y-106793934D01*
X163719874Y-106793933D01*
X163725901Y-106787274D01*
X163769186Y-106697935D01*
X163785495Y-106664272D01*
X163785495Y-106664271D01*
X163789410Y-106656191D01*
X163813576Y-106512552D01*
X163813664Y-106505358D01*
X163813670Y-106504860D01*
X163813670Y-106504857D01*
X163813729Y-106500000D01*
X163802548Y-106421923D01*
X163794354Y-106364706D01*
X163794353Y-106364703D01*
X163793080Y-106355813D01*
X163789362Y-106347635D01*
X163736508Y-106231390D01*
X163736507Y-106231388D01*
X163732792Y-106223218D01*
X163637713Y-106112873D01*
X163515485Y-106033648D01*
X163375934Y-105991914D01*
X163366958Y-105991859D01*
X163366957Y-105991859D01*
X163305644Y-105991485D01*
X163230279Y-105991024D01*
X163090229Y-106031051D01*
X162967042Y-106108776D01*
X162961100Y-106115504D01*
X162944568Y-106134223D01*
X162870622Y-106217951D01*
X162866808Y-106226074D01*
X162866807Y-106226076D01*
X162812533Y-106341676D01*
X162808719Y-106349800D01*
X162807339Y-106358665D01*
X162807338Y-106358667D01*
X162790505Y-106466779D01*
X162786309Y-106493724D01*
X162787473Y-106502626D01*
X162787473Y-106502629D01*
X162795427Y-106563456D01*
X162805195Y-106638152D01*
X162808809Y-106646365D01*
X162808810Y-106646369D01*
X162848567Y-106736722D01*
X162863859Y-106771474D01*
X162869634Y-106778344D01*
X162869635Y-106778346D01*
X162957583Y-106882973D01*
X162956156Y-106884173D01*
X162987768Y-106935086D01*
X162986665Y-107006074D01*
X162947357Y-107065196D01*
X162882326Y-107093681D01*
X162866335Y-107094700D01*
X161875973Y-107094700D01*
X161807852Y-107074698D01*
X161780519Y-107050947D01*
X161776121Y-107045842D01*
X161753574Y-107019675D01*
X161753571Y-107019671D01*
X161753569Y-107019669D01*
X161747713Y-107012873D01*
X161734003Y-107003986D01*
X161671824Y-106963684D01*
X161625485Y-106933648D01*
X161485934Y-106891914D01*
X161476958Y-106891859D01*
X161476957Y-106891859D01*
X161415644Y-106891485D01*
X161340279Y-106891024D01*
X161200229Y-106931051D01*
X161077042Y-107008776D01*
X161038774Y-107052107D01*
X160978688Y-107089926D01*
X160944332Y-107094700D01*
X152464831Y-107094700D01*
X152396710Y-107074698D01*
X152350217Y-107021042D01*
X152345902Y-107010315D01*
X152338505Y-106989176D01*
X152336168Y-106982497D01*
X152281356Y-106895263D01*
X152279614Y-106892490D01*
X152279612Y-106892488D01*
X152275848Y-106886497D01*
X152195678Y-106806327D01*
X152189687Y-106802563D01*
X152189685Y-106802561D01*
X152105668Y-106749771D01*
X152099678Y-106746007D01*
X151992663Y-106708561D01*
X151961269Y-106705024D01*
X151947693Y-106702617D01*
X151940327Y-106699678D01*
X151933932Y-106699051D01*
X151917734Y-106699051D01*
X151895857Y-106697137D01*
X151890854Y-106696255D01*
X151879998Y-106694341D01*
X151869144Y-106696255D01*
X151858117Y-106696255D01*
X151858117Y-106691990D01*
X151808992Y-106686414D01*
X151753976Y-106641540D01*
X151731955Y-106574045D01*
X151749586Y-106506636D01*
X153688193Y-106506636D01*
X153691704Y-106511326D01*
X153808789Y-106563456D01*
X153821277Y-106567513D01*
X153983843Y-106602068D01*
X153996903Y-106603440D01*
X154163097Y-106603440D01*
X154176157Y-106602068D01*
X154338723Y-106567513D01*
X154351211Y-106563456D01*
X154461309Y-106514437D01*
X154472053Y-106505305D01*
X154470456Y-106499667D01*
X154092811Y-106122021D01*
X154078868Y-106114408D01*
X154077034Y-106114539D01*
X154070420Y-106118790D01*
X153694950Y-106494261D01*
X153688193Y-106506636D01*
X151749586Y-106506636D01*
X151749920Y-106505358D01*
X151802167Y-106457289D01*
X151818955Y-106450463D01*
X151852761Y-106439479D01*
X151950871Y-106380994D01*
X151991687Y-106356663D01*
X151991690Y-106356661D01*
X151997742Y-106353053D01*
X152119972Y-106236654D01*
X152132399Y-106217951D01*
X152179314Y-106147338D01*
X152213377Y-106096069D01*
X152226743Y-106060884D01*
X152252254Y-105993724D01*
X152273314Y-105938283D01*
X152296805Y-105771139D01*
X152296966Y-105759580D01*
X152297008Y-105756565D01*
X153222549Y-105756565D01*
X153239921Y-105921855D01*
X153242651Y-105934696D01*
X153294007Y-106092752D01*
X153299352Y-106104758D01*
X153314701Y-106131343D01*
X153324906Y-106141074D01*
X153332926Y-106137863D01*
X153707979Y-105762811D01*
X153714356Y-105751132D01*
X154444408Y-105751132D01*
X154444539Y-105752966D01*
X154448790Y-105759580D01*
X154823434Y-106134223D01*
X154835809Y-106140980D01*
X154842724Y-106135804D01*
X154860648Y-106104758D01*
X154865993Y-106092752D01*
X154917349Y-105934696D01*
X154920079Y-105921855D01*
X154937451Y-105756565D01*
X154937451Y-105743435D01*
X154920079Y-105578145D01*
X154917349Y-105565304D01*
X154865993Y-105407248D01*
X154860648Y-105395242D01*
X154845299Y-105368657D01*
X154835094Y-105358926D01*
X154827074Y-105362137D01*
X154452021Y-105737189D01*
X154444408Y-105751132D01*
X153714356Y-105751132D01*
X153715592Y-105748868D01*
X153715461Y-105747034D01*
X153711210Y-105740420D01*
X153336566Y-105365777D01*
X153324191Y-105359020D01*
X153317276Y-105364196D01*
X153299352Y-105395242D01*
X153294007Y-105407248D01*
X153242651Y-105565304D01*
X153239921Y-105578145D01*
X153222549Y-105743435D01*
X153222549Y-105756565D01*
X152297008Y-105756565D01*
X152297045Y-105753962D01*
X152297045Y-105753957D01*
X152297100Y-105750000D01*
X152282134Y-105616569D01*
X152279071Y-105589262D01*
X152279070Y-105589259D01*
X152278286Y-105582266D01*
X152222777Y-105422868D01*
X152133334Y-105279729D01*
X152125154Y-105271491D01*
X152019364Y-105164960D01*
X152014402Y-105159963D01*
X151992982Y-105146369D01*
X151959241Y-105124957D01*
X151871891Y-105069523D01*
X151821110Y-105051441D01*
X151719518Y-105015265D01*
X151719516Y-105015264D01*
X151712884Y-105012903D01*
X151705896Y-105012070D01*
X151705893Y-105012069D01*
X151571216Y-104996010D01*
X151560188Y-104994695D01*
X153687947Y-104994695D01*
X153689544Y-105000333D01*
X154067189Y-105377979D01*
X154081132Y-105385592D01*
X154082966Y-105385461D01*
X154089580Y-105381210D01*
X154465050Y-105005739D01*
X154471807Y-104993364D01*
X154468296Y-104988674D01*
X154351211Y-104936544D01*
X154338723Y-104932487D01*
X154176157Y-104897932D01*
X154163097Y-104896560D01*
X153996903Y-104896560D01*
X153983843Y-104897932D01*
X153821277Y-104932487D01*
X153808789Y-104936544D01*
X153698691Y-104985563D01*
X153687947Y-104994695D01*
X151560188Y-104994695D01*
X151545286Y-104992918D01*
X151538283Y-104993654D01*
X151538282Y-104993654D01*
X151384424Y-105009825D01*
X151384422Y-105009826D01*
X151377424Y-105010561D01*
X151217642Y-105064955D01*
X151073883Y-105153397D01*
X151068851Y-105158324D01*
X151068848Y-105158327D01*
X151062075Y-105164960D01*
X150953290Y-105271491D01*
X150861857Y-105413367D01*
X150859447Y-105419987D01*
X150859446Y-105419990D01*
X150819023Y-105531051D01*
X150804128Y-105571974D01*
X150782974Y-105739429D01*
X150799444Y-105907410D01*
X150852722Y-106067567D01*
X150856369Y-106073589D01*
X150856370Y-106073591D01*
X150911289Y-106164272D01*
X150940158Y-106211941D01*
X150945048Y-106217005D01*
X150945049Y-106217006D01*
X150997648Y-106271474D01*
X151057406Y-106333356D01*
X151198641Y-106425777D01*
X151205237Y-106428230D01*
X151205239Y-106428231D01*
X151277093Y-106454953D01*
X151333969Y-106497446D01*
X151358843Y-106563943D01*
X151343818Y-106633331D01*
X151293664Y-106683581D01*
X151233173Y-106699051D01*
X150863387Y-106699051D01*
X150841506Y-106697137D01*
X150836504Y-106696255D01*
X150825650Y-106694341D01*
X150805539Y-106697887D01*
X150805303Y-106697921D01*
X150805266Y-106697935D01*
X150804931Y-106697994D01*
X150804854Y-106697985D01*
X150797737Y-106699012D01*
X150797387Y-106699051D01*
X150797334Y-106699051D01*
X150797119Y-106697129D01*
X150796828Y-106697097D01*
X150797052Y-106699089D01*
X150720013Y-106707769D01*
X150720012Y-106707769D01*
X150712985Y-106708561D01*
X150605970Y-106746007D01*
X150599980Y-106749771D01*
X150515963Y-106802561D01*
X150515961Y-106802563D01*
X150509970Y-106806327D01*
X150429800Y-106886497D01*
X150426036Y-106892488D01*
X150426034Y-106892490D01*
X150424292Y-106895263D01*
X150369480Y-106982497D01*
X150367143Y-106989176D01*
X150359746Y-107010315D01*
X150318368Y-107068007D01*
X150252367Y-107094169D01*
X150240817Y-107094700D01*
X150165973Y-107094700D01*
X150097852Y-107074698D01*
X150070519Y-107050947D01*
X150066121Y-107045842D01*
X150043574Y-107019675D01*
X150043571Y-107019671D01*
X150043569Y-107019669D01*
X150037713Y-107012873D01*
X150024003Y-107003986D01*
X149961824Y-106963684D01*
X149915485Y-106933648D01*
X149775934Y-106891914D01*
X149766958Y-106891859D01*
X149766957Y-106891859D01*
X149705644Y-106891485D01*
X149630279Y-106891024D01*
X149490229Y-106931051D01*
X149367042Y-107008776D01*
X149270622Y-107117951D01*
X149208719Y-107249800D01*
X149207339Y-107258665D01*
X149207338Y-107258667D01*
X149187931Y-107383309D01*
X149186309Y-107393724D01*
X149187473Y-107402626D01*
X149187473Y-107402629D01*
X149204000Y-107529016D01*
X149193000Y-107599155D01*
X149145825Y-107652213D01*
X149079064Y-107671353D01*
X148741077Y-107671353D01*
X148719200Y-107669439D01*
X148714199Y-107668557D01*
X148714197Y-107668557D01*
X148703341Y-107666643D01*
X148677216Y-107671250D01*
X148676449Y-107671353D01*
X148674953Y-107671353D01*
X148671112Y-107672068D01*
X148671107Y-107672069D01*
X148667790Y-107672687D01*
X148661173Y-107673738D01*
X148615730Y-107679721D01*
X148615728Y-107679721D01*
X148607544Y-107680799D01*
X148599916Y-107683959D01*
X148599915Y-107683959D01*
X148598333Y-107684614D01*
X148598331Y-107684615D01*
X148593909Y-107686447D01*
X148591535Y-107686889D01*
X148588858Y-107688539D01*
X148537024Y-107710010D01*
X148534921Y-107710881D01*
X148464331Y-107718471D01*
X148418169Y-107700205D01*
X148323016Y-107638529D01*
X148323014Y-107638528D01*
X148315485Y-107633648D01*
X148175934Y-107591914D01*
X148166958Y-107591859D01*
X148166957Y-107591859D01*
X148105644Y-107591485D01*
X148030279Y-107591024D01*
X147890229Y-107631051D01*
X147882642Y-107635838D01*
X147882640Y-107635839D01*
X147826519Y-107671249D01*
X147767042Y-107708776D01*
X147670622Y-107817951D01*
X147666808Y-107826074D01*
X147666807Y-107826076D01*
X147612533Y-107941676D01*
X147608719Y-107949800D01*
X147607339Y-107958665D01*
X147607338Y-107958667D01*
X147596064Y-108031077D01*
X147586309Y-108093724D01*
X133558170Y-108093724D01*
X133465485Y-108033648D01*
X133325934Y-107991914D01*
X133316958Y-107991859D01*
X133316957Y-107991859D01*
X133255644Y-107991485D01*
X133180279Y-107991024D01*
X133040229Y-108031051D01*
X132917042Y-108108776D01*
X132911100Y-108115504D01*
X132911099Y-108115505D01*
X132869480Y-108162629D01*
X132809394Y-108200447D01*
X132738400Y-108199776D01*
X132679586Y-108161469D01*
X132643574Y-108119675D01*
X132637713Y-108112873D01*
X132515485Y-108033648D01*
X132375934Y-107991914D01*
X132366958Y-107991859D01*
X132366957Y-107991859D01*
X132305644Y-107991485D01*
X132230279Y-107991024D01*
X132090229Y-108031051D01*
X131967042Y-108108776D01*
X131870622Y-108217951D01*
X131866808Y-108226074D01*
X131866807Y-108226076D01*
X131828348Y-108307991D01*
X131808719Y-108349800D01*
X131807339Y-108358665D01*
X131807338Y-108358667D01*
X131789054Y-108476097D01*
X131786309Y-108493724D01*
X131787473Y-108502626D01*
X131787473Y-108502629D01*
X131791816Y-108535839D01*
X131805195Y-108638152D01*
X131808809Y-108646365D01*
X131808810Y-108646369D01*
X131843883Y-108726076D01*
X131863859Y-108771474D01*
X131869634Y-108778344D01*
X131869635Y-108778346D01*
X131929698Y-108849800D01*
X131957583Y-108882973D01*
X131965060Y-108887950D01*
X132071361Y-108958710D01*
X132071363Y-108958711D01*
X132078834Y-108963684D01*
X132087401Y-108966361D01*
X132087402Y-108966361D01*
X132207020Y-109003733D01*
X132266076Y-109043140D01*
X132294453Y-109108219D01*
X132283140Y-109178308D01*
X132235730Y-109231155D01*
X132169445Y-109250000D01*
X129500000Y-109250000D01*
X129500000Y-114221600D01*
X129479998Y-114289721D01*
X129426342Y-114336214D01*
X129374000Y-114347600D01*
X126278400Y-114347600D01*
X126210279Y-114327598D01*
X126163786Y-114273942D01*
X126152400Y-114221600D01*
X126152400Y-109993724D01*
X127236309Y-109993724D01*
X127237473Y-110002626D01*
X127237473Y-110002629D01*
X127246708Y-110073251D01*
X127255195Y-110138152D01*
X127258809Y-110146365D01*
X127258810Y-110146369D01*
X127295945Y-110230761D01*
X127313859Y-110271474D01*
X127319634Y-110278344D01*
X127319635Y-110278346D01*
X127401803Y-110376097D01*
X127407583Y-110382973D01*
X127415060Y-110387950D01*
X127521361Y-110458710D01*
X127521363Y-110458711D01*
X127528834Y-110463684D01*
X127537401Y-110466361D01*
X127537402Y-110466361D01*
X127553777Y-110471477D01*
X127667864Y-110507121D01*
X127813498Y-110509790D01*
X127904887Y-110484874D01*
X127945363Y-110473839D01*
X127945364Y-110473839D01*
X127954026Y-110471477D01*
X127962061Y-110466544D01*
X128048543Y-110413444D01*
X128078154Y-110395263D01*
X128084774Y-110387950D01*
X128169873Y-110293934D01*
X128169874Y-110293933D01*
X128175901Y-110287274D01*
X128180972Y-110276809D01*
X128235495Y-110164272D01*
X128235495Y-110164271D01*
X128239410Y-110156191D01*
X128263576Y-110012552D01*
X128263729Y-110000000D01*
X128256544Y-109949832D01*
X128244354Y-109864706D01*
X128244353Y-109864703D01*
X128243080Y-109855813D01*
X128239362Y-109847635D01*
X128186508Y-109731390D01*
X128186507Y-109731388D01*
X128182792Y-109723218D01*
X128087713Y-109612873D01*
X127965485Y-109533648D01*
X127825934Y-109491914D01*
X127816958Y-109491859D01*
X127816957Y-109491859D01*
X127755644Y-109491485D01*
X127680279Y-109491024D01*
X127540229Y-109531051D01*
X127417042Y-109608776D01*
X127320622Y-109717951D01*
X127316808Y-109726074D01*
X127316807Y-109726076D01*
X127264463Y-109837566D01*
X127258719Y-109849800D01*
X127257339Y-109858665D01*
X127257338Y-109858667D01*
X127238234Y-109981362D01*
X127236309Y-109993724D01*
X126152400Y-109993724D01*
X126152400Y-108993724D01*
X128236309Y-108993724D01*
X128237473Y-109002626D01*
X128237473Y-109002629D01*
X128243043Y-109045221D01*
X128255195Y-109138152D01*
X128258809Y-109146365D01*
X128258810Y-109146369D01*
X128259237Y-109147339D01*
X128313859Y-109271474D01*
X128319634Y-109278344D01*
X128319635Y-109278346D01*
X128381032Y-109351387D01*
X128407583Y-109382973D01*
X128415060Y-109387950D01*
X128521361Y-109458710D01*
X128521363Y-109458711D01*
X128528834Y-109463684D01*
X128667864Y-109507121D01*
X128813498Y-109509790D01*
X128920047Y-109480741D01*
X128945363Y-109473839D01*
X128945364Y-109473839D01*
X128954026Y-109471477D01*
X128962359Y-109466361D01*
X129016090Y-109433370D01*
X129078154Y-109395263D01*
X129084774Y-109387950D01*
X129169873Y-109293934D01*
X129169874Y-109293933D01*
X129175901Y-109287274D01*
X129190362Y-109257428D01*
X129235495Y-109164272D01*
X129235495Y-109164271D01*
X129239410Y-109156191D01*
X129263576Y-109012552D01*
X129263729Y-109000000D01*
X129250295Y-108906191D01*
X129244354Y-108864706D01*
X129244353Y-108864703D01*
X129243080Y-108855813D01*
X129239362Y-108847635D01*
X129186508Y-108731390D01*
X129186507Y-108731388D01*
X129182792Y-108723218D01*
X129087713Y-108612873D01*
X128965485Y-108533648D01*
X128825934Y-108491914D01*
X128816958Y-108491859D01*
X128816957Y-108491859D01*
X128755644Y-108491485D01*
X128680279Y-108491024D01*
X128540229Y-108531051D01*
X128417042Y-108608776D01*
X128320622Y-108717951D01*
X128316808Y-108726074D01*
X128316807Y-108726076D01*
X128291870Y-108779190D01*
X128258719Y-108849800D01*
X128257339Y-108858665D01*
X128257338Y-108858667D01*
X128240505Y-108966779D01*
X128236309Y-108993724D01*
X126152400Y-108993724D01*
X126152400Y-107242614D01*
X127192031Y-107242614D01*
X127193492Y-107258667D01*
X127207933Y-107417344D01*
X127210745Y-107448248D01*
X127212483Y-107454154D01*
X127212484Y-107454158D01*
X127249405Y-107579605D01*
X127269044Y-107646332D01*
X127271901Y-107651797D01*
X127292651Y-107691487D01*
X127364708Y-107829319D01*
X127494091Y-107990240D01*
X127652268Y-108122966D01*
X127657663Y-108125932D01*
X127657669Y-108125936D01*
X127722304Y-108161469D01*
X127833211Y-108222441D01*
X128030030Y-108284875D01*
X128036147Y-108285561D01*
X128036151Y-108285562D01*
X128111982Y-108294068D01*
X128190724Y-108302900D01*
X128301964Y-108302900D01*
X128455499Y-108287846D01*
X128653171Y-108228165D01*
X128744328Y-108179696D01*
X128830043Y-108134121D01*
X128830046Y-108134119D01*
X128835485Y-108131227D01*
X128840255Y-108127337D01*
X128840259Y-108127334D01*
X128990724Y-108004617D01*
X128990727Y-108004614D01*
X128995499Y-108000722D01*
X129000896Y-107994199D01*
X129123189Y-107846372D01*
X129127118Y-107841623D01*
X129225327Y-107659990D01*
X129286386Y-107462739D01*
X129291661Y-107412552D01*
X129307325Y-107263515D01*
X129307325Y-107263513D01*
X129307969Y-107257386D01*
X129292729Y-107089926D01*
X129289814Y-107057891D01*
X129289813Y-107057888D01*
X129289255Y-107051752D01*
X129279815Y-107019675D01*
X129232696Y-106859580D01*
X129230956Y-106853668D01*
X129135292Y-106670681D01*
X129005909Y-106509760D01*
X128847732Y-106377034D01*
X128842337Y-106374068D01*
X128842331Y-106374064D01*
X128684460Y-106287274D01*
X128666789Y-106277559D01*
X128469970Y-106215125D01*
X128463853Y-106214439D01*
X128463849Y-106214438D01*
X128387889Y-106205918D01*
X128309276Y-106197100D01*
X128198036Y-106197100D01*
X128044501Y-106212154D01*
X127846829Y-106271835D01*
X127805267Y-106293934D01*
X127669957Y-106365879D01*
X127669954Y-106365881D01*
X127664515Y-106368773D01*
X127659745Y-106372663D01*
X127659741Y-106372666D01*
X127509276Y-106495383D01*
X127509273Y-106495386D01*
X127504501Y-106499278D01*
X127500573Y-106504026D01*
X127500572Y-106504027D01*
X127489555Y-106517344D01*
X127372882Y-106658377D01*
X127274673Y-106840010D01*
X127213614Y-107037261D01*
X127212970Y-107043386D01*
X127212970Y-107043387D01*
X127210383Y-107068007D01*
X127192031Y-107242614D01*
X126152400Y-107242614D01*
X126152400Y-105993724D01*
X139486309Y-105993724D01*
X139487473Y-106002626D01*
X139487473Y-106002629D01*
X139491816Y-106035839D01*
X139505195Y-106138152D01*
X139508809Y-106146365D01*
X139508810Y-106146369D01*
X139543883Y-106226076D01*
X139563859Y-106271474D01*
X139569634Y-106278344D01*
X139569635Y-106278346D01*
X139628345Y-106348190D01*
X139657583Y-106382973D01*
X139665060Y-106387950D01*
X139771361Y-106458710D01*
X139771363Y-106458711D01*
X139778834Y-106463684D01*
X139917864Y-106507121D01*
X140063498Y-106509790D01*
X140138074Y-106489458D01*
X140195363Y-106473839D01*
X140195364Y-106473839D01*
X140204026Y-106471477D01*
X140212359Y-106466361D01*
X140274460Y-106428231D01*
X140328154Y-106395263D01*
X140334774Y-106387950D01*
X140419873Y-106293934D01*
X140419874Y-106293933D01*
X140425901Y-106287274D01*
X140431511Y-106275696D01*
X140485495Y-106164272D01*
X140485495Y-106164271D01*
X140489410Y-106156191D01*
X140490899Y-106147342D01*
X140490900Y-106147338D01*
X140510464Y-106031051D01*
X140511451Y-106025182D01*
X140546610Y-105956991D01*
X140764172Y-105739429D01*
X145702974Y-105739429D01*
X145719444Y-105907410D01*
X145772722Y-106067567D01*
X145776369Y-106073589D01*
X145776370Y-106073591D01*
X145831289Y-106164272D01*
X145860158Y-106211941D01*
X145865048Y-106217005D01*
X145865049Y-106217006D01*
X145917648Y-106271474D01*
X145977406Y-106333356D01*
X146118641Y-106425777D01*
X146125237Y-106428230D01*
X146125239Y-106428231D01*
X146161333Y-106441654D01*
X146276841Y-106484611D01*
X146283822Y-106485542D01*
X146283824Y-106485543D01*
X146329491Y-106491636D01*
X146444144Y-106506934D01*
X146451155Y-106506296D01*
X146451159Y-106506296D01*
X146589293Y-106493724D01*
X146612236Y-106491636D01*
X146618936Y-106489459D01*
X146618941Y-106489458D01*
X146766062Y-106441656D01*
X146766065Y-106441655D01*
X146772761Y-106439479D01*
X146870871Y-106380994D01*
X146911687Y-106356663D01*
X146911690Y-106356661D01*
X146917742Y-106353053D01*
X147039972Y-106236654D01*
X147052399Y-106217951D01*
X147099314Y-106147338D01*
X147133377Y-106096069D01*
X147146743Y-106060884D01*
X147172254Y-105993724D01*
X147193314Y-105938283D01*
X147216805Y-105771139D01*
X147216966Y-105759580D01*
X147217045Y-105753962D01*
X147217045Y-105753957D01*
X147217100Y-105750000D01*
X147215914Y-105739429D01*
X148242974Y-105739429D01*
X148259444Y-105907410D01*
X148312722Y-106067567D01*
X148316369Y-106073589D01*
X148316370Y-106073591D01*
X148371289Y-106164272D01*
X148400158Y-106211941D01*
X148405048Y-106217005D01*
X148405049Y-106217006D01*
X148457648Y-106271474D01*
X148517406Y-106333356D01*
X148658641Y-106425777D01*
X148665237Y-106428230D01*
X148665239Y-106428231D01*
X148701333Y-106441654D01*
X148816841Y-106484611D01*
X148823822Y-106485542D01*
X148823824Y-106485543D01*
X148869491Y-106491636D01*
X148984144Y-106506934D01*
X148991155Y-106506296D01*
X148991159Y-106506296D01*
X149129293Y-106493724D01*
X149152236Y-106491636D01*
X149158936Y-106489459D01*
X149158941Y-106489458D01*
X149306062Y-106441656D01*
X149306065Y-106441655D01*
X149312761Y-106439479D01*
X149410871Y-106380994D01*
X149451687Y-106356663D01*
X149451690Y-106356661D01*
X149457742Y-106353053D01*
X149579972Y-106236654D01*
X149592399Y-106217951D01*
X149639314Y-106147338D01*
X149673377Y-106096069D01*
X149686743Y-106060884D01*
X149712254Y-105993724D01*
X149733314Y-105938283D01*
X149756805Y-105771139D01*
X149756966Y-105759580D01*
X149757045Y-105753962D01*
X149757045Y-105753957D01*
X149757100Y-105750000D01*
X149742134Y-105616569D01*
X149739071Y-105589262D01*
X149739070Y-105589259D01*
X149738286Y-105582266D01*
X149682777Y-105422868D01*
X149593334Y-105279729D01*
X149585154Y-105271491D01*
X149479364Y-105164960D01*
X149474402Y-105159963D01*
X149452982Y-105146369D01*
X149419241Y-105124957D01*
X149331891Y-105069523D01*
X149281110Y-105051441D01*
X149179518Y-105015265D01*
X149179516Y-105015264D01*
X149172884Y-105012903D01*
X149165896Y-105012070D01*
X149165893Y-105012069D01*
X149031216Y-104996010D01*
X149005286Y-104992918D01*
X148998283Y-104993654D01*
X148998282Y-104993654D01*
X148844424Y-105009825D01*
X148844422Y-105009826D01*
X148837424Y-105010561D01*
X148677642Y-105064955D01*
X148533883Y-105153397D01*
X148528851Y-105158324D01*
X148528848Y-105158327D01*
X148522075Y-105164960D01*
X148413290Y-105271491D01*
X148321857Y-105413367D01*
X148319447Y-105419987D01*
X148319446Y-105419990D01*
X148279023Y-105531051D01*
X148264128Y-105571974D01*
X148242974Y-105739429D01*
X147215914Y-105739429D01*
X147202134Y-105616569D01*
X147199071Y-105589262D01*
X147199070Y-105589259D01*
X147198286Y-105582266D01*
X147142777Y-105422868D01*
X147053334Y-105279729D01*
X147045154Y-105271491D01*
X146939364Y-105164960D01*
X146934402Y-105159963D01*
X146912982Y-105146369D01*
X146879241Y-105124957D01*
X146791891Y-105069523D01*
X146741110Y-105051441D01*
X146639518Y-105015265D01*
X146639516Y-105015264D01*
X146632884Y-105012903D01*
X146625896Y-105012070D01*
X146625893Y-105012069D01*
X146491216Y-104996010D01*
X146465286Y-104992918D01*
X146458283Y-104993654D01*
X146458282Y-104993654D01*
X146304424Y-105009825D01*
X146304422Y-105009826D01*
X146297424Y-105010561D01*
X146137642Y-105064955D01*
X145993883Y-105153397D01*
X145988851Y-105158324D01*
X145988848Y-105158327D01*
X145982075Y-105164960D01*
X145873290Y-105271491D01*
X145781857Y-105413367D01*
X145779447Y-105419987D01*
X145779446Y-105419990D01*
X145739023Y-105531051D01*
X145724128Y-105571974D01*
X145702974Y-105739429D01*
X140764172Y-105739429D01*
X140782396Y-105721205D01*
X140844708Y-105687179D01*
X140871491Y-105684300D01*
X144050372Y-105684300D01*
X144070421Y-105686434D01*
X144074611Y-105686632D01*
X144084793Y-105688824D01*
X144115640Y-105685173D01*
X144121015Y-105684856D01*
X144121004Y-105684728D01*
X144126182Y-105684300D01*
X144131384Y-105684300D01*
X144142719Y-105682413D01*
X144149043Y-105681361D01*
X144154915Y-105680526D01*
X144192174Y-105676116D01*
X144192181Y-105676114D01*
X144202522Y-105674890D01*
X144210268Y-105671170D01*
X144218742Y-105669760D01*
X144260909Y-105647008D01*
X144266196Y-105644315D01*
X144302242Y-105627005D01*
X144302245Y-105627003D01*
X144309390Y-105623572D01*
X144313400Y-105620201D01*
X144315338Y-105618263D01*
X144316989Y-105616748D01*
X144317399Y-105616527D01*
X144317437Y-105616569D01*
X144317620Y-105616408D01*
X144323074Y-105613465D01*
X144357332Y-105576405D01*
X144360762Y-105572839D01*
X145690596Y-104243005D01*
X145752908Y-104208979D01*
X145779691Y-104206100D01*
X151081322Y-104206100D01*
X151149443Y-104226102D01*
X151156001Y-104231091D01*
X151157583Y-104232973D01*
X151171207Y-104242042D01*
X151271361Y-104308710D01*
X151271363Y-104308711D01*
X151278834Y-104313684D01*
X151417864Y-104357121D01*
X151563498Y-104359790D01*
X151633762Y-104340634D01*
X151695363Y-104323839D01*
X151695364Y-104323839D01*
X151704026Y-104321477D01*
X151712359Y-104316361D01*
X151820502Y-104249961D01*
X151828154Y-104245263D01*
X151839279Y-104232973D01*
X151919873Y-104143934D01*
X151919874Y-104143933D01*
X151925901Y-104137274D01*
X151939872Y-104108439D01*
X151985495Y-104014272D01*
X151985495Y-104014271D01*
X151989410Y-104006191D01*
X151991507Y-103993724D01*
X156236309Y-103993724D01*
X156237473Y-104002626D01*
X156237473Y-104002629D01*
X156242556Y-104041500D01*
X156255195Y-104138152D01*
X156258809Y-104146365D01*
X156258810Y-104146369D01*
X156296742Y-104232574D01*
X156313859Y-104271474D01*
X156319634Y-104278344D01*
X156319635Y-104278346D01*
X156357876Y-104323839D01*
X156407583Y-104382973D01*
X156415060Y-104387950D01*
X156521361Y-104458710D01*
X156521363Y-104458711D01*
X156528834Y-104463684D01*
X156667864Y-104507121D01*
X156813498Y-104509790D01*
X156883762Y-104490634D01*
X156945363Y-104473839D01*
X156945364Y-104473839D01*
X156954026Y-104471477D01*
X156962359Y-104466361D01*
X157070502Y-104399961D01*
X157078154Y-104395263D01*
X157084774Y-104387950D01*
X157169873Y-104293934D01*
X157169874Y-104293933D01*
X157175901Y-104287274D01*
X157199481Y-104238606D01*
X157235495Y-104164272D01*
X157235495Y-104164271D01*
X157239410Y-104156191D01*
X157263576Y-104012552D01*
X157263729Y-104000000D01*
X157245880Y-103875362D01*
X157245830Y-103875011D01*
X167989819Y-103875011D01*
X167994729Y-103881569D01*
X168085899Y-103932524D01*
X168097138Y-103937433D01*
X168274914Y-103995196D01*
X168286888Y-103997829D01*
X168472508Y-104019963D01*
X168484757Y-104020220D01*
X168671138Y-104005879D01*
X168683218Y-104003748D01*
X168863244Y-103953484D01*
X168874695Y-103949042D01*
X169001461Y-103885009D01*
X169011747Y-103875362D01*
X169009509Y-103868719D01*
X168512812Y-103372022D01*
X168498868Y-103364408D01*
X168497035Y-103364539D01*
X168490420Y-103368790D01*
X167996579Y-103862631D01*
X167989819Y-103875011D01*
X157245830Y-103875011D01*
X157244354Y-103864706D01*
X157244353Y-103864703D01*
X157243080Y-103855813D01*
X157238247Y-103845183D01*
X157186508Y-103731390D01*
X157186507Y-103731388D01*
X157182792Y-103723218D01*
X157087713Y-103612873D01*
X156965485Y-103533648D01*
X156825934Y-103491914D01*
X156816958Y-103491859D01*
X156816957Y-103491859D01*
X156755644Y-103491485D01*
X156680279Y-103491024D01*
X156540229Y-103531051D01*
X156532642Y-103535838D01*
X156532640Y-103535839D01*
X156479942Y-103569089D01*
X156417042Y-103608776D01*
X156320622Y-103717951D01*
X156316808Y-103726074D01*
X156316807Y-103726076D01*
X156274159Y-103816913D01*
X156258719Y-103849800D01*
X156257339Y-103858665D01*
X156257338Y-103858667D01*
X156241389Y-103961100D01*
X156236309Y-103993724D01*
X151991507Y-103993724D01*
X152011480Y-103875011D01*
X152012770Y-103867344D01*
X152012770Y-103867341D01*
X152013576Y-103862552D01*
X152013729Y-103850000D01*
X152004501Y-103785562D01*
X151994354Y-103714706D01*
X151994353Y-103714703D01*
X151993080Y-103705813D01*
X151989362Y-103697635D01*
X151936508Y-103581390D01*
X151936507Y-103581388D01*
X151932792Y-103573218D01*
X151902902Y-103538529D01*
X151853772Y-103481510D01*
X151824459Y-103416848D01*
X151834758Y-103346602D01*
X151855811Y-103314708D01*
X151919873Y-103243934D01*
X151919874Y-103243933D01*
X151925901Y-103237274D01*
X151954545Y-103178154D01*
X151985495Y-103114272D01*
X151985495Y-103114271D01*
X151989410Y-103106191D01*
X152008640Y-102991890D01*
X167479700Y-102991890D01*
X167495340Y-103178154D01*
X167497555Y-103190219D01*
X167549077Y-103369900D01*
X167553592Y-103381304D01*
X167615206Y-103501192D01*
X167624923Y-103511410D01*
X167631724Y-103509066D01*
X168127978Y-103012812D01*
X168134356Y-103001132D01*
X168864408Y-103001132D01*
X168864539Y-103002965D01*
X168868790Y-103009580D01*
X169362529Y-103503319D01*
X169374909Y-103510079D01*
X169381643Y-103505038D01*
X169429606Y-103420607D01*
X169434600Y-103409391D01*
X169493599Y-103232034D01*
X169496319Y-103220063D01*
X169520075Y-103032010D01*
X169520567Y-103024981D01*
X169520867Y-103003505D01*
X169520574Y-102996512D01*
X169502074Y-102807836D01*
X169499691Y-102795801D01*
X169445665Y-102616858D01*
X169440990Y-102605517D01*
X169384479Y-102499234D01*
X169374617Y-102489151D01*
X169367491Y-102491719D01*
X168872022Y-102987188D01*
X168864408Y-103001132D01*
X168134356Y-103001132D01*
X168135592Y-102998868D01*
X168135461Y-102997035D01*
X168131210Y-102990420D01*
X167637229Y-102496439D01*
X167624849Y-102489679D01*
X167618461Y-102494461D01*
X167564606Y-102592423D01*
X167559778Y-102603687D01*
X167503255Y-102781870D01*
X167500707Y-102793858D01*
X167479871Y-102979621D01*
X167479700Y-102991890D01*
X152008640Y-102991890D01*
X152012770Y-102967344D01*
X152012770Y-102967341D01*
X152013576Y-102962552D01*
X152013729Y-102950000D01*
X151993080Y-102805813D01*
X151988528Y-102795801D01*
X151936508Y-102681390D01*
X151936507Y-102681388D01*
X151932792Y-102673218D01*
X151837713Y-102562873D01*
X151715485Y-102483648D01*
X151575934Y-102441914D01*
X151566958Y-102441859D01*
X151566957Y-102441859D01*
X151505644Y-102441485D01*
X151430279Y-102441024D01*
X151290229Y-102481051D01*
X151282642Y-102485838D01*
X151282640Y-102485839D01*
X151216377Y-102527648D01*
X151167042Y-102558776D01*
X151162244Y-102564208D01*
X151098199Y-102592772D01*
X151081376Y-102593900D01*
X145441428Y-102593900D01*
X145421379Y-102591766D01*
X145417189Y-102591568D01*
X145407007Y-102589376D01*
X145376160Y-102593027D01*
X145370785Y-102593344D01*
X145370796Y-102593472D01*
X145365618Y-102593900D01*
X145360416Y-102593900D01*
X145349081Y-102595787D01*
X145342757Y-102596839D01*
X145336885Y-102597674D01*
X145299626Y-102602084D01*
X145299619Y-102602086D01*
X145289278Y-102603310D01*
X145281532Y-102607030D01*
X145273058Y-102608440D01*
X145236848Y-102627978D01*
X145230891Y-102631192D01*
X145225604Y-102633885D01*
X145189558Y-102651195D01*
X145189555Y-102651197D01*
X145182410Y-102654628D01*
X145178400Y-102657999D01*
X145176462Y-102659937D01*
X145174811Y-102661452D01*
X145174401Y-102661673D01*
X145174363Y-102661631D01*
X145174180Y-102661792D01*
X145168726Y-102664735D01*
X145161658Y-102672382D01*
X145161657Y-102672382D01*
X145134469Y-102701794D01*
X145131039Y-102705360D01*
X143557603Y-104278795D01*
X143495291Y-104312821D01*
X143468508Y-104315700D01*
X142844337Y-104315700D01*
X142776216Y-104295698D01*
X142729723Y-104242042D01*
X142719619Y-104171768D01*
X142730946Y-104134760D01*
X142735495Y-104125371D01*
X142739410Y-104117291D01*
X142756742Y-104014272D01*
X142762770Y-103978444D01*
X142762770Y-103978441D01*
X142763576Y-103973652D01*
X142763729Y-103961100D01*
X142752832Y-103885009D01*
X142744354Y-103825806D01*
X142744353Y-103825803D01*
X142743080Y-103816913D01*
X142736709Y-103802900D01*
X142686508Y-103692490D01*
X142686507Y-103692488D01*
X142682792Y-103684318D01*
X142587713Y-103573973D01*
X142465485Y-103494748D01*
X142325934Y-103453014D01*
X142316958Y-103452959D01*
X142316957Y-103452959D01*
X142255644Y-103452585D01*
X142180279Y-103452124D01*
X142040229Y-103492151D01*
X142032642Y-103496938D01*
X142032640Y-103496939D01*
X141966724Y-103538529D01*
X141917042Y-103569876D01*
X141820622Y-103679051D01*
X141816808Y-103687174D01*
X141816807Y-103687176D01*
X141762616Y-103802599D01*
X141758719Y-103810900D01*
X141757339Y-103819765D01*
X141757338Y-103819767D01*
X141739017Y-103937433D01*
X141736309Y-103954824D01*
X141737473Y-103963726D01*
X141737473Y-103963729D01*
X141744484Y-104017344D01*
X141755195Y-104099252D01*
X141758810Y-104107468D01*
X141758811Y-104107471D01*
X141772664Y-104138954D01*
X141781792Y-104209361D01*
X141751405Y-104273526D01*
X141691152Y-104311077D01*
X141657335Y-104315700D01*
X140871492Y-104315700D01*
X140803371Y-104295698D01*
X140782396Y-104278795D01*
X140545102Y-104041500D01*
X140511077Y-103979188D01*
X140509471Y-103970267D01*
X140494354Y-103864706D01*
X140494353Y-103864703D01*
X140493080Y-103855813D01*
X140488247Y-103845183D01*
X140436508Y-103731390D01*
X140436507Y-103731388D01*
X140432792Y-103723218D01*
X140337713Y-103612873D01*
X140215485Y-103533648D01*
X140075934Y-103491914D01*
X140066958Y-103491859D01*
X140066957Y-103491859D01*
X140005644Y-103491485D01*
X139930279Y-103491024D01*
X139790229Y-103531051D01*
X139782642Y-103535838D01*
X139782640Y-103535839D01*
X139729942Y-103569089D01*
X139667042Y-103608776D01*
X139570622Y-103717951D01*
X139566808Y-103726074D01*
X139566807Y-103726076D01*
X139524159Y-103816913D01*
X139508719Y-103849800D01*
X139507339Y-103858665D01*
X139507338Y-103858667D01*
X139491389Y-103961100D01*
X139486309Y-103993724D01*
X139487473Y-104002626D01*
X139487473Y-104002629D01*
X139492556Y-104041500D01*
X139505195Y-104138152D01*
X139508809Y-104146365D01*
X139508810Y-104146369D01*
X139546742Y-104232574D01*
X139563859Y-104271474D01*
X139569634Y-104278344D01*
X139569635Y-104278346D01*
X139607876Y-104323839D01*
X139657583Y-104382973D01*
X139665060Y-104387950D01*
X139771361Y-104458710D01*
X139771363Y-104458711D01*
X139778834Y-104463684D01*
X139917864Y-104507121D01*
X139954284Y-104507788D01*
X140022026Y-104529034D01*
X140041071Y-104544672D01*
X140383632Y-104887233D01*
X140396308Y-104902928D01*
X140399126Y-104906025D01*
X140404775Y-104914774D01*
X140410231Y-104919075D01*
X140440398Y-104981104D01*
X140432002Y-105051603D01*
X140405247Y-105091152D01*
X140042142Y-105454256D01*
X139979830Y-105488281D01*
X139952279Y-105491158D01*
X139942963Y-105491101D01*
X139930279Y-105491024D01*
X139790229Y-105531051D01*
X139667042Y-105608776D01*
X139570622Y-105717951D01*
X139566808Y-105726074D01*
X139566807Y-105726076D01*
X139551077Y-105759580D01*
X139508719Y-105849800D01*
X139507339Y-105858665D01*
X139507338Y-105858667D01*
X139492029Y-105956991D01*
X139486309Y-105993724D01*
X126152400Y-105993724D01*
X126152400Y-104993724D01*
X134236309Y-104993724D01*
X134237473Y-105002626D01*
X134237473Y-105002629D01*
X134246106Y-105068648D01*
X134255195Y-105138152D01*
X134258809Y-105146365D01*
X134258810Y-105146369D01*
X134298567Y-105236722D01*
X134313859Y-105271474D01*
X134319634Y-105278344D01*
X134319635Y-105278346D01*
X134391799Y-105364196D01*
X134407583Y-105382973D01*
X134415060Y-105387950D01*
X134521361Y-105458710D01*
X134521363Y-105458711D01*
X134528834Y-105463684D01*
X134667864Y-105507121D01*
X134813498Y-105509790D01*
X134892391Y-105488281D01*
X134945363Y-105473839D01*
X134945364Y-105473839D01*
X134954026Y-105471477D01*
X134962359Y-105466361D01*
X135016090Y-105433370D01*
X135078154Y-105395263D01*
X135084774Y-105387950D01*
X135169873Y-105293934D01*
X135169874Y-105293933D01*
X135175901Y-105287274D01*
X135181979Y-105274730D01*
X135235495Y-105164272D01*
X135235495Y-105164271D01*
X135239410Y-105156191D01*
X135263576Y-105012552D01*
X135263729Y-105000000D01*
X135254936Y-104938603D01*
X135244354Y-104864706D01*
X135244353Y-104864703D01*
X135243080Y-104855813D01*
X135239362Y-104847635D01*
X135186508Y-104731390D01*
X135186507Y-104731388D01*
X135182792Y-104723218D01*
X135087713Y-104612873D01*
X134965485Y-104533648D01*
X134825934Y-104491914D01*
X134816958Y-104491859D01*
X134816957Y-104491859D01*
X134755644Y-104491485D01*
X134680279Y-104491024D01*
X134540229Y-104531051D01*
X134417042Y-104608776D01*
X134320622Y-104717951D01*
X134258719Y-104849800D01*
X134257339Y-104858665D01*
X134257338Y-104858667D01*
X134242080Y-104956662D01*
X134236309Y-104993724D01*
X126152400Y-104993724D01*
X126152400Y-102742614D01*
X127192031Y-102742614D01*
X127210745Y-102948248D01*
X127212483Y-102954154D01*
X127212484Y-102954158D01*
X127235397Y-103032010D01*
X127269044Y-103146332D01*
X127364708Y-103329319D01*
X127494091Y-103490240D01*
X127652268Y-103622966D01*
X127657663Y-103625932D01*
X127657669Y-103625936D01*
X127742047Y-103672323D01*
X127833211Y-103722441D01*
X128030030Y-103784875D01*
X128036147Y-103785561D01*
X128036151Y-103785562D01*
X128111982Y-103794068D01*
X128190724Y-103802900D01*
X128301964Y-103802900D01*
X128455499Y-103787846D01*
X128653171Y-103728165D01*
X128758195Y-103672323D01*
X128830043Y-103634121D01*
X128830046Y-103634119D01*
X128835485Y-103631227D01*
X128840255Y-103627337D01*
X128840259Y-103627334D01*
X128990724Y-103504617D01*
X128990727Y-103504614D01*
X128995499Y-103500722D01*
X129000896Y-103494199D01*
X129094291Y-103381304D01*
X129127118Y-103341623D01*
X129225327Y-103159990D01*
X129286386Y-102962739D01*
X129307969Y-102757386D01*
X129294059Y-102604539D01*
X129289814Y-102557891D01*
X129289813Y-102557888D01*
X129289255Y-102551752D01*
X129272394Y-102494461D01*
X129232696Y-102359580D01*
X129230956Y-102353668D01*
X129135292Y-102170681D01*
X129098702Y-102125172D01*
X167988890Y-102125172D01*
X167991345Y-102132135D01*
X168487188Y-102627978D01*
X168501132Y-102635592D01*
X168502965Y-102635461D01*
X168509580Y-102631210D01*
X169003737Y-102137053D01*
X169010497Y-102124673D01*
X169005838Y-102118450D01*
X168901039Y-102061785D01*
X168889734Y-102057033D01*
X168711169Y-102001758D01*
X168699158Y-101999292D01*
X168513255Y-101979753D01*
X168500987Y-101979668D01*
X168314838Y-101996608D01*
X168302791Y-101998906D01*
X168123470Y-102051683D01*
X168112093Y-102056280D01*
X167999039Y-102115383D01*
X167988890Y-102125172D01*
X129098702Y-102125172D01*
X129005909Y-102009760D01*
X128847732Y-101877034D01*
X128842337Y-101874068D01*
X128842331Y-101874064D01*
X128685690Y-101787950D01*
X128666789Y-101777559D01*
X128469970Y-101715125D01*
X128463853Y-101714439D01*
X128463849Y-101714438D01*
X128382540Y-101705318D01*
X128309276Y-101697100D01*
X128198036Y-101697100D01*
X128044501Y-101712154D01*
X127846829Y-101771835D01*
X127793932Y-101799961D01*
X127669957Y-101865879D01*
X127669954Y-101865881D01*
X127664515Y-101868773D01*
X127659745Y-101872663D01*
X127659741Y-101872666D01*
X127509276Y-101995383D01*
X127509273Y-101995386D01*
X127504501Y-101999278D01*
X127500573Y-102004026D01*
X127500572Y-102004027D01*
X127456722Y-102057033D01*
X127372882Y-102158377D01*
X127274673Y-102340010D01*
X127213614Y-102537261D01*
X127212970Y-102543386D01*
X127212970Y-102543387D01*
X127199325Y-102673218D01*
X127192031Y-102742614D01*
X126152400Y-102742614D01*
X126152400Y-98838210D01*
X127868229Y-98838210D01*
X138371772Y-98838210D01*
X138371772Y-97918963D01*
X144223991Y-97918963D01*
X144254343Y-98051945D01*
X144257414Y-98058322D01*
X144310271Y-98168078D01*
X144313526Y-98174838D01*
X144317940Y-98180373D01*
X144317942Y-98180376D01*
X144350676Y-98221423D01*
X144356558Y-98229838D01*
X144359064Y-98235673D01*
X144363143Y-98240638D01*
X144372240Y-98249735D01*
X144381659Y-98260274D01*
X144387445Y-98267530D01*
X144391483Y-98272931D01*
X144391624Y-98273072D01*
X144397948Y-98282104D01*
X144406981Y-98288429D01*
X144411136Y-98291339D01*
X144427962Y-98305457D01*
X144603393Y-98480889D01*
X144637418Y-98543201D01*
X144632353Y-98614017D01*
X144628491Y-98623235D01*
X144625358Y-98629953D01*
X144619035Y-98638984D01*
X144616183Y-98649629D01*
X144611766Y-98666113D01*
X144607089Y-98680191D01*
X144603538Y-98689093D01*
X144595327Y-98709673D01*
X144594700Y-98716068D01*
X144594700Y-98719159D01*
X144594676Y-98719652D01*
X144594220Y-98730075D01*
X144594022Y-98732336D01*
X144591170Y-98742981D01*
X144592130Y-98753956D01*
X144592130Y-98753958D01*
X144594221Y-98777857D01*
X144594700Y-98788838D01*
X144594700Y-99279785D01*
X144574698Y-99347906D01*
X144563141Y-99363193D01*
X144470622Y-99467951D01*
X144466808Y-99476074D01*
X144466807Y-99476076D01*
X144429098Y-99556394D01*
X144408719Y-99599800D01*
X144407339Y-99608665D01*
X144407338Y-99608667D01*
X144387691Y-99734851D01*
X144386309Y-99743724D01*
X144387473Y-99752626D01*
X144387473Y-99752629D01*
X144395590Y-99814698D01*
X144405195Y-99888152D01*
X144408809Y-99896365D01*
X144408810Y-99896369D01*
X144409237Y-99897339D01*
X144463859Y-100021474D01*
X144469634Y-100028344D01*
X144469635Y-100028346D01*
X144477140Y-100037274D01*
X144557583Y-100132973D01*
X144565060Y-100137950D01*
X144671361Y-100208710D01*
X144671363Y-100208711D01*
X144678834Y-100213684D01*
X144817864Y-100257121D01*
X144963498Y-100259790D01*
X145033762Y-100240633D01*
X145095363Y-100223839D01*
X145095364Y-100223839D01*
X145104026Y-100221477D01*
X145112359Y-100216361D01*
X145208478Y-100157344D01*
X145228154Y-100145263D01*
X145234774Y-100137950D01*
X145319873Y-100043934D01*
X145319874Y-100043933D01*
X145325901Y-100037274D01*
X145389410Y-99906191D01*
X145413576Y-99762552D01*
X145413729Y-99750000D01*
X145396065Y-99626659D01*
X145406209Y-99556394D01*
X145452731Y-99502764D01*
X145520863Y-99482800D01*
X145558367Y-99488533D01*
X145609294Y-99504444D01*
X145609297Y-99504445D01*
X145617864Y-99507121D01*
X145763498Y-99509790D01*
X145796248Y-99500861D01*
X145846676Y-99487113D01*
X145917659Y-99488493D01*
X145976628Y-99528030D01*
X146004860Y-99593172D01*
X146004318Y-99628061D01*
X145987690Y-99734851D01*
X145987690Y-99734852D01*
X145986309Y-99743724D01*
X145987473Y-99752626D01*
X145987473Y-99752629D01*
X145995590Y-99814698D01*
X146005195Y-99888152D01*
X146008809Y-99896365D01*
X146008810Y-99896369D01*
X146009237Y-99897339D01*
X146063859Y-100021474D01*
X146069634Y-100028344D01*
X146069635Y-100028346D01*
X146077140Y-100037274D01*
X146157583Y-100132973D01*
X146165060Y-100137950D01*
X146271361Y-100208710D01*
X146271363Y-100208711D01*
X146278834Y-100213684D01*
X146417864Y-100257121D01*
X146488377Y-100258413D01*
X146527469Y-100259130D01*
X146595212Y-100280377D01*
X146614255Y-100296014D01*
X147896437Y-101578196D01*
X147898291Y-101580343D01*
X147900655Y-101585180D01*
X147909184Y-101593092D01*
X147909185Y-101593093D01*
X147937151Y-101619035D01*
X147940543Y-101622302D01*
X147954197Y-101635956D01*
X147958213Y-101638711D01*
X147961007Y-101641164D01*
X147984037Y-101662528D01*
X147994843Y-101666839D01*
X147998378Y-101669074D01*
X148010751Y-101675681D01*
X148014576Y-101677376D01*
X148024168Y-101683956D01*
X148046129Y-101689168D01*
X148048675Y-101689772D01*
X148066271Y-101695337D01*
X148081413Y-101701378D01*
X148081416Y-101701379D01*
X148089673Y-101704673D01*
X148096068Y-101705300D01*
X148099362Y-101705300D01*
X148099513Y-101705318D01*
X148102220Y-101705450D01*
X148102211Y-101705633D01*
X148114766Y-101707103D01*
X148123507Y-101707530D01*
X148134827Y-101710217D01*
X148146356Y-101708648D01*
X148146357Y-101708648D01*
X148157357Y-101707151D01*
X148162500Y-101706451D01*
X148179490Y-101705300D01*
X155776710Y-101705300D01*
X155779535Y-101705507D01*
X155784628Y-101707256D01*
X155834357Y-101705389D01*
X155839083Y-101705300D01*
X155858393Y-101705300D01*
X155863180Y-101704408D01*
X155866898Y-101704167D01*
X155898282Y-101702989D01*
X155908974Y-101698395D01*
X155913059Y-101697475D01*
X155926475Y-101693399D01*
X155930374Y-101691894D01*
X155941811Y-101689764D01*
X155963253Y-101676547D01*
X155979632Y-101668039D01*
X155994604Y-101661607D01*
X155994608Y-101661604D01*
X156002779Y-101658094D01*
X156007744Y-101654015D01*
X156010070Y-101651689D01*
X156010185Y-101651598D01*
X156012193Y-101649777D01*
X156012316Y-101649913D01*
X156022250Y-101642060D01*
X156028723Y-101636190D01*
X156038628Y-101630085D01*
X156055532Y-101607855D01*
X156066733Y-101595026D01*
X156579467Y-101082293D01*
X156641779Y-101048268D01*
X156668562Y-101045389D01*
X157121439Y-101045389D01*
X157189560Y-101065391D01*
X157210535Y-101082294D01*
X157706444Y-101578204D01*
X157708291Y-101580344D01*
X157710655Y-101585180D01*
X157719184Y-101593092D01*
X157719185Y-101593093D01*
X157747137Y-101619022D01*
X157750542Y-101622302D01*
X157764197Y-101635957D01*
X157768216Y-101638714D01*
X157771008Y-101641166D01*
X157785507Y-101654616D01*
X157785510Y-101654618D01*
X157794037Y-101662528D01*
X157804839Y-101666838D01*
X157808367Y-101669068D01*
X157820760Y-101675684D01*
X157824572Y-101677373D01*
X157834168Y-101683956D01*
X157858683Y-101689774D01*
X157876270Y-101695337D01*
X157899673Y-101704673D01*
X157906068Y-101705300D01*
X157909364Y-101705300D01*
X157909517Y-101705318D01*
X157912220Y-101705450D01*
X157912211Y-101705633D01*
X157924768Y-101707103D01*
X157933507Y-101707530D01*
X157944828Y-101710217D01*
X157956357Y-101708648D01*
X157956358Y-101708648D01*
X157972500Y-101706451D01*
X157989491Y-101705300D01*
X160102264Y-101705300D01*
X160124142Y-101707214D01*
X160140000Y-101710010D01*
X160150858Y-101708095D01*
X160151058Y-101708095D01*
X160157714Y-101707134D01*
X160234015Y-101698537D01*
X160268516Y-101694650D01*
X160268517Y-101694650D01*
X160275544Y-101693858D01*
X160404292Y-101648807D01*
X160519786Y-101576237D01*
X160616237Y-101479786D01*
X160633314Y-101452608D01*
X160686492Y-101405572D01*
X160756659Y-101394752D01*
X160821537Y-101423585D01*
X160846685Y-101452607D01*
X160863763Y-101479786D01*
X160960214Y-101576237D01*
X161075708Y-101648807D01*
X161175309Y-101683659D01*
X161192785Y-101689774D01*
X161204456Y-101693858D01*
X161211483Y-101694650D01*
X161211484Y-101694650D01*
X161263676Y-101700531D01*
X161273780Y-101702322D01*
X161279673Y-101704673D01*
X161286068Y-101705300D01*
X161298933Y-101705300D01*
X161313036Y-101706092D01*
X161322269Y-101707132D01*
X161328945Y-101708095D01*
X161329142Y-101708095D01*
X161340000Y-101710010D01*
X161355858Y-101707214D01*
X161377736Y-101705300D01*
X166783605Y-101705300D01*
X166851726Y-101725302D01*
X166880056Y-101750225D01*
X166907583Y-101782973D01*
X166915060Y-101787950D01*
X167021361Y-101858710D01*
X167021363Y-101858711D01*
X167028834Y-101863684D01*
X167037401Y-101866361D01*
X167037402Y-101866361D01*
X167053777Y-101871477D01*
X167167864Y-101907121D01*
X167313498Y-101909790D01*
X167433644Y-101877034D01*
X167445363Y-101873839D01*
X167445364Y-101873839D01*
X167454026Y-101871477D01*
X167462359Y-101866361D01*
X167570502Y-101799961D01*
X167578154Y-101795263D01*
X167584774Y-101787950D01*
X167669873Y-101693934D01*
X167669874Y-101693933D01*
X167675901Y-101687274D01*
X167681099Y-101676547D01*
X167735495Y-101564272D01*
X167735495Y-101564271D01*
X167739410Y-101556191D01*
X167763576Y-101412552D01*
X167763729Y-101400000D01*
X167743080Y-101255813D01*
X167682792Y-101123218D01*
X167587713Y-101012873D01*
X167465485Y-100933648D01*
X167390075Y-100911096D01*
X167334536Y-100894486D01*
X167334533Y-100894485D01*
X167333203Y-100894088D01*
X167333201Y-100894087D01*
X167325934Y-100891914D01*
X167326248Y-100890865D01*
X167269421Y-100864531D01*
X167249145Y-100832591D01*
X167226457Y-100866552D01*
X167180275Y-100891025D01*
X167127281Y-100906171D01*
X167040229Y-100931051D01*
X166917042Y-101008776D01*
X166878774Y-101052107D01*
X166818688Y-101089926D01*
X166784332Y-101094700D01*
X161466364Y-101094700D01*
X161398243Y-101074698D01*
X161351750Y-101021042D01*
X161341156Y-100982808D01*
X161334650Y-100925064D01*
X161334649Y-100925062D01*
X161333858Y-100918037D01*
X161288807Y-100789289D01*
X161216237Y-100673795D01*
X161202837Y-100660395D01*
X161168811Y-100598083D01*
X161173876Y-100527268D01*
X161216423Y-100470432D01*
X161282943Y-100445621D01*
X161291932Y-100445300D01*
X166783605Y-100445300D01*
X166851726Y-100465302D01*
X166880056Y-100490225D01*
X166907583Y-100522973D01*
X166915060Y-100527950D01*
X167021361Y-100598710D01*
X167021363Y-100598711D01*
X167028834Y-100603684D01*
X167167864Y-100647121D01*
X167169244Y-100647146D01*
X167229842Y-100676133D01*
X167248987Y-100707121D01*
X167270479Y-100674085D01*
X167319319Y-100648203D01*
X167445363Y-100613839D01*
X167445364Y-100613839D01*
X167454026Y-100611477D01*
X167462359Y-100606361D01*
X167570502Y-100539961D01*
X167578154Y-100535263D01*
X167584774Y-100527950D01*
X167669873Y-100433934D01*
X167669874Y-100433933D01*
X167675901Y-100427274D01*
X167683782Y-100411009D01*
X167735495Y-100304272D01*
X167735495Y-100304271D01*
X167739410Y-100296191D01*
X167763576Y-100152552D01*
X167763729Y-100140000D01*
X167758056Y-100100385D01*
X167744354Y-100004706D01*
X167744353Y-100004703D01*
X167743080Y-99995813D01*
X167682792Y-99863218D01*
X167587713Y-99752873D01*
X167465485Y-99673648D01*
X167325934Y-99631914D01*
X167316958Y-99631859D01*
X167316957Y-99631859D01*
X167255644Y-99631485D01*
X167180279Y-99631024D01*
X167040229Y-99671051D01*
X166917042Y-99748776D01*
X166878774Y-99792107D01*
X166818688Y-99829926D01*
X166784332Y-99834700D01*
X156077729Y-99834700D01*
X156009608Y-99814698D01*
X155963115Y-99761042D01*
X155953011Y-99690768D01*
X155971041Y-99641667D01*
X155991474Y-99609147D01*
X156038385Y-99475082D01*
X156039177Y-99468054D01*
X156045825Y-99409055D01*
X156047466Y-99399800D01*
X156049673Y-99394267D01*
X156050300Y-99387872D01*
X156050300Y-99376411D01*
X156051093Y-99362300D01*
X156052571Y-99349186D01*
X156053096Y-99345548D01*
X156053096Y-99344793D01*
X156055010Y-99333939D01*
X156052214Y-99318081D01*
X156050300Y-99296203D01*
X156050300Y-99291300D01*
X156070302Y-99223179D01*
X156123958Y-99176686D01*
X156176300Y-99165300D01*
X156433605Y-99165300D01*
X156501726Y-99185302D01*
X156530056Y-99210225D01*
X156557583Y-99242973D01*
X156565060Y-99247950D01*
X156671361Y-99318710D01*
X156671363Y-99318711D01*
X156678834Y-99323684D01*
X156817864Y-99367121D01*
X156963498Y-99369790D01*
X157052426Y-99345545D01*
X157095363Y-99333839D01*
X157095364Y-99333839D01*
X157104026Y-99331477D01*
X157112359Y-99326361D01*
X157181906Y-99283659D01*
X157228154Y-99255263D01*
X157234774Y-99247950D01*
X157319873Y-99153934D01*
X157319874Y-99153933D01*
X157325901Y-99147274D01*
X157340545Y-99117050D01*
X157385495Y-99024272D01*
X157385495Y-99024271D01*
X157389410Y-99016191D01*
X157413576Y-98872552D01*
X157413729Y-98860000D01*
X157403538Y-98788838D01*
X157394354Y-98724706D01*
X157394353Y-98724703D01*
X157393080Y-98715813D01*
X157388010Y-98704662D01*
X157336508Y-98591390D01*
X157336507Y-98591388D01*
X157332792Y-98583218D01*
X157237713Y-98472873D01*
X157115485Y-98393648D01*
X157030763Y-98368311D01*
X156984536Y-98354486D01*
X156984533Y-98354485D01*
X156983203Y-98354088D01*
X156983201Y-98354087D01*
X156975934Y-98351914D01*
X156976248Y-98350865D01*
X156919421Y-98324531D01*
X156899145Y-98292591D01*
X156876457Y-98326552D01*
X156830275Y-98351025D01*
X156777281Y-98366171D01*
X156690229Y-98391051D01*
X156682642Y-98395838D01*
X156682640Y-98395839D01*
X156618834Y-98436098D01*
X156567042Y-98468776D01*
X156532146Y-98508289D01*
X156528774Y-98512107D01*
X156468688Y-98549926D01*
X156434332Y-98554700D01*
X156107737Y-98554700D01*
X156085859Y-98552786D01*
X156070001Y-98549990D01*
X156059147Y-98551904D01*
X156058395Y-98551904D01*
X156054751Y-98552430D01*
X155935885Y-98565823D01*
X155935883Y-98565823D01*
X155928858Y-98566615D01*
X155794793Y-98613526D01*
X155788801Y-98617291D01*
X155688696Y-98680191D01*
X155674528Y-98689093D01*
X155615395Y-98748226D01*
X155553083Y-98782252D01*
X155482268Y-98777187D01*
X155425432Y-98734640D01*
X155400621Y-98668120D01*
X155400300Y-98659131D01*
X155400300Y-98423797D01*
X155402214Y-98401917D01*
X155402812Y-98398529D01*
X155405010Y-98386061D01*
X155403096Y-98375207D01*
X155403096Y-98374455D01*
X155402570Y-98370811D01*
X155389177Y-98251945D01*
X155389177Y-98251943D01*
X155388385Y-98244918D01*
X155341474Y-98110853D01*
X155278863Y-98011207D01*
X155269674Y-97996583D01*
X155269673Y-97996582D01*
X155265907Y-97990588D01*
X155165472Y-97890153D01*
X155155610Y-97883956D01*
X155051199Y-97818351D01*
X155045207Y-97814586D01*
X154975598Y-97790229D01*
X154917906Y-97748851D01*
X154891744Y-97682851D01*
X154905417Y-97613183D01*
X154954584Y-97561967D01*
X155017213Y-97545300D01*
X155451350Y-97545300D01*
X155519471Y-97565302D01*
X155540445Y-97582204D01*
X155639709Y-97681469D01*
X155736444Y-97778204D01*
X155738291Y-97780344D01*
X155740655Y-97785180D01*
X155749184Y-97793092D01*
X155749185Y-97793093D01*
X155777137Y-97819022D01*
X155780542Y-97822302D01*
X155794197Y-97835957D01*
X155798216Y-97838714D01*
X155801008Y-97841166D01*
X155815507Y-97854616D01*
X155815510Y-97854618D01*
X155824037Y-97862528D01*
X155834839Y-97866838D01*
X155838367Y-97869068D01*
X155850760Y-97875684D01*
X155854572Y-97877373D01*
X155864168Y-97883956D01*
X155888683Y-97889774D01*
X155906270Y-97895337D01*
X155929673Y-97904673D01*
X155936068Y-97905300D01*
X155939364Y-97905300D01*
X155939517Y-97905318D01*
X155942220Y-97905450D01*
X155942211Y-97905633D01*
X155954768Y-97907103D01*
X155963507Y-97907530D01*
X155974828Y-97910217D01*
X155986357Y-97908648D01*
X155986358Y-97908648D01*
X156002500Y-97906451D01*
X156019491Y-97905300D01*
X156433605Y-97905300D01*
X156501726Y-97925302D01*
X156530056Y-97950225D01*
X156557583Y-97982973D01*
X156565060Y-97987950D01*
X156671361Y-98058710D01*
X156671363Y-98058711D01*
X156678834Y-98063684D01*
X156817864Y-98107121D01*
X156819244Y-98107146D01*
X156879842Y-98136133D01*
X156898987Y-98167121D01*
X156920479Y-98134085D01*
X156969319Y-98108203D01*
X157095363Y-98073839D01*
X157095364Y-98073839D01*
X157104026Y-98071477D01*
X157112359Y-98066361D01*
X157220502Y-97999961D01*
X157228154Y-97995263D01*
X157234774Y-97987950D01*
X157319873Y-97893934D01*
X157319874Y-97893933D01*
X157325901Y-97887274D01*
X157331517Y-97875684D01*
X157385495Y-97764272D01*
X157385495Y-97764271D01*
X157389410Y-97756191D01*
X157403178Y-97674359D01*
X157412770Y-97617344D01*
X157412770Y-97617341D01*
X157413576Y-97612552D01*
X157413729Y-97600000D01*
X157404746Y-97537274D01*
X157394354Y-97464706D01*
X157394353Y-97464703D01*
X157394213Y-97463724D01*
X168236309Y-97463724D01*
X168237473Y-97472626D01*
X168237473Y-97472629D01*
X168246894Y-97544673D01*
X168255195Y-97608152D01*
X168258809Y-97616365D01*
X168258810Y-97616369D01*
X168292205Y-97692262D01*
X168313859Y-97741474D01*
X168319634Y-97748344D01*
X168319635Y-97748346D01*
X168393845Y-97836630D01*
X168407583Y-97852973D01*
X168415060Y-97857950D01*
X168521361Y-97928710D01*
X168521363Y-97928711D01*
X168528834Y-97933684D01*
X168667864Y-97977121D01*
X168813498Y-97979790D01*
X168938643Y-97945671D01*
X168945363Y-97943839D01*
X168945364Y-97943839D01*
X168954026Y-97941477D01*
X168962359Y-97936361D01*
X169019336Y-97901377D01*
X169078154Y-97865263D01*
X169084774Y-97857950D01*
X169169873Y-97763934D01*
X169169874Y-97763933D01*
X169175901Y-97757274D01*
X169180715Y-97747339D01*
X169235495Y-97634272D01*
X169235495Y-97634271D01*
X169239410Y-97626191D01*
X169255079Y-97533057D01*
X169262770Y-97487344D01*
X169262770Y-97487341D01*
X169263576Y-97482552D01*
X169263729Y-97470000D01*
X169257603Y-97427221D01*
X169244354Y-97334706D01*
X169244353Y-97334703D01*
X169243080Y-97325813D01*
X169239362Y-97317635D01*
X169186508Y-97201390D01*
X169186507Y-97201388D01*
X169182792Y-97193218D01*
X169087713Y-97082873D01*
X168965485Y-97003648D01*
X168825934Y-96961914D01*
X168816958Y-96961859D01*
X168816957Y-96961859D01*
X168755644Y-96961485D01*
X168680279Y-96961024D01*
X168540229Y-97001051D01*
X168532642Y-97005838D01*
X168532640Y-97005839D01*
X168490948Y-97032145D01*
X168417042Y-97078776D01*
X168411100Y-97085504D01*
X168400386Y-97097635D01*
X168320622Y-97187951D01*
X168316808Y-97196074D01*
X168316807Y-97196076D01*
X168287878Y-97257693D01*
X168258719Y-97319800D01*
X168257339Y-97328665D01*
X168257338Y-97328667D01*
X168238738Y-97448127D01*
X168236309Y-97463724D01*
X157394213Y-97463724D01*
X157393080Y-97455813D01*
X157381344Y-97430001D01*
X157336508Y-97331390D01*
X157336507Y-97331388D01*
X157332792Y-97323218D01*
X157237713Y-97212873D01*
X157115485Y-97133648D01*
X156975934Y-97091914D01*
X156966958Y-97091859D01*
X156966957Y-97091859D01*
X156905644Y-97091485D01*
X156830279Y-97091024D01*
X156690229Y-97131051D01*
X156567042Y-97208776D01*
X156528774Y-97252107D01*
X156468688Y-97289926D01*
X156434332Y-97294700D01*
X156168650Y-97294700D01*
X156100529Y-97274698D01*
X156079554Y-97257795D01*
X155981974Y-97160214D01*
X155883556Y-97061796D01*
X155881709Y-97059656D01*
X155879345Y-97054820D01*
X155857283Y-97034354D01*
X155842863Y-97020978D01*
X155839458Y-97017698D01*
X155825803Y-97004043D01*
X155821784Y-97001286D01*
X155818992Y-96998834D01*
X155804493Y-96985384D01*
X155804490Y-96985382D01*
X155795963Y-96977472D01*
X155785161Y-96973162D01*
X155781633Y-96970932D01*
X155769240Y-96964316D01*
X155765428Y-96962627D01*
X155755832Y-96956044D01*
X155731317Y-96950226D01*
X155713730Y-96944663D01*
X155690327Y-96935327D01*
X155683932Y-96934700D01*
X155680636Y-96934700D01*
X155680483Y-96934682D01*
X155677780Y-96934550D01*
X155677789Y-96934367D01*
X155665232Y-96932897D01*
X155656493Y-96932470D01*
X155645172Y-96929783D01*
X155633643Y-96931352D01*
X155633642Y-96931352D01*
X155617500Y-96933549D01*
X155600509Y-96934700D01*
X152395341Y-96934700D01*
X152327220Y-96914698D01*
X152280727Y-96861042D01*
X152273621Y-96835380D01*
X152272380Y-96835663D01*
X152270804Y-96828759D01*
X152270012Y-96821730D01*
X152226012Y-96695984D01*
X152196015Y-96648243D01*
X152158900Y-96589174D01*
X152158898Y-96589172D01*
X152155134Y-96583181D01*
X152060932Y-96488979D01*
X152054941Y-96485215D01*
X152054939Y-96485213D01*
X151954119Y-96421865D01*
X151948129Y-96418101D01*
X151822383Y-96374101D01*
X151815356Y-96373309D01*
X151815355Y-96373309D01*
X151767006Y-96367861D01*
X151756423Y-96365985D01*
X151750327Y-96363553D01*
X151743932Y-96362926D01*
X151730282Y-96362926D01*
X151716175Y-96362134D01*
X151709119Y-96361339D01*
X151701348Y-96360217D01*
X151700855Y-96360130D01*
X151689999Y-96358216D01*
X151679143Y-96360130D01*
X151672631Y-96360130D01*
X151661775Y-96358216D01*
X151650919Y-96360130D01*
X151650426Y-96360217D01*
X151642657Y-96361339D01*
X151529391Y-96374101D01*
X151403645Y-96418101D01*
X151397655Y-96421865D01*
X151296835Y-96485213D01*
X151296833Y-96485215D01*
X151290842Y-96488979D01*
X151196640Y-96583181D01*
X151192876Y-96589172D01*
X151192874Y-96589174D01*
X151155759Y-96648243D01*
X151125762Y-96695984D01*
X151081762Y-96821730D01*
X151080970Y-96828759D01*
X151079394Y-96835663D01*
X151076508Y-96835004D01*
X151054163Y-96888229D01*
X150995652Y-96928441D01*
X150956433Y-96934700D01*
X149836767Y-96934700D01*
X149768646Y-96914698D01*
X149722153Y-96861042D01*
X149711559Y-96822807D01*
X149704650Y-96761484D01*
X149704650Y-96761483D01*
X149703858Y-96754456D01*
X149658807Y-96625708D01*
X149586237Y-96510214D01*
X149489786Y-96413763D01*
X149374292Y-96341193D01*
X149245544Y-96296142D01*
X149238518Y-96295350D01*
X149238516Y-96295350D01*
X149127727Y-96282868D01*
X149121060Y-96281905D01*
X149120860Y-96281905D01*
X149110000Y-96279990D01*
X149099140Y-96281905D01*
X149098940Y-96281905D01*
X149092273Y-96282868D01*
X148981484Y-96295350D01*
X148981482Y-96295350D01*
X148974456Y-96296142D01*
X148845708Y-96341193D01*
X148730214Y-96413763D01*
X148633763Y-96510214D01*
X148616686Y-96537392D01*
X148563508Y-96584428D01*
X148493341Y-96595248D01*
X148428463Y-96566415D01*
X148403315Y-96537393D01*
X148386237Y-96510214D01*
X148289786Y-96413763D01*
X148174292Y-96341193D01*
X148045544Y-96296142D01*
X148038518Y-96295350D01*
X148038516Y-96295350D01*
X147927727Y-96282868D01*
X147921060Y-96281905D01*
X147920860Y-96281905D01*
X147910000Y-96279990D01*
X147899140Y-96281905D01*
X147898940Y-96281905D01*
X147892273Y-96282868D01*
X147781484Y-96295350D01*
X147781482Y-96295350D01*
X147774456Y-96296142D01*
X147645708Y-96341193D01*
X147530214Y-96413763D01*
X147433763Y-96510214D01*
X147361193Y-96625708D01*
X147316142Y-96754456D01*
X147315350Y-96761483D01*
X147315350Y-96761484D01*
X147309469Y-96813676D01*
X147307678Y-96823780D01*
X147305327Y-96829673D01*
X147304700Y-96836068D01*
X147304700Y-96848933D01*
X147303908Y-96863036D01*
X147302868Y-96872269D01*
X147301905Y-96878945D01*
X147301905Y-96879142D01*
X147299990Y-96890000D01*
X147301904Y-96900855D01*
X147302786Y-96905856D01*
X147304700Y-96927736D01*
X147304700Y-96974524D01*
X147284698Y-97042645D01*
X147231042Y-97089138D01*
X147160768Y-97099242D01*
X147100138Y-97073033D01*
X147094794Y-97068771D01*
X147089786Y-97063763D01*
X147039467Y-97032145D01*
X146980284Y-96994958D01*
X146974292Y-96991193D01*
X146857244Y-96950236D01*
X146852223Y-96948479D01*
X146852222Y-96948479D01*
X146845544Y-96946142D01*
X146838517Y-96945350D01*
X146838516Y-96945350D01*
X146786324Y-96939469D01*
X146776220Y-96937678D01*
X146770327Y-96935327D01*
X146763932Y-96934700D01*
X146751067Y-96934700D01*
X146736964Y-96933908D01*
X146727731Y-96932868D01*
X146721055Y-96931905D01*
X146720858Y-96931905D01*
X146710000Y-96929990D01*
X146694142Y-96932786D01*
X146672264Y-96934700D01*
X146483290Y-96934700D01*
X146480465Y-96934493D01*
X146475372Y-96932744D01*
X146425644Y-96934611D01*
X146420917Y-96934700D01*
X146401607Y-96934700D01*
X146396819Y-96935592D01*
X146393105Y-96935833D01*
X146361719Y-96937011D01*
X146351030Y-96941603D01*
X146346953Y-96942522D01*
X146333520Y-96946603D01*
X146329625Y-96948106D01*
X146318189Y-96950236D01*
X146296735Y-96963460D01*
X146280378Y-96971957D01*
X146257222Y-96981906D01*
X146252256Y-96985984D01*
X146249927Y-96988313D01*
X146249814Y-96988403D01*
X146247796Y-96990232D01*
X146247672Y-96990095D01*
X146237751Y-96997938D01*
X146231274Y-97003811D01*
X146221372Y-97009915D01*
X146214331Y-97019175D01*
X146204468Y-97032145D01*
X146193267Y-97044973D01*
X145625493Y-97612747D01*
X145563181Y-97646773D01*
X145492366Y-97641708D01*
X145447303Y-97612747D01*
X145293110Y-97458554D01*
X145283488Y-97446382D01*
X145277612Y-97439902D01*
X145271509Y-97430001D01*
X145264096Y-97424364D01*
X145260635Y-97419421D01*
X145251611Y-97413102D01*
X145251472Y-97412963D01*
X145246055Y-97408913D01*
X145223420Y-97390862D01*
X145153369Y-97334998D01*
X145030475Y-97275815D01*
X145023585Y-97274242D01*
X145023581Y-97274241D01*
X144953279Y-97258195D01*
X144897492Y-97245462D01*
X144761090Y-97245462D01*
X144705303Y-97258195D01*
X144635001Y-97274241D01*
X144634997Y-97274242D01*
X144628107Y-97275815D01*
X144505213Y-97334998D01*
X144435162Y-97390862D01*
X144412527Y-97408913D01*
X144407117Y-97412958D01*
X144406978Y-97413097D01*
X144397947Y-97419421D01*
X144392486Y-97427221D01*
X144391624Y-97428452D01*
X144391496Y-97428580D01*
X144387445Y-97433993D01*
X144322058Y-97515987D01*
X144313526Y-97526686D01*
X144310458Y-97533057D01*
X144258134Y-97641708D01*
X144254343Y-97649579D01*
X144223991Y-97782561D01*
X144223991Y-97918963D01*
X138371772Y-97918963D01*
X138371772Y-97243724D01*
X139986309Y-97243724D01*
X139987473Y-97252626D01*
X139987473Y-97252629D01*
X139992975Y-97294700D01*
X140005195Y-97388152D01*
X140008809Y-97396365D01*
X140008810Y-97396369D01*
X140042366Y-97472629D01*
X140063859Y-97521474D01*
X140069634Y-97528344D01*
X140069635Y-97528346D01*
X140146346Y-97619605D01*
X140157583Y-97632973D01*
X140172950Y-97643202D01*
X140271361Y-97708710D01*
X140271363Y-97708711D01*
X140278834Y-97713684D01*
X140417864Y-97757121D01*
X140563498Y-97759790D01*
X140660815Y-97733258D01*
X140695363Y-97723839D01*
X140695364Y-97723839D01*
X140704026Y-97721477D01*
X140712359Y-97716361D01*
X140820502Y-97649961D01*
X140828154Y-97645263D01*
X140834774Y-97637950D01*
X140919873Y-97543934D01*
X140919874Y-97543933D01*
X140925901Y-97537274D01*
X140936215Y-97515987D01*
X140985495Y-97414272D01*
X140985495Y-97414271D01*
X140989410Y-97406191D01*
X141008971Y-97289926D01*
X141012770Y-97267344D01*
X141012770Y-97267341D01*
X141013576Y-97262552D01*
X141013652Y-97256313D01*
X141013670Y-97254860D01*
X141013670Y-97254857D01*
X141013729Y-97250000D01*
X141004843Y-97187951D01*
X140994354Y-97114706D01*
X140994353Y-97114703D01*
X140993080Y-97105813D01*
X140989362Y-97097635D01*
X140936508Y-96981390D01*
X140936507Y-96981388D01*
X140932792Y-96973218D01*
X140837713Y-96862873D01*
X140715485Y-96783648D01*
X140575934Y-96741914D01*
X140566958Y-96741859D01*
X140566957Y-96741859D01*
X140505644Y-96741485D01*
X140430279Y-96741024D01*
X140290229Y-96781051D01*
X140282642Y-96785838D01*
X140282640Y-96785839D01*
X140224050Y-96822807D01*
X140167042Y-96858776D01*
X140070622Y-96967951D01*
X140066808Y-96976074D01*
X140066807Y-96976076D01*
X140012533Y-97091676D01*
X140008719Y-97099800D01*
X140007339Y-97108665D01*
X140007338Y-97108667D01*
X139990054Y-97219675D01*
X139986309Y-97243724D01*
X138371772Y-97243724D01*
X138371772Y-96701790D01*
X127868229Y-96701790D01*
X127868229Y-98838210D01*
X126152400Y-98838210D01*
X126152400Y-95778400D01*
X126172402Y-95710279D01*
X126226058Y-95663786D01*
X126278400Y-95652400D01*
X170721600Y-95652400D01*
X170789721Y-95672402D01*
G37*
%TD.AperFunction*%
%TD*%
%TA.AperFunction,Conductor*%
%TO.N,+VBus*%
G36*
X131745931Y-109520002D02*
G01*
X131766905Y-109536905D01*
X131943095Y-109713095D01*
X131977121Y-109775407D01*
X131980000Y-109802190D01*
X131980000Y-111274000D01*
X131959998Y-111342121D01*
X131906342Y-111388614D01*
X131854000Y-111400000D01*
X130750000Y-111400000D01*
X130750000Y-112450000D01*
X130900000Y-112600000D01*
X131854000Y-112600000D01*
X131922121Y-112620002D01*
X131968614Y-112673658D01*
X131980000Y-112726000D01*
X131980000Y-113174000D01*
X131959998Y-113242121D01*
X131906342Y-113288614D01*
X131854000Y-113300000D01*
X130326000Y-113300000D01*
X130257879Y-113279998D01*
X130211386Y-113226342D01*
X130200000Y-113174000D01*
X130200000Y-109802190D01*
X130220002Y-109734069D01*
X130236905Y-109713095D01*
X130413095Y-109536905D01*
X130475407Y-109502879D01*
X130502190Y-109500000D01*
X131677810Y-109500000D01*
X131745931Y-109520002D01*
G37*
%TD.AperFunction*%
%TD*%
M02*
