%TF.GenerationSoftware,KiCad,Pcbnew,6.0.0*%
%TF.CreationDate,2023-02-11T22:57:17+01:00*%
%TF.ProjectId,cowstick-ums,636f7773-7469-4636-9b2d-756d732e6b69,1*%
%TF.SameCoordinates,Original*%
%TF.FileFunction,Legend,Bot*%
%TF.FilePolarity,Positive*%
%FSLAX46Y46*%
G04 Gerber Fmt 4.6, Leading zero omitted, Abs format (unit mm)*
G04 Created by KiCad (PCBNEW 6.0.0) date 2023-02-11 22:57:17*
%MOMM*%
%LPD*%
G01*
G04 APERTURE LIST*
%ADD10C,0.101600*%
%ADD11C,0.076200*%
%ADD12C,0.127000*%
G04 APERTURE END LIST*
D10*
%TO.C,C90*%
X135689857Y-110022142D02*
X135726142Y-110058428D01*
X135835000Y-110094714D01*
X135907571Y-110094714D01*
X136016428Y-110058428D01*
X136089000Y-109985857D01*
X136125285Y-109913285D01*
X136161571Y-109768142D01*
X136161571Y-109659285D01*
X136125285Y-109514142D01*
X136089000Y-109441571D01*
X136016428Y-109369000D01*
X135907571Y-109332714D01*
X135835000Y-109332714D01*
X135726142Y-109369000D01*
X135689857Y-109405285D01*
X135327000Y-110094714D02*
X135181857Y-110094714D01*
X135109285Y-110058428D01*
X135073000Y-110022142D01*
X135000428Y-109913285D01*
X134964142Y-109768142D01*
X134964142Y-109477857D01*
X135000428Y-109405285D01*
X135036714Y-109369000D01*
X135109285Y-109332714D01*
X135254428Y-109332714D01*
X135327000Y-109369000D01*
X135363285Y-109405285D01*
X135399571Y-109477857D01*
X135399571Y-109659285D01*
X135363285Y-109731857D01*
X135327000Y-109768142D01*
X135254428Y-109804428D01*
X135109285Y-109804428D01*
X135036714Y-109768142D01*
X135000428Y-109731857D01*
X134964142Y-109659285D01*
X134492428Y-109332714D02*
X134419857Y-109332714D01*
X134347285Y-109369000D01*
X134311000Y-109405285D01*
X134274714Y-109477857D01*
X134238428Y-109623000D01*
X134238428Y-109804428D01*
X134274714Y-109949571D01*
X134311000Y-110022142D01*
X134347285Y-110058428D01*
X134419857Y-110094714D01*
X134492428Y-110094714D01*
X134565000Y-110058428D01*
X134601285Y-110022142D01*
X134637571Y-109949571D01*
X134673857Y-109804428D01*
X134673857Y-109623000D01*
X134637571Y-109477857D01*
X134601285Y-109405285D01*
X134565000Y-109369000D01*
X134492428Y-109332714D01*
D11*
%TO.C,U90*%
X129902714Y-111056571D02*
X130519571Y-111056571D01*
X130592142Y-111092857D01*
X130628428Y-111129142D01*
X130664714Y-111201714D01*
X130664714Y-111346857D01*
X130628428Y-111419428D01*
X130592142Y-111455714D01*
X130519571Y-111492000D01*
X129902714Y-111492000D01*
X130664714Y-111891142D02*
X130664714Y-112036285D01*
X130628428Y-112108857D01*
X130592142Y-112145142D01*
X130483285Y-112217714D01*
X130338142Y-112254000D01*
X130047857Y-112254000D01*
X129975285Y-112217714D01*
X129939000Y-112181428D01*
X129902714Y-112108857D01*
X129902714Y-111963714D01*
X129939000Y-111891142D01*
X129975285Y-111854857D01*
X130047857Y-111818571D01*
X130229285Y-111818571D01*
X130301857Y-111854857D01*
X130338142Y-111891142D01*
X130374428Y-111963714D01*
X130374428Y-112108857D01*
X130338142Y-112181428D01*
X130301857Y-112217714D01*
X130229285Y-112254000D01*
X129902714Y-112725714D02*
X129902714Y-112798285D01*
X129939000Y-112870857D01*
X129975285Y-112907142D01*
X130047857Y-112943428D01*
X130193000Y-112979714D01*
X130374428Y-112979714D01*
X130519571Y-112943428D01*
X130592142Y-112907142D01*
X130628428Y-112870857D01*
X130664714Y-112798285D01*
X130664714Y-112725714D01*
X130628428Y-112653142D01*
X130592142Y-112616857D01*
X130519571Y-112580571D01*
X130374428Y-112544285D01*
X130193000Y-112544285D01*
X130047857Y-112580571D01*
X129975285Y-112616857D01*
X129939000Y-112653142D01*
X129902714Y-112725714D01*
D12*
%TO.C,C90*%
X134857000Y-111635000D02*
X137143000Y-111635000D01*
X134857000Y-110365000D02*
X134857000Y-111635000D01*
X137143000Y-110365000D02*
X134857000Y-110365000D01*
X137143000Y-111635000D02*
X137143000Y-110365000D01*
%TO.C,U90*%
X133512000Y-112500000D02*
X133512000Y-111500000D01*
X133350000Y-110730000D02*
X132150000Y-110730000D01*
X132150000Y-113325000D02*
X133350000Y-113325000D01*
X132150000Y-112725000D02*
X132750000Y-113325000D01*
%TD*%
M02*
