%TF.GenerationSoftware,KiCad,Pcbnew,6.0.0*%
%TF.CreationDate,2023-05-02T17:34:22+02:00*%
%TF.ProjectId,cowstick-ums,636f7773-7469-4636-9b2d-756d732e6b69,2*%
%TF.SameCoordinates,Original*%
%TF.FileFunction,Legend,Top*%
%TF.FilePolarity,Positive*%
%FSLAX46Y46*%
G04 Gerber Fmt 4.6, Leading zero omitted, Abs format (unit mm)*
G04 Created by KiCad (PCBNEW 6.0.0) date 2023-05-02 17:34:22*
%MOMM*%
%LPD*%
G01*
G04 APERTURE LIST*
%ADD10C,0.101600*%
%ADD11C,0.076200*%
%ADD12C,0.150000*%
%ADD13C,0.127000*%
%ADD14C,0.100000*%
%ADD15C,0.027940*%
G04 APERTURE END LIST*
D10*
%TO.C,D2*%
X145187571Y-97844714D02*
X145187571Y-97082714D01*
X145369000Y-97082714D01*
X145477857Y-97119000D01*
X145550428Y-97191571D01*
X145586714Y-97264142D01*
X145623000Y-97409285D01*
X145623000Y-97518142D01*
X145586714Y-97663285D01*
X145550428Y-97735857D01*
X145477857Y-97808428D01*
X145369000Y-97844714D01*
X145187571Y-97844714D01*
X145913285Y-97155285D02*
X145949571Y-97119000D01*
X146022142Y-97082714D01*
X146203571Y-97082714D01*
X146276142Y-97119000D01*
X146312428Y-97155285D01*
X146348714Y-97227857D01*
X146348714Y-97300428D01*
X146312428Y-97409285D01*
X145877000Y-97844714D01*
X146348714Y-97844714D01*
%TO.C,D3*%
X131437571Y-98094714D02*
X131437571Y-97332714D01*
X131619000Y-97332714D01*
X131727857Y-97369000D01*
X131800428Y-97441571D01*
X131836714Y-97514142D01*
X131873000Y-97659285D01*
X131873000Y-97768142D01*
X131836714Y-97913285D01*
X131800428Y-97985857D01*
X131727857Y-98058428D01*
X131619000Y-98094714D01*
X131437571Y-98094714D01*
X132127000Y-97332714D02*
X132598714Y-97332714D01*
X132344714Y-97623000D01*
X132453571Y-97623000D01*
X132526142Y-97659285D01*
X132562428Y-97695571D01*
X132598714Y-97768142D01*
X132598714Y-97949571D01*
X132562428Y-98022142D01*
X132526142Y-98058428D01*
X132453571Y-98094714D01*
X132235857Y-98094714D01*
X132163285Y-98058428D01*
X132127000Y-98022142D01*
D11*
%TO.C,D1*%
X134187571Y-107343694D02*
X134187571Y-106581694D01*
X134369000Y-106581694D01*
X134477857Y-106617980D01*
X134550428Y-106690551D01*
X134586714Y-106763122D01*
X134623000Y-106908265D01*
X134623000Y-107017122D01*
X134586714Y-107162265D01*
X134550428Y-107234837D01*
X134477857Y-107307408D01*
X134369000Y-107343694D01*
X134187571Y-107343694D01*
X135348714Y-107343694D02*
X134913285Y-107343694D01*
X135131000Y-107343694D02*
X135131000Y-106581694D01*
X135058428Y-106690551D01*
X134985857Y-106763122D01*
X134913285Y-106799408D01*
%TO.C,U2*%
X131919428Y-109083734D02*
X131919428Y-109700591D01*
X131955714Y-109773162D01*
X131992000Y-109809448D01*
X132064571Y-109845734D01*
X132209714Y-109845734D01*
X132282285Y-109809448D01*
X132318571Y-109773162D01*
X132354857Y-109700591D01*
X132354857Y-109083734D01*
X132681428Y-109156305D02*
X132717714Y-109120020D01*
X132790285Y-109083734D01*
X132971714Y-109083734D01*
X133044285Y-109120020D01*
X133080571Y-109156305D01*
X133116857Y-109228877D01*
X133116857Y-109301448D01*
X133080571Y-109410305D01*
X132645142Y-109845734D01*
X133116857Y-109845734D01*
D10*
%TO.C,U5*%
X156482714Y-100710571D02*
X157099571Y-100710571D01*
X157172142Y-100674285D01*
X157208428Y-100638000D01*
X157244714Y-100565428D01*
X157244714Y-100420285D01*
X157208428Y-100347714D01*
X157172142Y-100311428D01*
X157099571Y-100275142D01*
X156482714Y-100275142D01*
X156482714Y-99549428D02*
X156482714Y-99912285D01*
X156845571Y-99948571D01*
X156809285Y-99912285D01*
X156773000Y-99839714D01*
X156773000Y-99658285D01*
X156809285Y-99585714D01*
X156845571Y-99549428D01*
X156918142Y-99513142D01*
X157099571Y-99513142D01*
X157172142Y-99549428D01*
X157208428Y-99585714D01*
X157244714Y-99658285D01*
X157244714Y-99839714D01*
X157208428Y-99912285D01*
X157172142Y-99948571D01*
%TO.C,U3*%
X162282714Y-112830571D02*
X162899571Y-112830571D01*
X162972142Y-112794285D01*
X163008428Y-112758000D01*
X163044714Y-112685428D01*
X163044714Y-112540285D01*
X163008428Y-112467714D01*
X162972142Y-112431428D01*
X162899571Y-112395142D01*
X162282714Y-112395142D01*
X162282714Y-112104857D02*
X162282714Y-111633142D01*
X162573000Y-111887142D01*
X162573000Y-111778285D01*
X162609285Y-111705714D01*
X162645571Y-111669428D01*
X162718142Y-111633142D01*
X162899571Y-111633142D01*
X162972142Y-111669428D01*
X163008428Y-111705714D01*
X163044714Y-111778285D01*
X163044714Y-111996000D01*
X163008428Y-112068571D01*
X162972142Y-112104857D01*
%TO.C,U1*%
X149379428Y-98912714D02*
X149379428Y-99529571D01*
X149415714Y-99602142D01*
X149452000Y-99638428D01*
X149524571Y-99674714D01*
X149669714Y-99674714D01*
X149742285Y-99638428D01*
X149778571Y-99602142D01*
X149814857Y-99529571D01*
X149814857Y-98912714D01*
X150576857Y-99674714D02*
X150141428Y-99674714D01*
X150359142Y-99674714D02*
X150359142Y-98912714D01*
X150286571Y-99021571D01*
X150214000Y-99094142D01*
X150141428Y-99130428D01*
%TO.C,U4*%
X163482714Y-112830571D02*
X164099571Y-112830571D01*
X164172142Y-112794285D01*
X164208428Y-112758000D01*
X164244714Y-112685428D01*
X164244714Y-112540285D01*
X164208428Y-112467714D01*
X164172142Y-112431428D01*
X164099571Y-112395142D01*
X163482714Y-112395142D01*
X163736714Y-111705714D02*
X164244714Y-111705714D01*
X163446428Y-111887142D02*
X163990714Y-112068571D01*
X163990714Y-111596857D01*
%TO.C,X1*%
X137783142Y-101832714D02*
X138291142Y-102594714D01*
X138291142Y-101832714D02*
X137783142Y-102594714D01*
X138980571Y-102594714D02*
X138545142Y-102594714D01*
X138762857Y-102594714D02*
X138762857Y-101832714D01*
X138690285Y-101941571D01*
X138617714Y-102014142D01*
X138545142Y-102050428D01*
%TO.C,SW1*%
X132984000Y-103208428D02*
X133092857Y-103244714D01*
X133274285Y-103244714D01*
X133346857Y-103208428D01*
X133383142Y-103172142D01*
X133419428Y-103099571D01*
X133419428Y-103027000D01*
X133383142Y-102954428D01*
X133346857Y-102918142D01*
X133274285Y-102881857D01*
X133129142Y-102845571D01*
X133056571Y-102809285D01*
X133020285Y-102773000D01*
X132984000Y-102700428D01*
X132984000Y-102627857D01*
X133020285Y-102555285D01*
X133056571Y-102519000D01*
X133129142Y-102482714D01*
X133310571Y-102482714D01*
X133419428Y-102519000D01*
X133673428Y-102482714D02*
X133854857Y-103244714D01*
X134000000Y-102700428D01*
X134145142Y-103244714D01*
X134326571Y-102482714D01*
X135016000Y-103244714D02*
X134580571Y-103244714D01*
X134798285Y-103244714D02*
X134798285Y-102482714D01*
X134725714Y-102591571D01*
X134653142Y-102664142D01*
X134580571Y-102700428D01*
D12*
%TO.C,J1*%
X127452380Y-105333333D02*
X128166666Y-105333333D01*
X128309523Y-105380952D01*
X128404761Y-105476190D01*
X128452380Y-105619047D01*
X128452380Y-105714285D01*
X128452380Y-104333333D02*
X128452380Y-104904761D01*
X128452380Y-104619047D02*
X127452380Y-104619047D01*
X127595238Y-104714285D01*
X127690476Y-104809523D01*
X127738095Y-104904761D01*
D13*
%TO.C,C1*%
X128738000Y-110476000D02*
X130262000Y-110476000D01*
X130262000Y-110476000D02*
X130262000Y-111492000D01*
X128738000Y-113524000D02*
X128738000Y-112508000D01*
X130262000Y-113524000D02*
X128738000Y-113524000D01*
X128738000Y-111492000D02*
X128738000Y-110476000D01*
X130262000Y-112508000D02*
X130262000Y-113524000D01*
%TO.C,C10*%
X162665000Y-103607000D02*
X163935000Y-103607000D01*
X163935000Y-105893000D02*
X162665000Y-105893000D01*
X163935000Y-103607000D02*
X163935000Y-105893000D01*
X162665000Y-105893000D02*
X162665000Y-103607000D01*
%TO.C,D2*%
X149008000Y-96738000D02*
X150024000Y-96738000D01*
X146976000Y-98262000D02*
X146976000Y-96738000D01*
X147992000Y-98262000D02*
X146976000Y-98262000D01*
X146976000Y-96738000D02*
X147992000Y-96738000D01*
X150024000Y-96738000D02*
X150024000Y-98262000D01*
X150024000Y-98262000D02*
X149008000Y-98262000D01*
%TO.C,D3*%
X127976000Y-98512000D02*
X127976000Y-96988000D01*
X127976000Y-96988000D02*
X128992000Y-96988000D01*
X131024000Y-98512000D02*
X130008000Y-98512000D01*
X130008000Y-96988000D02*
X131024000Y-96988000D01*
X131024000Y-96988000D02*
X131024000Y-98512000D01*
X128992000Y-98512000D02*
X127976000Y-98512000D01*
D14*
%TO.C,L1*%
X135350000Y-108000000D02*
X138350000Y-108000000D01*
X135350000Y-111000000D02*
X138350000Y-111000000D01*
D15*
%TO.C,agilack-11.5*%
X154309120Y-99186760D02*
X154309120Y-98551760D01*
X154664720Y-102107760D02*
X154664720Y-101853760D01*
X154385320Y-98094560D02*
X154385320Y-97840560D01*
X154918720Y-100634560D02*
X154918720Y-100380560D01*
X155604520Y-103403160D02*
X155604520Y-102514160D01*
X154690120Y-98094560D02*
X154690120Y-97840560D01*
X154537720Y-99491560D02*
X154537720Y-99034360D01*
X155502920Y-105308160D02*
X155502920Y-104165160D01*
X155502920Y-99974160D02*
X155502920Y-99669360D01*
X155325120Y-101675960D02*
X155325120Y-101421960D01*
X154537720Y-108127560D02*
X154537720Y-106628960D01*
X154994920Y-104266760D02*
X154994920Y-103885760D01*
X154740920Y-100228160D02*
X154740920Y-99948760D01*
X154309120Y-104723960D02*
X154309120Y-104241360D01*
X154994920Y-98094560D02*
X154994920Y-97510360D01*
X155680720Y-103250760D02*
X155680720Y-102666560D01*
X154918720Y-106705160D02*
X154918720Y-106679760D01*
X154537720Y-103555560D02*
X154537720Y-102514160D01*
X155629920Y-99262960D02*
X155629920Y-98500960D01*
X154740920Y-108127560D02*
X154740920Y-107441760D01*
X154766320Y-106705160D02*
X154766320Y-106501960D01*
X155274320Y-106882960D02*
X155274320Y-106070160D01*
X154842520Y-100609160D02*
X154842520Y-100355160D01*
X155350520Y-108381560D02*
X155350520Y-108203760D01*
X155121920Y-106730560D02*
X155121920Y-106070160D01*
X154436120Y-108381560D02*
X154436120Y-108203760D01*
X154994920Y-105054160D02*
X154994920Y-104698560D01*
X155299720Y-98094560D02*
X155299720Y-97840560D01*
X155198120Y-105155760D02*
X155198120Y-104774760D01*
X155452120Y-107975160D02*
X155452120Y-107797360D01*
X154969520Y-99618560D02*
X154969520Y-99339160D01*
X155198120Y-108381560D02*
X155198120Y-108203760D01*
X155071120Y-103682560D02*
X155071120Y-103403160D01*
X154613920Y-106552760D02*
X154613920Y-106349560D01*
X154232920Y-108381560D02*
X154232920Y-108076760D01*
X154842520Y-104342960D02*
X154842520Y-103961960D01*
X155045720Y-102107760D02*
X155045720Y-101853760D01*
X154207520Y-104673160D02*
X154207520Y-104292160D01*
X155045720Y-103682560D02*
X155045720Y-103403160D01*
X154715520Y-98094560D02*
X154715520Y-97840560D01*
X155325120Y-99567760D02*
X155325120Y-99186760D01*
X155020320Y-104241360D02*
X155020320Y-103885760D01*
X154563120Y-104469960D02*
X154563120Y-104114360D01*
X154715520Y-99593160D02*
X154715520Y-99262960D01*
X155147320Y-100736160D02*
X155147320Y-99821760D01*
X155299720Y-99567760D02*
X155299720Y-99212160D01*
X154842520Y-108381560D02*
X154842520Y-108203760D01*
X155426720Y-100837760D02*
X155426720Y-100558360D01*
X154232920Y-106146360D02*
X154232920Y-106070160D01*
X155020320Y-105079560D02*
X155020320Y-104698560D01*
X154283720Y-102107760D02*
X154283720Y-101853760D01*
X155096520Y-106705160D02*
X155096520Y-106070160D01*
X154817120Y-97789760D02*
X154817120Y-97459560D01*
X155248920Y-98094560D02*
X155248920Y-97840560D01*
X155655320Y-102107760D02*
X155655320Y-101853760D01*
X154740920Y-103657160D02*
X154740920Y-103352360D01*
X154359920Y-108127560D02*
X154359920Y-106451160D01*
X155401320Y-98094560D02*
X155401320Y-97840560D01*
X155401320Y-108381560D02*
X155401320Y-108203760D01*
X155528320Y-102107760D02*
X155528320Y-101853760D01*
X155731520Y-103885760D02*
X155731520Y-103530160D01*
X154969520Y-108381560D02*
X154969520Y-108203760D01*
X154944120Y-100659960D02*
X154944120Y-100380560D01*
X154664720Y-97637360D02*
X154664720Y-97307160D01*
X154563120Y-99516960D02*
X154563120Y-99085160D01*
X155350520Y-101675960D02*
X155350520Y-101421960D01*
X155528320Y-99948760D02*
X155528320Y-99669360D01*
X155629920Y-102107760D02*
X155629920Y-101853760D01*
X154436120Y-101675960D02*
X154436120Y-101421960D01*
X154588520Y-98094560D02*
X154588520Y-97840560D01*
X154359920Y-106298760D02*
X154359920Y-106070160D01*
X154436120Y-103453960D02*
X154436120Y-102463360D01*
X154182120Y-108330760D02*
X154182120Y-108025960D01*
X154944120Y-104292160D02*
X154944120Y-103911160D01*
X154817120Y-101675960D02*
X154817120Y-101421960D01*
X154867920Y-106705160D02*
X154867920Y-106628960D01*
X154817120Y-99618560D02*
X154817120Y-99313760D01*
X154410720Y-104774760D02*
X154410720Y-104190560D01*
X155274320Y-107797360D02*
X155274320Y-107619560D01*
X155325120Y-100024960D02*
X155325120Y-99745560D01*
X155198120Y-106806760D02*
X155198120Y-106070160D01*
X155299720Y-97586560D02*
X155299720Y-97256360D01*
X155198120Y-104165160D02*
X155198120Y-103784160D01*
X154867920Y-99618560D02*
X154867920Y-99339160D01*
X155604520Y-98094560D02*
X155604520Y-97840560D01*
X154334520Y-108102160D02*
X154334520Y-106425760D01*
X155020320Y-103682560D02*
X155020320Y-103403160D01*
X154512320Y-100482160D02*
X154512320Y-100050360D01*
X154029720Y-108178360D02*
X154029720Y-107873560D01*
X155426720Y-107619560D02*
X155426720Y-106070160D01*
X155375920Y-102107760D02*
X155375920Y-101853760D01*
X155299720Y-107822760D02*
X155299720Y-107644960D01*
X155655320Y-99186760D02*
X155655320Y-98577160D01*
X154004320Y-104571560D02*
X154004320Y-104393760D01*
X155375920Y-99516960D02*
X155375920Y-99135960D01*
X154639320Y-104444560D02*
X154639320Y-104088960D01*
X155452120Y-104038160D02*
X155452120Y-103657160D01*
X154690120Y-101675960D02*
X154690120Y-101421960D01*
X155248920Y-107441760D02*
X155248920Y-107365560D01*
X155655320Y-108127560D02*
X155655320Y-108000560D01*
X155172720Y-102666560D02*
X155172720Y-102412560D01*
X154969520Y-103047560D02*
X154969520Y-102412560D01*
X155198120Y-100736160D02*
X155198120Y-99796360D01*
X155528320Y-97408760D02*
X155528320Y-97027760D01*
X154893320Y-105003360D02*
X154893320Y-104647760D01*
X154817120Y-102107760D02*
X154817120Y-101853760D01*
X154105920Y-107873560D02*
X154105920Y-106197160D01*
X155020320Y-107543360D02*
X155020320Y-107492560D01*
X155096520Y-107619560D02*
X155096520Y-107492560D01*
X154258320Y-108381560D02*
X154258320Y-108100000D01*
X155274320Y-98094560D02*
X155274320Y-97840560D01*
X155020320Y-100685360D02*
X155020320Y-100405960D01*
X155629920Y-98094560D02*
X155629920Y-97840560D01*
X155299720Y-105206560D02*
X155299720Y-104266760D01*
X155020320Y-108381560D02*
X155020320Y-108203760D01*
X155731520Y-108127560D02*
X155731520Y-108076760D01*
X154715520Y-107187760D02*
X154715520Y-107009960D01*
X154867920Y-105003360D02*
X154867920Y-104622360D01*
X154334520Y-100431360D02*
X154334520Y-100101160D01*
X155350520Y-103606360D02*
X155350520Y-103250760D01*
X154385320Y-106324160D02*
X154385320Y-106120960D01*
X155121920Y-103682560D02*
X155121920Y-103403160D01*
X154994920Y-100151960D02*
X154994920Y-99872560D01*
X154309120Y-103174560D02*
X154309120Y-102742760D01*
X154486920Y-98094560D02*
X154486920Y-97840560D01*
X154740920Y-106349560D02*
X154740920Y-106070160D01*
X155477520Y-99974160D02*
X155477520Y-99694760D01*
X154893320Y-101675960D02*
X154893320Y-101421960D01*
X154613920Y-97611960D02*
X154613920Y-97256360D01*
X155248920Y-105181160D02*
X155248920Y-104800160D01*
X154715520Y-103657160D02*
X154715520Y-103326960D01*
X154867920Y-100634560D02*
X154867920Y-100355160D01*
X154436120Y-106374960D02*
X154436120Y-106171760D01*
X155553720Y-102107760D02*
X155553720Y-101853760D01*
X155731520Y-107924360D02*
X155731520Y-106247960D01*
X155452120Y-102107760D02*
X155452120Y-101853760D01*
X155121920Y-98094560D02*
X155121920Y-97840560D01*
X155807720Y-103860360D02*
X155807720Y-103479360D01*
X155350520Y-98094560D02*
X155350520Y-97840560D01*
X154309120Y-106247960D02*
X154309120Y-106070160D01*
X154410720Y-99364560D02*
X154410720Y-98450160D01*
X155604520Y-97332560D02*
X155604520Y-96976960D01*
X155198120Y-107721160D02*
X155198120Y-107543360D01*
X155502920Y-98094560D02*
X155502920Y-97840560D01*
X155045720Y-104241360D02*
X155045720Y-103860360D01*
X154690120Y-106832160D02*
X154690120Y-106781360D01*
X154613920Y-106222560D02*
X154613920Y-106070160D01*
X154715520Y-101675960D02*
X154715520Y-101421960D01*
X154461520Y-99440760D02*
X154461520Y-98475560D01*
X153801120Y-107949760D02*
X153801120Y-106222560D01*
X154309120Y-101675960D02*
X154309120Y-101421960D01*
X155045720Y-106654360D02*
X155045720Y-106070160D01*
X154994920Y-106603560D02*
X154994920Y-106070160D01*
X155452120Y-101675960D02*
X155452120Y-100558360D01*
X156137920Y-103682560D02*
X156137920Y-103301560D01*
X154766320Y-100228160D02*
X154766320Y-99948760D01*
X154944120Y-106552760D02*
X154944120Y-106070160D01*
X154715520Y-108381560D02*
X154715520Y-108203760D01*
X154817120Y-104977960D02*
X154817120Y-104596960D01*
X154664720Y-104419160D02*
X154664720Y-104063560D01*
X154842520Y-102107760D02*
X154842520Y-101853760D01*
X155325120Y-106959160D02*
X155325120Y-106070160D01*
X155325120Y-102666560D02*
X155325120Y-102412560D01*
X155045720Y-108127560D02*
X155045720Y-107746560D01*
X154664720Y-99567760D02*
X154664720Y-99237560D01*
X155223520Y-108127560D02*
X155223520Y-107898960D01*
X155960120Y-108127560D02*
X155960120Y-106476560D01*
X155071120Y-98094560D02*
X155071120Y-97840560D01*
X154309120Y-102107760D02*
X154309120Y-101853760D01*
X154969520Y-106578160D02*
X154969520Y-106070160D01*
X153928120Y-108076760D02*
X153928120Y-107771960D01*
X155452120Y-99999560D02*
X155452120Y-99694760D01*
X156112520Y-103707960D02*
X156112520Y-103326960D01*
X154791720Y-104368360D02*
X154791720Y-103987360D01*
X154613920Y-102107760D02*
X154613920Y-101853760D01*
X154436120Y-98094560D02*
X154436120Y-97840560D01*
X154410720Y-103403160D02*
X154410720Y-102488760D01*
X155782320Y-105612960D02*
X155782320Y-104139760D01*
X154690120Y-108381560D02*
X154690120Y-108203760D01*
X155147320Y-101675960D02*
X155147320Y-101421960D01*
X155375920Y-107898960D02*
X155375920Y-107721160D01*
X155172720Y-107263960D02*
X155172720Y-106959160D01*
X154664720Y-106603560D02*
X154664720Y-106400360D01*
X155553720Y-103987360D02*
X155553720Y-103606360D01*
X155858520Y-105612960D02*
X155858520Y-104139760D01*
X154740920Y-104927160D02*
X154740920Y-104571560D01*
X155096520Y-108127560D02*
X155096520Y-107797360D01*
X154613920Y-99542360D02*
X154613920Y-99186760D01*
X154563120Y-104850960D02*
X154563120Y-104495360D01*
X155401320Y-97510360D02*
X155401320Y-97154760D01*
X155198120Y-98094560D02*
X155198120Y-97840560D01*
X154918720Y-106527360D02*
X154918720Y-106070160D01*
X155401320Y-102107760D02*
X155401320Y-101853760D01*
X154664720Y-108127560D02*
X154664720Y-107365560D01*
X154842520Y-106451160D02*
X154842520Y-106070160D01*
X154588520Y-104850960D02*
X154588520Y-104495360D01*
X153826520Y-107975160D02*
X153826520Y-106222560D01*
X155223520Y-104139760D02*
X155223520Y-103784160D01*
X155172720Y-106781360D02*
X155172720Y-106070160D01*
X154588520Y-108127560D02*
X154588520Y-107213160D01*
X154588520Y-102691960D02*
X154588520Y-102539560D01*
X155045720Y-100685360D02*
X155045720Y-100431360D01*
X155756920Y-107949760D02*
X155756920Y-106273360D01*
X155375920Y-103606360D02*
X155375920Y-103225360D01*
X155147320Y-102107760D02*
X155147320Y-101853760D01*
X154867920Y-103682560D02*
X154867920Y-103403160D01*
X154715520Y-104393760D02*
X154715520Y-104038160D01*
X155299720Y-103631760D02*
X155299720Y-103301560D01*
X154563120Y-108127560D02*
X154563120Y-106654360D01*
X155172720Y-100736160D02*
X155172720Y-99796360D01*
X153953520Y-108102160D02*
X153953520Y-107797360D01*
X155248920Y-106832160D02*
X155248920Y-106070160D01*
X154029720Y-107797360D02*
X154029720Y-106120960D01*
X154715520Y-106654360D02*
X154715520Y-106451160D01*
X155248920Y-108127560D02*
X155248920Y-107924360D01*
X154156720Y-104647760D02*
X154156720Y-104317560D01*
X155096520Y-108381560D02*
X155096520Y-108203760D01*
X154563120Y-98094560D02*
X154563120Y-97840560D01*
X154664720Y-106273360D02*
X154664720Y-106070160D01*
X153775720Y-107924360D02*
X153775720Y-106222560D01*
X154867920Y-102107760D02*
X154867920Y-101853760D01*
X154817120Y-106425760D02*
X154817120Y-106070160D01*
X155299720Y-106908360D02*
X155299720Y-106070160D01*
X155325120Y-108127560D02*
X155325120Y-108000560D01*
X154690120Y-99593160D02*
X154690120Y-99262960D01*
X154639320Y-102590360D02*
X154639320Y-102564960D01*
X154461520Y-97459560D02*
X154461520Y-97129360D01*
X155274320Y-97611960D02*
X155274320Y-97256360D01*
X155096520Y-103047560D02*
X155096520Y-102412560D01*
X155401320Y-105257360D02*
X155401320Y-104215960D01*
X155579120Y-108381560D02*
X155579120Y-108254560D01*
X155223520Y-98094560D02*
X155223520Y-97840560D01*
X154512320Y-104825560D02*
X154512320Y-104139760D01*
X154969520Y-102107760D02*
X154969520Y-101853760D01*
X154791720Y-106705160D02*
X154791720Y-106527360D01*
X154461520Y-98094560D02*
X154461520Y-97840560D01*
X155579120Y-101675960D02*
X155579120Y-100609160D01*
X155223520Y-102107760D02*
X155223520Y-101853760D01*
X154588520Y-106197160D02*
X154588520Y-106070160D01*
X155807720Y-105612960D02*
X155807720Y-104139760D01*
X155477520Y-98094560D02*
X155477520Y-97840560D01*
X155172720Y-108381560D02*
X155172720Y-108203760D01*
X154664720Y-108381560D02*
X154664720Y-108203760D01*
X154486920Y-100482160D02*
X154486920Y-100050360D01*
X155299720Y-108127560D02*
X155299720Y-107975160D01*
X155426720Y-107949760D02*
X155426720Y-107771960D01*
X154486920Y-99466160D02*
X154486920Y-98500960D01*
X155045720Y-105079560D02*
X155045720Y-104698560D01*
X155020320Y-100126560D02*
X155020320Y-99847160D01*
X155375920Y-100812360D02*
X155375920Y-100532960D01*
X154283720Y-100405960D02*
X154283720Y-100126560D01*
X154766320Y-108127560D02*
X154766320Y-107467160D01*
X155426720Y-103580960D02*
X155426720Y-103149160D01*
X155147320Y-107289360D02*
X155147320Y-106908360D01*
X154613920Y-104444560D02*
X154613920Y-104088960D01*
X154969520Y-107340160D02*
X154969520Y-106857560D01*
X154639320Y-97637360D02*
X154639320Y-97281760D01*
X154664720Y-100253560D02*
X154664720Y-99974160D01*
X155223520Y-100761560D02*
X155223520Y-99770960D01*
X154461520Y-103479360D02*
X154461520Y-102463360D01*
X155604520Y-102107760D02*
X155604520Y-101853760D01*
X155147320Y-99618560D02*
X155147320Y-99313760D01*
X154512320Y-98094560D02*
X154512320Y-97840560D01*
X155655320Y-103326960D02*
X155655320Y-102590360D01*
X155274320Y-108127560D02*
X155274320Y-107949760D01*
X155121920Y-105130360D02*
X155121920Y-104749360D01*
X154004320Y-108152960D02*
X154004320Y-107848160D01*
X155172720Y-108127560D02*
X155172720Y-107873560D01*
X155909320Y-108127560D02*
X155909320Y-106425760D01*
X154842520Y-106705160D02*
X154842520Y-106603560D01*
X155960120Y-103784160D02*
X155960120Y-103403160D01*
X155248920Y-100761560D02*
X155248920Y-99770960D01*
X155020320Y-106628960D02*
X155020320Y-106070160D01*
X155121920Y-107314760D02*
X155121920Y-106908360D01*
X154588520Y-106527360D02*
X154588520Y-106324160D01*
X154842520Y-99618560D02*
X154842520Y-99339160D01*
X155147320Y-98094560D02*
X155147320Y-97840560D01*
X155604520Y-108381560D02*
X155604520Y-108279960D01*
X155248920Y-104139760D02*
X155248920Y-103758760D01*
X155020320Y-107340160D02*
X155020320Y-106857560D01*
X154867920Y-100177360D02*
X154867920Y-99923360D01*
X154436120Y-104774760D02*
X154436120Y-104190560D01*
X155198120Y-99593160D02*
X155198120Y-99288360D01*
X155223520Y-101675960D02*
X155223520Y-101421960D01*
X154004320Y-107771960D02*
X154004320Y-106070160D01*
X154613920Y-98094560D02*
X154613920Y-97840560D01*
X154309120Y-97332560D02*
X154309120Y-96976960D01*
X155452120Y-102793560D02*
X155452120Y-102412560D01*
X154893320Y-104317560D02*
X154893320Y-103936560D01*
X155553720Y-108381560D02*
X155553720Y-108229160D01*
X155071120Y-107594160D02*
X155071120Y-107492560D01*
X154563120Y-106171760D02*
X154563120Y-106070160D01*
X154410720Y-97434160D02*
X154410720Y-97078560D01*
X154944120Y-107340160D02*
X154944120Y-106857560D01*
X155375920Y-105257360D02*
X155375920Y-104215960D01*
X154563120Y-101675960D02*
X154563120Y-101421960D01*
X154918720Y-107340160D02*
X154918720Y-106857560D01*
X154893320Y-107340160D02*
X154893320Y-106857560D01*
X154436120Y-102107760D02*
X154436120Y-101853760D01*
X155121920Y-108381560D02*
X155121920Y-108203760D01*
X154588520Y-97586560D02*
X154588520Y-97230960D01*
X155248920Y-107771960D02*
X155248920Y-107594160D01*
X155096520Y-98094560D02*
X155096520Y-97840560D01*
X154436120Y-99415360D02*
X154436120Y-98475560D01*
X154334520Y-101675960D02*
X154334520Y-101421960D01*
X154613920Y-100532960D02*
X154613920Y-99999560D01*
X155502920Y-108025960D02*
X155502920Y-107848160D01*
X155706120Y-107898960D02*
X155706120Y-106222560D01*
X155350520Y-99542360D02*
X155350520Y-99161360D01*
X155426720Y-99999560D02*
X155426720Y-99694760D01*
X154486920Y-103504760D02*
X154486920Y-102463360D01*
X154664720Y-98094560D02*
X154664720Y-97840560D01*
X155401320Y-101675960D02*
X155401320Y-101421960D01*
X154690120Y-108127560D02*
X154690120Y-107390960D01*
X155477520Y-103530160D02*
X155477520Y-102412560D01*
X155833120Y-108025960D02*
X155833120Y-106349560D01*
X154334520Y-98094560D02*
X154334520Y-97840560D01*
X154207520Y-108356160D02*
X154207520Y-108051360D01*
X155553720Y-98094560D02*
X155553720Y-97840560D01*
X155375920Y-98094560D02*
X155375920Y-97840560D01*
X155833120Y-103834960D02*
X155833120Y-103479360D01*
X155274320Y-101675960D02*
X155274320Y-101421960D01*
X156087120Y-103707960D02*
X156087120Y-103326960D01*
X154893320Y-108127560D02*
X154893320Y-107594160D01*
X155198120Y-101675960D02*
X155198120Y-101421960D01*
X153877320Y-104495360D02*
X153877320Y-104469960D01*
X154537720Y-100507560D02*
X154537720Y-100024960D01*
X154563120Y-97561160D02*
X154563120Y-97230960D01*
X154969520Y-105054160D02*
X154969520Y-104673160D01*
X155629920Y-108127560D02*
X155629920Y-107975160D01*
X155375920Y-102666560D02*
X155375920Y-102412560D01*
X154385320Y-97408760D02*
X154385320Y-97053160D01*
X155782320Y-107975160D02*
X155782320Y-106298760D01*
X153724920Y-107873560D02*
X153724920Y-106222560D01*
X155604520Y-101675960D02*
X155604520Y-100609160D01*
X155477520Y-104012760D02*
X155477520Y-103657160D01*
X155375920Y-108127560D02*
X155375920Y-108051360D01*
X155071120Y-101675960D02*
X155071120Y-101421960D01*
X155020320Y-99618560D02*
X155020320Y-99339160D01*
X155121920Y-107644960D02*
X155121920Y-107492560D01*
X155426720Y-108381560D02*
X155426720Y-108203760D01*
X155223520Y-103657160D02*
X155223520Y-103352360D01*
X154918720Y-103682560D02*
X154918720Y-103403160D01*
X155477520Y-107670360D02*
X155477520Y-106070160D01*
X155502920Y-104012760D02*
X155502920Y-103631760D01*
X155375920Y-97535760D02*
X155375920Y-97180160D01*
X156163320Y-103682560D02*
X156163320Y-103301560D01*
X155452120Y-103555560D02*
X155452120Y-103072960D01*
X154563120Y-102793560D02*
X154563120Y-102514160D01*
X155960120Y-105612960D02*
X155960120Y-104139760D01*
X154359920Y-100431360D02*
X154359920Y-100101160D01*
X155147320Y-103682560D02*
X155147320Y-103377760D01*
X154664720Y-103631760D02*
X154664720Y-103276160D01*
X154512320Y-99466160D02*
X154512320Y-98500960D01*
X154690120Y-104901760D02*
X154690120Y-104546160D01*
X154613920Y-108381560D02*
X154613920Y-108203760D01*
X155350520Y-107543360D02*
X155350520Y-107162360D01*
X154055120Y-108203760D02*
X154055120Y-107898960D01*
X154715520Y-97688160D02*
X154715520Y-97357960D01*
X155401320Y-103580960D02*
X155401320Y-103199960D01*
X154842520Y-101675960D02*
X154842520Y-101421960D01*
X154563120Y-103555560D02*
X154563120Y-103098360D01*
X155045720Y-97815160D02*
X155045720Y-97484960D01*
X154639320Y-108381560D02*
X154639320Y-108203760D01*
X155502920Y-103504760D02*
X155502920Y-102412560D01*
X154817120Y-104342960D02*
X154817120Y-103987360D01*
X154842520Y-104977960D02*
X154842520Y-104622360D01*
X155045720Y-101675960D02*
X155045720Y-101421960D01*
X154486920Y-97484960D02*
X154486920Y-97154760D01*
X155071120Y-100126560D02*
X155071120Y-99847160D01*
X154715520Y-106324160D02*
X154715520Y-106070160D01*
X155502920Y-101675960D02*
X155502920Y-100583760D01*
X154613920Y-106933760D02*
X154613920Y-106705160D01*
X155528320Y-101675960D02*
X155528320Y-100583760D01*
X155350520Y-108127560D02*
X155350520Y-108025960D01*
X154740920Y-100583760D02*
X154740920Y-100329760D01*
X155858520Y-108051360D02*
X155858520Y-106374960D01*
X154588520Y-101675960D02*
X154588520Y-101421960D01*
X155452120Y-97459560D02*
X155452120Y-97103960D01*
X155655320Y-101675960D02*
X155655320Y-100634560D01*
X154537720Y-104825560D02*
X154537720Y-104139760D01*
X154283720Y-99110560D02*
X154283720Y-98653360D01*
X155121920Y-97738960D02*
X155121920Y-97408760D01*
X154994920Y-107517960D02*
X154994920Y-107492560D01*
X155045720Y-103047560D02*
X155045720Y-102412560D01*
X154969520Y-100151960D02*
X154969520Y-99872560D01*
X155579120Y-107771960D02*
X155579120Y-106095560D01*
X154461520Y-108127560D02*
X154461520Y-106552760D01*
X155071120Y-97789760D02*
X155071120Y-97459560D01*
X155223520Y-99593160D02*
X155223520Y-99288360D01*
X154994920Y-107340160D02*
X154994920Y-106857560D01*
X155426720Y-102717360D02*
X155426720Y-102412560D01*
X155096520Y-99618560D02*
X155096520Y-99339160D01*
X154664720Y-101675960D02*
X154664720Y-101421960D01*
X154893320Y-100177360D02*
X154893320Y-99897960D01*
X155579120Y-103961960D02*
X155579120Y-103606360D01*
X155071120Y-107340160D02*
X155071120Y-106882960D01*
X154563120Y-102107760D02*
X154563120Y-101853760D01*
X155528320Y-103987360D02*
X155528320Y-103631760D01*
X155147320Y-102666560D02*
X155147320Y-102412560D01*
X154537720Y-101675960D02*
X154537720Y-101421960D01*
X155629920Y-103377760D02*
X155629920Y-102539560D01*
X155121920Y-104190560D02*
X155121920Y-103834960D01*
X154994920Y-100659960D02*
X154994920Y-100405960D01*
X154334520Y-108381560D02*
X154334520Y-108170000D01*
X154918720Y-100177360D02*
X154918720Y-99897960D01*
X154690120Y-100253560D02*
X154690120Y-99974160D01*
X154766320Y-104952560D02*
X154766320Y-104571560D01*
X154791720Y-108127560D02*
X154791720Y-107492560D01*
X155452120Y-105282760D02*
X155452120Y-104190560D01*
X154664720Y-106857560D02*
X154664720Y-106755960D01*
X155198120Y-102666560D02*
X155198120Y-102412560D01*
X155248920Y-102107760D02*
X155248920Y-101853760D01*
X154461520Y-100482160D02*
X154461520Y-100050360D01*
X154283720Y-98094560D02*
X154283720Y-97840560D01*
X154944120Y-101675960D02*
X154944120Y-101421960D01*
X155426720Y-97484960D02*
X155426720Y-97129360D01*
X154867920Y-108127560D02*
X154867920Y-107568760D01*
X154461520Y-108381560D02*
X154461520Y-108203760D01*
X155375920Y-107568760D02*
X155375920Y-106070160D01*
X154817120Y-100609160D02*
X154817120Y-100355160D01*
X155274320Y-107467160D02*
X155274320Y-107340160D01*
X154893320Y-106705160D02*
X154893320Y-106654360D01*
X154359920Y-101675960D02*
X154359920Y-101421960D01*
X154309120Y-108076760D02*
X154309120Y-106400360D01*
X154613920Y-103606360D02*
X154613920Y-103199960D01*
X155604520Y-107797360D02*
X155604520Y-106120960D01*
X154918720Y-105028760D02*
X154918720Y-104647760D01*
X156188720Y-103657160D02*
X156188720Y-103276160D01*
X154740920Y-102107760D02*
X154740920Y-101853760D01*
X154156720Y-107924360D02*
X154156720Y-106247960D01*
X155274320Y-102666560D02*
X155274320Y-102412560D01*
X154690120Y-103631760D02*
X154690120Y-103301560D01*
X155147320Y-108127560D02*
X155147320Y-107848160D01*
X155325120Y-100786960D02*
X155325120Y-100507560D01*
X154893320Y-108381560D02*
X154893320Y-108203760D01*
X155274320Y-100761560D02*
X155274320Y-99770960D01*
X154410720Y-100456760D02*
X154410720Y-100075760D01*
X155528320Y-107721160D02*
X155528320Y-106070160D01*
X154588520Y-104469960D02*
X154588520Y-104114360D01*
X155096520Y-103682560D02*
X155096520Y-103403160D01*
X154207520Y-107975160D02*
X154207520Y-106298760D01*
X154766320Y-104368360D02*
X154766320Y-104012760D01*
X155350520Y-107873560D02*
X155350520Y-107695760D01*
X155401320Y-99999560D02*
X155401320Y-99720160D01*
X155045720Y-108381560D02*
X155045720Y-108203760D01*
X154766320Y-108381560D02*
X154766320Y-108203760D01*
X154105920Y-108254560D02*
X154105920Y-107949760D01*
X154588520Y-108381560D02*
X154588520Y-108203760D01*
X155528320Y-103479360D02*
X155528320Y-102412560D01*
X154537720Y-108381560D02*
X154537720Y-108203760D01*
X155553720Y-107746560D02*
X155553720Y-106070160D01*
X155528320Y-108051360D02*
X155528320Y-107873560D01*
X155223520Y-97662760D02*
X155223520Y-97307160D01*
X153877320Y-108025960D02*
X153877320Y-106222560D01*
X155020320Y-101675960D02*
X155020320Y-101421960D01*
X155325120Y-107848160D02*
X155325120Y-107670360D01*
X153978920Y-107746560D02*
X153978920Y-106070160D01*
X154283720Y-106222560D02*
X154283720Y-106070160D01*
X154969520Y-103682560D02*
X154969520Y-103403160D01*
X155655320Y-99897960D02*
X155655320Y-99618560D01*
X154436120Y-97459560D02*
X154436120Y-97103960D01*
X154563120Y-108381560D02*
X154563120Y-108203760D01*
X155325120Y-105231960D02*
X155325120Y-104241360D01*
X155045720Y-100126560D02*
X155045720Y-99847160D01*
X154512320Y-102107760D02*
X154512320Y-101853760D01*
X155071120Y-104215960D02*
X155071120Y-103860360D01*
X155477520Y-108000560D02*
X155477520Y-107822760D01*
X155579120Y-99339160D02*
X155579120Y-98424760D01*
X155172720Y-101675960D02*
X155172720Y-101421960D01*
X154994920Y-108127560D02*
X154994920Y-107695760D01*
X154512320Y-106120960D02*
X154512320Y-106070160D01*
X155248920Y-97637360D02*
X155248920Y-97281760D01*
X154588520Y-103580960D02*
X154588520Y-103174560D01*
X154512320Y-108381560D02*
X154512320Y-108203760D01*
X155248920Y-103657160D02*
X155248920Y-103326960D01*
X155274320Y-104114360D02*
X155274320Y-103758760D01*
X155553720Y-105333560D02*
X155553720Y-104139760D01*
X154182120Y-107949760D02*
X154182120Y-106273360D01*
X154359920Y-104749360D02*
X154359920Y-104215960D01*
X154969520Y-101675960D02*
X154969520Y-101421960D01*
X154969520Y-108127560D02*
X154969520Y-107670360D01*
X154918720Y-101675960D02*
X154918720Y-101421960D01*
X154867920Y-108381560D02*
X154867920Y-108203760D01*
X154385320Y-101675960D02*
X154385320Y-101421960D01*
X155299720Y-101675960D02*
X155299720Y-101421960D01*
X155172720Y-105155760D02*
X155172720Y-104774760D01*
X155934720Y-103784160D02*
X155934720Y-103403160D01*
X156036320Y-103733360D02*
X156036320Y-103352360D01*
X154182120Y-104647760D02*
X154182120Y-104317560D01*
X155325120Y-104088960D02*
X155325120Y-103733360D01*
X154385320Y-100456760D02*
X154385320Y-100101160D01*
X154893320Y-103682560D02*
X154893320Y-103403160D01*
X155172720Y-104165160D02*
X155172720Y-103809560D01*
X154842520Y-98094560D02*
X154842520Y-97840560D01*
X154410720Y-108127560D02*
X154410720Y-106501960D01*
X155604520Y-108127560D02*
X155604520Y-107949760D01*
X155147320Y-97738960D02*
X155147320Y-97383360D01*
X155528320Y-105333560D02*
X155528320Y-104139760D01*
X154537720Y-106476560D02*
X154537720Y-106273360D01*
X155502920Y-107695760D02*
X155502920Y-106070160D01*
X155299720Y-100786960D02*
X155299720Y-99745560D01*
X154817120Y-108381560D02*
X154817120Y-108203760D01*
X154715520Y-106806760D02*
X154715520Y-106781360D01*
X155502920Y-108381560D02*
X155502920Y-108203760D01*
X155274320Y-103657160D02*
X155274320Y-103326960D01*
X155629920Y-108381560D02*
X155629920Y-108305360D01*
X155985520Y-105612960D02*
X155985520Y-104139760D01*
X154817120Y-100202760D02*
X154817120Y-99923360D01*
X154486920Y-101675960D02*
X154486920Y-101421960D01*
X154791720Y-100609160D02*
X154791720Y-100329760D01*
X154918720Y-99618560D02*
X154918720Y-99339160D01*
X155096520Y-101675960D02*
X155096520Y-101421960D01*
X154385320Y-104749360D02*
X154385320Y-104215960D01*
X154740920Y-98094560D02*
X154740920Y-97840560D01*
X153750320Y-107898960D02*
X153750320Y-106222560D01*
X155071120Y-106679760D02*
X155071120Y-106070160D01*
X154766320Y-103657160D02*
X154766320Y-103352360D01*
X155426720Y-101675960D02*
X155426720Y-101421960D01*
X155325120Y-97586560D02*
X155325120Y-97230960D01*
X155274320Y-102107760D02*
X155274320Y-101853760D01*
X154994920Y-103047560D02*
X154994920Y-102412560D01*
X155401320Y-107594160D02*
X155401320Y-106070160D01*
X154994920Y-108381560D02*
X154994920Y-108203760D01*
X154131320Y-108279960D02*
X154131320Y-107975160D01*
X155096520Y-107314760D02*
X155096520Y-106882960D01*
X154766320Y-98094560D02*
X154766320Y-97840560D01*
X154893320Y-102107760D02*
X154893320Y-101853760D01*
X154613920Y-101675960D02*
X154613920Y-101421960D01*
X154385320Y-102107760D02*
X154385320Y-101853760D01*
X154893320Y-98094560D02*
X154893320Y-97535760D01*
X155477520Y-99466160D02*
X155477520Y-98475560D01*
X154791720Y-102107760D02*
X154791720Y-101853760D01*
X155553720Y-103479360D02*
X155553720Y-102437960D01*
X154461520Y-102107760D02*
X154461520Y-101853760D01*
X154842520Y-103682560D02*
X154842520Y-103377760D01*
X155020320Y-98094560D02*
X155020320Y-97484960D01*
X155807720Y-108000560D02*
X155807720Y-106324160D01*
X155071120Y-99618560D02*
X155071120Y-99339160D01*
X155680720Y-107873560D02*
X155680720Y-106197160D01*
X154613920Y-104876360D02*
X154613920Y-104520760D01*
X155045720Y-99618560D02*
X155045720Y-99339160D01*
X155934720Y-105612960D02*
X155934720Y-104139760D01*
X155198120Y-102107760D02*
X155198120Y-101853760D01*
X154512320Y-108127560D02*
X154512320Y-106603560D01*
X155121920Y-108127560D02*
X155121920Y-107822760D01*
X154944120Y-98094560D02*
X154944120Y-97561160D01*
X154537720Y-97535760D02*
X154537720Y-97205560D01*
X155350520Y-102107760D02*
X155350520Y-101853760D01*
X155553720Y-101675960D02*
X155553720Y-100609160D01*
X153978920Y-108127560D02*
X153978920Y-107822760D01*
X155121920Y-103047560D02*
X155121920Y-102412560D01*
X154766320Y-107263960D02*
X154766320Y-106933760D01*
X154690120Y-97662760D02*
X154690120Y-97332560D01*
X154690120Y-104419160D02*
X154690120Y-104063560D01*
X154918720Y-103047560D02*
X154918720Y-102412560D01*
X155401320Y-98602560D02*
X155401320Y-98500960D01*
X154740920Y-108381560D02*
X154740920Y-108203760D01*
X155426720Y-105282760D02*
X155426720Y-104190560D01*
X154283720Y-97307160D02*
X154283720Y-96951560D01*
X154359920Y-98094560D02*
X154359920Y-97840560D01*
X154080520Y-107848160D02*
X154080520Y-106171760D01*
X154715520Y-108127560D02*
X154715520Y-107416360D01*
X154461520Y-101675960D02*
X154461520Y-101421960D01*
X155096520Y-102107760D02*
X155096520Y-101853760D01*
X154867920Y-98094560D02*
X154867920Y-97840560D01*
X155223520Y-102666560D02*
X155223520Y-102412560D01*
X154664720Y-100558360D02*
X154664720Y-100304360D01*
X154791720Y-100202760D02*
X154791720Y-99948760D01*
X155452120Y-99466160D02*
X155452120Y-98475560D01*
X155553720Y-97383360D02*
X155553720Y-97027760D01*
X155629920Y-107822760D02*
X155629920Y-106146360D01*
X155350520Y-107060760D02*
X155350520Y-106070160D01*
X155579120Y-103428560D02*
X155579120Y-102463360D01*
X155604520Y-99288360D02*
X155604520Y-98424760D01*
X155071120Y-108381560D02*
X155071120Y-108203760D01*
X154969520Y-98094560D02*
X154969520Y-97535760D01*
X154918720Y-104292160D02*
X154918720Y-103936560D01*
X155909320Y-103809560D02*
X155909320Y-103428560D01*
X154563120Y-106501960D02*
X154563120Y-106298760D01*
X155071120Y-108127560D02*
X155071120Y-107771960D01*
X155071120Y-103047560D02*
X155071120Y-102412560D01*
X155680720Y-99110560D02*
X155680720Y-98678760D01*
X154944120Y-102107760D02*
X154944120Y-101853760D01*
X154309120Y-100431360D02*
X154309120Y-100126560D01*
X155071120Y-105104960D02*
X155071120Y-104723960D01*
X155706120Y-103911160D02*
X155706120Y-103530160D01*
X155401320Y-102691960D02*
X155401320Y-102412560D01*
X155274320Y-108381560D02*
X155274320Y-108203760D01*
X154740920Y-107238560D02*
X154740920Y-106959160D01*
X154283720Y-108051360D02*
X154283720Y-106374960D01*
X155020320Y-103047560D02*
X155020320Y-102412560D01*
X155350520Y-105231960D02*
X155350520Y-104241360D01*
X154232920Y-108000560D02*
X154232920Y-106324160D01*
X154867920Y-97815160D02*
X154867920Y-97510360D01*
X155248920Y-108381560D02*
X155248920Y-108203760D01*
X155579120Y-99948760D02*
X155579120Y-99643960D01*
X154613920Y-102641160D02*
X154613920Y-102539560D01*
X154918720Y-98094560D02*
X154918720Y-97561160D01*
X155452120Y-108381560D02*
X155452120Y-108203760D01*
X155045720Y-107340160D02*
X155045720Y-106857560D01*
X154715520Y-104927160D02*
X154715520Y-104546160D01*
X154105920Y-104622360D02*
X154105920Y-104342960D01*
X155020320Y-102107760D02*
X155020320Y-101853760D01*
X154486920Y-108127560D02*
X154486920Y-106578160D01*
X154055120Y-107822760D02*
X154055120Y-106146360D01*
X155147320Y-104190560D02*
X155147320Y-103809560D01*
X155629920Y-103936560D02*
X155629920Y-103580960D01*
X153953520Y-104546160D02*
X153953520Y-104419160D01*
X154080520Y-104596960D02*
X154080520Y-104368360D01*
X155172720Y-107695760D02*
X155172720Y-107517960D01*
X154944120Y-103682560D02*
X154944120Y-103403160D01*
X155172720Y-97713560D02*
X155172720Y-97357960D01*
X154791720Y-107289360D02*
X154791720Y-106908360D01*
X155604520Y-103961960D02*
X155604520Y-103580960D01*
X154994920Y-102107760D02*
X154994920Y-101853760D01*
X155172720Y-99618560D02*
X155172720Y-99313760D01*
X155350520Y-100024960D02*
X155350520Y-99745560D01*
X154486920Y-106425760D02*
X154486920Y-106222560D01*
X155528320Y-108381560D02*
X155528320Y-108203760D01*
X155223520Y-107416360D02*
X155223520Y-107390960D01*
X154639320Y-100253560D02*
X154639320Y-99999560D01*
X154410720Y-108381560D02*
X154410720Y-108203760D01*
X154512320Y-97510360D02*
X154512320Y-97180160D01*
X156061720Y-103733360D02*
X156061720Y-103352360D01*
X155325120Y-108381560D02*
X155325120Y-108203760D01*
X154588520Y-102107760D02*
X154588520Y-101853760D01*
X154309120Y-98094560D02*
X154309120Y-97840560D01*
X154461520Y-104800160D02*
X154461520Y-104165160D01*
X155883920Y-108076760D02*
X155883920Y-106400360D01*
X154258320Y-106197160D02*
X154258320Y-106070160D01*
X154131320Y-107898960D02*
X154131320Y-106222560D01*
X155121920Y-101675960D02*
X155121920Y-101421960D01*
X153978920Y-104546160D02*
X153978920Y-104419160D01*
X154791720Y-108381560D02*
X154791720Y-108203760D01*
X154842520Y-107314760D02*
X154842520Y-106882960D01*
X154537720Y-106146360D02*
X154537720Y-106070160D01*
X154258320Y-104698560D02*
X154258320Y-104266760D01*
X154486920Y-108381560D02*
X154486920Y-108203760D01*
X155706120Y-108127560D02*
X155706120Y-108051360D01*
X156010920Y-103758760D02*
X156010920Y-103377760D01*
X155934720Y-108127560D02*
X155934720Y-106451160D01*
X155426720Y-99491560D02*
X155426720Y-99008960D01*
X155223520Y-107746560D02*
X155223520Y-107568760D01*
X155248920Y-102666560D02*
X155248920Y-102412560D01*
X154385320Y-103377760D02*
X154385320Y-102539560D01*
X154766320Y-97738960D02*
X154766320Y-97408760D01*
X154359920Y-108381560D02*
X154359920Y-108190000D01*
X155401320Y-108127560D02*
X155401320Y-108076760D01*
X155350520Y-97561160D02*
X155350520Y-97205560D01*
X155477520Y-102107760D02*
X155477520Y-101853760D01*
X155375920Y-108381560D02*
X155375920Y-108203760D01*
X155756920Y-108127560D02*
X155756920Y-108102160D01*
X154893320Y-106501960D02*
X154893320Y-106070160D01*
X155756920Y-103885760D02*
X155756920Y-103504760D01*
X155553720Y-99948760D02*
X155553720Y-99669360D01*
X154715520Y-100228160D02*
X154715520Y-99974160D01*
X154410720Y-101675960D02*
X154410720Y-101421960D01*
X155579120Y-108127560D02*
X155579120Y-107924360D01*
X155375920Y-101675960D02*
X155375920Y-101421960D01*
X155325120Y-102107760D02*
X155325120Y-101853760D01*
X154766320Y-100583760D02*
X154766320Y-100329760D01*
X154944120Y-103047560D02*
X154944120Y-102412560D01*
X154639320Y-101675960D02*
X154639320Y-101421960D01*
X154842520Y-97815160D02*
X154842520Y-97484960D01*
X153902720Y-108051360D02*
X153902720Y-107746560D01*
X155604520Y-99923360D02*
X155604520Y-99643960D01*
X155401320Y-107924360D02*
X155401320Y-107746560D01*
X154969520Y-104266760D02*
X154969520Y-103911160D01*
X155223520Y-107136960D02*
X155223520Y-107086160D01*
X155579120Y-105333560D02*
X155579120Y-104139760D01*
X155553720Y-108076760D02*
X155553720Y-107898960D01*
X155121920Y-102107760D02*
X155121920Y-101853760D01*
X154893320Y-100634560D02*
X154893320Y-100380560D01*
X154867920Y-101675960D02*
X154867920Y-101421960D01*
X155553720Y-99364560D02*
X155553720Y-98450160D01*
X154791720Y-99618560D02*
X154791720Y-99313760D01*
X154817120Y-103682560D02*
X154817120Y-103377760D01*
X154791720Y-101675960D02*
X154791720Y-101421960D01*
X154410720Y-106349560D02*
X154410720Y-106146360D01*
X155350520Y-100812360D02*
X155350520Y-100532960D01*
X155172720Y-98094560D02*
X155172720Y-97840560D01*
X155782320Y-103860360D02*
X155782320Y-103504760D01*
X155401320Y-100812360D02*
X155401320Y-100532960D01*
X154639320Y-106882960D02*
X154639320Y-106730560D01*
X154740920Y-99593160D02*
X154740920Y-99288360D01*
X155147320Y-105130360D02*
X155147320Y-104749360D01*
X155299720Y-104114360D02*
X155299720Y-103733360D01*
X154994920Y-99618560D02*
X154994920Y-99339160D01*
X155274320Y-105206560D02*
X155274320Y-104266760D01*
X155096520Y-104215960D02*
X155096520Y-103834960D01*
X154588520Y-100532960D02*
X154588520Y-100024960D01*
X154918720Y-108381560D02*
X154918720Y-108203760D01*
X154791720Y-104952560D02*
X154791720Y-104596960D01*
X154766320Y-99593160D02*
X154766320Y-99288360D01*
X155121920Y-99618560D02*
X155121920Y-99313760D01*
X154817120Y-106705160D02*
X154817120Y-106552760D01*
X154766320Y-102107760D02*
X154766320Y-101853760D01*
X155248920Y-99593160D02*
X155248920Y-99262960D01*
X154944120Y-108381560D02*
X154944120Y-108203760D01*
X155223520Y-106806760D02*
X155223520Y-106070160D01*
X154715520Y-100558360D02*
X154715520Y-100304360D01*
X155375920Y-100024960D02*
X155375920Y-99720160D01*
X155655320Y-98094560D02*
X155655320Y-97840560D01*
X155909320Y-105612960D02*
X155909320Y-104139760D01*
X155528320Y-98094560D02*
X155528320Y-97840560D01*
X154410720Y-102107760D02*
X154410720Y-101853760D01*
X155299720Y-107492560D02*
X155299720Y-107314760D01*
X154537720Y-98094560D02*
X154537720Y-97840560D01*
X155426720Y-98678760D02*
X155426720Y-98500960D01*
X154639320Y-100532960D02*
X154639320Y-100278960D01*
X155579120Y-97357960D02*
X155579120Y-97002360D01*
X154588520Y-107009960D02*
X154588520Y-106679760D01*
X155350520Y-104088960D02*
X155350520Y-103707960D01*
X154817120Y-108127560D02*
X154817120Y-107517960D01*
X154283720Y-101675960D02*
X154283720Y-101421960D01*
X155147320Y-106755960D02*
X155147320Y-106070160D01*
X154740920Y-101675960D02*
X154740920Y-101421960D01*
X155883920Y-105612960D02*
X155883920Y-104139760D01*
X155680720Y-103911160D02*
X155680720Y-103555560D01*
X154817120Y-98094560D02*
X154817120Y-97840560D01*
X154334520Y-106273360D02*
X154334520Y-106070160D01*
X155248920Y-101675960D02*
X155248920Y-101421960D01*
X154334520Y-99237560D02*
X154334520Y-98500960D01*
X154461520Y-106400360D02*
X154461520Y-106197160D01*
X154918720Y-108127560D02*
X154918720Y-107619560D01*
X155629920Y-101675960D02*
X155629920Y-100634560D01*
X155172720Y-102107760D02*
X155172720Y-101853760D01*
X154944120Y-99618560D02*
X154944120Y-99339160D01*
X154486920Y-102107760D02*
X154486920Y-101853760D01*
X154740920Y-97713560D02*
X154740920Y-97383360D01*
X155452120Y-98094560D02*
X155452120Y-97840560D01*
X154359920Y-102107760D02*
X154359920Y-101853760D01*
X155299720Y-102107760D02*
X155299720Y-101853760D01*
X154385320Y-99339160D02*
X154385320Y-98450160D01*
X155426720Y-102107760D02*
X155426720Y-101853760D01*
X154791720Y-98094560D02*
X154791720Y-97840560D01*
X154842520Y-108127560D02*
X154842520Y-107543360D01*
X155096520Y-105104960D02*
X155096520Y-104723960D01*
X154639320Y-106578160D02*
X154639320Y-106374960D01*
X154131320Y-104622360D02*
X154131320Y-104342960D01*
X155045720Y-107568760D02*
X155045720Y-107492560D01*
X154334520Y-104723960D02*
X154334520Y-104241360D01*
X154258320Y-108025960D02*
X154258320Y-106349560D01*
X154842520Y-100202760D02*
X154842520Y-99923360D01*
X155579120Y-98094560D02*
X155579120Y-97840560D01*
X154766320Y-106374960D02*
X154766320Y-106070160D01*
X155629920Y-97307160D02*
X155629920Y-96951560D01*
X155629920Y-99923360D02*
X155629920Y-99643960D01*
X155756920Y-105612960D02*
X155756920Y-104139760D01*
X154639320Y-108127560D02*
X154639320Y-107314760D01*
X154867920Y-104317560D02*
X154867920Y-103961960D01*
X154639320Y-99567760D02*
X154639320Y-99212160D01*
X154283720Y-104698560D02*
X154283720Y-104266760D01*
X155223520Y-105181160D02*
X155223520Y-104800160D01*
X154309120Y-108381560D02*
X154309120Y-108152960D01*
X155502920Y-102107760D02*
X155502920Y-101853760D01*
X154436120Y-108127560D02*
X154436120Y-106527360D01*
X154359920Y-97383360D02*
X154359920Y-97027760D01*
X155147320Y-108381560D02*
X155147320Y-108203760D01*
X155096520Y-100710760D02*
X155096520Y-99821760D01*
X155426720Y-104038160D02*
X155426720Y-103682560D01*
X155858520Y-103834960D02*
X155858520Y-103453960D01*
X154486920Y-104800160D02*
X154486920Y-104165160D01*
X154055120Y-104596960D02*
X154055120Y-104368360D01*
X155883920Y-103809560D02*
X155883920Y-103428560D01*
X154563120Y-100507560D02*
X154563120Y-100024960D01*
X153851920Y-108000560D02*
X153851920Y-106222560D01*
X154512320Y-103530160D02*
X154512320Y-102488760D01*
X155147320Y-107670360D02*
X155147320Y-107492560D01*
X154080520Y-108229160D02*
X154080520Y-107924360D01*
X155502920Y-97408760D02*
X155502920Y-97053160D01*
X155528320Y-99415360D02*
X155528320Y-98450160D01*
X155325120Y-103631760D02*
X155325120Y-103276160D01*
X154512320Y-101675960D02*
X154512320Y-101421960D01*
X154283720Y-108381560D02*
X154283720Y-108130000D01*
X154436120Y-100456760D02*
X154436120Y-100075760D01*
X155655320Y-103936560D02*
X155655320Y-103555560D01*
X155274320Y-99567760D02*
X155274320Y-99237560D01*
X155655320Y-97281760D02*
X155655320Y-96926160D01*
X154893320Y-99618560D02*
X154893320Y-99339160D01*
X155223520Y-108381560D02*
X155223520Y-108203760D01*
X154334520Y-102107760D02*
X154334520Y-101853760D01*
X154613920Y-108127560D02*
X154613920Y-107289360D01*
X155502920Y-99440760D02*
X155502920Y-98450160D01*
X155375920Y-104063560D02*
X155375920Y-103707960D01*
X155121920Y-100710760D02*
X155121920Y-99821760D01*
X154690120Y-106628960D02*
X154690120Y-106425760D01*
X154334520Y-97357960D02*
X154334520Y-97002360D01*
X155096520Y-97764360D02*
X155096520Y-97434160D01*
X155325120Y-98094560D02*
X155325120Y-97840560D01*
X154740920Y-106679760D02*
X154740920Y-106476560D01*
X154944120Y-105028760D02*
X154944120Y-104673160D01*
X154359920Y-99288360D02*
X154359920Y-98450160D01*
X154918720Y-102107760D02*
X154918720Y-101853760D01*
X154791720Y-106400360D02*
X154791720Y-106070160D01*
X154817120Y-107314760D02*
X154817120Y-106882960D01*
X154690120Y-102107760D02*
X154690120Y-101853760D01*
X155299720Y-108381560D02*
X155299720Y-108203760D01*
X154537720Y-102107760D02*
X154537720Y-101853760D01*
X154639320Y-98094560D02*
X154639320Y-97840560D01*
X154944120Y-100151960D02*
X154944120Y-99872560D01*
X155401320Y-99516960D02*
X155401320Y-99085160D01*
X154537720Y-98678760D02*
X154537720Y-98500960D01*
X155477520Y-97434160D02*
X155477520Y-97078560D01*
X154639320Y-106247960D02*
X154639320Y-106070160D01*
X154385320Y-108127560D02*
X154385320Y-106476560D01*
X154156720Y-108305360D02*
X154156720Y-108000560D01*
X154791720Y-103657160D02*
X154791720Y-103377760D01*
X154994920Y-103682560D02*
X154994920Y-103403160D01*
X155198120Y-108127560D02*
X155198120Y-107898960D01*
X155833120Y-105612960D02*
X155833120Y-104139760D01*
X154994920Y-101675960D02*
X154994920Y-101421960D01*
X155579120Y-102107760D02*
X155579120Y-101853760D01*
X155198120Y-97688160D02*
X155198120Y-97332560D01*
X155325120Y-107517960D02*
X155325120Y-107238560D01*
X154715520Y-102107760D02*
X154715520Y-101853760D01*
X154029720Y-104571560D02*
X154029720Y-104393760D01*
X154639320Y-102107760D02*
X154639320Y-101853760D01*
X154207520Y-106146360D02*
X154207520Y-106070160D01*
X155071120Y-100710760D02*
X155071120Y-100431360D01*
X154410720Y-98094560D02*
X154410720Y-97840560D01*
X155477520Y-101675960D02*
X155477520Y-100583760D01*
X154969520Y-100659960D02*
X154969520Y-100405960D01*
X155071120Y-102107760D02*
X155071120Y-101853760D01*
X154690120Y-100558360D02*
X154690120Y-100304360D01*
X155350520Y-102666560D02*
X155350520Y-102412560D01*
X154766320Y-101675960D02*
X154766320Y-101421960D01*
X154639320Y-104876360D02*
X154639320Y-104520760D01*
X153902720Y-104520760D02*
X153902720Y-104444560D01*
X155401320Y-104063560D02*
X155401320Y-103682560D01*
X154588520Y-99542360D02*
X154588520Y-99135960D01*
X154512320Y-106451160D02*
X154512320Y-106247960D01*
X154639320Y-103606360D02*
X154639320Y-103250760D01*
X155985520Y-103758760D02*
X155985520Y-103377760D01*
X154563120Y-98602560D02*
X154563120Y-98526360D01*
X155706120Y-103174560D02*
X155706120Y-102742760D01*
X155198120Y-103657160D02*
X155198120Y-103377760D01*
X154690120Y-106298760D02*
X154690120Y-106070160D01*
X155426720Y-98094560D02*
X155426720Y-97840560D01*
X153928120Y-104520760D02*
X153928120Y-104444560D01*
X154359920Y-103326960D02*
X154359920Y-102590360D01*
X154385320Y-108381560D02*
X154385320Y-108203760D01*
X154791720Y-97764360D02*
X154791720Y-97434160D01*
X154232920Y-104673160D02*
X154232920Y-104292160D01*
X155477520Y-108381560D02*
X155477520Y-108203760D01*
X155172720Y-103682560D02*
X155172720Y-103377760D01*
X154944120Y-108127560D02*
X154944120Y-107644960D01*
X155477520Y-105308160D02*
X155477520Y-104165160D01*
X154867920Y-107340160D02*
X154867920Y-106882960D01*
X154740920Y-104393760D02*
X154740920Y-104038160D01*
X155299720Y-102666560D02*
X155299720Y-102412560D01*
X154867920Y-106476560D02*
X154867920Y-106070160D01*
X155198120Y-107213160D02*
X155198120Y-106984560D01*
X155452120Y-107644960D02*
X155452120Y-106070160D01*
X155045720Y-98094560D02*
X155045720Y-97840560D01*
X154334520Y-103276160D02*
X154334520Y-102666560D01*
X154664720Y-104901760D02*
X154664720Y-104546160D01*
X155680720Y-108127560D02*
X155680720Y-108025960D01*
X155020320Y-108127560D02*
X155020320Y-107721160D01*
X155655320Y-107848160D02*
X155655320Y-106171760D01*
%TO.C,ohw_logo*%
X154194500Y-110818200D02*
X155667700Y-110818200D01*
X154118300Y-112240600D02*
X155388300Y-112240600D01*
X152162500Y-110538800D02*
X155337500Y-110538800D01*
X151425900Y-111072200D02*
X153153100Y-111072200D01*
X152137100Y-110564200D02*
X155362900Y-110564200D01*
X152187900Y-113129600D02*
X152441900Y-113129600D01*
X152086300Y-112418400D02*
X153356300Y-112418400D01*
X154321500Y-111529400D02*
X156048700Y-111529400D01*
X154321500Y-112748600D02*
X155566100Y-112748600D01*
X153229300Y-109599000D02*
X154270700Y-109599000D01*
X151425900Y-111046800D02*
X153153100Y-111046800D01*
X153330900Y-109497400D02*
X154169100Y-109497400D01*
X152975300Y-109700600D02*
X154524700Y-109700600D01*
X153153100Y-109624400D02*
X154346900Y-109624400D01*
X154143700Y-112266000D02*
X155388300Y-112266000D01*
X154626300Y-109726000D02*
X155515300Y-109726000D01*
X151425900Y-111097600D02*
X153153100Y-111097600D01*
X154245300Y-112545400D02*
X155591500Y-112545400D01*
X153356300Y-109345000D02*
X154143700Y-109345000D01*
X152086300Y-110716600D02*
X153432500Y-110716600D01*
X152111700Y-111885000D02*
X153534100Y-111885000D01*
X153991300Y-111885000D02*
X155388300Y-111885000D01*
X151425900Y-111478600D02*
X153178500Y-111478600D01*
X154880300Y-112901000D02*
X155439100Y-112901000D01*
X152137100Y-110589600D02*
X155362900Y-110589600D01*
X154321500Y-111504000D02*
X156074100Y-111504000D01*
X152238700Y-112164400D02*
X153432500Y-112164400D01*
X154778700Y-109624400D02*
X155413700Y-109624400D01*
X154372300Y-111250000D02*
X156099500Y-111250000D01*
X154296100Y-112697800D02*
X155616900Y-112697800D01*
X152060900Y-111758000D02*
X153381700Y-111758000D01*
X155210500Y-113155000D02*
X155413700Y-113155000D01*
X152086300Y-110107000D02*
X155413700Y-110107000D01*
X155032700Y-109446600D02*
X155210500Y-109446600D01*
X153432500Y-108964000D02*
X154067500Y-108964000D01*
X153407100Y-109014800D02*
X154092900Y-109014800D01*
X154346900Y-111453200D02*
X156074100Y-111453200D01*
X151984700Y-109726000D02*
X152822900Y-109726000D01*
X151984700Y-112570800D02*
X153280100Y-112570800D01*
X154245300Y-112520000D02*
X155566100Y-112520000D01*
X152060900Y-110081600D02*
X155413700Y-110081600D01*
X154372300Y-111326200D02*
X156099500Y-111326200D01*
X154346900Y-111478600D02*
X156074100Y-111478600D01*
X154194500Y-112418400D02*
X155489900Y-112418400D01*
X154016700Y-111986600D02*
X155362900Y-111986600D01*
X154321500Y-111021400D02*
X156074100Y-111021400D01*
X154270700Y-110919800D02*
X156048700Y-110919800D01*
X154372300Y-111402400D02*
X156099500Y-111402400D01*
X154372300Y-111199200D02*
X156099500Y-111199200D01*
X154270700Y-112596200D02*
X155616900Y-112596200D01*
X151425900Y-111427800D02*
X153153100Y-111427800D01*
X152238700Y-113180400D02*
X152416500Y-113180400D01*
X151425900Y-111529400D02*
X153178500Y-111529400D01*
X154956500Y-109497400D02*
X155286700Y-109497400D01*
X151883100Y-110869000D02*
X153254700Y-110869000D01*
X155286700Y-113231200D02*
X155337500Y-113231200D01*
X154219900Y-111656400D02*
X155464500Y-111656400D01*
X153584900Y-108938600D02*
X153838900Y-108938600D01*
X152187900Y-110462600D02*
X155312100Y-110462600D01*
X154042100Y-112037400D02*
X155337500Y-112037400D01*
X151425900Y-111148400D02*
X153127700Y-111148400D01*
X152086300Y-112443800D02*
X153330900Y-112443800D01*
X153330900Y-109522800D02*
X154169100Y-109522800D01*
X152162500Y-112037400D02*
X153483300Y-112037400D01*
X152137100Y-112977200D02*
X152619700Y-112977200D01*
X152111700Y-109599000D02*
X152645100Y-109599000D01*
X154118300Y-112189800D02*
X155337500Y-112189800D01*
X152111700Y-110640400D02*
X153635700Y-110640400D01*
X152187900Y-112291400D02*
X153381700Y-112291400D01*
X152213300Y-109497400D02*
X152492700Y-109497400D01*
X151959300Y-109929200D02*
X155540700Y-109929200D01*
X151806900Y-111631000D02*
X153254700Y-111631000D01*
X152060900Y-109649800D02*
X152721300Y-109649800D01*
X153432500Y-108989400D02*
X154067500Y-108989400D01*
X154169100Y-112342200D02*
X155439100Y-112342200D01*
X151451300Y-110945200D02*
X153203900Y-110945200D01*
X152289500Y-109446600D02*
X152416500Y-109446600D01*
X152213300Y-110411800D02*
X155286700Y-110411800D01*
X152162500Y-109548200D02*
X152568900Y-109548200D01*
X151654500Y-111605600D02*
X153229300Y-111605600D01*
X154169100Y-112367600D02*
X155464500Y-112367600D01*
X154296100Y-112647000D02*
X155642300Y-112647000D01*
X152035500Y-112494600D02*
X153305500Y-112494600D01*
X154042100Y-111808800D02*
X155413700Y-111808800D01*
X154321500Y-112774000D02*
X155540700Y-112774000D01*
X153076900Y-109649800D02*
X154397700Y-109649800D01*
X154880300Y-109548200D02*
X155337500Y-109548200D01*
X152035500Y-111681800D02*
X153305500Y-111681800D01*
X151425900Y-110996000D02*
X153178500Y-110996000D01*
X153356300Y-109319600D02*
X154143700Y-109319600D01*
X153356300Y-109395800D02*
X154143700Y-109395800D01*
X152162500Y-113028000D02*
X152543500Y-113028000D01*
X154118300Y-111758000D02*
X155439100Y-111758000D01*
X153940500Y-110665800D02*
X155388300Y-110665800D01*
X154981900Y-113002600D02*
X155464500Y-113002600D01*
X152187900Y-109522800D02*
X152543500Y-109522800D01*
X152238700Y-112189800D02*
X153432500Y-112189800D01*
X152137100Y-111961200D02*
X153508700Y-111961200D01*
X154854900Y-109573600D02*
X155362900Y-109573600D01*
X151578300Y-110919800D02*
X153229300Y-110919800D01*
X152111700Y-111935800D02*
X153508700Y-111935800D01*
X154296100Y-110945200D02*
X156074100Y-110945200D01*
X152924500Y-112875600D02*
X153178500Y-112875600D01*
X154956500Y-112977200D02*
X155464500Y-112977200D01*
X154016700Y-110691200D02*
X155413700Y-110691200D01*
X152086300Y-112926400D02*
X152695900Y-112926400D01*
X151984700Y-109954600D02*
X155515300Y-109954600D01*
X151400500Y-111377000D02*
X153127700Y-111377000D01*
X152111700Y-111910400D02*
X153534100Y-111910400D01*
X152086300Y-111834200D02*
X153508700Y-111834200D01*
X154296100Y-111554800D02*
X155896300Y-111554800D01*
X151908500Y-109827600D02*
X155566100Y-109827600D01*
X154067500Y-110716600D02*
X155413700Y-110716600D01*
X152162500Y-112316800D02*
X153381700Y-112316800D01*
X154346900Y-111097600D02*
X156074100Y-111097600D01*
X153381700Y-109192600D02*
X154118300Y-109192600D01*
X152187900Y-112088200D02*
X153457900Y-112088200D01*
X154372300Y-112850200D02*
X154626300Y-112850200D01*
X154372300Y-111300800D02*
X156099500Y-111300800D01*
X154067500Y-112088200D02*
X155312100Y-112088200D01*
X154296100Y-112672400D02*
X155642300Y-112672400D01*
X151400500Y-111402400D02*
X153153100Y-111402400D01*
X152111700Y-112393000D02*
X153356300Y-112393000D01*
X154270700Y-112621600D02*
X155642300Y-112621600D01*
X151933900Y-112774000D02*
X153229300Y-112774000D01*
X153102300Y-112951800D02*
X153153100Y-112951800D01*
X152238700Y-112215200D02*
X153407100Y-112215200D01*
X152187900Y-112062800D02*
X153457900Y-112062800D01*
X154372300Y-112875600D02*
X154575500Y-112875600D01*
X154169100Y-110792800D02*
X155515300Y-110792800D01*
X154219900Y-112494600D02*
X155540700Y-112494600D01*
X153381700Y-109167200D02*
X154118300Y-109167200D01*
X154321500Y-110996000D02*
X156074100Y-110996000D01*
X151400500Y-111326200D02*
X153127700Y-111326200D01*
X152035500Y-110030800D02*
X155464500Y-110030800D01*
X152060900Y-110056200D02*
X155439100Y-110056200D01*
X151933900Y-109903800D02*
X155540700Y-109903800D01*
X152060900Y-112469200D02*
X153330900Y-112469200D01*
X155108900Y-113078800D02*
X155439100Y-113078800D01*
X154346900Y-111046800D02*
X156074100Y-111046800D01*
X154829500Y-112850200D02*
X155489900Y-112850200D01*
X154372300Y-111351600D02*
X156099500Y-111351600D01*
X152238700Y-110335600D02*
X155235900Y-110335600D01*
X151933900Y-109802200D02*
X155566100Y-109802200D01*
X152314900Y-113256600D02*
X152391100Y-113256600D01*
X154372300Y-111123000D02*
X156074100Y-111123000D01*
X151933900Y-111656400D02*
X153280100Y-111656400D01*
X154397700Y-112926400D02*
X154473900Y-112926400D01*
X152035500Y-112520000D02*
X153305500Y-112520000D01*
X151425900Y-111173800D02*
X153127700Y-111173800D01*
X154194500Y-112443800D02*
X155515300Y-112443800D01*
X154677100Y-109700600D02*
X155489900Y-109700600D01*
X151400500Y-111224600D02*
X153127700Y-111224600D01*
X152060900Y-111732600D02*
X153356300Y-111732600D01*
X152060900Y-111707200D02*
X153305500Y-111707200D01*
X155185100Y-113129600D02*
X155413700Y-113129600D01*
X153000700Y-112901000D02*
X153178500Y-112901000D01*
X153407100Y-109116400D02*
X154092900Y-109116400D01*
X152086300Y-111808800D02*
X153457900Y-111808800D01*
X152086300Y-111859600D02*
X153534100Y-111859600D01*
X154296100Y-111580200D02*
X155743900Y-111580200D01*
X153381700Y-109268800D02*
X154118300Y-109268800D01*
X153407100Y-109091000D02*
X154092900Y-109091000D01*
X154346900Y-112799400D02*
X155540700Y-112799400D01*
X153864300Y-110640400D02*
X155388300Y-110640400D01*
X154804100Y-109599000D02*
X155388300Y-109599000D01*
X155261300Y-113205800D02*
X155362900Y-113205800D01*
X152162500Y-110208600D02*
X155337500Y-110208600D01*
X154245300Y-111631000D02*
X155464500Y-111631000D01*
X154372300Y-111224600D02*
X156099500Y-111224600D01*
X151400500Y-111250000D02*
X153127700Y-111250000D01*
X151959300Y-109751400D02*
X152848300Y-109751400D01*
X152162500Y-112342200D02*
X153381700Y-112342200D01*
X152873700Y-109751400D02*
X155540700Y-109751400D01*
X154372300Y-111173800D02*
X156099500Y-111173800D01*
X152289500Y-113231200D02*
X152391100Y-113231200D01*
X153381700Y-109218000D02*
X154118300Y-109218000D01*
X155235900Y-113180400D02*
X155388300Y-113180400D01*
X153051500Y-112926400D02*
X153153100Y-112926400D01*
X153356300Y-109421200D02*
X154143700Y-109421200D01*
X151908500Y-112723200D02*
X153229300Y-112723200D01*
X152924500Y-109726000D02*
X154575500Y-109726000D01*
X152187900Y-110259400D02*
X155286700Y-110259400D01*
X153356300Y-109294200D02*
X154118300Y-109294200D01*
X154346900Y-112824800D02*
X154702500Y-112824800D01*
X155007300Y-113028000D02*
X155464500Y-113028000D01*
X151908500Y-112748600D02*
X153229300Y-112748600D01*
X154321500Y-112723200D02*
X155591500Y-112723200D01*
X152213300Y-112266000D02*
X153407100Y-112266000D01*
X154219900Y-110843600D02*
X155794700Y-110843600D01*
X154219900Y-112469200D02*
X155540700Y-112469200D01*
X154372300Y-112901000D02*
X154524700Y-112901000D01*
X152111700Y-110665800D02*
X153559500Y-110665800D01*
X154372300Y-111377000D02*
X156099500Y-111377000D01*
X154372300Y-111275400D02*
X156099500Y-111275400D01*
X153305500Y-109573600D02*
X154169100Y-109573600D01*
X151959300Y-112621600D02*
X153280100Y-112621600D01*
X151527500Y-111580200D02*
X153229300Y-111580200D01*
X154092900Y-110742000D02*
X155413700Y-110742000D01*
X154245300Y-112570800D02*
X155616900Y-112570800D01*
X151400500Y-111275400D02*
X153127700Y-111275400D01*
X151425900Y-111504000D02*
X153178500Y-111504000D01*
X151959300Y-112596200D02*
X153280100Y-112596200D01*
X152238700Y-112240600D02*
X153407100Y-112240600D01*
X152162500Y-112012000D02*
X153483300Y-112012000D01*
X152213300Y-112139000D02*
X153432500Y-112139000D01*
X153407100Y-109141800D02*
X154092900Y-109141800D01*
X152314900Y-109421200D02*
X152391100Y-109421200D01*
X152035500Y-109675200D02*
X152746700Y-109675200D01*
X151908500Y-109853000D02*
X155566100Y-109853000D01*
X152060900Y-112901000D02*
X152746700Y-112901000D01*
X155007300Y-109472000D02*
X155235900Y-109472000D01*
X154854900Y-112875600D02*
X155464500Y-112875600D01*
X154931100Y-109522800D02*
X155312100Y-109522800D01*
X154042100Y-112012000D02*
X155337500Y-112012000D01*
X152238700Y-110361000D02*
X155235900Y-110361000D01*
X152238700Y-110386400D02*
X155261300Y-110386400D01*
X154727900Y-109649800D02*
X155439100Y-109649800D01*
X153330900Y-109446600D02*
X154143700Y-109446600D01*
X152213300Y-112113600D02*
X153457900Y-112113600D01*
X152060900Y-111783400D02*
X153407100Y-111783400D01*
X152060900Y-110792800D02*
X153330900Y-110792800D01*
X152213300Y-113155000D02*
X152441900Y-113155000D01*
X153991300Y-111834200D02*
X155413700Y-111834200D01*
X151984700Y-112824800D02*
X153203900Y-112824800D01*
X151908500Y-112697800D02*
X153254700Y-112697800D01*
X152111700Y-112951800D02*
X152670500Y-112951800D01*
X155058100Y-113053400D02*
X155464500Y-113053400D01*
X151425900Y-110970600D02*
X153203900Y-110970600D01*
X154245300Y-110894400D02*
X156048700Y-110894400D01*
X152035500Y-110843600D02*
X153280100Y-110843600D01*
X152213300Y-110310200D02*
X155261300Y-110310200D01*
X152213300Y-110437200D02*
X155286700Y-110437200D01*
X152086300Y-110691200D02*
X153483300Y-110691200D01*
X151933900Y-109776800D02*
X155540700Y-109776800D01*
X154194500Y-112393000D02*
X155489900Y-112393000D01*
X154143700Y-112291400D02*
X155413700Y-112291400D01*
X154067500Y-112113600D02*
X155286700Y-112113600D01*
X154702500Y-109675200D02*
X155464500Y-109675200D01*
X154143700Y-110767400D02*
X155439100Y-110767400D01*
X152162500Y-110234000D02*
X155312100Y-110234000D01*
X151730700Y-110894400D02*
X153254700Y-110894400D01*
X153356300Y-109370400D02*
X154143700Y-109370400D01*
X152162500Y-113053400D02*
X152518100Y-113053400D01*
X155083500Y-109421200D02*
X155185100Y-109421200D01*
X154118300Y-112215200D02*
X155362900Y-112215200D01*
X153407100Y-109065600D02*
X154092900Y-109065600D01*
X154143700Y-112316800D02*
X155439100Y-112316800D01*
X151933900Y-109878400D02*
X155566100Y-109878400D01*
X153991300Y-111859600D02*
X155413700Y-111859600D01*
X152060900Y-110767400D02*
X153356300Y-110767400D01*
X152264100Y-109472000D02*
X152467300Y-109472000D01*
X151400500Y-111199200D02*
X153127700Y-111199200D01*
X152086300Y-109624400D02*
X152670500Y-109624400D01*
X154270700Y-111605600D02*
X155566100Y-111605600D01*
X154016700Y-111961200D02*
X155362900Y-111961200D01*
X151425900Y-111554800D02*
X153203900Y-111554800D01*
X154397700Y-112951800D02*
X154423100Y-112951800D01*
X152111700Y-110157800D02*
X155362900Y-110157800D01*
X154346900Y-111427800D02*
X156099500Y-111427800D01*
X152137100Y-110183200D02*
X155337500Y-110183200D01*
X152137100Y-111986600D02*
X153508700Y-111986600D01*
X152162500Y-113002600D02*
X152594300Y-113002600D01*
X154092900Y-111783400D02*
X155439100Y-111783400D01*
X152060900Y-110818200D02*
X153305500Y-110818200D01*
X154016700Y-111935800D02*
X155362900Y-111935800D01*
X153407100Y-109040200D02*
X154092900Y-109040200D01*
X152086300Y-110742000D02*
X153407100Y-110742000D01*
X152010100Y-110005400D02*
X155464500Y-110005400D01*
X154194500Y-111707200D02*
X155439100Y-111707200D01*
X154067500Y-112062800D02*
X155312100Y-112062800D01*
X154346900Y-111072200D02*
X156074100Y-111072200D01*
X152264100Y-113205800D02*
X152416500Y-113205800D01*
X154296100Y-110970600D02*
X156074100Y-110970600D01*
X152213300Y-110284800D02*
X155261300Y-110284800D01*
X151984700Y-109980000D02*
X155489900Y-109980000D01*
X154092900Y-112164400D02*
X155312100Y-112164400D01*
X151425900Y-111021400D02*
X153178500Y-111021400D01*
X154219900Y-111681800D02*
X155464500Y-111681800D01*
X153330900Y-109548200D02*
X154169100Y-109548200D01*
X151400500Y-111300800D02*
X153127700Y-111300800D01*
X155159700Y-113104200D02*
X155439100Y-113104200D01*
X153381700Y-109243400D02*
X154118300Y-109243400D01*
X151933900Y-112647000D02*
X153254700Y-112647000D01*
X154905700Y-112926400D02*
X155464500Y-112926400D01*
X154753300Y-112824800D02*
X155515300Y-112824800D01*
X154092900Y-112139000D02*
X155312100Y-112139000D01*
X152162500Y-110513400D02*
X155337500Y-110513400D01*
X154905700Y-112951800D02*
X155464500Y-112951800D01*
X151959300Y-112799400D02*
X153203900Y-112799400D01*
X153991300Y-111910400D02*
X155388300Y-111910400D01*
X152111700Y-110615000D02*
X155362900Y-110615000D01*
X152187900Y-113104200D02*
X152467300Y-113104200D01*
X152137100Y-109573600D02*
X152594300Y-109573600D01*
X152010100Y-109700600D02*
X152772100Y-109700600D01*
X154372300Y-111148400D02*
X156074100Y-111148400D01*
X152010100Y-112850200D02*
X153203900Y-112850200D01*
X152111700Y-110132400D02*
X155388300Y-110132400D01*
X151400500Y-111351600D02*
X153127700Y-111351600D01*
X152035500Y-112875600D02*
X152797500Y-112875600D01*
X153330900Y-109472000D02*
X154143700Y-109472000D01*
X152162500Y-113078800D02*
X152492700Y-113078800D01*
X151425900Y-111123000D02*
X153153100Y-111123000D01*
X154245300Y-110869000D02*
X155947100Y-110869000D01*
X151425900Y-111453200D02*
X153153100Y-111453200D01*
X152010100Y-112545400D02*
X153305500Y-112545400D01*
X152137100Y-112367600D02*
X153356300Y-112367600D01*
X152187900Y-110488000D02*
X155312100Y-110488000D01*
X151908500Y-112672400D02*
X153254700Y-112672400D01*
X153026100Y-109675200D02*
X154473900Y-109675200D01*
X154143700Y-111732600D02*
X155439100Y-111732600D01*
D13*
%TO.C,R2*%
X139393000Y-106635000D02*
X137107000Y-106635000D01*
X137107000Y-106635000D02*
X137107000Y-105365000D01*
X137107000Y-105365000D02*
X139393000Y-105365000D01*
X139393000Y-105365000D02*
X139393000Y-106635000D01*
%TO.C,C9*%
X159493000Y-103365000D02*
X159493000Y-104635000D01*
X157207000Y-103365000D02*
X159493000Y-103365000D01*
X157207000Y-104635000D02*
X157207000Y-103365000D01*
X159493000Y-104635000D02*
X157207000Y-104635000D01*
%TO.C,D1*%
X135350000Y-106325000D02*
X134150000Y-106325000D01*
X134150000Y-103675000D02*
X135350000Y-103675000D01*
X134150000Y-104275000D02*
X134750000Y-103675000D01*
%TO.C,C11*%
X166945000Y-97097000D02*
X168215000Y-97097000D01*
X168215000Y-99383000D02*
X166945000Y-99383000D01*
X166945000Y-99383000D02*
X166945000Y-97097000D01*
X168215000Y-97097000D02*
X168215000Y-99383000D01*
%TO.C,R6*%
X135707000Y-114135000D02*
X135707000Y-112865000D01*
X137993000Y-114135000D02*
X135707000Y-114135000D01*
X137993000Y-112865000D02*
X137993000Y-114135000D01*
X135707000Y-112865000D02*
X137993000Y-112865000D01*
%TO.C,U2*%
X131900000Y-110230000D02*
X133100000Y-110230000D01*
X131738000Y-112000000D02*
X131738000Y-111000000D01*
X133100000Y-112825000D02*
X131900000Y-112825000D01*
X133100000Y-112225000D02*
X132500000Y-112825000D01*
%TO.C,C4*%
X142762000Y-112258000D02*
X142762000Y-113274000D01*
X141238000Y-110226000D02*
X142762000Y-110226000D01*
X142762000Y-110226000D02*
X142762000Y-111242000D01*
X141238000Y-113274000D02*
X141238000Y-112258000D01*
X142762000Y-113274000D02*
X141238000Y-113274000D01*
X141238000Y-111242000D02*
X141238000Y-110226000D01*
%TO.C,R1*%
X142885000Y-106857000D02*
X142885000Y-109143000D01*
X142885000Y-109143000D02*
X141615000Y-109143000D01*
X141615000Y-109143000D02*
X141615000Y-106857000D01*
X141615000Y-106857000D02*
X142885000Y-106857000D01*
D14*
%TO.C,U5*%
X166000000Y-97950000D02*
X166000000Y-98500000D01*
X158000000Y-99250000D02*
X158000000Y-99750000D01*
X166000000Y-102500000D02*
X158000000Y-102500000D01*
X158000000Y-96500000D02*
X166000000Y-96500000D01*
X158000000Y-102500000D02*
X158000000Y-101800000D01*
X166000000Y-100500000D02*
X166000000Y-101050000D01*
X166000000Y-102500000D02*
X166000000Y-101800000D01*
X166000000Y-99250000D02*
X166000000Y-99750000D01*
X158000000Y-100500000D02*
X158000000Y-101050000D01*
X166000000Y-96500000D02*
X166000000Y-97200000D01*
X158000000Y-97200000D02*
X158000000Y-96500000D01*
X158000000Y-98500000D02*
X158000000Y-97950000D01*
D13*
%TO.C,U3*%
X156833000Y-108742000D02*
X157341000Y-108742000D01*
X156833000Y-107345000D02*
X156833000Y-111028000D01*
X162167000Y-107345000D02*
X156833000Y-107345000D01*
X156833000Y-111155000D02*
X162167000Y-111155000D01*
X157341000Y-109758000D02*
X156833000Y-109758000D01*
X156833000Y-111028000D02*
X156833000Y-111155000D01*
X162167000Y-107345000D02*
X162167000Y-111155000D01*
X157341000Y-108742000D02*
X157341000Y-109758000D01*
D12*
%TO.C,U1*%
X152000000Y-101500000D02*
X151700000Y-101500000D01*
X152000000Y-108500000D02*
X152000000Y-108200000D01*
X145000000Y-101500000D02*
X145000000Y-101800000D01*
X145000000Y-108500000D02*
X145000000Y-108200000D01*
X152000000Y-108500000D02*
X151700000Y-108500000D01*
X152000000Y-101500000D02*
X152000000Y-101800000D01*
X145000000Y-108500000D02*
X145300000Y-108500000D01*
X145000000Y-101500000D02*
X145300000Y-101500000D01*
X146107609Y-102206000D02*
G75*
G03*
X146107609Y-102206000I-401609J0D01*
G01*
D13*
%TO.C,C2*%
X127115000Y-113143000D02*
X127115000Y-110857000D01*
X128385000Y-110857000D02*
X128385000Y-113143000D01*
X128385000Y-113143000D02*
X127115000Y-113143000D01*
X127115000Y-110857000D02*
X128385000Y-110857000D01*
%TO.C,R4*%
X142107000Y-97615000D02*
X144393000Y-97615000D01*
X144393000Y-98885000D02*
X142107000Y-98885000D01*
X144393000Y-97615000D02*
X144393000Y-98885000D01*
X142107000Y-98885000D02*
X142107000Y-97615000D01*
%TO.C,C8*%
X142107000Y-100635000D02*
X142107000Y-99365000D01*
X142107000Y-99365000D02*
X144393000Y-99365000D01*
X144393000Y-99365000D02*
X144393000Y-100635000D01*
X144393000Y-100635000D02*
X142107000Y-100635000D01*
%TO.C,R5*%
X135707000Y-111365000D02*
X137993000Y-111365000D01*
X137993000Y-111365000D02*
X137993000Y-112635000D01*
X135707000Y-112635000D02*
X135707000Y-111365000D01*
X137993000Y-112635000D02*
X135707000Y-112635000D01*
%TO.C,C3*%
X139238000Y-113274000D02*
X139238000Y-112258000D01*
X140762000Y-113274000D02*
X139238000Y-113274000D01*
X139238000Y-111242000D02*
X139238000Y-110226000D01*
X139238000Y-110226000D02*
X140762000Y-110226000D01*
X140762000Y-112258000D02*
X140762000Y-113274000D01*
X140762000Y-110226000D02*
X140762000Y-111242000D01*
%TO.C,U4*%
X164841000Y-108742000D02*
X164841000Y-109758000D01*
X164333000Y-107345000D02*
X164333000Y-111028000D01*
X169667000Y-107345000D02*
X169667000Y-111155000D01*
X169667000Y-107345000D02*
X164333000Y-107345000D01*
X164333000Y-108742000D02*
X164841000Y-108742000D01*
X164841000Y-109758000D02*
X164333000Y-109758000D01*
X164333000Y-111155000D02*
X169667000Y-111155000D01*
X164333000Y-111028000D02*
X164333000Y-111155000D01*
D14*
%TO.C,X1*%
X140650000Y-101250000D02*
X141850000Y-101250000D01*
X140650000Y-102750000D02*
X141850000Y-102750000D01*
D13*
%TO.C,C12*%
X140393000Y-98885000D02*
X138107000Y-98885000D01*
X140393000Y-97615000D02*
X140393000Y-98885000D01*
X138107000Y-98885000D02*
X138107000Y-97615000D01*
X138107000Y-97615000D02*
X140393000Y-97615000D01*
D14*
%TO.C,SW1*%
X136750000Y-101750000D02*
X136750000Y-102250000D01*
X132750000Y-99250000D02*
X136750000Y-99250000D01*
X136750000Y-99250000D02*
X136750000Y-99750000D01*
X132750000Y-102250000D02*
X136750000Y-102250000D01*
X132750000Y-99250000D02*
X132750000Y-99750000D01*
X132750000Y-101750000D02*
X132750000Y-102250000D01*
D13*
%TO.C,C6*%
X139615000Y-109143000D02*
X139615000Y-106857000D01*
X140885000Y-106857000D02*
X140885000Y-109143000D01*
X140885000Y-109143000D02*
X139615000Y-109143000D01*
X139615000Y-106857000D02*
X140885000Y-106857000D01*
%TO.C,C5*%
X143393000Y-105635000D02*
X141107000Y-105635000D01*
X141107000Y-105635000D02*
X141107000Y-104365000D01*
X141107000Y-104365000D02*
X143393000Y-104365000D01*
X143393000Y-104365000D02*
X143393000Y-105635000D01*
%TO.C,C7*%
X138107000Y-99365000D02*
X140393000Y-99365000D01*
X138107000Y-100635000D02*
X138107000Y-99365000D01*
X140393000Y-100635000D02*
X138107000Y-100635000D01*
X140393000Y-99365000D02*
X140393000Y-100635000D01*
%TO.C,R7*%
X134357000Y-96865000D02*
X136643000Y-96865000D01*
X136643000Y-98135000D02*
X134357000Y-98135000D01*
X136643000Y-96865000D02*
X136643000Y-98135000D01*
X134357000Y-98135000D02*
X134357000Y-96865000D01*
D10*
%TO.C,J1*%
X129400000Y-102450000D02*
X129400000Y-103050000D01*
X129400000Y-106950000D02*
X129400000Y-107550000D01*
X125800000Y-110100000D02*
X129400000Y-110100000D01*
X125800000Y-99000000D02*
X125800000Y-99900000D01*
X129400000Y-99900000D02*
X129400000Y-100500000D01*
X125800000Y-99900000D02*
X129400000Y-99900000D01*
X129400000Y-109500000D02*
X129400000Y-110100000D01*
X125800000Y-111025000D02*
X125800000Y-110100000D01*
D13*
%TO.C,R3*%
X139393000Y-104635000D02*
X137107000Y-104635000D01*
X137107000Y-103365000D02*
X139393000Y-103365000D01*
X139393000Y-103365000D02*
X139393000Y-104635000D01*
X137107000Y-104635000D02*
X137107000Y-103365000D01*
%TD*%
M02*
