%TF.GenerationSoftware,KiCad,Pcbnew,6.0.0*%
%TF.CreationDate,2023-02-11T22:57:17+01:00*%
%TF.ProjectId,cowstick-ums,636f7773-7469-4636-9b2d-756d732e6b69,1*%
%TF.SameCoordinates,Original*%
%TF.FileFunction,Legend,Top*%
%TF.FilePolarity,Positive*%
%FSLAX46Y46*%
G04 Gerber Fmt 4.6, Leading zero omitted, Abs format (unit mm)*
G04 Created by KiCad (PCBNEW 6.0.0) date 2023-02-11 22:57:17*
%MOMM*%
%LPD*%
G01*
G04 APERTURE LIST*
%ADD10C,0.101600*%
%ADD11C,0.076200*%
%ADD12C,0.150000*%
%ADD13C,0.127000*%
%ADD14C,0.027940*%
%ADD15C,0.100000*%
G04 APERTURE END LIST*
D10*
%TO.C,D2*%
X148634714Y-98062428D02*
X147872714Y-98062428D01*
X147872714Y-97881000D01*
X147909000Y-97772142D01*
X147981571Y-97699571D01*
X148054142Y-97663285D01*
X148199285Y-97627000D01*
X148308142Y-97627000D01*
X148453285Y-97663285D01*
X148525857Y-97699571D01*
X148598428Y-97772142D01*
X148634714Y-97881000D01*
X148634714Y-98062428D01*
X147945285Y-97336714D02*
X147909000Y-97300428D01*
X147872714Y-97227857D01*
X147872714Y-97046428D01*
X147909000Y-96973857D01*
X147945285Y-96937571D01*
X148017857Y-96901285D01*
X148090428Y-96901285D01*
X148199285Y-96937571D01*
X148634714Y-97373000D01*
X148634714Y-96901285D01*
D11*
%TO.C,U2*%
X132149428Y-109712714D02*
X132149428Y-110329571D01*
X132185714Y-110402142D01*
X132222000Y-110438428D01*
X132294571Y-110474714D01*
X132439714Y-110474714D01*
X132512285Y-110438428D01*
X132548571Y-110402142D01*
X132584857Y-110329571D01*
X132584857Y-109712714D01*
X132911428Y-109785285D02*
X132947714Y-109749000D01*
X133020285Y-109712714D01*
X133201714Y-109712714D01*
X133274285Y-109749000D01*
X133310571Y-109785285D01*
X133346857Y-109857857D01*
X133346857Y-109930428D01*
X133310571Y-110039285D01*
X132875142Y-110474714D01*
X133346857Y-110474714D01*
D10*
%TO.C,L1*%
X136873000Y-110094714D02*
X136510142Y-110094714D01*
X136510142Y-109332714D01*
X137526142Y-110094714D02*
X137090714Y-110094714D01*
X137308428Y-110094714D02*
X137308428Y-109332714D01*
X137235857Y-109441571D01*
X137163285Y-109514142D01*
X137090714Y-109550428D01*
%TO.C,R2*%
X137063000Y-107664714D02*
X136809000Y-107301857D01*
X136627571Y-107664714D02*
X136627571Y-106902714D01*
X136917857Y-106902714D01*
X136990428Y-106939000D01*
X137026714Y-106975285D01*
X137063000Y-107047857D01*
X137063000Y-107156714D01*
X137026714Y-107229285D01*
X136990428Y-107265571D01*
X136917857Y-107301857D01*
X136627571Y-107301857D01*
X137353285Y-106975285D02*
X137389571Y-106939000D01*
X137462142Y-106902714D01*
X137643571Y-106902714D01*
X137716142Y-106939000D01*
X137752428Y-106975285D01*
X137788714Y-107047857D01*
X137788714Y-107120428D01*
X137752428Y-107229285D01*
X137317000Y-107664714D01*
X137788714Y-107664714D01*
D11*
%TO.C,D1*%
X134187571Y-107343694D02*
X134187571Y-106581694D01*
X134369000Y-106581694D01*
X134477857Y-106617980D01*
X134550428Y-106690551D01*
X134586714Y-106763122D01*
X134623000Y-106908265D01*
X134623000Y-107017122D01*
X134586714Y-107162265D01*
X134550428Y-107234837D01*
X134477857Y-107307408D01*
X134369000Y-107343694D01*
X134187571Y-107343694D01*
X135348714Y-107343694D02*
X134913285Y-107343694D01*
X135131000Y-107343694D02*
X135131000Y-106581694D01*
X135058428Y-106690551D01*
X134985857Y-106763122D01*
X134913285Y-106799408D01*
D10*
%TO.C,C11*%
X168702142Y-101059857D02*
X168738428Y-101096142D01*
X168774714Y-101205000D01*
X168774714Y-101277571D01*
X168738428Y-101386428D01*
X168665857Y-101459000D01*
X168593285Y-101495285D01*
X168448142Y-101531571D01*
X168339285Y-101531571D01*
X168194142Y-101495285D01*
X168121571Y-101459000D01*
X168049000Y-101386428D01*
X168012714Y-101277571D01*
X168012714Y-101205000D01*
X168049000Y-101096142D01*
X168085285Y-101059857D01*
X168774714Y-100334142D02*
X168774714Y-100769571D01*
X168774714Y-100551857D02*
X168012714Y-100551857D01*
X168121571Y-100624428D01*
X168194142Y-100697000D01*
X168230428Y-100769571D01*
X168774714Y-99608428D02*
X168774714Y-100043857D01*
X168774714Y-99826142D02*
X168012714Y-99826142D01*
X168121571Y-99898714D01*
X168194142Y-99971285D01*
X168230428Y-100043857D01*
%TO.C,R1*%
X139034714Y-107637000D02*
X138671857Y-107891000D01*
X139034714Y-108072428D02*
X138272714Y-108072428D01*
X138272714Y-107782142D01*
X138309000Y-107709571D01*
X138345285Y-107673285D01*
X138417857Y-107637000D01*
X138526714Y-107637000D01*
X138599285Y-107673285D01*
X138635571Y-107709571D01*
X138671857Y-107782142D01*
X138671857Y-108072428D01*
X139034714Y-106911285D02*
X139034714Y-107346714D01*
X139034714Y-107129000D02*
X138272714Y-107129000D01*
X138381571Y-107201571D01*
X138454142Y-107274142D01*
X138490428Y-107346714D01*
%TO.C,U5*%
X156482714Y-100710571D02*
X157099571Y-100710571D01*
X157172142Y-100674285D01*
X157208428Y-100638000D01*
X157244714Y-100565428D01*
X157244714Y-100420285D01*
X157208428Y-100347714D01*
X157172142Y-100311428D01*
X157099571Y-100275142D01*
X156482714Y-100275142D01*
X156482714Y-99549428D02*
X156482714Y-99912285D01*
X156845571Y-99948571D01*
X156809285Y-99912285D01*
X156773000Y-99839714D01*
X156773000Y-99658285D01*
X156809285Y-99585714D01*
X156845571Y-99549428D01*
X156918142Y-99513142D01*
X157099571Y-99513142D01*
X157172142Y-99549428D01*
X157208428Y-99585714D01*
X157244714Y-99658285D01*
X157244714Y-99839714D01*
X157208428Y-99912285D01*
X157172142Y-99948571D01*
%TO.C,U3*%
X162282714Y-112830571D02*
X162899571Y-112830571D01*
X162972142Y-112794285D01*
X163008428Y-112758000D01*
X163044714Y-112685428D01*
X163044714Y-112540285D01*
X163008428Y-112467714D01*
X162972142Y-112431428D01*
X162899571Y-112395142D01*
X162282714Y-112395142D01*
X162282714Y-112104857D02*
X162282714Y-111633142D01*
X162573000Y-111887142D01*
X162573000Y-111778285D01*
X162609285Y-111705714D01*
X162645571Y-111669428D01*
X162718142Y-111633142D01*
X162899571Y-111633142D01*
X162972142Y-111669428D01*
X163008428Y-111705714D01*
X163044714Y-111778285D01*
X163044714Y-111996000D01*
X163008428Y-112068571D01*
X162972142Y-112104857D01*
%TO.C,U1*%
X149379428Y-98912714D02*
X149379428Y-99529571D01*
X149415714Y-99602142D01*
X149452000Y-99638428D01*
X149524571Y-99674714D01*
X149669714Y-99674714D01*
X149742285Y-99638428D01*
X149778571Y-99602142D01*
X149814857Y-99529571D01*
X149814857Y-98912714D01*
X150576857Y-99674714D02*
X150141428Y-99674714D01*
X150359142Y-99674714D02*
X150359142Y-98912714D01*
X150286571Y-99021571D01*
X150214000Y-99094142D01*
X150141428Y-99130428D01*
%TO.C,R4*%
X141363000Y-98834714D02*
X141109000Y-98471857D01*
X140927571Y-98834714D02*
X140927571Y-98072714D01*
X141217857Y-98072714D01*
X141290428Y-98109000D01*
X141326714Y-98145285D01*
X141363000Y-98217857D01*
X141363000Y-98326714D01*
X141326714Y-98399285D01*
X141290428Y-98435571D01*
X141217857Y-98471857D01*
X140927571Y-98471857D01*
X142016142Y-98326714D02*
X142016142Y-98834714D01*
X141834714Y-98036428D02*
X141653285Y-98580714D01*
X142125000Y-98580714D01*
%TO.C,C8*%
X143123000Y-99022142D02*
X143086714Y-99058428D01*
X142977857Y-99094714D01*
X142905285Y-99094714D01*
X142796428Y-99058428D01*
X142723857Y-98985857D01*
X142687571Y-98913285D01*
X142651285Y-98768142D01*
X142651285Y-98659285D01*
X142687571Y-98514142D01*
X142723857Y-98441571D01*
X142796428Y-98369000D01*
X142905285Y-98332714D01*
X142977857Y-98332714D01*
X143086714Y-98369000D01*
X143123000Y-98405285D01*
X143558428Y-98659285D02*
X143485857Y-98623000D01*
X143449571Y-98586714D01*
X143413285Y-98514142D01*
X143413285Y-98477857D01*
X143449571Y-98405285D01*
X143485857Y-98369000D01*
X143558428Y-98332714D01*
X143703571Y-98332714D01*
X143776142Y-98369000D01*
X143812428Y-98405285D01*
X143848714Y-98477857D01*
X143848714Y-98514142D01*
X143812428Y-98586714D01*
X143776142Y-98623000D01*
X143703571Y-98659285D01*
X143558428Y-98659285D01*
X143485857Y-98695571D01*
X143449571Y-98731857D01*
X143413285Y-98804428D01*
X143413285Y-98949571D01*
X143449571Y-99022142D01*
X143485857Y-99058428D01*
X143558428Y-99094714D01*
X143703571Y-99094714D01*
X143776142Y-99058428D01*
X143812428Y-99022142D01*
X143848714Y-98949571D01*
X143848714Y-98804428D01*
X143812428Y-98731857D01*
X143776142Y-98695571D01*
X143703571Y-98659285D01*
D12*
%TO.C,J1*%
X128246666Y-98402380D02*
X128246666Y-99116666D01*
X128199047Y-99259523D01*
X128103809Y-99354761D01*
X127960952Y-99402380D01*
X127865714Y-99402380D01*
X129246666Y-99402380D02*
X128675238Y-99402380D01*
X128960952Y-99402380D02*
X128960952Y-98402380D01*
X128865714Y-98545238D01*
X128770476Y-98640476D01*
X128675238Y-98688095D01*
D10*
%TO.C,U4*%
X163482714Y-112830571D02*
X164099571Y-112830571D01*
X164172142Y-112794285D01*
X164208428Y-112758000D01*
X164244714Y-112685428D01*
X164244714Y-112540285D01*
X164208428Y-112467714D01*
X164172142Y-112431428D01*
X164099571Y-112395142D01*
X163482714Y-112395142D01*
X163736714Y-111705714D02*
X164244714Y-111705714D01*
X163446428Y-111887142D02*
X163990714Y-112068571D01*
X163990714Y-111596857D01*
%TO.C,X1*%
X137783142Y-101832714D02*
X138291142Y-102594714D01*
X138291142Y-101832714D02*
X137783142Y-102594714D01*
X138980571Y-102594714D02*
X138545142Y-102594714D01*
X138762857Y-102594714D02*
X138762857Y-101832714D01*
X138690285Y-101941571D01*
X138617714Y-102014142D01*
X138545142Y-102050428D01*
%TO.C,C6*%
X143062142Y-108127000D02*
X143098428Y-108163285D01*
X143134714Y-108272142D01*
X143134714Y-108344714D01*
X143098428Y-108453571D01*
X143025857Y-108526142D01*
X142953285Y-108562428D01*
X142808142Y-108598714D01*
X142699285Y-108598714D01*
X142554142Y-108562428D01*
X142481571Y-108526142D01*
X142409000Y-108453571D01*
X142372714Y-108344714D01*
X142372714Y-108272142D01*
X142409000Y-108163285D01*
X142445285Y-108127000D01*
X142372714Y-107473857D02*
X142372714Y-107619000D01*
X142409000Y-107691571D01*
X142445285Y-107727857D01*
X142554142Y-107800428D01*
X142699285Y-107836714D01*
X142989571Y-107836714D01*
X143062142Y-107800428D01*
X143098428Y-107764142D01*
X143134714Y-107691571D01*
X143134714Y-107546428D01*
X143098428Y-107473857D01*
X143062142Y-107437571D01*
X142989571Y-107401285D01*
X142808142Y-107401285D01*
X142735571Y-107437571D01*
X142699285Y-107473857D01*
X142663000Y-107546428D01*
X142663000Y-107691571D01*
X142699285Y-107764142D01*
X142735571Y-107800428D01*
X142808142Y-107836714D01*
%TO.C,C5*%
X140113000Y-105282142D02*
X140076714Y-105318428D01*
X139967857Y-105354714D01*
X139895285Y-105354714D01*
X139786428Y-105318428D01*
X139713857Y-105245857D01*
X139677571Y-105173285D01*
X139641285Y-105028142D01*
X139641285Y-104919285D01*
X139677571Y-104774142D01*
X139713857Y-104701571D01*
X139786428Y-104629000D01*
X139895285Y-104592714D01*
X139967857Y-104592714D01*
X140076714Y-104629000D01*
X140113000Y-104665285D01*
X140802428Y-104592714D02*
X140439571Y-104592714D01*
X140403285Y-104955571D01*
X140439571Y-104919285D01*
X140512142Y-104883000D01*
X140693571Y-104883000D01*
X140766142Y-104919285D01*
X140802428Y-104955571D01*
X140838714Y-105028142D01*
X140838714Y-105209571D01*
X140802428Y-105282142D01*
X140766142Y-105318428D01*
X140693571Y-105354714D01*
X140512142Y-105354714D01*
X140439571Y-105318428D01*
X140403285Y-105282142D01*
%TO.C,C7*%
X139123000Y-99022142D02*
X139086714Y-99058428D01*
X138977857Y-99094714D01*
X138905285Y-99094714D01*
X138796428Y-99058428D01*
X138723857Y-98985857D01*
X138687571Y-98913285D01*
X138651285Y-98768142D01*
X138651285Y-98659285D01*
X138687571Y-98514142D01*
X138723857Y-98441571D01*
X138796428Y-98369000D01*
X138905285Y-98332714D01*
X138977857Y-98332714D01*
X139086714Y-98369000D01*
X139123000Y-98405285D01*
X139377000Y-98332714D02*
X139885000Y-98332714D01*
X139558428Y-99094714D01*
%TO.C,R3*%
X136703000Y-103134714D02*
X136449000Y-102771857D01*
X136267571Y-103134714D02*
X136267571Y-102372714D01*
X136557857Y-102372714D01*
X136630428Y-102409000D01*
X136666714Y-102445285D01*
X136703000Y-102517857D01*
X136703000Y-102626714D01*
X136666714Y-102699285D01*
X136630428Y-102735571D01*
X136557857Y-102771857D01*
X136267571Y-102771857D01*
X136957000Y-102372714D02*
X137428714Y-102372714D01*
X137174714Y-102663000D01*
X137283571Y-102663000D01*
X137356142Y-102699285D01*
X137392428Y-102735571D01*
X137428714Y-102808142D01*
X137428714Y-102989571D01*
X137392428Y-103062142D01*
X137356142Y-103098428D01*
X137283571Y-103134714D01*
X137065857Y-103134714D01*
X136993285Y-103098428D01*
X136957000Y-103062142D01*
D13*
%TO.C,C1*%
X128738000Y-110476000D02*
X130262000Y-110476000D01*
X130262000Y-110476000D02*
X130262000Y-111492000D01*
X128738000Y-113524000D02*
X128738000Y-112508000D01*
X130262000Y-113524000D02*
X128738000Y-113524000D01*
X128738000Y-111492000D02*
X128738000Y-110476000D01*
X130262000Y-112508000D02*
X130262000Y-113524000D01*
%TO.C,C10*%
X162665000Y-103607000D02*
X163935000Y-103607000D01*
X163935000Y-105893000D02*
X162665000Y-105893000D01*
X163935000Y-103607000D02*
X163935000Y-105893000D01*
X162665000Y-105893000D02*
X162665000Y-103607000D01*
%TO.C,D2*%
X146508000Y-96738000D02*
X147524000Y-96738000D01*
X144476000Y-98262000D02*
X144476000Y-96738000D01*
X145492000Y-98262000D02*
X144476000Y-98262000D01*
X144476000Y-96738000D02*
X145492000Y-96738000D01*
X147524000Y-96738000D02*
X147524000Y-98262000D01*
X147524000Y-98262000D02*
X146508000Y-98262000D01*
%TO.C,U2*%
X132150000Y-110675000D02*
X133350000Y-110675000D01*
X133512000Y-111500000D02*
X133512000Y-112500000D01*
X132150000Y-111275000D02*
X132750000Y-110675000D01*
X133350000Y-113270000D02*
X132150000Y-113270000D01*
D14*
%TO.C,agilack-11.5*%
X154059120Y-101936760D02*
X154059120Y-101301760D01*
X154414720Y-104857760D02*
X154414720Y-104603760D01*
X154135320Y-100844560D02*
X154135320Y-100590560D01*
X154668720Y-103384560D02*
X154668720Y-103130560D01*
X155354520Y-106153160D02*
X155354520Y-105264160D01*
X154440120Y-100844560D02*
X154440120Y-100590560D01*
X154287720Y-102241560D02*
X154287720Y-101784360D01*
X155252920Y-108058160D02*
X155252920Y-106915160D01*
X155252920Y-102724160D02*
X155252920Y-102419360D01*
X155075120Y-104425960D02*
X155075120Y-104171960D01*
X154287720Y-110877560D02*
X154287720Y-109378960D01*
X154744920Y-107016760D02*
X154744920Y-106635760D01*
X154490920Y-102978160D02*
X154490920Y-102698760D01*
X154059120Y-107473960D02*
X154059120Y-106991360D01*
X154744920Y-100844560D02*
X154744920Y-100260360D01*
X155430720Y-106000760D02*
X155430720Y-105416560D01*
X154668720Y-109455160D02*
X154668720Y-109429760D01*
X154287720Y-106305560D02*
X154287720Y-105264160D01*
X155379920Y-102012960D02*
X155379920Y-101250960D01*
X154490920Y-110877560D02*
X154490920Y-110191760D01*
X154516320Y-109455160D02*
X154516320Y-109251960D01*
X155024320Y-109632960D02*
X155024320Y-108820160D01*
X154592520Y-103359160D02*
X154592520Y-103105160D01*
X155100520Y-111131560D02*
X155100520Y-110953760D01*
X154871920Y-109480560D02*
X154871920Y-108820160D01*
X154186120Y-111131560D02*
X154186120Y-110953760D01*
X154744920Y-107804160D02*
X154744920Y-107448560D01*
X155049720Y-100844560D02*
X155049720Y-100590560D01*
X154948120Y-107905760D02*
X154948120Y-107524760D01*
X155202120Y-110725160D02*
X155202120Y-110547360D01*
X154719520Y-102368560D02*
X154719520Y-102089160D01*
X154948120Y-111131560D02*
X154948120Y-110953760D01*
X154821120Y-106432560D02*
X154821120Y-106153160D01*
X154363920Y-109302760D02*
X154363920Y-109099560D01*
X153982920Y-111131560D02*
X153982920Y-110826760D01*
X154592520Y-107092960D02*
X154592520Y-106711960D01*
X154795720Y-104857760D02*
X154795720Y-104603760D01*
X153957520Y-107423160D02*
X153957520Y-107042160D01*
X154795720Y-106432560D02*
X154795720Y-106153160D01*
X154465520Y-100844560D02*
X154465520Y-100590560D01*
X155075120Y-102317760D02*
X155075120Y-101936760D01*
X154770320Y-106991360D02*
X154770320Y-106635760D01*
X154313120Y-107219960D02*
X154313120Y-106864360D01*
X154465520Y-102343160D02*
X154465520Y-102012960D01*
X154897320Y-103486160D02*
X154897320Y-102571760D01*
X155049720Y-102317760D02*
X155049720Y-101962160D01*
X154592520Y-111131560D02*
X154592520Y-110953760D01*
X155176720Y-103587760D02*
X155176720Y-103308360D01*
X153982920Y-108896360D02*
X153982920Y-108820160D01*
X154770320Y-107829560D02*
X154770320Y-107448560D01*
X154033720Y-104857760D02*
X154033720Y-104603760D01*
X154846520Y-109455160D02*
X154846520Y-108820160D01*
X154567120Y-100539760D02*
X154567120Y-100209560D01*
X154998920Y-100844560D02*
X154998920Y-100590560D01*
X155405320Y-104857760D02*
X155405320Y-104603760D01*
X154490920Y-106407160D02*
X154490920Y-106102360D01*
X154109920Y-110877560D02*
X154109920Y-109201160D01*
X155151320Y-100844560D02*
X155151320Y-100590560D01*
X155151320Y-111131560D02*
X155151320Y-110953760D01*
X155278320Y-104857760D02*
X155278320Y-104603760D01*
X155481520Y-106635760D02*
X155481520Y-106280160D01*
X154719520Y-111131560D02*
X154719520Y-110953760D01*
X154694120Y-103409960D02*
X154694120Y-103130560D01*
X154414720Y-100387360D02*
X154414720Y-100057160D01*
X154313120Y-102266960D02*
X154313120Y-101835160D01*
X155100520Y-104425960D02*
X155100520Y-104171960D01*
X155278320Y-102698760D02*
X155278320Y-102419360D01*
X155379920Y-104857760D02*
X155379920Y-104603760D01*
X154186120Y-104425960D02*
X154186120Y-104171960D01*
X154338520Y-100844560D02*
X154338520Y-100590560D01*
X154109920Y-109048760D02*
X154109920Y-108820160D01*
X154186120Y-106203960D02*
X154186120Y-105213360D01*
X153932120Y-111080760D02*
X153932120Y-110775960D01*
X154694120Y-107042160D02*
X154694120Y-106661160D01*
X154567120Y-104425960D02*
X154567120Y-104171960D01*
X154617920Y-109455160D02*
X154617920Y-109378960D01*
X154567120Y-102368560D02*
X154567120Y-102063760D01*
X154160720Y-107524760D02*
X154160720Y-106940560D01*
X155024320Y-110547360D02*
X155024320Y-110369560D01*
X155075120Y-102774960D02*
X155075120Y-102495560D01*
X154948120Y-109556760D02*
X154948120Y-108820160D01*
X155049720Y-100336560D02*
X155049720Y-100006360D01*
X154948120Y-106915160D02*
X154948120Y-106534160D01*
X154617920Y-102368560D02*
X154617920Y-102089160D01*
X155354520Y-100844560D02*
X155354520Y-100590560D01*
X154084520Y-110852160D02*
X154084520Y-109175760D01*
X154770320Y-106432560D02*
X154770320Y-106153160D01*
X154262320Y-103232160D02*
X154262320Y-102800360D01*
X153779720Y-110928360D02*
X153779720Y-110623560D01*
X155176720Y-110369560D02*
X155176720Y-108820160D01*
X155125920Y-104857760D02*
X155125920Y-104603760D01*
X155049720Y-110572760D02*
X155049720Y-110394960D01*
X155405320Y-101936760D02*
X155405320Y-101327160D01*
X153754320Y-107321560D02*
X153754320Y-107143760D01*
X155125920Y-102266960D02*
X155125920Y-101885960D01*
X154389320Y-107194560D02*
X154389320Y-106838960D01*
X155202120Y-106788160D02*
X155202120Y-106407160D01*
X154440120Y-104425960D02*
X154440120Y-104171960D01*
X154998920Y-110191760D02*
X154998920Y-110115560D01*
X155405320Y-110877560D02*
X155405320Y-110750560D01*
X154922720Y-105416560D02*
X154922720Y-105162560D01*
X154719520Y-105797560D02*
X154719520Y-105162560D01*
X154948120Y-103486160D02*
X154948120Y-102546360D01*
X155278320Y-100158760D02*
X155278320Y-99777760D01*
X154643320Y-107753360D02*
X154643320Y-107397760D01*
X154567120Y-104857760D02*
X154567120Y-104603760D01*
X153855920Y-110623560D02*
X153855920Y-108947160D01*
X154770320Y-110293360D02*
X154770320Y-110242560D01*
X154846520Y-110369560D02*
X154846520Y-110242560D01*
X154008320Y-111131560D02*
X154008320Y-110850000D01*
X155024320Y-100844560D02*
X155024320Y-100590560D01*
X154770320Y-103435360D02*
X154770320Y-103155960D01*
X155379920Y-100844560D02*
X155379920Y-100590560D01*
X155049720Y-107956560D02*
X155049720Y-107016760D01*
X154770320Y-111131560D02*
X154770320Y-110953760D01*
X155481520Y-110877560D02*
X155481520Y-110826760D01*
X154465520Y-109937760D02*
X154465520Y-109759960D01*
X154617920Y-107753360D02*
X154617920Y-107372360D01*
X154084520Y-103181360D02*
X154084520Y-102851160D01*
X155100520Y-106356360D02*
X155100520Y-106000760D01*
X154135320Y-109074160D02*
X154135320Y-108870960D01*
X154871920Y-106432560D02*
X154871920Y-106153160D01*
X154744920Y-102901960D02*
X154744920Y-102622560D01*
X154059120Y-105924560D02*
X154059120Y-105492760D01*
X154236920Y-100844560D02*
X154236920Y-100590560D01*
X154490920Y-109099560D02*
X154490920Y-108820160D01*
X155227520Y-102724160D02*
X155227520Y-102444760D01*
X154643320Y-104425960D02*
X154643320Y-104171960D01*
X154363920Y-100361960D02*
X154363920Y-100006360D01*
X154998920Y-107931160D02*
X154998920Y-107550160D01*
X154465520Y-106407160D02*
X154465520Y-106076960D01*
X154617920Y-103384560D02*
X154617920Y-103105160D01*
X154186120Y-109124960D02*
X154186120Y-108921760D01*
X155303720Y-104857760D02*
X155303720Y-104603760D01*
X155481520Y-110674360D02*
X155481520Y-108997960D01*
X155202120Y-104857760D02*
X155202120Y-104603760D01*
X154871920Y-100844560D02*
X154871920Y-100590560D01*
X155557720Y-106610360D02*
X155557720Y-106229360D01*
X155100520Y-100844560D02*
X155100520Y-100590560D01*
X154059120Y-108997960D02*
X154059120Y-108820160D01*
X154160720Y-102114560D02*
X154160720Y-101200160D01*
X155354520Y-100082560D02*
X155354520Y-99726960D01*
X154948120Y-110471160D02*
X154948120Y-110293360D01*
X155252920Y-100844560D02*
X155252920Y-100590560D01*
X154795720Y-106991360D02*
X154795720Y-106610360D01*
X154440120Y-109582160D02*
X154440120Y-109531360D01*
X154363920Y-108972560D02*
X154363920Y-108820160D01*
X154465520Y-104425960D02*
X154465520Y-104171960D01*
X154211520Y-102190760D02*
X154211520Y-101225560D01*
X153551120Y-110699760D02*
X153551120Y-108972560D01*
X154059120Y-104425960D02*
X154059120Y-104171960D01*
X154795720Y-109404360D02*
X154795720Y-108820160D01*
X154744920Y-109353560D02*
X154744920Y-108820160D01*
X155202120Y-104425960D02*
X155202120Y-103308360D01*
X155887920Y-106432560D02*
X155887920Y-106051560D01*
X154516320Y-102978160D02*
X154516320Y-102698760D01*
X154694120Y-109302760D02*
X154694120Y-108820160D01*
X154465520Y-111131560D02*
X154465520Y-110953760D01*
X154567120Y-107727960D02*
X154567120Y-107346960D01*
X154414720Y-107169160D02*
X154414720Y-106813560D01*
X154592520Y-104857760D02*
X154592520Y-104603760D01*
X155075120Y-109709160D02*
X155075120Y-108820160D01*
X155075120Y-105416560D02*
X155075120Y-105162560D01*
X154795720Y-110877560D02*
X154795720Y-110496560D01*
X154414720Y-102317760D02*
X154414720Y-101987560D01*
X154973520Y-110877560D02*
X154973520Y-110648960D01*
X155710120Y-110877560D02*
X155710120Y-109226560D01*
X154821120Y-100844560D02*
X154821120Y-100590560D01*
X154059120Y-104857760D02*
X154059120Y-104603760D01*
X154719520Y-109328160D02*
X154719520Y-108820160D01*
X153678120Y-110826760D02*
X153678120Y-110521960D01*
X155202120Y-102749560D02*
X155202120Y-102444760D01*
X155862520Y-106457960D02*
X155862520Y-106076960D01*
X154541720Y-107118360D02*
X154541720Y-106737360D01*
X154363920Y-104857760D02*
X154363920Y-104603760D01*
X154186120Y-100844560D02*
X154186120Y-100590560D01*
X154160720Y-106153160D02*
X154160720Y-105238760D01*
X155532320Y-108362960D02*
X155532320Y-106889760D01*
X154440120Y-111131560D02*
X154440120Y-110953760D01*
X154897320Y-104425960D02*
X154897320Y-104171960D01*
X155125920Y-110648960D02*
X155125920Y-110471160D01*
X154922720Y-110013960D02*
X154922720Y-109709160D01*
X154414720Y-109353560D02*
X154414720Y-109150360D01*
X155303720Y-106737360D02*
X155303720Y-106356360D01*
X155608520Y-108362960D02*
X155608520Y-106889760D01*
X154490920Y-107677160D02*
X154490920Y-107321560D01*
X154846520Y-110877560D02*
X154846520Y-110547360D01*
X154363920Y-102292360D02*
X154363920Y-101936760D01*
X154313120Y-107600960D02*
X154313120Y-107245360D01*
X155151320Y-100260360D02*
X155151320Y-99904760D01*
X154948120Y-100844560D02*
X154948120Y-100590560D01*
X154668720Y-109277360D02*
X154668720Y-108820160D01*
X155151320Y-104857760D02*
X155151320Y-104603760D01*
X154414720Y-110877560D02*
X154414720Y-110115560D01*
X154592520Y-109201160D02*
X154592520Y-108820160D01*
X154338520Y-107600960D02*
X154338520Y-107245360D01*
X153576520Y-110725160D02*
X153576520Y-108972560D01*
X154973520Y-106889760D02*
X154973520Y-106534160D01*
X154922720Y-109531360D02*
X154922720Y-108820160D01*
X154338520Y-110877560D02*
X154338520Y-109963160D01*
X154338520Y-105441960D02*
X154338520Y-105289560D01*
X154795720Y-103435360D02*
X154795720Y-103181360D01*
X155506920Y-110699760D02*
X155506920Y-109023360D01*
X155125920Y-106356360D02*
X155125920Y-105975360D01*
X154897320Y-104857760D02*
X154897320Y-104603760D01*
X154973520Y-106407160D02*
X154973520Y-106102360D01*
X154617920Y-106432560D02*
X154617920Y-106153160D01*
X154465520Y-107143760D02*
X154465520Y-106788160D01*
X155049720Y-106381760D02*
X155049720Y-106051560D01*
X154313120Y-110877560D02*
X154313120Y-109404360D01*
X154922720Y-103486160D02*
X154922720Y-102546360D01*
X153703520Y-110852160D02*
X153703520Y-110547360D01*
X154998920Y-109582160D02*
X154998920Y-108820160D01*
X153779720Y-110547360D02*
X153779720Y-108870960D01*
X154465520Y-109404360D02*
X154465520Y-109201160D01*
X154998920Y-110877560D02*
X154998920Y-110674360D01*
X153906720Y-107397760D02*
X153906720Y-107067560D01*
X154846520Y-111131560D02*
X154846520Y-110953760D01*
X154313120Y-100844560D02*
X154313120Y-100590560D01*
X154414720Y-109023360D02*
X154414720Y-108820160D01*
X153525720Y-110674360D02*
X153525720Y-108972560D01*
X154617920Y-104857760D02*
X154617920Y-104603760D01*
X154567120Y-109175760D02*
X154567120Y-108820160D01*
X155049720Y-109658360D02*
X155049720Y-108820160D01*
X155075120Y-110877560D02*
X155075120Y-110750560D01*
X154440120Y-102343160D02*
X154440120Y-102012960D01*
X154389320Y-105340360D02*
X154389320Y-105314960D01*
X154211520Y-100209560D02*
X154211520Y-99879360D01*
X155024320Y-100361960D02*
X155024320Y-100006360D01*
X154846520Y-105797560D02*
X154846520Y-105162560D01*
X155151320Y-108007360D02*
X155151320Y-106965960D01*
X155329120Y-111131560D02*
X155329120Y-111004560D01*
X154973520Y-100844560D02*
X154973520Y-100590560D01*
X154262320Y-107575560D02*
X154262320Y-106889760D01*
X154719520Y-104857760D02*
X154719520Y-104603760D01*
X154541720Y-109455160D02*
X154541720Y-109277360D01*
X154211520Y-100844560D02*
X154211520Y-100590560D01*
X155329120Y-104425960D02*
X155329120Y-103359160D01*
X154973520Y-104857760D02*
X154973520Y-104603760D01*
X154338520Y-108947160D02*
X154338520Y-108820160D01*
X155557720Y-108362960D02*
X155557720Y-106889760D01*
X155227520Y-100844560D02*
X155227520Y-100590560D01*
X154922720Y-111131560D02*
X154922720Y-110953760D01*
X154414720Y-111131560D02*
X154414720Y-110953760D01*
X154236920Y-103232160D02*
X154236920Y-102800360D01*
X155049720Y-110877560D02*
X155049720Y-110725160D01*
X155176720Y-110699760D02*
X155176720Y-110521960D01*
X154236920Y-102216160D02*
X154236920Y-101250960D01*
X154795720Y-107829560D02*
X154795720Y-107448560D01*
X154770320Y-102876560D02*
X154770320Y-102597160D01*
X155125920Y-103562360D02*
X155125920Y-103282960D01*
X154033720Y-103155960D02*
X154033720Y-102876560D01*
X154516320Y-110877560D02*
X154516320Y-110217160D01*
X155176720Y-106330960D02*
X155176720Y-105899160D01*
X154897320Y-110039360D02*
X154897320Y-109658360D01*
X154363920Y-107194560D02*
X154363920Y-106838960D01*
X154719520Y-110090160D02*
X154719520Y-109607560D01*
X154389320Y-100387360D02*
X154389320Y-100031760D01*
X154414720Y-103003560D02*
X154414720Y-102724160D01*
X154973520Y-103511560D02*
X154973520Y-102520960D01*
X154211520Y-106229360D02*
X154211520Y-105213360D01*
X155354520Y-104857760D02*
X155354520Y-104603760D01*
X154897320Y-102368560D02*
X154897320Y-102063760D01*
X154262320Y-100844560D02*
X154262320Y-100590560D01*
X155405320Y-106076960D02*
X155405320Y-105340360D01*
X155024320Y-110877560D02*
X155024320Y-110699760D01*
X154871920Y-107880360D02*
X154871920Y-107499360D01*
X153754320Y-110902960D02*
X153754320Y-110598160D01*
X154922720Y-110877560D02*
X154922720Y-110623560D01*
X155659320Y-110877560D02*
X155659320Y-109175760D01*
X154592520Y-109455160D02*
X154592520Y-109353560D01*
X155710120Y-106534160D02*
X155710120Y-106153160D01*
X154998920Y-103511560D02*
X154998920Y-102520960D01*
X154770320Y-109378960D02*
X154770320Y-108820160D01*
X154871920Y-110064760D02*
X154871920Y-109658360D01*
X154338520Y-109277360D02*
X154338520Y-109074160D01*
X154592520Y-102368560D02*
X154592520Y-102089160D01*
X154897320Y-100844560D02*
X154897320Y-100590560D01*
X155354520Y-111131560D02*
X155354520Y-111029960D01*
X154998920Y-106889760D02*
X154998920Y-106508760D01*
X154770320Y-110090160D02*
X154770320Y-109607560D01*
X154617920Y-102927360D02*
X154617920Y-102673360D01*
X154186120Y-107524760D02*
X154186120Y-106940560D01*
X154948120Y-102343160D02*
X154948120Y-102038360D01*
X154973520Y-104425960D02*
X154973520Y-104171960D01*
X153754320Y-110521960D02*
X153754320Y-108820160D01*
X154363920Y-100844560D02*
X154363920Y-100590560D01*
X154059120Y-100082560D02*
X154059120Y-99726960D01*
X155202120Y-105543560D02*
X155202120Y-105162560D01*
X154643320Y-107067560D02*
X154643320Y-106686560D01*
X155303720Y-111131560D02*
X155303720Y-110979160D01*
X154821120Y-110344160D02*
X154821120Y-110242560D01*
X154313120Y-108921760D02*
X154313120Y-108820160D01*
X154160720Y-100184160D02*
X154160720Y-99828560D01*
X154694120Y-110090160D02*
X154694120Y-109607560D01*
X155125920Y-108007360D02*
X155125920Y-106965960D01*
X154313120Y-104425960D02*
X154313120Y-104171960D01*
X154668720Y-110090160D02*
X154668720Y-109607560D01*
X154643320Y-110090160D02*
X154643320Y-109607560D01*
X154186120Y-104857760D02*
X154186120Y-104603760D01*
X154871920Y-111131560D02*
X154871920Y-110953760D01*
X154338520Y-100336560D02*
X154338520Y-99980960D01*
X154998920Y-110521960D02*
X154998920Y-110344160D01*
X154846520Y-100844560D02*
X154846520Y-100590560D01*
X154186120Y-102165360D02*
X154186120Y-101225560D01*
X154084520Y-104425960D02*
X154084520Y-104171960D01*
X155633920Y-106559560D02*
X155633920Y-106178560D01*
X154363920Y-103282960D02*
X154363920Y-102749560D01*
X155252920Y-110775960D02*
X155252920Y-110598160D01*
X155456120Y-110648960D02*
X155456120Y-108972560D01*
X155100520Y-102292360D02*
X155100520Y-101911360D01*
X155176720Y-102749560D02*
X155176720Y-102444760D01*
X154236920Y-106254760D02*
X154236920Y-105213360D01*
X154414720Y-100844560D02*
X154414720Y-100590560D01*
X155151320Y-104425960D02*
X155151320Y-104171960D01*
X154440120Y-110877560D02*
X154440120Y-110140960D01*
X155227520Y-106280160D02*
X155227520Y-105162560D01*
X155583120Y-110775960D02*
X155583120Y-109099560D01*
X154084520Y-100844560D02*
X154084520Y-100590560D01*
X153957520Y-111106160D02*
X153957520Y-110801360D01*
X155303720Y-100844560D02*
X155303720Y-100590560D01*
X155125920Y-100844560D02*
X155125920Y-100590560D01*
X155583120Y-106584960D02*
X155583120Y-106229360D01*
X155024320Y-104425960D02*
X155024320Y-104171960D01*
X155837120Y-106457960D02*
X155837120Y-106076960D01*
X154643320Y-110877560D02*
X154643320Y-110344160D01*
X154948120Y-104425960D02*
X154948120Y-104171960D01*
X153627320Y-107245360D02*
X153627320Y-107219960D01*
X154287720Y-103257560D02*
X154287720Y-102774960D01*
X154313120Y-100311160D02*
X154313120Y-99980960D01*
X154719520Y-107804160D02*
X154719520Y-107423160D01*
X155379920Y-110877560D02*
X155379920Y-110725160D01*
X155125920Y-105416560D02*
X155125920Y-105162560D01*
X154135320Y-100158760D02*
X154135320Y-99803160D01*
X155532320Y-110725160D02*
X155532320Y-109048760D01*
X153474920Y-110623560D02*
X153474920Y-108972560D01*
X155354520Y-104425960D02*
X155354520Y-103359160D01*
X155125920Y-110877560D02*
X155125920Y-110801360D01*
X154821120Y-104425960D02*
X154821120Y-104171960D01*
X154770320Y-102368560D02*
X154770320Y-102089160D01*
X154871920Y-110394960D02*
X154871920Y-110242560D01*
X155176720Y-111131560D02*
X155176720Y-110953760D01*
X155252920Y-104425960D02*
X155252920Y-103333760D01*
X154668720Y-106432560D02*
X154668720Y-106153160D01*
X155227520Y-110420360D02*
X155227520Y-108820160D01*
X155252920Y-106762760D02*
X155252920Y-106381760D01*
X155125920Y-100285760D02*
X155125920Y-99930160D01*
X155913320Y-106432560D02*
X155913320Y-106051560D01*
X155202120Y-106305560D02*
X155202120Y-105822960D01*
X154313120Y-105543560D02*
X154313120Y-105264160D01*
X154109920Y-103181360D02*
X154109920Y-102851160D01*
X154897320Y-106432560D02*
X154897320Y-106127760D01*
X154414720Y-106381760D02*
X154414720Y-106026160D01*
X154262320Y-102216160D02*
X154262320Y-101250960D01*
X154440120Y-107651760D02*
X154440120Y-107296160D01*
X154363920Y-111131560D02*
X154363920Y-110953760D01*
X155100520Y-110293360D02*
X155100520Y-109912360D01*
X153805120Y-110953760D02*
X153805120Y-110648960D01*
X154465520Y-100438160D02*
X154465520Y-100107960D01*
X155151320Y-106330960D02*
X155151320Y-105949960D01*
X154592520Y-104425960D02*
X154592520Y-104171960D01*
X154313120Y-106305560D02*
X154313120Y-105848360D01*
X154795720Y-100565160D02*
X154795720Y-100234960D01*
X154389320Y-111131560D02*
X154389320Y-110953760D01*
X155252920Y-106254760D02*
X155252920Y-105162560D01*
X154567120Y-107092960D02*
X154567120Y-106737360D01*
X154592520Y-107727960D02*
X154592520Y-107372360D01*
X154795720Y-104425960D02*
X154795720Y-104171960D01*
X154236920Y-100234960D02*
X154236920Y-99904760D01*
X154821120Y-102876560D02*
X154821120Y-102597160D01*
X154465520Y-109074160D02*
X154465520Y-108820160D01*
X154363920Y-109683760D02*
X154363920Y-109455160D01*
X155278320Y-104425960D02*
X155278320Y-103333760D01*
X155100520Y-110877560D02*
X155100520Y-110775960D01*
X154490920Y-103333760D02*
X154490920Y-103079760D01*
X155608520Y-110801360D02*
X155608520Y-109124960D01*
X154338520Y-104425960D02*
X154338520Y-104171960D01*
X155202120Y-100209560D02*
X155202120Y-99853960D01*
X155405320Y-104425960D02*
X155405320Y-103384560D01*
X154287720Y-107575560D02*
X154287720Y-106889760D01*
X154033720Y-101860560D02*
X154033720Y-101403360D01*
X154871920Y-100488960D02*
X154871920Y-100158760D01*
X154744920Y-110267960D02*
X154744920Y-110242560D01*
X154795720Y-105797560D02*
X154795720Y-105162560D01*
X155329120Y-110521960D02*
X155329120Y-108845560D01*
X154211520Y-110877560D02*
X154211520Y-109302760D01*
X154821120Y-100539760D02*
X154821120Y-100209560D01*
X154973520Y-102343160D02*
X154973520Y-102038360D01*
X154744920Y-110090160D02*
X154744920Y-109607560D01*
X155176720Y-105467360D02*
X155176720Y-105162560D01*
X154846520Y-102368560D02*
X154846520Y-102089160D01*
X154414720Y-104425960D02*
X154414720Y-104171960D01*
X154643320Y-102927360D02*
X154643320Y-102647960D01*
X155329120Y-106711960D02*
X155329120Y-106356360D01*
X154821120Y-110090160D02*
X154821120Y-109632960D01*
X154313120Y-104857760D02*
X154313120Y-104603760D01*
X155278320Y-106737360D02*
X155278320Y-106381760D01*
X154897320Y-105416560D02*
X154897320Y-105162560D01*
X154287720Y-104425960D02*
X154287720Y-104171960D01*
X155379920Y-106127760D02*
X155379920Y-105289560D01*
X154871920Y-106940560D02*
X154871920Y-106584960D01*
X154744920Y-103409960D02*
X154744920Y-103155960D01*
X154084520Y-111131560D02*
X154084520Y-110920000D01*
X154668720Y-102927360D02*
X154668720Y-102647960D01*
X154440120Y-103003560D02*
X154440120Y-102724160D01*
X154516320Y-107702560D02*
X154516320Y-107321560D01*
X154541720Y-110877560D02*
X154541720Y-110242560D01*
X155202120Y-108032760D02*
X155202120Y-106940560D01*
X154414720Y-109607560D02*
X154414720Y-109505960D01*
X154948120Y-105416560D02*
X154948120Y-105162560D01*
X154998920Y-104857760D02*
X154998920Y-104603760D01*
X154211520Y-103232160D02*
X154211520Y-102800360D01*
X154033720Y-100844560D02*
X154033720Y-100590560D01*
X154694120Y-104425960D02*
X154694120Y-104171960D01*
X155176720Y-100234960D02*
X155176720Y-99879360D01*
X154617920Y-110877560D02*
X154617920Y-110318760D01*
X154211520Y-111131560D02*
X154211520Y-110953760D01*
X155125920Y-110318760D02*
X155125920Y-108820160D01*
X154567120Y-103359160D02*
X154567120Y-103105160D01*
X155024320Y-110217160D02*
X155024320Y-110090160D01*
X154643320Y-109455160D02*
X154643320Y-109404360D01*
X154109920Y-104425960D02*
X154109920Y-104171960D01*
X154059120Y-110826760D02*
X154059120Y-109150360D01*
X154363920Y-106356360D02*
X154363920Y-105949960D01*
X155354520Y-110547360D02*
X155354520Y-108870960D01*
X154668720Y-107778760D02*
X154668720Y-107397760D01*
X155938720Y-106407160D02*
X155938720Y-106026160D01*
X154490920Y-104857760D02*
X154490920Y-104603760D01*
X153906720Y-110674360D02*
X153906720Y-108997960D01*
X155024320Y-105416560D02*
X155024320Y-105162560D01*
X154440120Y-106381760D02*
X154440120Y-106051560D01*
X154897320Y-110877560D02*
X154897320Y-110598160D01*
X155075120Y-103536960D02*
X155075120Y-103257560D01*
X154643320Y-111131560D02*
X154643320Y-110953760D01*
X155024320Y-103511560D02*
X155024320Y-102520960D01*
X154160720Y-103206760D02*
X154160720Y-102825760D01*
X155278320Y-110471160D02*
X155278320Y-108820160D01*
X154338520Y-107219960D02*
X154338520Y-106864360D01*
X154846520Y-106432560D02*
X154846520Y-106153160D01*
X153957520Y-110725160D02*
X153957520Y-109048760D01*
X154516320Y-107118360D02*
X154516320Y-106762760D01*
X155100520Y-110623560D02*
X155100520Y-110445760D01*
X155151320Y-102749560D02*
X155151320Y-102470160D01*
X154795720Y-111131560D02*
X154795720Y-110953760D01*
X154516320Y-111131560D02*
X154516320Y-110953760D01*
X153855920Y-111004560D02*
X153855920Y-110699760D01*
X154338520Y-111131560D02*
X154338520Y-110953760D01*
X155278320Y-106229360D02*
X155278320Y-105162560D01*
X154287720Y-111131560D02*
X154287720Y-110953760D01*
X155303720Y-110496560D02*
X155303720Y-108820160D01*
X155278320Y-110801360D02*
X155278320Y-110623560D01*
X154973520Y-100412760D02*
X154973520Y-100057160D01*
X153627320Y-110775960D02*
X153627320Y-108972560D01*
X154770320Y-104425960D02*
X154770320Y-104171960D01*
X155075120Y-110598160D02*
X155075120Y-110420360D01*
X153728920Y-110496560D02*
X153728920Y-108820160D01*
X154033720Y-108972560D02*
X154033720Y-108820160D01*
X154719520Y-106432560D02*
X154719520Y-106153160D01*
X155405320Y-102647960D02*
X155405320Y-102368560D01*
X154186120Y-100209560D02*
X154186120Y-99853960D01*
X154313120Y-111131560D02*
X154313120Y-110953760D01*
X155075120Y-107981960D02*
X155075120Y-106991360D01*
X154795720Y-102876560D02*
X154795720Y-102597160D01*
X154262320Y-104857760D02*
X154262320Y-104603760D01*
X154821120Y-106965960D02*
X154821120Y-106610360D01*
X155227520Y-110750560D02*
X155227520Y-110572760D01*
X155329120Y-102089160D02*
X155329120Y-101174760D01*
X154922720Y-104425960D02*
X154922720Y-104171960D01*
X154744920Y-110877560D02*
X154744920Y-110445760D01*
X154262320Y-108870960D02*
X154262320Y-108820160D01*
X154998920Y-100387360D02*
X154998920Y-100031760D01*
X154338520Y-106330960D02*
X154338520Y-105924560D01*
X154262320Y-111131560D02*
X154262320Y-110953760D01*
X154998920Y-106407160D02*
X154998920Y-106076960D01*
X155024320Y-106864360D02*
X155024320Y-106508760D01*
X155303720Y-108083560D02*
X155303720Y-106889760D01*
X153932120Y-110699760D02*
X153932120Y-109023360D01*
X154109920Y-107499360D02*
X154109920Y-106965960D01*
X154719520Y-104425960D02*
X154719520Y-104171960D01*
X154719520Y-110877560D02*
X154719520Y-110420360D01*
X154668720Y-104425960D02*
X154668720Y-104171960D01*
X154617920Y-111131560D02*
X154617920Y-110953760D01*
X154135320Y-104425960D02*
X154135320Y-104171960D01*
X155049720Y-104425960D02*
X155049720Y-104171960D01*
X154922720Y-107905760D02*
X154922720Y-107524760D01*
X155684720Y-106534160D02*
X155684720Y-106153160D01*
X155786320Y-106483360D02*
X155786320Y-106102360D01*
X153932120Y-107397760D02*
X153932120Y-107067560D01*
X155075120Y-106838960D02*
X155075120Y-106483360D01*
X154135320Y-103206760D02*
X154135320Y-102851160D01*
X154643320Y-106432560D02*
X154643320Y-106153160D01*
X154922720Y-106915160D02*
X154922720Y-106559560D01*
X154592520Y-100844560D02*
X154592520Y-100590560D01*
X154160720Y-110877560D02*
X154160720Y-109251960D01*
X155354520Y-110877560D02*
X155354520Y-110699760D01*
X154897320Y-100488960D02*
X154897320Y-100133360D01*
X155278320Y-108083560D02*
X155278320Y-106889760D01*
X154287720Y-109226560D02*
X154287720Y-109023360D01*
X155252920Y-110445760D02*
X155252920Y-108820160D01*
X155049720Y-103536960D02*
X155049720Y-102495560D01*
X154567120Y-111131560D02*
X154567120Y-110953760D01*
X154465520Y-109556760D02*
X154465520Y-109531360D01*
X155252920Y-111131560D02*
X155252920Y-110953760D01*
X155024320Y-106407160D02*
X155024320Y-106076960D01*
X155379920Y-111131560D02*
X155379920Y-111055360D01*
X155735520Y-108362960D02*
X155735520Y-106889760D01*
X154567120Y-102952760D02*
X154567120Y-102673360D01*
X154541720Y-103359160D02*
X154541720Y-103079760D01*
X154668720Y-102368560D02*
X154668720Y-102089160D01*
X154846520Y-104425960D02*
X154846520Y-104171960D01*
X154135320Y-107499360D02*
X154135320Y-106965960D01*
X154490920Y-100844560D02*
X154490920Y-100590560D01*
X153500320Y-110648960D02*
X153500320Y-108972560D01*
X154821120Y-109429760D02*
X154821120Y-108820160D01*
X154516320Y-106407160D02*
X154516320Y-106102360D01*
X155176720Y-104425960D02*
X155176720Y-104171960D01*
X155075120Y-100336560D02*
X155075120Y-99980960D01*
X155024320Y-104857760D02*
X155024320Y-104603760D01*
X154744920Y-105797560D02*
X154744920Y-105162560D01*
X155151320Y-110344160D02*
X155151320Y-108820160D01*
X154744920Y-111131560D02*
X154744920Y-110953760D01*
X153881320Y-111029960D02*
X153881320Y-110725160D01*
X154846520Y-110064760D02*
X154846520Y-109632960D01*
X154516320Y-100844560D02*
X154516320Y-100590560D01*
X154643320Y-104857760D02*
X154643320Y-104603760D01*
X154363920Y-104425960D02*
X154363920Y-104171960D01*
X154135320Y-104857760D02*
X154135320Y-104603760D01*
X154643320Y-100844560D02*
X154643320Y-100285760D01*
X155227520Y-102216160D02*
X155227520Y-101225560D01*
X154541720Y-104857760D02*
X154541720Y-104603760D01*
X155710120Y-108362960D02*
X155710120Y-106889760D01*
X155303720Y-106229360D02*
X155303720Y-105187960D01*
X154211520Y-104857760D02*
X154211520Y-104603760D01*
X154592520Y-106432560D02*
X154592520Y-106127760D01*
X154770320Y-100844560D02*
X154770320Y-100234960D01*
X155557720Y-110750560D02*
X155557720Y-109074160D01*
X154821120Y-102368560D02*
X154821120Y-102089160D01*
X155430720Y-110623560D02*
X155430720Y-108947160D01*
X154363920Y-107626360D02*
X154363920Y-107270760D01*
X154795720Y-102368560D02*
X154795720Y-102089160D01*
X155684720Y-108362960D02*
X155684720Y-106889760D01*
X154948120Y-104857760D02*
X154948120Y-104603760D01*
X154262320Y-110877560D02*
X154262320Y-109353560D01*
X154871920Y-110877560D02*
X154871920Y-110572760D01*
X154694120Y-100844560D02*
X154694120Y-100311160D01*
X154287720Y-100285760D02*
X154287720Y-99955560D01*
X155100520Y-104857760D02*
X155100520Y-104603760D01*
X155303720Y-104425960D02*
X155303720Y-103359160D01*
X153728920Y-110877560D02*
X153728920Y-110572760D01*
X154871920Y-105797560D02*
X154871920Y-105162560D01*
X154516320Y-110013960D02*
X154516320Y-109683760D01*
X154440120Y-100412760D02*
X154440120Y-100082560D01*
X154440120Y-107169160D02*
X154440120Y-106813560D01*
X154668720Y-105797560D02*
X154668720Y-105162560D01*
X155151320Y-101352560D02*
X155151320Y-101250960D01*
X154490920Y-111131560D02*
X154490920Y-110953760D01*
X155176720Y-108032760D02*
X155176720Y-106940560D01*
X154033720Y-100057160D02*
X154033720Y-99701560D01*
X154109920Y-100844560D02*
X154109920Y-100590560D01*
X153830520Y-110598160D02*
X153830520Y-108921760D01*
X154465520Y-110877560D02*
X154465520Y-110166360D01*
X154211520Y-104425960D02*
X154211520Y-104171960D01*
X154846520Y-104857760D02*
X154846520Y-104603760D01*
X154617920Y-100844560D02*
X154617920Y-100590560D01*
X154973520Y-105416560D02*
X154973520Y-105162560D01*
X154414720Y-103308360D02*
X154414720Y-103054360D01*
X154541720Y-102952760D02*
X154541720Y-102698760D01*
X155202120Y-102216160D02*
X155202120Y-101225560D01*
X155303720Y-100133360D02*
X155303720Y-99777760D01*
X155379920Y-110572760D02*
X155379920Y-108896360D01*
X155100520Y-109810760D02*
X155100520Y-108820160D01*
X155329120Y-106178560D02*
X155329120Y-105213360D01*
X155354520Y-102038360D02*
X155354520Y-101174760D01*
X154821120Y-111131560D02*
X154821120Y-110953760D01*
X154719520Y-100844560D02*
X154719520Y-100285760D01*
X154668720Y-107042160D02*
X154668720Y-106686560D01*
X155659320Y-106559560D02*
X155659320Y-106178560D01*
X154313120Y-109251960D02*
X154313120Y-109048760D01*
X154821120Y-110877560D02*
X154821120Y-110521960D01*
X154821120Y-105797560D02*
X154821120Y-105162560D01*
X155430720Y-101860560D02*
X155430720Y-101428760D01*
X154694120Y-104857760D02*
X154694120Y-104603760D01*
X154059120Y-103181360D02*
X154059120Y-102876560D01*
X154821120Y-107854960D02*
X154821120Y-107473960D01*
X155456120Y-106661160D02*
X155456120Y-106280160D01*
X155151320Y-105441960D02*
X155151320Y-105162560D01*
X155024320Y-111131560D02*
X155024320Y-110953760D01*
X154490920Y-109988560D02*
X154490920Y-109709160D01*
X154033720Y-110801360D02*
X154033720Y-109124960D01*
X154770320Y-105797560D02*
X154770320Y-105162560D01*
X154236920Y-104425960D02*
X154236920Y-104171960D01*
X155100520Y-107981960D02*
X155100520Y-106991360D01*
X153982920Y-110750560D02*
X153982920Y-109074160D01*
X154617920Y-100565160D02*
X154617920Y-100260360D01*
X154998920Y-111131560D02*
X154998920Y-110953760D01*
X155329120Y-102698760D02*
X155329120Y-102393960D01*
X154363920Y-105391160D02*
X154363920Y-105289560D01*
X154668720Y-100844560D02*
X154668720Y-100311160D01*
X155202120Y-111131560D02*
X155202120Y-110953760D01*
X154795720Y-110090160D02*
X154795720Y-109607560D01*
X154465520Y-107677160D02*
X154465520Y-107296160D01*
X153855920Y-107372360D02*
X153855920Y-107092960D01*
X154770320Y-104857760D02*
X154770320Y-104603760D01*
X154236920Y-110877560D02*
X154236920Y-109328160D01*
X153805120Y-110572760D02*
X153805120Y-108896360D01*
X154897320Y-106940560D02*
X154897320Y-106559560D01*
X155379920Y-106686560D02*
X155379920Y-106330960D01*
X153703520Y-107296160D02*
X153703520Y-107169160D01*
X155100520Y-100311160D02*
X155100520Y-99955560D01*
X153830520Y-107346960D02*
X153830520Y-107118360D01*
X154922720Y-110445760D02*
X154922720Y-110267960D01*
X154694120Y-106432560D02*
X154694120Y-106153160D01*
X154922720Y-100463560D02*
X154922720Y-100107960D01*
X154541720Y-110039360D02*
X154541720Y-109658360D01*
X155354520Y-106711960D02*
X155354520Y-106330960D01*
X154744920Y-104857760D02*
X154744920Y-104603760D01*
X154922720Y-102368560D02*
X154922720Y-102063760D01*
X155100520Y-102774960D02*
X155100520Y-102495560D01*
X155227520Y-106762760D02*
X155227520Y-106407160D01*
X154236920Y-109175760D02*
X154236920Y-108972560D01*
X155278320Y-111131560D02*
X155278320Y-110953760D01*
X154973520Y-110166360D02*
X154973520Y-110140960D01*
X154389320Y-103003560D02*
X154389320Y-102749560D01*
X154160720Y-111131560D02*
X154160720Y-110953760D01*
X154262320Y-100260360D02*
X154262320Y-99930160D01*
X155811720Y-106483360D02*
X155811720Y-106102360D01*
X155075120Y-111131560D02*
X155075120Y-110953760D01*
X154338520Y-104857760D02*
X154338520Y-104603760D01*
X154059120Y-100844560D02*
X154059120Y-100590560D01*
X154719520Y-102901960D02*
X154719520Y-102622560D01*
X154211520Y-107550160D02*
X154211520Y-106915160D01*
X155633920Y-110826760D02*
X155633920Y-109150360D01*
X154008320Y-108947160D02*
X154008320Y-108820160D01*
X153881320Y-110648960D02*
X153881320Y-108972560D01*
X154871920Y-104425960D02*
X154871920Y-104171960D01*
X153728920Y-107296160D02*
X153728920Y-107169160D01*
X154541720Y-111131560D02*
X154541720Y-110953760D01*
X154592520Y-110064760D02*
X154592520Y-109632960D01*
X154287720Y-108896360D02*
X154287720Y-108820160D01*
X154008320Y-107448560D02*
X154008320Y-107016760D01*
X154236920Y-111131560D02*
X154236920Y-110953760D01*
X155456120Y-110877560D02*
X155456120Y-110801360D01*
X155760920Y-106508760D02*
X155760920Y-106127760D01*
X155684720Y-110877560D02*
X155684720Y-109201160D01*
X155176720Y-102241560D02*
X155176720Y-101758960D01*
X154973520Y-110496560D02*
X154973520Y-110318760D01*
X154998920Y-105416560D02*
X154998920Y-105162560D01*
X154135320Y-106127760D02*
X154135320Y-105289560D01*
X154516320Y-100488960D02*
X154516320Y-100158760D01*
X154109920Y-111131560D02*
X154109920Y-110940000D01*
X155151320Y-110877560D02*
X155151320Y-110826760D01*
X155227520Y-104857760D02*
X155227520Y-104603760D01*
X155125920Y-111131560D02*
X155125920Y-110953760D01*
X155506920Y-110877560D02*
X155506920Y-110852160D01*
X154643320Y-109251960D02*
X154643320Y-108820160D01*
X155506920Y-106635760D02*
X155506920Y-106254760D01*
X155303720Y-102698760D02*
X155303720Y-102419360D01*
X154465520Y-102978160D02*
X154465520Y-102724160D01*
X154160720Y-104425960D02*
X154160720Y-104171960D01*
X155329120Y-110877560D02*
X155329120Y-110674360D01*
X155125920Y-104425960D02*
X155125920Y-104171960D01*
X155075120Y-104857760D02*
X155075120Y-104603760D01*
X154516320Y-103333760D02*
X154516320Y-103079760D01*
X154694120Y-105797560D02*
X154694120Y-105162560D01*
X154389320Y-104425960D02*
X154389320Y-104171960D01*
X154592520Y-100565160D02*
X154592520Y-100234960D01*
X153652720Y-110801360D02*
X153652720Y-110496560D01*
X155354520Y-102673360D02*
X155354520Y-102393960D01*
X155151320Y-110674360D02*
X155151320Y-110496560D01*
X154719520Y-107016760D02*
X154719520Y-106661160D01*
X154973520Y-109886960D02*
X154973520Y-109836160D01*
X155329120Y-108083560D02*
X155329120Y-106889760D01*
X155303720Y-110826760D02*
X155303720Y-110648960D01*
X154871920Y-104857760D02*
X154871920Y-104603760D01*
X154643320Y-103384560D02*
X154643320Y-103130560D01*
X154617920Y-104425960D02*
X154617920Y-104171960D01*
X155303720Y-102114560D02*
X155303720Y-101200160D01*
X154541720Y-102368560D02*
X154541720Y-102063760D01*
X154567120Y-106432560D02*
X154567120Y-106127760D01*
X154541720Y-104425960D02*
X154541720Y-104171960D01*
X154160720Y-109099560D02*
X154160720Y-108896360D01*
X155100520Y-103562360D02*
X155100520Y-103282960D01*
X154922720Y-100844560D02*
X154922720Y-100590560D01*
X155532320Y-106610360D02*
X155532320Y-106254760D01*
X155151320Y-103562360D02*
X155151320Y-103282960D01*
X154389320Y-109632960D02*
X154389320Y-109480560D01*
X154490920Y-102343160D02*
X154490920Y-102038360D01*
X154897320Y-107880360D02*
X154897320Y-107499360D01*
X155049720Y-106864360D02*
X155049720Y-106483360D01*
X154744920Y-102368560D02*
X154744920Y-102089160D01*
X155024320Y-107956560D02*
X155024320Y-107016760D01*
X154846520Y-106965960D02*
X154846520Y-106584960D01*
X154338520Y-103282960D02*
X154338520Y-102774960D01*
X154668720Y-111131560D02*
X154668720Y-110953760D01*
X154541720Y-107702560D02*
X154541720Y-107346960D01*
X154871920Y-102368560D02*
X154871920Y-102063760D01*
X154567120Y-109455160D02*
X154567120Y-109302760D01*
X154516320Y-104857760D02*
X154516320Y-104603760D01*
X154998920Y-102343160D02*
X154998920Y-102012960D01*
X154694120Y-111131560D02*
X154694120Y-110953760D01*
X154973520Y-109556760D02*
X154973520Y-108820160D01*
X154465520Y-103308360D02*
X154465520Y-103054360D01*
X155125920Y-102774960D02*
X155125920Y-102470160D01*
X155405320Y-100844560D02*
X155405320Y-100590560D01*
X155659320Y-108362960D02*
X155659320Y-106889760D01*
X155278320Y-100844560D02*
X155278320Y-100590560D01*
X154160720Y-104857760D02*
X154160720Y-104603760D01*
X155049720Y-110242560D02*
X155049720Y-110064760D01*
X154287720Y-100844560D02*
X154287720Y-100590560D01*
X155176720Y-101428760D02*
X155176720Y-101250960D01*
X154389320Y-103282960D02*
X154389320Y-103028960D01*
X155329120Y-100107960D02*
X155329120Y-99752360D01*
X154338520Y-109759960D02*
X154338520Y-109429760D01*
X155100520Y-106838960D02*
X155100520Y-106457960D01*
X154567120Y-110877560D02*
X154567120Y-110267960D01*
X154033720Y-104425960D02*
X154033720Y-104171960D01*
X154897320Y-109505960D02*
X154897320Y-108820160D01*
X154490920Y-104425960D02*
X154490920Y-104171960D01*
X155633920Y-108362960D02*
X155633920Y-106889760D01*
X155430720Y-106661160D02*
X155430720Y-106305560D01*
X154567120Y-100844560D02*
X154567120Y-100590560D01*
X154084520Y-109023360D02*
X154084520Y-108820160D01*
X154998920Y-104425960D02*
X154998920Y-104171960D01*
X154084520Y-101987560D02*
X154084520Y-101250960D01*
X154211520Y-109150360D02*
X154211520Y-108947160D01*
X154668720Y-110877560D02*
X154668720Y-110369560D01*
X155379920Y-104425960D02*
X155379920Y-103384560D01*
X154922720Y-104857760D02*
X154922720Y-104603760D01*
X154694120Y-102368560D02*
X154694120Y-102089160D01*
X154236920Y-104857760D02*
X154236920Y-104603760D01*
X154490920Y-100463560D02*
X154490920Y-100133360D01*
X155202120Y-100844560D02*
X155202120Y-100590560D01*
X154109920Y-104857760D02*
X154109920Y-104603760D01*
X155049720Y-104857760D02*
X155049720Y-104603760D01*
X154135320Y-102089160D02*
X154135320Y-101200160D01*
X155176720Y-104857760D02*
X155176720Y-104603760D01*
X154541720Y-100844560D02*
X154541720Y-100590560D01*
X154592520Y-110877560D02*
X154592520Y-110293360D01*
X154846520Y-107854960D02*
X154846520Y-107473960D01*
X154389320Y-109328160D02*
X154389320Y-109124960D01*
X153881320Y-107372360D02*
X153881320Y-107092960D01*
X154795720Y-110318760D02*
X154795720Y-110242560D01*
X154084520Y-107473960D02*
X154084520Y-106991360D01*
X154008320Y-110775960D02*
X154008320Y-109099560D01*
X154592520Y-102952760D02*
X154592520Y-102673360D01*
X155329120Y-100844560D02*
X155329120Y-100590560D01*
X154516320Y-109124960D02*
X154516320Y-108820160D01*
X155379920Y-100057160D02*
X155379920Y-99701560D01*
X155379920Y-102673360D02*
X155379920Y-102393960D01*
X155506920Y-108362960D02*
X155506920Y-106889760D01*
X154389320Y-110877560D02*
X154389320Y-110064760D01*
X154617920Y-107067560D02*
X154617920Y-106711960D01*
X154389320Y-102317760D02*
X154389320Y-101962160D01*
X154033720Y-107448560D02*
X154033720Y-107016760D01*
X154973520Y-107931160D02*
X154973520Y-107550160D01*
X154059120Y-111131560D02*
X154059120Y-110902960D01*
X155252920Y-104857760D02*
X155252920Y-104603760D01*
X154186120Y-110877560D02*
X154186120Y-109277360D01*
X154109920Y-100133360D02*
X154109920Y-99777760D01*
X154897320Y-111131560D02*
X154897320Y-110953760D01*
X154846520Y-103460760D02*
X154846520Y-102571760D01*
X155176720Y-106788160D02*
X155176720Y-106432560D01*
X155608520Y-106584960D02*
X155608520Y-106203960D01*
X154236920Y-107550160D02*
X154236920Y-106915160D01*
X153805120Y-107346960D02*
X153805120Y-107118360D01*
X154313120Y-103257560D02*
X154313120Y-102774960D01*
X153601920Y-110750560D02*
X153601920Y-108972560D01*
X154262320Y-106280160D02*
X154262320Y-105238760D01*
X154897320Y-110420360D02*
X154897320Y-110242560D01*
X153830520Y-110979160D02*
X153830520Y-110674360D01*
X155252920Y-100158760D02*
X155252920Y-99803160D01*
X155278320Y-102165360D02*
X155278320Y-101200160D01*
X155075120Y-106381760D02*
X155075120Y-106026160D01*
X154262320Y-104425960D02*
X154262320Y-104171960D01*
X154033720Y-111131560D02*
X154033720Y-110880000D01*
X154186120Y-103206760D02*
X154186120Y-102825760D01*
X155405320Y-106686560D02*
X155405320Y-106305560D01*
X155024320Y-102317760D02*
X155024320Y-101987560D01*
X155405320Y-100031760D02*
X155405320Y-99676160D01*
X154643320Y-102368560D02*
X154643320Y-102089160D01*
X154973520Y-111131560D02*
X154973520Y-110953760D01*
X154084520Y-104857760D02*
X154084520Y-104603760D01*
X154363920Y-110877560D02*
X154363920Y-110039360D01*
X155252920Y-102190760D02*
X155252920Y-101200160D01*
X155125920Y-106813560D02*
X155125920Y-106457960D01*
X154871920Y-103460760D02*
X154871920Y-102571760D01*
X154440120Y-109378960D02*
X154440120Y-109175760D01*
X154084520Y-100107960D02*
X154084520Y-99752360D01*
X154846520Y-100514360D02*
X154846520Y-100184160D01*
X155075120Y-100844560D02*
X155075120Y-100590560D01*
X154490920Y-109429760D02*
X154490920Y-109226560D01*
X154694120Y-107778760D02*
X154694120Y-107423160D01*
X154516320Y-102343160D02*
X154516320Y-102038360D01*
X154109920Y-102038360D02*
X154109920Y-101200160D01*
X154668720Y-104857760D02*
X154668720Y-104603760D01*
X154541720Y-109150360D02*
X154541720Y-108820160D01*
X154567120Y-110064760D02*
X154567120Y-109632960D01*
X154440120Y-104857760D02*
X154440120Y-104603760D01*
X155049720Y-111131560D02*
X155049720Y-110953760D01*
X154287720Y-104857760D02*
X154287720Y-104603760D01*
X154389320Y-100844560D02*
X154389320Y-100590560D01*
X154694120Y-102901960D02*
X154694120Y-102622560D01*
X155151320Y-102266960D02*
X155151320Y-101835160D01*
X154287720Y-101428760D02*
X154287720Y-101250960D01*
X155227520Y-100184160D02*
X155227520Y-99828560D01*
X154389320Y-108997960D02*
X154389320Y-108820160D01*
X154135320Y-110877560D02*
X154135320Y-109226560D01*
X153906720Y-111055360D02*
X153906720Y-110750560D01*
X154541720Y-106407160D02*
X154541720Y-106127760D01*
X154744920Y-106432560D02*
X154744920Y-106153160D01*
X154948120Y-110877560D02*
X154948120Y-110648960D01*
X155583120Y-108362960D02*
X155583120Y-106889760D01*
X154744920Y-104425960D02*
X154744920Y-104171960D01*
X155329120Y-104857760D02*
X155329120Y-104603760D01*
X154948120Y-100438160D02*
X154948120Y-100082560D01*
X155075120Y-110267960D02*
X155075120Y-109988560D01*
X154465520Y-104857760D02*
X154465520Y-104603760D01*
X153779720Y-107321560D02*
X153779720Y-107143760D01*
X154389320Y-104857760D02*
X154389320Y-104603760D01*
X153957520Y-108896360D02*
X153957520Y-108820160D01*
X154821120Y-103460760D02*
X154821120Y-103181360D01*
X154160720Y-100844560D02*
X154160720Y-100590560D01*
X155227520Y-104425960D02*
X155227520Y-103333760D01*
X154719520Y-103409960D02*
X154719520Y-103155960D01*
X154821120Y-104857760D02*
X154821120Y-104603760D01*
X154440120Y-103308360D02*
X154440120Y-103054360D01*
X155100520Y-105416560D02*
X155100520Y-105162560D01*
X154516320Y-104425960D02*
X154516320Y-104171960D01*
X154389320Y-107626360D02*
X154389320Y-107270760D01*
X153652720Y-107270760D02*
X153652720Y-107194560D01*
X155151320Y-106813560D02*
X155151320Y-106432560D01*
X154338520Y-102292360D02*
X154338520Y-101885960D01*
X154262320Y-109201160D02*
X154262320Y-108997960D01*
X154389320Y-106356360D02*
X154389320Y-106000760D01*
X155735520Y-106508760D02*
X155735520Y-106127760D01*
X154313120Y-101352560D02*
X154313120Y-101276360D01*
X155456120Y-105924560D02*
X155456120Y-105492760D01*
X154948120Y-106407160D02*
X154948120Y-106127760D01*
X154440120Y-109048760D02*
X154440120Y-108820160D01*
X155176720Y-100844560D02*
X155176720Y-100590560D01*
X153678120Y-107270760D02*
X153678120Y-107194560D01*
X154109920Y-106076960D02*
X154109920Y-105340360D01*
X154135320Y-111131560D02*
X154135320Y-110953760D01*
X154541720Y-100514360D02*
X154541720Y-100184160D01*
X153982920Y-107423160D02*
X153982920Y-107042160D01*
X155227520Y-111131560D02*
X155227520Y-110953760D01*
X154922720Y-106432560D02*
X154922720Y-106127760D01*
X154694120Y-110877560D02*
X154694120Y-110394960D01*
X155227520Y-108058160D02*
X155227520Y-106915160D01*
X154617920Y-110090160D02*
X154617920Y-109632960D01*
X154490920Y-107143760D02*
X154490920Y-106788160D01*
X155049720Y-105416560D02*
X155049720Y-105162560D01*
X154617920Y-109226560D02*
X154617920Y-108820160D01*
X154948120Y-109963160D02*
X154948120Y-109734560D01*
X155202120Y-110394960D02*
X155202120Y-108820160D01*
X154795720Y-100844560D02*
X154795720Y-100590560D01*
X154084520Y-106026160D02*
X154084520Y-105416560D01*
X154414720Y-107651760D02*
X154414720Y-107296160D01*
X155430720Y-110877560D02*
X155430720Y-110775960D01*
X154770320Y-110877560D02*
X154770320Y-110471160D01*
X155405320Y-110598160D02*
X155405320Y-108921760D01*
D15*
%TO.C,L1*%
X138500000Y-110900000D02*
X138500000Y-112400000D01*
X135500000Y-113400000D02*
X137500000Y-113400000D01*
X135500000Y-111400000D02*
X135500000Y-113400000D01*
X138000000Y-110400000D02*
X138500000Y-110900000D01*
X136500000Y-110400000D02*
X138000000Y-110400000D01*
D14*
%TO.C,ohw_logo*%
X134594500Y-100308200D02*
X136067700Y-100308200D01*
X134518300Y-101730600D02*
X135788300Y-101730600D01*
X132562500Y-100028800D02*
X135737500Y-100028800D01*
X131825900Y-100562200D02*
X133553100Y-100562200D01*
X132537100Y-100054200D02*
X135762900Y-100054200D01*
X132587900Y-102619600D02*
X132841900Y-102619600D01*
X132486300Y-101908400D02*
X133756300Y-101908400D01*
X134721500Y-101019400D02*
X136448700Y-101019400D01*
X134721500Y-102238600D02*
X135966100Y-102238600D01*
X133629300Y-99089000D02*
X134670700Y-99089000D01*
X131825900Y-100536800D02*
X133553100Y-100536800D01*
X133730900Y-98987400D02*
X134569100Y-98987400D01*
X133375300Y-99190600D02*
X134924700Y-99190600D01*
X133553100Y-99114400D02*
X134746900Y-99114400D01*
X134543700Y-101756000D02*
X135788300Y-101756000D01*
X135026300Y-99216000D02*
X135915300Y-99216000D01*
X131825900Y-100587600D02*
X133553100Y-100587600D01*
X134645300Y-102035400D02*
X135991500Y-102035400D01*
X133756300Y-98835000D02*
X134543700Y-98835000D01*
X132486300Y-100206600D02*
X133832500Y-100206600D01*
X132511700Y-101375000D02*
X133934100Y-101375000D01*
X134391300Y-101375000D02*
X135788300Y-101375000D01*
X131825900Y-100968600D02*
X133578500Y-100968600D01*
X135280300Y-102391000D02*
X135839100Y-102391000D01*
X132537100Y-100079600D02*
X135762900Y-100079600D01*
X134721500Y-100994000D02*
X136474100Y-100994000D01*
X132638700Y-101654400D02*
X133832500Y-101654400D01*
X135178700Y-99114400D02*
X135813700Y-99114400D01*
X134772300Y-100740000D02*
X136499500Y-100740000D01*
X134696100Y-102187800D02*
X136016900Y-102187800D01*
X132460900Y-101248000D02*
X133781700Y-101248000D01*
X135610500Y-102645000D02*
X135813700Y-102645000D01*
X132486300Y-99597000D02*
X135813700Y-99597000D01*
X135432700Y-98936600D02*
X135610500Y-98936600D01*
X133832500Y-98454000D02*
X134467500Y-98454000D01*
X133807100Y-98504800D02*
X134492900Y-98504800D01*
X134746900Y-100943200D02*
X136474100Y-100943200D01*
X132384700Y-99216000D02*
X133222900Y-99216000D01*
X132384700Y-102060800D02*
X133680100Y-102060800D01*
X134645300Y-102010000D02*
X135966100Y-102010000D01*
X132460900Y-99571600D02*
X135813700Y-99571600D01*
X134772300Y-100816200D02*
X136499500Y-100816200D01*
X134746900Y-100968600D02*
X136474100Y-100968600D01*
X134594500Y-101908400D02*
X135889900Y-101908400D01*
X134416700Y-101476600D02*
X135762900Y-101476600D01*
X134721500Y-100511400D02*
X136474100Y-100511400D01*
X134670700Y-100409800D02*
X136448700Y-100409800D01*
X134772300Y-100892400D02*
X136499500Y-100892400D01*
X134772300Y-100689200D02*
X136499500Y-100689200D01*
X134670700Y-102086200D02*
X136016900Y-102086200D01*
X131825900Y-100917800D02*
X133553100Y-100917800D01*
X132638700Y-102670400D02*
X132816500Y-102670400D01*
X131825900Y-101019400D02*
X133578500Y-101019400D01*
X135356500Y-98987400D02*
X135686700Y-98987400D01*
X132283100Y-100359000D02*
X133654700Y-100359000D01*
X135686700Y-102721200D02*
X135737500Y-102721200D01*
X134619900Y-101146400D02*
X135864500Y-101146400D01*
X133984900Y-98428600D02*
X134238900Y-98428600D01*
X132587900Y-99952600D02*
X135712100Y-99952600D01*
X134442100Y-101527400D02*
X135737500Y-101527400D01*
X131825900Y-100638400D02*
X133527700Y-100638400D01*
X132486300Y-101933800D02*
X133730900Y-101933800D01*
X133730900Y-99012800D02*
X134569100Y-99012800D01*
X132562500Y-101527400D02*
X133883300Y-101527400D01*
X132537100Y-102467200D02*
X133019700Y-102467200D01*
X132511700Y-99089000D02*
X133045100Y-99089000D01*
X134518300Y-101679800D02*
X135737500Y-101679800D01*
X132511700Y-100130400D02*
X134035700Y-100130400D01*
X132587900Y-101781400D02*
X133781700Y-101781400D01*
X132613300Y-98987400D02*
X132892700Y-98987400D01*
X132359300Y-99419200D02*
X135940700Y-99419200D01*
X132206900Y-101121000D02*
X133654700Y-101121000D01*
X132460900Y-99139800D02*
X133121300Y-99139800D01*
X133832500Y-98479400D02*
X134467500Y-98479400D01*
X134569100Y-101832200D02*
X135839100Y-101832200D01*
X131851300Y-100435200D02*
X133603900Y-100435200D01*
X132689500Y-98936600D02*
X132816500Y-98936600D01*
X132613300Y-99901800D02*
X135686700Y-99901800D01*
X132562500Y-99038200D02*
X132968900Y-99038200D01*
X132054500Y-101095600D02*
X133629300Y-101095600D01*
X134569100Y-101857600D02*
X135864500Y-101857600D01*
X134696100Y-102137000D02*
X136042300Y-102137000D01*
X132435500Y-101984600D02*
X133705500Y-101984600D01*
X134442100Y-101298800D02*
X135813700Y-101298800D01*
X134721500Y-102264000D02*
X135940700Y-102264000D01*
X133476900Y-99139800D02*
X134797700Y-99139800D01*
X135280300Y-99038200D02*
X135737500Y-99038200D01*
X132435500Y-101171800D02*
X133705500Y-101171800D01*
X131825900Y-100486000D02*
X133578500Y-100486000D01*
X133756300Y-98809600D02*
X134543700Y-98809600D01*
X133756300Y-98885800D02*
X134543700Y-98885800D01*
X132562500Y-102518000D02*
X132943500Y-102518000D01*
X134518300Y-101248000D02*
X135839100Y-101248000D01*
X134340500Y-100155800D02*
X135788300Y-100155800D01*
X135381900Y-102492600D02*
X135864500Y-102492600D01*
X132587900Y-99012800D02*
X132943500Y-99012800D01*
X132638700Y-101679800D02*
X133832500Y-101679800D01*
X132537100Y-101451200D02*
X133908700Y-101451200D01*
X135254900Y-99063600D02*
X135762900Y-99063600D01*
X131978300Y-100409800D02*
X133629300Y-100409800D01*
X132511700Y-101425800D02*
X133908700Y-101425800D01*
X134696100Y-100435200D02*
X136474100Y-100435200D01*
X133324500Y-102365600D02*
X133578500Y-102365600D01*
X135356500Y-102467200D02*
X135864500Y-102467200D01*
X134416700Y-100181200D02*
X135813700Y-100181200D01*
X132486300Y-102416400D02*
X133095900Y-102416400D01*
X132384700Y-99444600D02*
X135915300Y-99444600D01*
X131800500Y-100867000D02*
X133527700Y-100867000D01*
X132511700Y-101400400D02*
X133934100Y-101400400D01*
X132486300Y-101324200D02*
X133908700Y-101324200D01*
X134696100Y-101044800D02*
X136296300Y-101044800D01*
X132308500Y-99317600D02*
X135966100Y-99317600D01*
X134467500Y-100206600D02*
X135813700Y-100206600D01*
X132562500Y-101806800D02*
X133781700Y-101806800D01*
X134746900Y-100587600D02*
X136474100Y-100587600D01*
X133781700Y-98682600D02*
X134518300Y-98682600D01*
X132587900Y-101578200D02*
X133857900Y-101578200D01*
X134772300Y-102340200D02*
X135026300Y-102340200D01*
X134772300Y-100790800D02*
X136499500Y-100790800D01*
X134467500Y-101578200D02*
X135712100Y-101578200D01*
X134696100Y-102162400D02*
X136042300Y-102162400D01*
X131800500Y-100892400D02*
X133553100Y-100892400D01*
X132511700Y-101883000D02*
X133756300Y-101883000D01*
X134670700Y-102111600D02*
X136042300Y-102111600D01*
X132333900Y-102264000D02*
X133629300Y-102264000D01*
X133502300Y-102441800D02*
X133553100Y-102441800D01*
X132638700Y-101705200D02*
X133807100Y-101705200D01*
X132587900Y-101552800D02*
X133857900Y-101552800D01*
X134772300Y-102365600D02*
X134975500Y-102365600D01*
X134569100Y-100282800D02*
X135915300Y-100282800D01*
X134619900Y-101984600D02*
X135940700Y-101984600D01*
X133781700Y-98657200D02*
X134518300Y-98657200D01*
X134721500Y-100486000D02*
X136474100Y-100486000D01*
X131800500Y-100816200D02*
X133527700Y-100816200D01*
X132435500Y-99520800D02*
X135864500Y-99520800D01*
X132460900Y-99546200D02*
X135839100Y-99546200D01*
X132333900Y-99393800D02*
X135940700Y-99393800D01*
X132460900Y-101959200D02*
X133730900Y-101959200D01*
X135508900Y-102568800D02*
X135839100Y-102568800D01*
X134746900Y-100536800D02*
X136474100Y-100536800D01*
X135229500Y-102340200D02*
X135889900Y-102340200D01*
X134772300Y-100841600D02*
X136499500Y-100841600D01*
X132638700Y-99825600D02*
X135635900Y-99825600D01*
X132333900Y-99292200D02*
X135966100Y-99292200D01*
X132714900Y-102746600D02*
X132791100Y-102746600D01*
X134772300Y-100613000D02*
X136474100Y-100613000D01*
X132333900Y-101146400D02*
X133680100Y-101146400D01*
X134797700Y-102416400D02*
X134873900Y-102416400D01*
X132435500Y-102010000D02*
X133705500Y-102010000D01*
X131825900Y-100663800D02*
X133527700Y-100663800D01*
X134594500Y-101933800D02*
X135915300Y-101933800D01*
X135077100Y-99190600D02*
X135889900Y-99190600D01*
X131800500Y-100714600D02*
X133527700Y-100714600D01*
X132460900Y-101222600D02*
X133756300Y-101222600D01*
X132460900Y-101197200D02*
X133705500Y-101197200D01*
X135585100Y-102619600D02*
X135813700Y-102619600D01*
X133400700Y-102391000D02*
X133578500Y-102391000D01*
X133807100Y-98606400D02*
X134492900Y-98606400D01*
X132486300Y-101298800D02*
X133857900Y-101298800D01*
X132486300Y-101349600D02*
X133934100Y-101349600D01*
X134696100Y-101070200D02*
X136143900Y-101070200D01*
X133781700Y-98758800D02*
X134518300Y-98758800D01*
X133807100Y-98581000D02*
X134492900Y-98581000D01*
X134746900Y-102289400D02*
X135940700Y-102289400D01*
X134264300Y-100130400D02*
X135788300Y-100130400D01*
X135204100Y-99089000D02*
X135788300Y-99089000D01*
X135661300Y-102695800D02*
X135762900Y-102695800D01*
X132562500Y-99698600D02*
X135737500Y-99698600D01*
X134645300Y-101121000D02*
X135864500Y-101121000D01*
X134772300Y-100714600D02*
X136499500Y-100714600D01*
X131800500Y-100740000D02*
X133527700Y-100740000D01*
X132359300Y-99241400D02*
X133248300Y-99241400D01*
X132562500Y-101832200D02*
X133781700Y-101832200D01*
X133273700Y-99241400D02*
X135940700Y-99241400D01*
X134772300Y-100663800D02*
X136499500Y-100663800D01*
X132689500Y-102721200D02*
X132791100Y-102721200D01*
X133781700Y-98708000D02*
X134518300Y-98708000D01*
X135635900Y-102670400D02*
X135788300Y-102670400D01*
X133451500Y-102416400D02*
X133553100Y-102416400D01*
X133756300Y-98911200D02*
X134543700Y-98911200D01*
X132308500Y-102213200D02*
X133629300Y-102213200D01*
X133324500Y-99216000D02*
X134975500Y-99216000D01*
X132587900Y-99749400D02*
X135686700Y-99749400D01*
X133756300Y-98784200D02*
X134518300Y-98784200D01*
X134746900Y-102314800D02*
X135102500Y-102314800D01*
X135407300Y-102518000D02*
X135864500Y-102518000D01*
X132308500Y-102238600D02*
X133629300Y-102238600D01*
X134721500Y-102213200D02*
X135991500Y-102213200D01*
X132613300Y-101756000D02*
X133807100Y-101756000D01*
X134619900Y-100333600D02*
X136194700Y-100333600D01*
X134619900Y-101959200D02*
X135940700Y-101959200D01*
X134772300Y-102391000D02*
X134924700Y-102391000D01*
X132511700Y-100155800D02*
X133959500Y-100155800D01*
X134772300Y-100867000D02*
X136499500Y-100867000D01*
X134772300Y-100765400D02*
X136499500Y-100765400D01*
X133705500Y-99063600D02*
X134569100Y-99063600D01*
X132359300Y-102111600D02*
X133680100Y-102111600D01*
X131927500Y-101070200D02*
X133629300Y-101070200D01*
X134492900Y-100232000D02*
X135813700Y-100232000D01*
X134645300Y-102060800D02*
X136016900Y-102060800D01*
X131800500Y-100765400D02*
X133527700Y-100765400D01*
X131825900Y-100994000D02*
X133578500Y-100994000D01*
X132359300Y-102086200D02*
X133680100Y-102086200D01*
X132638700Y-101730600D02*
X133807100Y-101730600D01*
X132562500Y-101502000D02*
X133883300Y-101502000D01*
X132613300Y-101629000D02*
X133832500Y-101629000D01*
X133807100Y-98631800D02*
X134492900Y-98631800D01*
X132714900Y-98911200D02*
X132791100Y-98911200D01*
X132435500Y-99165200D02*
X133146700Y-99165200D01*
X132308500Y-99343000D02*
X135966100Y-99343000D01*
X132460900Y-102391000D02*
X133146700Y-102391000D01*
X135407300Y-98962000D02*
X135635900Y-98962000D01*
X135254900Y-102365600D02*
X135864500Y-102365600D01*
X135331100Y-99012800D02*
X135712100Y-99012800D01*
X134442100Y-101502000D02*
X135737500Y-101502000D01*
X132638700Y-99851000D02*
X135635900Y-99851000D01*
X132638700Y-99876400D02*
X135661300Y-99876400D01*
X135127900Y-99139800D02*
X135839100Y-99139800D01*
X133730900Y-98936600D02*
X134543700Y-98936600D01*
X132613300Y-101603600D02*
X133857900Y-101603600D01*
X132460900Y-101273400D02*
X133807100Y-101273400D01*
X132460900Y-100282800D02*
X133730900Y-100282800D01*
X132613300Y-102645000D02*
X132841900Y-102645000D01*
X134391300Y-101324200D02*
X135813700Y-101324200D01*
X132384700Y-102314800D02*
X133603900Y-102314800D01*
X132308500Y-102187800D02*
X133654700Y-102187800D01*
X132511700Y-102441800D02*
X133070500Y-102441800D01*
X135458100Y-102543400D02*
X135864500Y-102543400D01*
X131825900Y-100460600D02*
X133603900Y-100460600D01*
X134645300Y-100384400D02*
X136448700Y-100384400D01*
X132435500Y-100333600D02*
X133680100Y-100333600D01*
X132613300Y-99800200D02*
X135661300Y-99800200D01*
X132613300Y-99927200D02*
X135686700Y-99927200D01*
X132486300Y-100181200D02*
X133883300Y-100181200D01*
X132333900Y-99266800D02*
X135940700Y-99266800D01*
X134594500Y-101883000D02*
X135889900Y-101883000D01*
X134543700Y-101781400D02*
X135813700Y-101781400D01*
X134467500Y-101603600D02*
X135686700Y-101603600D01*
X135102500Y-99165200D02*
X135864500Y-99165200D01*
X134543700Y-100257400D02*
X135839100Y-100257400D01*
X132562500Y-99724000D02*
X135712100Y-99724000D01*
X132130700Y-100384400D02*
X133654700Y-100384400D01*
X133756300Y-98860400D02*
X134543700Y-98860400D01*
X132562500Y-102543400D02*
X132918100Y-102543400D01*
X135483500Y-98911200D02*
X135585100Y-98911200D01*
X134518300Y-101705200D02*
X135762900Y-101705200D01*
X133807100Y-98555600D02*
X134492900Y-98555600D01*
X134543700Y-101806800D02*
X135839100Y-101806800D01*
X132333900Y-99368400D02*
X135966100Y-99368400D01*
X134391300Y-101349600D02*
X135813700Y-101349600D01*
X132460900Y-100257400D02*
X133756300Y-100257400D01*
X132664100Y-98962000D02*
X132867300Y-98962000D01*
X131800500Y-100689200D02*
X133527700Y-100689200D01*
X132486300Y-99114400D02*
X133070500Y-99114400D01*
X134670700Y-101095600D02*
X135966100Y-101095600D01*
X134416700Y-101451200D02*
X135762900Y-101451200D01*
X131825900Y-101044800D02*
X133603900Y-101044800D01*
X134797700Y-102441800D02*
X134823100Y-102441800D01*
X132511700Y-99647800D02*
X135762900Y-99647800D01*
X134746900Y-100917800D02*
X136499500Y-100917800D01*
X132537100Y-99673200D02*
X135737500Y-99673200D01*
X132537100Y-101476600D02*
X133908700Y-101476600D01*
X132562500Y-102492600D02*
X132994300Y-102492600D01*
X134492900Y-101273400D02*
X135839100Y-101273400D01*
X132460900Y-100308200D02*
X133705500Y-100308200D01*
X134416700Y-101425800D02*
X135762900Y-101425800D01*
X133807100Y-98530200D02*
X134492900Y-98530200D01*
X132486300Y-100232000D02*
X133807100Y-100232000D01*
X132410100Y-99495400D02*
X135864500Y-99495400D01*
X134594500Y-101197200D02*
X135839100Y-101197200D01*
X134467500Y-101552800D02*
X135712100Y-101552800D01*
X134746900Y-100562200D02*
X136474100Y-100562200D01*
X132664100Y-102695800D02*
X132816500Y-102695800D01*
X134696100Y-100460600D02*
X136474100Y-100460600D01*
X132613300Y-99774800D02*
X135661300Y-99774800D01*
X132384700Y-99470000D02*
X135889900Y-99470000D01*
X134492900Y-101654400D02*
X135712100Y-101654400D01*
X131825900Y-100511400D02*
X133578500Y-100511400D01*
X134619900Y-101171800D02*
X135864500Y-101171800D01*
X133730900Y-99038200D02*
X134569100Y-99038200D01*
X131800500Y-100790800D02*
X133527700Y-100790800D01*
X135559700Y-102594200D02*
X135839100Y-102594200D01*
X133781700Y-98733400D02*
X134518300Y-98733400D01*
X132333900Y-102137000D02*
X133654700Y-102137000D01*
X135305700Y-102416400D02*
X135864500Y-102416400D01*
X135153300Y-102314800D02*
X135915300Y-102314800D01*
X134492900Y-101629000D02*
X135712100Y-101629000D01*
X132562500Y-100003400D02*
X135737500Y-100003400D01*
X135305700Y-102441800D02*
X135864500Y-102441800D01*
X132359300Y-102289400D02*
X133603900Y-102289400D01*
X134391300Y-101400400D02*
X135788300Y-101400400D01*
X132511700Y-100105000D02*
X135762900Y-100105000D01*
X132587900Y-102594200D02*
X132867300Y-102594200D01*
X132537100Y-99063600D02*
X132994300Y-99063600D01*
X132410100Y-99190600D02*
X133172100Y-99190600D01*
X134772300Y-100638400D02*
X136474100Y-100638400D01*
X132410100Y-102340200D02*
X133603900Y-102340200D01*
X132511700Y-99622400D02*
X135788300Y-99622400D01*
X131800500Y-100841600D02*
X133527700Y-100841600D01*
X132435500Y-102365600D02*
X133197500Y-102365600D01*
X133730900Y-98962000D02*
X134543700Y-98962000D01*
X132562500Y-102568800D02*
X132892700Y-102568800D01*
X131825900Y-100613000D02*
X133553100Y-100613000D01*
X134645300Y-100359000D02*
X136347100Y-100359000D01*
X131825900Y-100943200D02*
X133553100Y-100943200D01*
X132410100Y-102035400D02*
X133705500Y-102035400D01*
X132537100Y-101857600D02*
X133756300Y-101857600D01*
X132587900Y-99978000D02*
X135712100Y-99978000D01*
X132308500Y-102162400D02*
X133654700Y-102162400D01*
X133426100Y-99165200D02*
X134873900Y-99165200D01*
X134543700Y-101222600D02*
X135839100Y-101222600D01*
D13*
%TO.C,R2*%
X139393000Y-106635000D02*
X137107000Y-106635000D01*
X137107000Y-106635000D02*
X137107000Y-105365000D01*
X137107000Y-105365000D02*
X139393000Y-105365000D01*
X139393000Y-105365000D02*
X139393000Y-106635000D01*
%TO.C,C9*%
X159493000Y-103365000D02*
X159493000Y-104635000D01*
X157207000Y-103365000D02*
X159493000Y-103365000D01*
X157207000Y-104635000D02*
X157207000Y-103365000D01*
X159493000Y-104635000D02*
X157207000Y-104635000D01*
%TO.C,D1*%
X135350000Y-106325000D02*
X134150000Y-106325000D01*
X134150000Y-103675000D02*
X135350000Y-103675000D01*
X134150000Y-104275000D02*
X134750000Y-103675000D01*
%TO.C,C11*%
X166945000Y-97097000D02*
X168215000Y-97097000D01*
X168215000Y-99383000D02*
X166945000Y-99383000D01*
X166945000Y-99383000D02*
X166945000Y-97097000D01*
X168215000Y-97097000D02*
X168215000Y-99383000D01*
%TO.C,C4*%
X141238000Y-111242000D02*
X141238000Y-110226000D01*
X142762000Y-113274000D02*
X141238000Y-113274000D01*
X141238000Y-113274000D02*
X141238000Y-112258000D01*
X142762000Y-110226000D02*
X142762000Y-111242000D01*
X141238000Y-110226000D02*
X142762000Y-110226000D01*
X142762000Y-112258000D02*
X142762000Y-113274000D01*
%TO.C,R1*%
X140635000Y-106857000D02*
X140635000Y-109143000D01*
X140635000Y-109143000D02*
X139365000Y-109143000D01*
X139365000Y-109143000D02*
X139365000Y-106857000D01*
X139365000Y-106857000D02*
X140635000Y-106857000D01*
D15*
%TO.C,U5*%
X166000000Y-97950000D02*
X166000000Y-98500000D01*
X158000000Y-99250000D02*
X158000000Y-99750000D01*
X166000000Y-102500000D02*
X158000000Y-102500000D01*
X158000000Y-96500000D02*
X166000000Y-96500000D01*
X158000000Y-102500000D02*
X158000000Y-101800000D01*
X166000000Y-100500000D02*
X166000000Y-101050000D01*
X166000000Y-102500000D02*
X166000000Y-101800000D01*
X166000000Y-99250000D02*
X166000000Y-99750000D01*
X158000000Y-100500000D02*
X158000000Y-101050000D01*
X166000000Y-96500000D02*
X166000000Y-97200000D01*
X158000000Y-97200000D02*
X158000000Y-96500000D01*
X158000000Y-98500000D02*
X158000000Y-97950000D01*
D13*
%TO.C,U3*%
X156833000Y-108742000D02*
X157341000Y-108742000D01*
X156833000Y-107345000D02*
X156833000Y-111028000D01*
X162167000Y-107345000D02*
X156833000Y-107345000D01*
X156833000Y-111155000D02*
X162167000Y-111155000D01*
X157341000Y-109758000D02*
X156833000Y-109758000D01*
X156833000Y-111028000D02*
X156833000Y-111155000D01*
X162167000Y-107345000D02*
X162167000Y-111155000D01*
X157341000Y-108742000D02*
X157341000Y-109758000D01*
D12*
%TO.C,U1*%
X152000000Y-101500000D02*
X151700000Y-101500000D01*
X152000000Y-108500000D02*
X152000000Y-108200000D01*
X145000000Y-101500000D02*
X145000000Y-101800000D01*
X145000000Y-108500000D02*
X145000000Y-108200000D01*
X152000000Y-108500000D02*
X151700000Y-108500000D01*
X152000000Y-101500000D02*
X152000000Y-101800000D01*
X145000000Y-108500000D02*
X145300000Y-108500000D01*
X145000000Y-101500000D02*
X145300000Y-101500000D01*
X146107609Y-102206000D02*
G75*
G03*
X146107609Y-102206000I-401609J0D01*
G01*
D13*
%TO.C,C2*%
X127115000Y-113143000D02*
X127115000Y-110857000D01*
X128385000Y-110857000D02*
X128385000Y-113143000D01*
X128385000Y-113143000D02*
X127115000Y-113143000D01*
X127115000Y-110857000D02*
X128385000Y-110857000D01*
%TO.C,R4*%
X141357000Y-96615000D02*
X143643000Y-96615000D01*
X143643000Y-97885000D02*
X141357000Y-97885000D01*
X143643000Y-96615000D02*
X143643000Y-97885000D01*
X141357000Y-97885000D02*
X141357000Y-96615000D01*
%TO.C,C8*%
X142107000Y-100635000D02*
X142107000Y-99365000D01*
X142107000Y-99365000D02*
X144393000Y-99365000D01*
X144393000Y-99365000D02*
X144393000Y-100635000D01*
X144393000Y-100635000D02*
X142107000Y-100635000D01*
D10*
%TO.C,J1*%
X125750000Y-99900000D02*
X129550000Y-99900000D01*
X125750000Y-98975000D02*
X110750000Y-98975000D01*
X110750000Y-111025000D02*
X125750000Y-111025000D01*
X125750000Y-111025000D02*
X125750000Y-110100000D01*
X125750000Y-110100000D02*
X129550000Y-110100000D01*
X110750000Y-98975000D02*
X110750000Y-111025000D01*
X129550000Y-99900000D02*
X129550000Y-110100000D01*
X125750000Y-98975000D02*
X125750000Y-99900000D01*
D13*
%TO.C,C3*%
X140762000Y-110226000D02*
X140762000Y-111242000D01*
X139238000Y-110226000D02*
X140762000Y-110226000D01*
X140762000Y-112258000D02*
X140762000Y-113274000D01*
X140762000Y-113274000D02*
X139238000Y-113274000D01*
X139238000Y-111242000D02*
X139238000Y-110226000D01*
X139238000Y-113274000D02*
X139238000Y-112258000D01*
%TO.C,U4*%
X164841000Y-108742000D02*
X164841000Y-109758000D01*
X164333000Y-107345000D02*
X164333000Y-111028000D01*
X169667000Y-107345000D02*
X169667000Y-111155000D01*
X169667000Y-107345000D02*
X164333000Y-107345000D01*
X164333000Y-108742000D02*
X164841000Y-108742000D01*
X164841000Y-109758000D02*
X164333000Y-109758000D01*
X164333000Y-111155000D02*
X169667000Y-111155000D01*
X164333000Y-111028000D02*
X164333000Y-111155000D01*
D15*
%TO.C,X1*%
X140650000Y-101250000D02*
X141850000Y-101250000D01*
X140650000Y-102750000D02*
X141850000Y-102750000D01*
D13*
%TO.C,C6*%
X142135000Y-106857000D02*
X142135000Y-109143000D01*
X140865000Y-109143000D02*
X140865000Y-106857000D01*
X140865000Y-106857000D02*
X142135000Y-106857000D01*
X142135000Y-109143000D02*
X140865000Y-109143000D01*
%TO.C,C5*%
X143393000Y-105635000D02*
X141107000Y-105635000D01*
X141107000Y-105635000D02*
X141107000Y-104365000D01*
X141107000Y-104365000D02*
X143393000Y-104365000D01*
X143393000Y-104365000D02*
X143393000Y-105635000D01*
%TO.C,C7*%
X138107000Y-99365000D02*
X140393000Y-99365000D01*
X138107000Y-100635000D02*
X138107000Y-99365000D01*
X140393000Y-100635000D02*
X138107000Y-100635000D01*
X140393000Y-99365000D02*
X140393000Y-100635000D01*
%TO.C,R3*%
X139393000Y-104635000D02*
X137107000Y-104635000D01*
X137107000Y-103365000D02*
X139393000Y-103365000D01*
X139393000Y-103365000D02*
X139393000Y-104635000D01*
X137107000Y-104635000D02*
X137107000Y-103365000D01*
%TD*%
M02*
